<?xml version="1.0" encoding="UTF-8"?>
<svg id="_图层_1" data-name="图层 1" xmlns="http://www.w3.org/2000/svg" viewBox="0 0 1000 1000">
  <defs>
    <style>
      .cls-1 {
        stroke: #ffa6a6;
        stroke-width: .600000023841858px;
      }

      .cls-1, .cls-2 {
        fill: none;
      }

      .cls-1, .cls-2, .cls-3, .cls-4 {
        stroke-miterlimit: 10;
      }

      .cls-2 {
        stroke: #a4e1ff;
        stroke-width: .75px;
      }

      .cls-5 {
        fill: #001738;
      }

      .cls-3 {
        fill: #a4e1ff;
      }

      .cls-3, .cls-4 {
        stroke: #000;
      }

      .cls-4 {
        fill: #ffb92e;
      }
    </style>
  </defs>
  <rect class="cls-5" x="-9.67544375176476" y="-16.2812921748382" width="1028.959855923134455" height="1028.959855923135365"/>
  <circle class="cls-1" cx="377.569037133559505" cy="624.047919305326559" r="18.248927991691719"/>
  <circle class="cls-1" cx="428.733226310919235" cy="383.465159279701084" r="203.412945150189529"/>
  <circle class="cls-1" cx="640.007718650775132" cy="562.647618764378194" r="174.945273595410356"/>
  <circle class="cls-1" cx="291.152961629473339" cy="618.000101628440461" r="24.899650381649174"/>
  <circle class="cls-1" cx="322.180418455883228" cy="636.207096848143919" r="18.73608698234175"/>
  <circle class="cls-1" cx="487.445858023615529" cy="166.746986452611281" r="55.496659892323535"/>
  <g>
    <g>
      <g>
        <rect class="cls-2" x="296.493212818733809" y="38.004851101621171" width="12.345679012345499" height="12.345679012345499"/>
        <rect class="cls-2" x="308.838891831079309" y="38.004851101621171" width="12.345679012347318" height="12.345679012345499"/>
        <rect class="cls-2" x="321.184570843426627" y="38.004851101621171" width="12.345679012345499" height="12.345679012345499"/>
        <rect class="cls-2" x="296.493212818733809" y="50.35053011396667" width="12.345679012345499" height="12.345679012346409"/>
        <rect class="cls-2" x="308.838891831079309" y="50.35053011396667" width="12.345679012347318" height="12.345679012346409"/>
        <rect class="cls-2" x="321.184570843426627" y="50.35053011396667" width="12.345679012345499" height="12.345679012346409"/>
        <rect class="cls-2" x="296.493212818733809" y="62.696209126313079" width="12.345679012345499" height="12.345679012345499"/>
        <rect class="cls-2" x="308.838891831079309" y="62.696209126313079" width="12.345679012347318" height="12.345679012345499"/>
        <rect class="cls-2" x="321.184570843426627" y="62.696209126313079" width="12.345679012345499" height="12.345679012345499"/>
      </g>
      <g>
        <rect class="cls-2" x="630.044655081399469" y="556.517376425677867" width="12.345679012345499" height="12.345679012345499"/>
        <rect class="cls-2" x="642.390334093744968" y="556.517376425677867" width="12.345679012347318" height="12.345679012345499"/>
        <rect class="cls-2" x="654.736013106092287" y="556.517376425677867" width="12.345679012345499" height="12.345679012345499"/>
        <rect class="cls-2" x="630.044655081399469" y="568.863055438023366" width="12.345679012345499" height="12.345679012347318"/>
        <rect class="cls-2" x="642.390334093744968" y="568.863055438023366" width="12.345679012347318" height="12.345679012347318"/>
        <rect class="cls-2" x="654.736013106092287" y="568.863055438023366" width="12.345679012345499" height="12.345679012347318"/>
        <rect class="cls-2" x="630.044655081399469" y="581.208734450370684" width="12.345679012345499" height="12.345679012345499"/>
        <rect class="cls-2" x="642.390334093744968" y="581.208734450370684" width="12.345679012347318" height="12.345679012345499"/>
        <rect class="cls-2" x="654.736013106092287" y="581.208734450370684" width="12.345679012345499" height="12.345679012345499"/>
      </g>
      <g>
        <rect class="cls-2" x="149.677362752161571" y="334.578134786679584" width="12.345679012345499" height="12.345679012345499"/>
        <rect class="cls-2" x="162.02304176450707" y="334.578134786679584" width="12.345679012347318" height="12.345679012345499"/>
        <rect class="cls-2" x="174.368720776854389" y="334.578134786679584" width="12.345679012345499" height="12.345679012345499"/>
        <rect class="cls-2" x="149.677362752161571" y="346.923813799025083" width="12.345679012345499" height="12.345679012347318"/>
        <rect class="cls-2" x="162.02304176450707" y="346.923813799025083" width="12.345679012347318" height="12.345679012347318"/>
        <rect class="cls-2" x="174.368720776854389" y="346.923813799025083" width="12.345679012345499" height="12.345679012347318"/>
        <rect class="cls-2" x="149.677362752161571" y="359.269492811372402" width="12.345679012345499" height="12.345679012345499"/>
        <rect class="cls-2" x="162.02304176450707" y="359.269492811372402" width="12.345679012347318" height="12.345679012345499"/>
        <rect class="cls-2" x="174.368720776854389" y="359.269492811372402" width="12.345679012345499" height="12.345679012345499"/>
      </g>
      <g>
        <rect class="cls-2" x="408.433855671913989" y="556.104871201974674" width="12.345679012345499" height="12.345679012345499"/>
        <rect class="cls-2" x="420.779534684259488" y="556.104871201974674" width="12.345679012347318" height="12.345679012345499"/>
        <rect class="cls-2" x="433.125213696606806" y="556.104871201974674" width="12.345679012345499" height="12.345679012345499"/>
        <rect class="cls-2" x="408.433855671913989" y="568.450550214320174" width="12.345679012345499" height="12.345679012347318"/>
        <rect class="cls-2" x="420.779534684259488" y="568.450550214320174" width="12.345679012347318" height="12.345679012347318"/>
        <rect class="cls-2" x="433.125213696606806" y="568.450550214320174" width="12.345679012345499" height="12.345679012347318"/>
        <rect class="cls-2" x="408.433855671913989" y="580.796229226667492" width="12.345679012345499" height="12.345679012345499"/>
        <rect class="cls-2" x="420.779534684259488" y="580.796229226667492" width="12.345679012347318" height="12.345679012345499"/>
        <rect class="cls-2" x="433.125213696606806" y="580.796229226667492" width="12.345679012345499" height="12.345679012345499"/>
      </g>
      <g>
        <rect class="cls-2" x="259.56197520097885" y="592.73637633603721" width="12.345679012345499" height="12.345679012345499"/>
        <rect class="cls-2" x="271.907654213324349" y="592.73637633603721" width="12.345679012347318" height="12.345679012345499"/>
        <rect class="cls-2" x="284.253333225671668" y="592.73637633603721" width="12.345679012345499" height="12.345679012345499"/>
        <rect class="cls-2" x="259.56197520097885" y="605.08205534838271" width="12.345679012345499" height="12.345679012347318"/>
        <rect class="cls-2" x="271.907654213324349" y="605.08205534838271" width="12.345679012347318" height="12.345679012347318"/>
        <rect class="cls-2" x="284.253333225671668" y="605.08205534838271" width="12.345679012345499" height="12.345679012347318"/>
        <rect class="cls-2" x="259.56197520097885" y="617.427734360730028" width="12.345679012345499" height="12.345679012345499"/>
        <rect class="cls-2" x="271.907654213324349" y="617.427734360730028" width="12.345679012347318" height="12.345679012345499"/>
        <rect class="cls-2" x="284.253333225671668" y="617.427734360730028" width="12.345679012345499" height="12.345679012345499"/>
      </g>
      <g>
        <rect class="cls-2" x="297.456635684487992" y="592.73637633603721" width="12.345679012345499" height="12.345679012345499"/>
        <rect class="cls-2" x="309.802314696833491" y="592.73637633603721" width="12.345679012347318" height="12.345679012345499"/>
        <rect class="cls-2" x="322.14799370918081" y="592.73637633603721" width="12.345679012345499" height="12.345679012345499"/>
        <rect class="cls-2" x="297.456635684487992" y="605.08205534838271" width="12.345679012345499" height="12.345679012347318"/>
        <rect class="cls-2" x="309.802314696833491" y="605.08205534838271" width="12.345679012347318" height="12.345679012347318"/>
        <rect class="cls-2" x="322.14799370918081" y="605.08205534838271" width="12.345679012345499" height="12.345679012347318"/>
        <rect class="cls-2" x="297.456635684487992" y="617.427734360730028" width="12.345679012345499" height="12.345679012345499"/>
        <rect class="cls-2" x="309.802314696833491" y="617.427734360730028" width="12.345679012347318" height="12.345679012345499"/>
        <rect class="cls-2" x="322.14799370918081" y="617.427734360730028" width="12.345679012345499" height="12.345679012345499"/>
      </g>
      <g>
        <rect class="cls-2" x="334.629493111169722" y="592.73637633603721" width="12.345679012345499" height="12.345679012345499"/>
        <rect class="cls-2" x="346.975172123515222" y="592.73637633603721" width="12.345679012347318" height="12.345679012345499"/>
        <rect class="cls-2" x="359.32085113586254" y="592.73637633603721" width="12.345679012345499" height="12.345679012345499"/>
        <rect class="cls-2" x="334.629493111169722" y="605.08205534838271" width="12.345679012345499" height="12.345679012347318"/>
        <rect class="cls-2" x="346.975172123515222" y="605.08205534838271" width="12.345679012347318" height="12.345679012347318"/>
        <rect class="cls-2" x="359.32085113586254" y="605.08205534838271" width="12.345679012345499" height="12.345679012347318"/>
        <rect class="cls-2" x="334.629493111169722" y="617.427734360730028" width="12.345679012345499" height="12.345679012345499"/>
        <rect class="cls-2" x="346.975172123515222" y="617.427734360730028" width="12.345679012347318" height="12.345679012345499"/>
        <rect class="cls-2" x="359.32085113586254" y="617.427734360730028" width="12.345679012345499" height="12.345679012345499"/>
      </g>
      <g>
        <rect class="cls-2" x="370.900096716815824" y="592.73637633603721" width="12.345679012345499" height="12.345679012345499"/>
        <rect class="cls-2" x="383.245775729161323" y="592.73637633603721" width="12.345679012347318" height="12.345679012345499"/>
        <rect class="cls-2" x="395.591454741508642" y="592.73637633603721" width="12.345679012345499" height="12.345679012345499"/>
        <rect class="cls-2" x="370.900096716815824" y="605.08205534838271" width="12.345679012345499" height="12.345679012347318"/>
        <rect class="cls-2" x="383.245775729161323" y="605.08205534838271" width="12.345679012347318" height="12.345679012347318"/>
        <rect class="cls-2" x="395.591454741508642" y="605.08205534838271" width="12.345679012345499" height="12.345679012347318"/>
        <rect class="cls-2" x="370.900096716815824" y="617.427734360730028" width="12.345679012345499" height="12.345679012345499"/>
        <rect class="cls-2" x="383.245775729161323" y="617.427734360730028" width="12.345679012347318" height="12.345679012345499"/>
        <rect class="cls-2" x="395.591454741508642" y="617.427734360730028" width="12.345679012345499" height="12.345679012345499"/>
      </g>
      <g>
        <rect class="cls-2" x="370.900096716815824" y="629.570888579830353" width="12.345679012345499" height="12.345679012345499"/>
        <rect class="cls-2" x="383.245775729161323" y="629.570888579830353" width="12.345679012347318" height="12.345679012345499"/>
        <rect class="cls-2" x="395.591454741508642" y="629.570888579830353" width="12.345679012345499" height="12.345679012345499"/>
        <rect class="cls-2" x="370.900096716815824" y="641.916567592175852" width="12.345679012345499" height="12.345679012347318"/>
        <rect class="cls-2" x="383.245775729161323" y="641.916567592175852" width="12.345679012347318" height="12.345679012347318"/>
        <rect class="cls-2" x="395.591454741508642" y="641.916567592175852" width="12.345679012345499" height="12.345679012347318"/>
        <rect class="cls-2" x="370.900096716815824" y="654.26224660452317" width="12.345679012345499" height="12.345679012345499"/>
        <rect class="cls-2" x="383.245775729161323" y="654.26224660452317" width="12.345679012347318" height="12.345679012345499"/>
        <rect class="cls-2" x="395.591454741508642" y="654.26224660452317" width="12.345679012345499" height="12.345679012345499"/>
      </g>
      <g>
        <rect class="cls-2" x="408.659419127172441" y="629.570888579830353" width="12.345679012345499" height="12.345679012345499"/>
        <rect class="cls-2" x="421.005098139517941" y="629.570888579830353" width="12.345679012347318" height="12.345679012345499"/>
        <rect class="cls-2" x="433.350777151865259" y="629.570888579830353" width="12.345679012345499" height="12.345679012345499"/>
        <rect class="cls-2" x="408.659419127172441" y="641.916567592175852" width="12.345679012345499" height="12.345679012347318"/>
        <rect class="cls-2" x="421.005098139517941" y="641.916567592175852" width="12.345679012347318" height="12.345679012347318"/>
        <rect class="cls-2" x="433.350777151865259" y="641.916567592175852" width="12.345679012345499" height="12.345679012347318"/>
        <rect class="cls-2" x="408.659419127172441" y="654.26224660452317" width="12.345679012345499" height="12.345679012345499"/>
        <rect class="cls-2" x="421.005098139517941" y="654.26224660452317" width="12.345679012347318" height="12.345679012345499"/>
        <rect class="cls-2" x="433.350777151865259" y="654.26224660452317" width="12.345679012345499" height="12.345679012345499"/>
      </g>
      <g>
        <rect class="cls-2" x="408.473329276583172" y="592.73637633603721" width="12.345679012345499" height="12.345679012345499"/>
        <rect class="cls-2" x="420.819008288928671" y="592.73637633603721" width="12.345679012347318" height="12.345679012345499"/>
        <rect class="cls-2" x="433.16468730127599" y="592.73637633603721" width="12.345679012345499" height="12.345679012345499"/>
        <rect class="cls-2" x="408.473329276583172" y="605.08205534838271" width="12.345679012345499" height="12.345679012347318"/>
        <rect class="cls-2" x="420.819008288928671" y="605.08205534838271" width="12.345679012347318" height="12.345679012347318"/>
        <rect class="cls-2" x="433.16468730127599" y="605.08205534838271" width="12.345679012345499" height="12.345679012347318"/>
        <rect class="cls-2" x="408.473329276583172" y="617.427734360730028" width="12.345679012345499" height="12.345679012345499"/>
        <rect class="cls-2" x="420.819008288928671" y="617.427734360730028" width="12.345679012347318" height="12.345679012345499"/>
        <rect class="cls-2" x="433.16468730127599" y="617.427734360730028" width="12.345679012345499" height="12.345679012345499"/>
      </g>
      <g>
        <rect class="cls-2" x="334.629493111169722" y="629.599084011737432" width="12.345679012345499" height="12.345679012345499"/>
        <rect class="cls-2" x="346.975172123515222" y="629.599084011737432" width="12.345679012347318" height="12.345679012345499"/>
        <rect class="cls-2" x="359.32085113586254" y="629.599084011737432" width="12.345679012345499" height="12.345679012345499"/>
        <rect class="cls-2" x="334.629493111169722" y="641.944763024082931" width="12.345679012345499" height="12.345679012347318"/>
        <rect class="cls-2" x="346.975172123515222" y="641.944763024082931" width="12.345679012347318" height="12.345679012347318"/>
        <rect class="cls-2" x="359.32085113586254" y="641.944763024082931" width="12.345679012345499" height="12.345679012347318"/>
        <rect class="cls-2" x="334.629493111169722" y="654.29044203643025" width="12.345679012345499" height="12.345679012345499"/>
        <rect class="cls-2" x="346.975172123515222" y="654.29044203643025" width="12.345679012347318" height="12.345679012345499"/>
        <rect class="cls-2" x="359.32085113586254" y="654.29044203643025" width="12.345679012345499" height="12.345679012345499"/>
      </g>
      <g>
        <rect class="cls-2" x="259.56197520097885" y="629.728782998510724" width="12.345679012345499" height="12.345679012345499"/>
        <rect class="cls-2" x="271.907654213324349" y="629.728782998510724" width="12.345679012347318" height="12.345679012345499"/>
        <rect class="cls-2" x="284.253333225671668" y="629.728782998510724" width="12.345679012345499" height="12.345679012345499"/>
        <rect class="cls-2" x="259.56197520097885" y="642.074462010856223" width="12.345679012345499" height="12.345679012347318"/>
        <rect class="cls-2" x="271.907654213324349" y="642.074462010856223" width="12.345679012347318" height="12.345679012347318"/>
        <rect class="cls-2" x="284.253333225671668" y="642.074462010856223" width="12.345679012345499" height="12.345679012347318"/>
        <rect class="cls-2" x="259.56197520097885" y="654.420141023203541" width="12.345679012345499" height="12.345679012345499"/>
        <rect class="cls-2" x="271.907654213324349" y="654.420141023203541" width="12.345679012347318" height="12.345679012345499"/>
        <rect class="cls-2" x="284.253333225671668" y="654.420141023203541" width="12.345679012345499" height="12.345679012345499"/>
      </g>
      <g>
        <rect class="cls-2" x="259.607087892029085" y="555.653744291459589" width="12.345679012345499" height="12.345679012345499"/>
        <rect class="cls-2" x="271.952766904374585" y="555.653744291459589" width="12.345679012347318" height="12.345679012345499"/>
        <rect class="cls-2" x="284.298445916721903" y="555.653744291459589" width="12.345679012345499" height="12.345679012345499"/>
        <rect class="cls-2" x="259.607087892029085" y="567.999423303805088" width="12.345679012345499" height="12.345679012347318"/>
        <rect class="cls-2" x="271.952766904374585" y="567.999423303805088" width="12.345679012347318" height="12.345679012347318"/>
        <rect class="cls-2" x="284.298445916721903" y="567.999423303805088" width="12.345679012345499" height="12.345679012347318"/>
        <rect class="cls-2" x="259.607087892029085" y="580.345102316152406" width="12.345679012345499" height="12.345679012345499"/>
        <rect class="cls-2" x="271.952766904374585" y="580.345102316152406" width="12.345679012347318" height="12.345679012345499"/>
        <rect class="cls-2" x="284.298445916721903" y="580.345102316152406" width="12.345679012345499" height="12.345679012345499"/>
      </g>
      <g>
        <rect class="cls-2" x="223.471822359539146" y="629.728782998510724" width="12.345679012345499" height="12.345679012345499"/>
        <rect class="cls-2" x="235.817501371884646" y="629.728782998510724" width="12.345679012347318" height="12.345679012345499"/>
        <rect class="cls-2" x="248.163180384231964" y="629.728782998510724" width="12.345679012345499" height="12.345679012345499"/>
        <rect class="cls-2" x="223.471822359539146" y="642.074462010856223" width="12.345679012345499" height="12.345679012347318"/>
        <rect class="cls-2" x="235.817501371884646" y="642.074462010856223" width="12.345679012347318" height="12.345679012347318"/>
        <rect class="cls-2" x="248.163180384231964" y="642.074462010856223" width="12.345679012345499" height="12.345679012347318"/>
        <rect class="cls-2" x="223.471822359539146" y="654.420141023203541" width="12.345679012345499" height="12.345679012345499"/>
        <rect class="cls-2" x="235.817501371884646" y="654.420141023203541" width="12.345679012347318" height="12.345679012345499"/>
        <rect class="cls-2" x="248.163180384231964" y="654.420141023203541" width="12.345679012345499" height="12.345679012345499"/>
      </g>
      <g>
        <rect class="cls-2" x="334.268591582756926" y="740.525552221726684" width="12.345679012345499" height="12.345679012345499"/>
        <rect class="cls-2" x="346.614270595102425" y="740.525552221726684" width="12.345679012347318" height="12.345679012345499"/>
        <rect class="cls-2" x="358.959949607449744" y="740.525552221726684" width="12.345679012345499" height="12.345679012345499"/>
        <rect class="cls-2" x="334.268591582756926" y="752.871231234072184" width="12.345679012345499" height="12.345679012347318"/>
        <rect class="cls-2" x="346.614270595102425" y="752.871231234072184" width="12.345679012347318" height="12.345679012347318"/>
        <rect class="cls-2" x="358.959949607449744" y="752.871231234072184" width="12.345679012345499" height="12.345679012347318"/>
        <rect class="cls-2" x="334.268591582756926" y="765.216910246419502" width="12.345679012345499" height="12.345679012345499"/>
        <rect class="cls-2" x="346.614270595102425" y="765.216910246419502" width="12.345679012347318" height="12.345679012345499"/>
        <rect class="cls-2" x="358.959949607449744" y="765.216910246419502" width="12.345679012345499" height="12.345679012345499"/>
      </g>
      <g>
        <rect class="cls-2" x="518.5088218382989" y="148.331256784765174" width="12.345679012345499" height="12.345679012345499"/>
        <rect class="cls-2" x="530.854500850644399" y="148.331256784765174" width="12.345679012347318" height="12.345679012345499"/>
        <rect class="cls-2" x="543.200179862991718" y="148.331256784765174" width="12.345679012345499" height="12.345679012345499"/>
        <rect class="cls-2" x="518.5088218382989" y="160.676935797110673" width="12.345679012345499" height="12.345679012347318"/>
        <rect class="cls-2" x="530.854500850644399" y="160.676935797110673" width="12.345679012347318" height="12.345679012347318"/>
        <rect class="cls-2" x="543.200179862991718" y="160.676935797110673" width="12.345679012345499" height="12.345679012347318"/>
        <rect class="cls-2" x="518.5088218382989" y="173.022614809457991" width="12.345679012345499" height="12.345679012345499"/>
        <rect class="cls-2" x="530.854500850644399" y="173.022614809457991" width="12.345679012347318" height="12.345679012345499"/>
        <rect class="cls-2" x="543.200179862991718" y="173.022614809457991" width="12.345679012345499" height="12.345679012345499"/>
      </g>
      <g>
        <rect class="cls-2" x="297.456635684489811" y="629.728782998510724" width="12.345679012345499" height="12.345679012345499"/>
        <rect class="cls-2" x="309.80231469683531" y="629.728782998510724" width="12.345679012347318" height="12.345679012345499"/>
        <rect class="cls-2" x="322.147993709182629" y="629.728782998510724" width="12.345679012345499" height="12.345679012345499"/>
        <rect class="cls-2" x="297.456635684489811" y="642.074462010856223" width="12.345679012345499" height="12.345679012347318"/>
        <rect class="cls-2" x="309.80231469683531" y="642.074462010856223" width="12.345679012347318" height="12.345679012347318"/>
        <rect class="cls-2" x="322.147993709182629" y="642.074462010856223" width="12.345679012345499" height="12.345679012347318"/>
        <rect class="cls-2" x="297.456635684489811" y="654.420141023203541" width="12.345679012345499" height="12.345679012345499"/>
        <rect class="cls-2" x="309.80231469683531" y="654.420141023203541" width="12.345679012347318" height="12.345679012345499"/>
        <rect class="cls-2" x="322.147993709182629" y="654.420141023203541" width="12.345679012345499" height="12.345679012345499"/>
      </g>
    </g>
    <g>
      <g>
        <rect class="cls-2" x="333.665167243609176" y=".35439025580763" width="111.111111111111313" height="111.111111111111313"/>
        <rect class="cls-2" x="444.776278354720489" y=".35439025580763" width="111.111111111111313" height="111.111111111111313"/>
        <rect class="cls-2" x="555.887389465831802" y=".35439025580763" width="111.111111111109494" height="111.111111111111313"/>
        <rect class="cls-2" x="333.665167243609176" y="111.465501366918943" width="111.111111111111313" height="111.111111111111313"/>
        <rect class="cls-2" x="444.776278354720489" y="111.465501366918943" width="111.111111111111313" height="111.111111111111313"/>
        <rect class="cls-2" x="555.887389465831802" y="111.465501366918943" width="111.111111111109494" height="111.111111111111313"/>
        <rect class="cls-2" x="333.665167243609176" y="222.576612478030256" width="111.111111111111313" height="111.111111111111313"/>
        <rect class="cls-2" x="444.776278354720489" y="222.576612478030256" width="111.111111111111313" height="111.111111111111313"/>
        <rect class="cls-2" x="555.887389465831802" y="222.576612478030256" width="111.111111111109494" height="111.111111111111313"/>
      </g>
      <rect class="cls-2" x="666.998500576941296" y=".35439025580763" width="333.33333333333394" height="333.33333333333394"/>
      <rect class="cls-2" x="333.665167243609176" y="333.687723589141569" width="111.111111111111313" height="111.111111111111313"/>
      <rect class="cls-2" x="444.776278354720489" y="333.687723589141569" width="111.111111111111313" height="111.111111111111313"/>
      <rect class="cls-2" x="555.887389465831802" y="333.687723589141569" width="111.111111111109494" height="111.111111111111313"/>
      <rect class="cls-2" x="333.665167243609176" y="444.798834700252883" width="111.111111111111313" height="111.111111111110404"/>
      <rect class="cls-2" x="444.776278354720489" y="444.798834700252883" width="111.111111111111313" height="111.111111111110404"/>
      <rect class="cls-2" x="555.887389465831802" y="444.798834700252883" width="111.111111111109494" height="111.111111111110404"/>
      <rect class="cls-2" x="333.665167243609176" y="555.909945811363286" width="111.111111111111313" height="111.111111111111313"/>
      <rect class="cls-2" x="444.776278354720489" y="555.909945811363286" width="111.111111111111313" height="111.111111111111313"/>
      <rect class="cls-2" x="555.887389465831802" y="555.909945811363286" width="111.111111111109494" height="111.111111111111313"/>
      <g>
        <rect class="cls-2" x=".331833910275236" y="333.687723589141569" width="111.111111111111313" height="111.111111111111313"/>
        <rect class="cls-2" x="111.442945021386549" y="333.687723589141569" width="111.111111111111313" height="111.111111111111313"/>
        <rect class="cls-2" x="222.554056132497863" y="333.687723589141569" width="111.111111111111313" height="111.111111111111313"/>
        <rect class="cls-2" x=".331833910275236" y="444.798834700252883" width="111.111111111111313" height="111.111111111110404"/>
        <rect class="cls-2" x="111.442945021386549" y="444.798834700252883" width="111.111111111111313" height="111.111111111110404"/>
        <rect class="cls-2" x="222.554056132497863" y="444.798834700252883" width="111.111111111111313" height="111.111111111110404"/>
        <rect class="cls-2" x=".331833910275236" y="555.909945811363286" width="111.111111111111313" height="111.111111111111313"/>
        <rect class="cls-2" x="111.442945021386549" y="555.909945811363286" width="111.111111111111313" height="111.111111111111313"/>
        <rect class="cls-2" x="222.554056132497863" y="555.909945811363286" width="111.111111111111313" height="111.111111111111313"/>
      </g>
      <g>
        <rect class="cls-2" x=".331833910275236" y=".35439025580763" width="111.111111111111313" height="111.111111111111313"/>
        <rect class="cls-2" x="111.442945021386549" y=".35439025580763" width="111.111111111111313" height="111.111111111111313"/>
        <rect class="cls-2" x="222.554056132497863" y=".35439025580763" width="111.111111111111313" height="111.111111111111313"/>
        <rect class="cls-2" x=".331833910275236" y="111.465501366918943" width="111.111111111111313" height="111.111111111111313"/>
        <rect class="cls-2" x="111.442945021386549" y="111.465501366918943" width="111.111111111111313" height="111.111111111111313"/>
        <rect class="cls-2" x="222.554056132497863" y="111.465501366918943" width="111.111111111111313" height="111.111111111111313"/>
        <rect class="cls-2" x=".331833910275236" y="222.576612478030256" width="111.111111111111313" height="111.111111111111313"/>
        <rect class="cls-2" x="111.442945021386549" y="222.576612478030256" width="111.111111111111313" height="111.111111111111313"/>
        <rect class="cls-2" x="222.554056132497863" y="222.576612478030256" width="111.111111111111313" height="111.111111111111313"/>
      </g>
      <rect class="cls-2" x="333.665167243609176" y="667.0210569224746" width="111.111111111111313" height="111.111111111111313"/>
      <rect class="cls-2" x="444.776278354720489" y="667.0210569224746" width="111.111111111111313" height="111.111111111111313"/>
      <rect class="cls-2" x="555.887389465831802" y="667.0210569224746" width="111.111111111109494" height="111.111111111111313"/>
      <rect class="cls-2" x="333.665167243609176" y="778.132168033585913" width="111.111111111111313" height="111.111111111111313"/>
      <rect class="cls-2" x="444.776278354720489" y="778.132168033585913" width="111.111111111111313" height="111.111111111111313"/>
      <rect class="cls-2" x="555.887389465831802" y="778.132168033585913" width="111.111111111109494" height="111.111111111111313"/>
      <rect class="cls-2" x="333.665167243609176" y="889.243279144697226" width="111.111111111111313" height="111.111111111111313"/>
      <rect class="cls-2" x="444.776278354720489" y="889.243279144697226" width="111.111111111111313" height="111.111111111111313"/>
      <rect class="cls-2" x="555.887389465831802" y="889.243279144697226" width="111.111111111109494" height="111.111111111111313"/>
      <g>
        <rect class="cls-2" x="666.998500576941296" y="667.0210569224746" width="111.111111111111313" height="111.111111111111313"/>
        <rect class="cls-2" x="778.10961168805261" y="667.0210569224746" width="111.111111111111313" height="111.111111111111313"/>
        <rect class="cls-2" x="889.220722799163923" y="667.0210569224746" width="111.111111111111313" height="111.111111111111313"/>
        <rect class="cls-2" x="666.998500576941296" y="778.132168033585913" width="111.111111111111313" height="111.111111111111313"/>
        <rect class="cls-2" x="778.10961168805261" y="778.132168033585913" width="111.111111111111313" height="111.111111111111313"/>
        <rect class="cls-2" x="889.220722799163923" y="778.132168033585913" width="111.111111111111313" height="111.111111111111313"/>
        <rect class="cls-2" x="666.998500576941296" y="889.243279144697226" width="111.111111111111313" height="111.111111111111313"/>
        <rect class="cls-2" x="778.10961168805261" y="889.243279144697226" width="111.111111111111313" height="111.111111111111313"/>
        <rect class="cls-2" x="889.220722799163923" y="889.243279144697226" width="111.111111111111313" height="111.111111111111313"/>
      </g>
      <g>
        <rect class="cls-2" x="666.998500576941296" y="333.687723589141569" width="111.111111111111313" height="111.111111111111313"/>
        <rect class="cls-2" x="778.10961168805261" y="333.687723589141569" width="111.111111111111313" height="111.111111111111313"/>
        <rect class="cls-2" x="889.220722799163923" y="333.687723589141569" width="111.111111111111313" height="111.111111111111313"/>
        <rect class="cls-2" x="666.998500576941296" y="444.798834700252883" width="111.111111111111313" height="111.111111111110404"/>
        <rect class="cls-2" x="778.10961168805261" y="444.798834700252883" width="111.111111111111313" height="111.111111111110404"/>
        <rect class="cls-2" x="889.220722799163923" y="444.798834700252883" width="111.111111111111313" height="111.111111111110404"/>
        <rect class="cls-2" x="666.998500576941296" y="555.909945811363286" width="111.111111111111313" height="111.111111111111313"/>
        <rect class="cls-2" x="778.10961168805261" y="555.909945811363286" width="111.111111111111313" height="111.111111111111313"/>
        <rect class="cls-2" x="889.220722799163923" y="555.909945811363286" width="111.111111111111313" height="111.111111111111313"/>
      </g>
      <rect class="cls-2" x=".331833910275236" y="667.0210569224746" width="111.111111111111313" height="111.111111111111313"/>
      <rect class="cls-2" x="111.442945021386549" y="667.0210569224746" width="111.111111111111313" height="111.111111111111313"/>
      <rect class="cls-2" x="222.554056132497863" y="667.0210569224746" width="111.111111111111313" height="111.111111111111313"/>
      <rect class="cls-2" x=".331833910275236" y="778.132168033585913" width="111.111111111111313" height="111.111111111111313"/>
      <rect class="cls-2" x="111.442945021386549" y="778.132168033585913" width="111.111111111111313" height="111.111111111111313"/>
      <rect class="cls-2" x="222.554056132497863" y="778.132168033585913" width="111.111111111111313" height="111.111111111111313"/>
      <rect class="cls-2" x=".331833910275236" y="889.243279144697226" width="111.111111111111313" height="111.111111111111313"/>
      <rect class="cls-2" x="111.442945021386549" y="889.243279144697226" width="111.111111111111313" height="111.111111111111313"/>
      <rect class="cls-2" x="222.554056132497863" y="889.243279144697226" width="111.111111111111313" height="111.111111111111313"/>
    </g>
    <g>
      <g>
        <rect class="cls-2" x="556.132189315923824" y="111.422199811203427" width="37.037037037036498" height="37.037037037036498"/>
        <rect class="cls-2" x="593.169226352960322" y="111.422199811203427" width="37.037037037036498" height="37.037037037036498"/>
        <rect class="cls-2" x="630.20626338999682" y="111.422199811203427" width="37.037037037038317" height="37.037037037036498"/>
        <rect class="cls-2" x="556.132189315923824" y="148.459236848239925" width="37.037037037036498" height="37.037037037036498"/>
        <rect class="cls-2" x="593.169226352960322" y="148.459236848239925" width="37.037037037036498" height="37.037037037036498"/>
        <rect class="cls-2" x="630.20626338999682" y="148.459236848239925" width="37.037037037038317" height="37.037037037036498"/>
        <rect class="cls-2" x="556.132189315923824" y="185.496273885276423" width="37.037037037036498" height="37.037037037036498"/>
        <rect class="cls-2" x="593.169226352960322" y="185.496273885276423" width="37.037037037036498" height="37.037037037036498"/>
        <rect class="cls-2" x="630.20626338999682" y="185.496273885276423" width="37.037037037038317" height="37.037037037036498"/>
      </g>
      <g>
        <rect class="cls-2" x="222.659177061028458" y="111.997745910986851" width="37.037037037036498" height="37.037037037036498"/>
        <rect class="cls-2" x="259.696214098064956" y="111.997745910986851" width="37.037037037036498" height="37.037037037036498"/>
        <rect class="cls-2" x="296.733251135101455" y="111.997745910986851" width="37.037037037038317" height="37.037037037036498"/>
        <rect class="cls-2" x="222.659177061028458" y="149.034782948023349" width="37.037037037036498" height="37.037037037036498"/>
        <rect class="cls-2" x="259.696214098064956" y="149.034782948023349" width="37.037037037036498" height="37.037037037036498"/>
        <rect class="cls-2" x="296.733251135101455" y="149.034782948023349" width="37.037037037038317" height="37.037037037036498"/>
        <rect class="cls-2" x="222.659177061028458" y="186.071819985059847" width="37.037037037036498" height="37.037037037036498"/>
        <rect class="cls-2" x="259.696214098064956" y="186.071819985059847" width="37.037037037036498" height="37.037037037036498"/>
        <rect class="cls-2" x="296.733251135101455" y="186.071819985059847" width="37.037037037038317" height="37.037037037036498"/>
      </g>
      <g>
        <rect class="cls-2" x="111.681957073604281" y="111.997745910986851" width="37.037037037036498" height="37.037037037036498"/>
        <rect class="cls-2" x="148.718994110640779" y="111.997745910986851" width="37.037037037036498" height="37.037037037036498"/>
        <rect class="cls-2" x="185.756031147677277" y="111.997745910986851" width="37.037037037038317" height="37.037037037036498"/>
        <rect class="cls-2" x="111.681957073604281" y="149.034782948023349" width="37.037037037036498" height="37.037037037036498"/>
        <rect class="cls-2" x="148.718994110640779" y="149.034782948023349" width="37.037037037036498" height="37.037037037036498"/>
        <rect class="cls-2" x="185.756031147677277" y="149.034782948023349" width="37.037037037038317" height="37.037037037036498"/>
        <rect class="cls-2" x="111.681957073604281" y="186.071819985059847" width="37.037037037036498" height="37.037037037036498"/>
        <rect class="cls-2" x="148.718994110640779" y="186.071819985059847" width="37.037037037036498" height="37.037037037036498"/>
        <rect class="cls-2" x="185.756031147677277" y="186.071819985059847" width="37.037037037038317" height="37.037037037036498"/>
      </g>
      <g>
        <rect class="cls-2" x="111.681957073604281" y="223.516318191032951" width="37.037037037036498" height="37.037037037036498"/>
        <rect class="cls-2" x="148.718994110640779" y="223.516318191032951" width="37.037037037036498" height="37.037037037036498"/>
        <rect class="cls-2" x="185.756031147677277" y="223.516318191032951" width="37.037037037038317" height="37.037037037036498"/>
        <rect class="cls-2" x="111.681957073604281" y="260.553355228069449" width="37.037037037036498" height="37.037037037036498"/>
        <rect class="cls-2" x="148.718994110640779" y="260.553355228069449" width="37.037037037036498" height="37.037037037036498"/>
        <rect class="cls-2" x="185.756031147677277" y="260.553355228069449" width="37.037037037038317" height="37.037037037036498"/>
        <rect class="cls-2" x="111.681957073604281" y="297.590392265105947" width="37.037037037036498" height="37.037037037036498"/>
        <rect class="cls-2" x="148.718994110640779" y="297.590392265105947" width="37.037037037036498" height="37.037037037036498"/>
        <rect class="cls-2" x="185.756031147677277" y="297.590392265105947" width="37.037037037038317" height="37.037037037036498"/>
      </g>
      <g>
        <rect class="cls-2" x="111.681957073604281" y="333.952185885836116" width="37.037037037036498" height="37.037037037036498"/>
        <rect class="cls-2" x="148.718994110640779" y="333.952185885836116" width="37.037037037036498" height="37.037037037036498"/>
        <rect class="cls-2" x="185.756031147677277" y="333.952185885836116" width="37.037037037038317" height="37.037037037036498"/>
        <rect class="cls-2" x="111.681957073604281" y="370.989222922872614" width="37.037037037036498" height="37.037037037036498"/>
        <rect class="cls-2" x="148.718994110640779" y="370.989222922872614" width="37.037037037036498" height="37.037037037036498"/>
        <rect class="cls-2" x="185.756031147677277" y="370.989222922872614" width="37.037037037038317" height="37.037037037036498"/>
        <rect class="cls-2" x="111.681957073604281" y="408.026259959909112" width="37.037037037036498" height="37.037037037036498"/>
        <rect class="cls-2" x="148.718994110640779" y="408.026259959909112" width="37.037037037036498" height="37.037037037036498"/>
        <rect class="cls-2" x="185.756031147677277" y="408.026259959909112" width="37.037037037038317" height="37.037037037036498"/>
      </g>
      <g>
        <rect class="cls-2" x="111.681957073604281" y="444.38805358063928" width="37.037037037036498" height="37.037037037036498"/>
        <rect class="cls-2" x="148.718994110640779" y="444.38805358063928" width="37.037037037036498" height="37.037037037036498"/>
        <rect class="cls-2" x="185.756031147677277" y="444.38805358063928" width="37.037037037038317" height="37.037037037036498"/>
        <rect class="cls-2" x="111.681957073604281" y="481.425090617675778" width="37.037037037036498" height="37.037037037035589"/>
        <rect class="cls-2" x="148.718994110640779" y="481.425090617675778" width="37.037037037036498" height="37.037037037035589"/>
        <rect class="cls-2" x="185.756031147677277" y="481.425090617675778" width="37.037037037038317" height="37.037037037035589"/>
        <rect class="cls-2" x="111.681957073604281" y="518.462127654711367" width="37.037037037036498" height="37.037037037036498"/>
        <rect class="cls-2" x="148.718994110640779" y="518.462127654711367" width="37.037037037036498" height="37.037037037036498"/>
        <rect class="cls-2" x="185.756031147677277" y="518.462127654711367" width="37.037037037038317" height="37.037037037036498"/>
      </g>
      <g>
        <rect class="cls-2" x="223.200529353649472" y="555.906625860685381" width="37.037037037036498" height="37.037037037036498"/>
        <rect class="cls-2" x="260.23756639068597" y="555.906625860685381" width="37.037037037036498" height="37.037037037036498"/>
        <rect class="cls-2" x="297.274603427722468" y="555.906625860685381" width="37.037037037038317" height="37.037037037036498"/>
        <rect class="cls-2" x="223.200529353649472" y="592.943662897721879" width="37.037037037036498" height="37.037037037036498"/>
        <rect class="cls-2" x="260.23756639068597" y="592.943662897721879" width="37.037037037036498" height="37.037037037036498"/>
        <rect class="cls-2" x="297.274603427722468" y="592.943662897721879" width="37.037037037038317" height="37.037037037036498"/>
        <rect class="cls-2" x="223.200529353649472" y="629.980699934758377" width="37.037037037036498" height="37.037037037036498"/>
        <rect class="cls-2" x="260.23756639068597" y="629.980699934758377" width="37.037037037036498" height="37.037037037036498"/>
        <rect class="cls-2" x="297.274603427722468" y="629.980699934758377" width="37.037037037038317" height="37.037037037036498"/>
      </g>
      <g>
        <rect class="cls-2" x="223.200529353649472" y="666.342493555488545" width="37.037037037036498" height="37.037037037036498"/>
        <rect class="cls-2" x="260.23756639068597" y="666.342493555488545" width="37.037037037036498" height="37.037037037036498"/>
        <rect class="cls-2" x="297.274603427722468" y="666.342493555488545" width="37.037037037038317" height="37.037037037036498"/>
        <rect class="cls-2" x="223.200529353649472" y="703.379530592525043" width="37.037037037036498" height="37.037037037036498"/>
        <rect class="cls-2" x="260.23756639068597" y="703.379530592525043" width="37.037037037036498" height="37.037037037036498"/>
        <rect class="cls-2" x="297.274603427722468" y="703.379530592525043" width="37.037037037038317" height="37.037037037036498"/>
        <rect class="cls-2" x="223.200529353649472" y="740.416567629561541" width="37.037037037036498" height="37.037037037036498"/>
        <rect class="cls-2" x="260.23756639068597" y="740.416567629561541" width="37.037037037036498" height="37.037037037036498"/>
        <rect class="cls-2" x="297.274603427722468" y="740.416567629561541" width="37.037037037038317" height="37.037037037036498"/>
      </g>
      <g>
        <rect class="cls-2" x="333.636397048452636" y="666.342493555488545" width="37.037037037036498" height="37.037037037036498"/>
        <rect class="cls-2" x="370.673434085489134" y="666.342493555488545" width="37.037037037036498" height="37.037037037036498"/>
        <rect class="cls-2" x="407.710471122525632" y="666.342493555488545" width="37.037037037038317" height="37.037037037036498"/>
        <rect class="cls-2" x="333.636397048452636" y="703.379530592525043" width="37.037037037036498" height="37.037037037036498"/>
        <rect class="cls-2" x="370.673434085489134" y="703.379530592525043" width="37.037037037036498" height="37.037037037036498"/>
        <rect class="cls-2" x="407.710471122525632" y="703.379530592525043" width="37.037037037038317" height="37.037037037036498"/>
        <rect class="cls-2" x="333.636397048452636" y="740.416567629561541" width="37.037037037036498" height="37.037037037036498"/>
        <rect class="cls-2" x="370.673434085489134" y="740.416567629561541" width="37.037037037036498" height="37.037037037036498"/>
        <rect class="cls-2" x="407.710471122525632" y="740.416567629561541" width="37.037037037038317" height="37.037037037036498"/>
      </g>
      <g>
        <rect class="cls-2" x="777.545276998151166" y="667.244747376525993" width="37.037037037036498" height="37.037037037036498"/>
        <rect class="cls-2" x="814.582314035187665" y="667.244747376525993" width="37.037037037036498" height="37.037037037036498"/>
        <rect class="cls-2" x="851.619351072224163" y="667.244747376525993" width="37.037037037038317" height="37.037037037036498"/>
        <rect class="cls-2" x="777.545276998151166" y="704.281784413562491" width="37.037037037036498" height="37.037037037036498"/>
        <rect class="cls-2" x="814.582314035187665" y="704.281784413562491" width="37.037037037036498" height="37.037037037036498"/>
        <rect class="cls-2" x="851.619351072224163" y="704.281784413562491" width="37.037037037038317" height="37.037037037036498"/>
        <rect class="cls-2" x="777.545276998151166" y="741.318821450598989" width="37.037037037036498" height="37.037037037036498"/>
        <rect class="cls-2" x="814.582314035187665" y="741.318821450598989" width="37.037037037036498" height="37.037037037036498"/>
        <rect class="cls-2" x="851.619351072224163" y="741.318821450598989" width="37.037037037038317" height="37.037037037036498"/>
      </g>
      <g>
        <rect class="cls-2" x="777.545276998151166" y="556.267527389101815" width="37.037037037036498" height="37.037037037036498"/>
        <rect class="cls-2" x="814.582314035187665" y="556.267527389101815" width="37.037037037036498" height="37.037037037036498"/>
        <rect class="cls-2" x="851.619351072224163" y="556.267527389101815" width="37.037037037038317" height="37.037037037036498"/>
        <rect class="cls-2" x="777.545276998151166" y="593.304564426138313" width="37.037037037036498" height="37.037037037036498"/>
        <rect class="cls-2" x="814.582314035187665" y="593.304564426138313" width="37.037037037036498" height="37.037037037036498"/>
        <rect class="cls-2" x="851.619351072224163" y="593.304564426138313" width="37.037037037038317" height="37.037037037036498"/>
        <rect class="cls-2" x="777.545276998151166" y="630.341601463174811" width="37.037037037036498" height="37.037037037036498"/>
        <rect class="cls-2" x="814.582314035187665" y="630.341601463174811" width="37.037037037036498" height="37.037037037036498"/>
        <rect class="cls-2" x="851.619351072224163" y="630.341601463174811" width="37.037037037038317" height="37.037037037036498"/>
      </g>
      <g>
        <rect class="cls-2" x="777.545276998151166" y="445.290307401677637" width="37.037037037036498" height="37.037037037036498"/>
        <rect class="cls-2" x="814.582314035187665" y="445.290307401677637" width="37.037037037036498" height="37.037037037036498"/>
        <rect class="cls-2" x="851.619351072224163" y="445.290307401677637" width="37.037037037038317" height="37.037037037036498"/>
        <rect class="cls-2" x="777.545276998151166" y="482.327344438714135" width="37.037037037036498" height="37.037037037036498"/>
        <rect class="cls-2" x="814.582314035187665" y="482.327344438714135" width="37.037037037036498" height="37.037037037036498"/>
        <rect class="cls-2" x="851.619351072224163" y="482.327344438714135" width="37.037037037038317" height="37.037037037036498"/>
        <rect class="cls-2" x="777.545276998151166" y="519.364381475750633" width="37.037037037036498" height="37.037037037036498"/>
        <rect class="cls-2" x="814.582314035187665" y="519.364381475750633" width="37.037037037036498" height="37.037037037036498"/>
        <rect class="cls-2" x="851.619351072224163" y="519.364381475750633" width="37.037037037038317" height="37.037037037036498"/>
      </g>
      <g>
        <rect class="cls-2" x="444.884293182187321" y="666.342493555488545" width="37.037037037036498" height="37.037037037036498"/>
        <rect class="cls-2" x="481.921330219223819" y="666.342493555488545" width="37.037037037036498" height="37.037037037036498"/>
        <rect class="cls-2" x="518.958367256260317" y="666.342493555488545" width="37.037037037038317" height="37.037037037036498"/>
        <rect class="cls-2" x="444.884293182187321" y="703.379530592525043" width="37.037037037036498" height="37.037037037036498"/>
        <rect class="cls-2" x="481.921330219223819" y="703.379530592525043" width="37.037037037036498" height="37.037037037036498"/>
        <rect class="cls-2" x="518.958367256260317" y="703.379530592525043" width="37.037037037038317" height="37.037037037036498"/>
        <rect class="cls-2" x="444.884293182187321" y="740.416567629561541" width="37.037037037036498" height="37.037037037036498"/>
        <rect class="cls-2" x="481.921330219223819" y="740.416567629561541" width="37.037037037036498" height="37.037037037036498"/>
        <rect class="cls-2" x="518.958367256260317" y="740.416567629561541" width="37.037037037038317" height="37.037037037036498"/>
      </g>
      <g>
        <rect class="cls-2" x="444.884293182187321" y="777.861065835533736" width="37.037037037036498" height="37.037037037036498"/>
        <rect class="cls-2" x="481.921330219223819" y="777.861065835533736" width="37.037037037036498" height="37.037037037036498"/>
        <rect class="cls-2" x="518.958367256260317" y="777.861065835533736" width="37.037037037038317" height="37.037037037036498"/>
        <rect class="cls-2" x="444.884293182187321" y="814.898102872570234" width="37.037037037036498" height="37.037037037036498"/>
        <rect class="cls-2" x="481.921330219223819" y="814.898102872570234" width="37.037037037036498" height="37.037037037036498"/>
        <rect class="cls-2" x="518.958367256260317" y="814.898102872570234" width="37.037037037038317" height="37.037037037036498"/>
        <rect class="cls-2" x="444.884293182187321" y="851.935139909606733" width="37.037037037036498" height="37.037037037036498"/>
        <rect class="cls-2" x="481.921330219223819" y="851.935139909606733" width="37.037037037036498" height="37.037037037036498"/>
        <rect class="cls-2" x="518.958367256260317" y="851.935139909606733" width="37.037037037038317" height="37.037037037036498"/>
      </g>
      <g>
        <rect class="cls-2" x="444.884293182187321" y="555.906625860685381" width="37.037037037036498" height="37.037037037036498"/>
        <rect class="cls-2" x="481.921330219223819" y="555.906625860685381" width="37.037037037036498" height="37.037037037036498"/>
        <rect class="cls-2" x="518.958367256260317" y="555.906625860685381" width="37.037037037038317" height="37.037037037036498"/>
        <rect class="cls-2" x="444.884293182187321" y="592.943662897721879" width="37.037037037036498" height="37.037037037036498"/>
        <rect class="cls-2" x="481.921330219223819" y="592.943662897721879" width="37.037037037036498" height="37.037037037036498"/>
        <rect class="cls-2" x="518.958367256260317" y="592.943662897721879" width="37.037037037038317" height="37.037037037036498"/>
        <rect class="cls-2" x="444.884293182187321" y="629.980699934758377" width="37.037037037036498" height="37.037037037036498"/>
        <rect class="cls-2" x="481.921330219223819" y="629.980699934758377" width="37.037037037036498" height="37.037037037036498"/>
        <rect class="cls-2" x="518.958367256260317" y="629.980699934758377" width="37.037037037038317" height="37.037037037036498"/>
      </g>
      <g>
        <rect class="cls-2" x="444.884293182187321" y="444.658729726948877" width="37.037037037036498" height="37.037037037036498"/>
        <rect class="cls-2" x="481.921330219223819" y="444.658729726948877" width="37.037037037036498" height="37.037037037036498"/>
        <rect class="cls-2" x="518.958367256260317" y="444.658729726948877" width="37.037037037038317" height="37.037037037036498"/>
        <rect class="cls-2" x="444.884293182187321" y="481.695766763985375" width="37.037037037036498" height="37.037037037036498"/>
        <rect class="cls-2" x="481.921330219223819" y="481.695766763985375" width="37.037037037036498" height="37.037037037036498"/>
        <rect class="cls-2" x="518.958367256260317" y="481.695766763985375" width="37.037037037038317" height="37.037037037036498"/>
        <rect class="cls-2" x="444.884293182187321" y="518.732803801021873" width="37.037037037036498" height="37.037037037036498"/>
        <rect class="cls-2" x="481.921330219223819" y="518.732803801021873" width="37.037037037036498" height="37.037037037036498"/>
        <rect class="cls-2" x="518.958367256260317" y="518.732803801021873" width="37.037037037038317" height="37.037037037036498"/>
      </g>
      <g>
        <rect class="cls-2" x="556.132189315922005" y="444.658729726948877" width="37.037037037036498" height="37.037037037036498"/>
        <rect class="cls-2" x="593.169226352958503" y="444.658729726948877" width="37.037037037036498" height="37.037037037036498"/>
        <rect class="cls-2" x="630.206263389995001" y="444.658729726948877" width="37.037037037038317" height="37.037037037036498"/>
        <rect class="cls-2" x="556.132189315922005" y="481.695766763985375" width="37.037037037036498" height="37.037037037036498"/>
        <rect class="cls-2" x="593.169226352958503" y="481.695766763985375" width="37.037037037036498" height="37.037037037036498"/>
        <rect class="cls-2" x="630.206263389995001" y="481.695766763985375" width="37.037037037038317" height="37.037037037036498"/>
        <rect class="cls-2" x="556.132189315922005" y="518.732803801021873" width="37.037037037036498" height="37.037037037036498"/>
        <rect class="cls-2" x="593.169226352958503" y="518.732803801021873" width="37.037037037036498" height="37.037037037036498"/>
        <rect class="cls-2" x="630.206263389995001" y="518.732803801021873" width="37.037037037038317" height="37.037037037036498"/>
      </g>
      <g>
        <rect class="cls-2" x="556.132189315922005" y="555.906625860683562" width="37.037037037036498" height="37.037037037036498"/>
        <rect class="cls-2" x="593.169226352958503" y="555.906625860683562" width="37.037037037036498" height="37.037037037036498"/>
        <rect class="cls-2" x="630.206263389995001" y="555.906625860683562" width="37.037037037038317" height="37.037037037036498"/>
        <rect class="cls-2" x="556.132189315922005" y="592.94366289772006" width="37.037037037036498" height="37.037037037036498"/>
        <rect class="cls-2" x="593.169226352958503" y="592.94366289772006" width="37.037037037036498" height="37.037037037036498"/>
        <rect class="cls-2" x="630.206263389995001" y="592.94366289772006" width="37.037037037038317" height="37.037037037036498"/>
        <rect class="cls-2" x="556.132189315922005" y="629.980699934756558" width="37.037037037036498" height="37.037037037036498"/>
        <rect class="cls-2" x="593.169226352958503" y="629.980699934756558" width="37.037037037036498" height="37.037037037036498"/>
        <rect class="cls-2" x="630.206263389995001" y="629.980699934756558" width="37.037037037038317" height="37.037037037036498"/>
      </g>
      <g>
        <rect class="cls-2" x="556.132189315922005" y="666.342493555486726" width="37.037037037036498" height="37.037037037036498"/>
        <rect class="cls-2" x="593.169226352958503" y="666.342493555486726" width="37.037037037036498" height="37.037037037036498"/>
        <rect class="cls-2" x="630.206263389995001" y="666.342493555486726" width="37.037037037038317" height="37.037037037036498"/>
        <rect class="cls-2" x="556.132189315922005" y="703.379530592523224" width="37.037037037036498" height="37.037037037036498"/>
        <rect class="cls-2" x="593.169226352958503" y="703.379530592523224" width="37.037037037036498" height="37.037037037036498"/>
        <rect class="cls-2" x="630.206263389995001" y="703.379530592523224" width="37.037037037038317" height="37.037037037036498"/>
        <rect class="cls-2" x="556.132189315922005" y="740.416567629559722" width="37.037037037036498" height="37.037037037036498"/>
        <rect class="cls-2" x="593.169226352958503" y="740.416567629559722" width="37.037037037036498" height="37.037037037036498"/>
        <rect class="cls-2" x="630.206263389995001" y="740.416567629559722" width="37.037037037038317" height="37.037037037036498"/>
      </g>
      <g>
        <rect class="cls-2" x="556.132189315922005" y="777.861065835533736" width="37.037037037036498" height="37.037037037036498"/>
        <rect class="cls-2" x="593.169226352958503" y="777.861065835533736" width="37.037037037036498" height="37.037037037036498"/>
        <rect class="cls-2" x="630.206263389995001" y="777.861065835533736" width="37.037037037038317" height="37.037037037036498"/>
        <rect class="cls-2" x="556.132189315922005" y="814.898102872570234" width="37.037037037036498" height="37.037037037036498"/>
        <rect class="cls-2" x="593.169226352958503" y="814.898102872570234" width="37.037037037036498" height="37.037037037036498"/>
        <rect class="cls-2" x="630.206263389995001" y="814.898102872570234" width="37.037037037038317" height="37.037037037036498"/>
        <rect class="cls-2" x="556.132189315922005" y="851.935139909606733" width="37.037037037036498" height="37.037037037036498"/>
        <rect class="cls-2" x="593.169226352958503" y="851.935139909606733" width="37.037037037036498" height="37.037037037036498"/>
        <rect class="cls-2" x="630.206263389995001" y="851.935139909606733" width="37.037037037038317" height="37.037037037036498"/>
      </g>
      <g>
        <rect class="cls-2" x="556.132189315922005" y="889.108961969268421" width="37.037037037036498" height="37.037037037036498"/>
        <rect class="cls-2" x="593.169226352958503" y="889.108961969268421" width="37.037037037036498" height="37.037037037036498"/>
        <rect class="cls-2" x="630.206263389995001" y="889.108961969268421" width="37.037037037038317" height="37.037037037036498"/>
        <rect class="cls-2" x="556.132189315922005" y="926.145999006304919" width="37.037037037036498" height="37.037037037036498"/>
        <rect class="cls-2" x="593.169226352958503" y="926.145999006304919" width="37.037037037036498" height="37.037037037036498"/>
        <rect class="cls-2" x="630.206263389995001" y="926.145999006304919" width="37.037037037038317" height="37.037037037036498"/>
        <rect class="cls-2" x="556.132189315922005" y="963.183036043341417" width="37.037037037036498" height="37.037037037036498"/>
        <rect class="cls-2" x="593.169226352958503" y="963.183036043341417" width="37.037037037036498" height="37.037037037036498"/>
        <rect class="cls-2" x="630.206263389995001" y="963.183036043341417" width="37.037037037038317" height="37.037037037036498"/>
      </g>
      <g>
        <rect class="cls-2" x="444.613617035874995" y="889.108961969268421" width="37.037037037036498" height="37.037037037036498"/>
        <rect class="cls-2" x="481.650654072911493" y="889.108961969268421" width="37.037037037036498" height="37.037037037036498"/>
        <rect class="cls-2" x="518.687691109947991" y="889.108961969268421" width="37.037037037038317" height="37.037037037036498"/>
        <rect class="cls-2" x="444.613617035874995" y="926.145999006304919" width="37.037037037036498" height="37.037037037036498"/>
        <rect class="cls-2" x="481.650654072911493" y="926.145999006304919" width="37.037037037036498" height="37.037037037036498"/>
        <rect class="cls-2" x="518.687691109947991" y="926.145999006304919" width="37.037037037038317" height="37.037037037036498"/>
        <rect class="cls-2" x="444.613617035874995" y="963.183036043341417" width="37.037037037036498" height="37.037037037036498"/>
        <rect class="cls-2" x="481.650654072911493" y="963.183036043341417" width="37.037037037036498" height="37.037037037036498"/>
        <rect class="cls-2" x="518.687691109947991" y="963.183036043341417" width="37.037037037038317" height="37.037037037036498"/>
      </g>
      <g>
        <rect class="cls-2" x="333.636397048452636" y="777.590389689225049" width="37.037037037036498" height="37.037037037036498"/>
        <rect class="cls-2" x="370.673434085489134" y="777.590389689225049" width="37.037037037036498" height="37.037037037036498"/>
        <rect class="cls-2" x="407.710471122525632" y="777.590389689225049" width="37.037037037038317" height="37.037037037036498"/>
        <rect class="cls-2" x="333.636397048452636" y="814.627426726261547" width="37.037037037036498" height="37.037037037036498"/>
        <rect class="cls-2" x="370.673434085489134" y="814.627426726261547" width="37.037037037036498" height="37.037037037036498"/>
        <rect class="cls-2" x="407.710471122525632" y="814.627426726261547" width="37.037037037038317" height="37.037037037036498"/>
        <rect class="cls-2" x="333.636397048452636" y="851.664463763298045" width="37.037037037036498" height="37.037037037036498"/>
        <rect class="cls-2" x="370.673434085489134" y="851.664463763298045" width="37.037037037036498" height="37.037037037036498"/>
        <rect class="cls-2" x="407.710471122525632" y="851.664463763298045" width="37.037037037038317" height="37.037037037036498"/>
      </g>
      <g>
        <rect class="cls-2" x="111.681957073602462" y="666.342493555488545" width="37.037037037036498" height="37.037037037036498"/>
        <rect class="cls-2" x="148.71899411063896" y="666.342493555488545" width="37.037037037036498" height="37.037037037036498"/>
        <rect class="cls-2" x="185.756031147675458" y="666.342493555488545" width="37.037037037038317" height="37.037037037036498"/>
        <rect class="cls-2" x="111.681957073602462" y="703.379530592525043" width="37.037037037036498" height="37.037037037036498"/>
        <rect class="cls-2" x="148.71899411063896" y="703.379530592525043" width="37.037037037036498" height="37.037037037036498"/>
        <rect class="cls-2" x="185.756031147675458" y="703.379530592525043" width="37.037037037038317" height="37.037037037036498"/>
        <rect class="cls-2" x="111.681957073602462" y="740.416567629561541" width="37.037037037036498" height="37.037037037036498"/>
        <rect class="cls-2" x="148.71899411063896" y="740.416567629561541" width="37.037037037036498" height="37.037037037036498"/>
        <rect class="cls-2" x="185.756031147675458" y="740.416567629561541" width="37.037037037038317" height="37.037037037036498"/>
      </g>
      <g>
        <rect class="cls-2" x="223.200529353649472" y="444.38805358063928" width="37.037037037036498" height="37.037037037036498"/>
        <rect class="cls-2" x="260.23756639068597" y="444.38805358063928" width="37.037037037036498" height="37.037037037036498"/>
        <rect class="cls-2" x="297.274603427722468" y="444.38805358063928" width="37.037037037038317" height="37.037037037036498"/>
        <rect class="cls-2" x="223.200529353649472" y="481.425090617675778" width="37.037037037036498" height="37.037037037035589"/>
        <rect class="cls-2" x="260.23756639068597" y="481.425090617675778" width="37.037037037036498" height="37.037037037035589"/>
        <rect class="cls-2" x="297.274603427722468" y="481.425090617675778" width="37.037037037038317" height="37.037037037035589"/>
        <rect class="cls-2" x="223.200529353649472" y="518.462127654711367" width="37.037037037036498" height="37.037037037036498"/>
        <rect class="cls-2" x="260.23756639068597" y="518.462127654711367" width="37.037037037036498" height="37.037037037036498"/>
        <rect class="cls-2" x="297.274603427722468" y="518.462127654711367" width="37.037037037038317" height="37.037037037036498"/>
      </g>
      <g>
        <rect class="cls-2" x="333.997298576865433" y="555.906625860685381" width="37.037037037036498" height="37.037037037036498"/>
        <rect class="cls-2" x="371.034335613901931" y="555.906625860685381" width="37.037037037036498" height="37.037037037036498"/>
        <rect class="cls-2" x="408.071372650938429" y="555.906625860685381" width="37.037037037038317" height="37.037037037036498"/>
        <rect class="cls-2" x="333.997298576865433" y="592.943662897721879" width="37.037037037036498" height="37.037037037036498"/>
        <rect class="cls-2" x="371.034335613901931" y="592.943662897721879" width="37.037037037036498" height="37.037037037036498"/>
        <rect class="cls-2" x="408.071372650938429" y="592.943662897721879" width="37.037037037038317" height="37.037037037036498"/>
        <rect class="cls-2" x="333.997298576865433" y="629.980699934758377" width="37.037037037036498" height="37.037037037036498"/>
        <rect class="cls-2" x="371.034335613901931" y="629.980699934758377" width="37.037037037036498" height="37.037037037036498"/>
        <rect class="cls-2" x="408.071372650938429" y="629.980699934758377" width="37.037037037038317" height="37.037037037036498"/>
      </g>
      <g>
        <rect class="cls-2" x="333.636397048452636" y="111.997745910986851" width="37.037037037036498" height="37.037037037036498"/>
        <rect class="cls-2" x="370.673434085489134" y="111.997745910986851" width="37.037037037036498" height="37.037037037036498"/>
        <rect class="cls-2" x="407.710471122525632" y="111.997745910986851" width="37.037037037038317" height="37.037037037036498"/>
        <rect class="cls-2" x="333.636397048452636" y="149.034782948023349" width="37.037037037036498" height="37.037037037036498"/>
        <rect class="cls-2" x="370.673434085489134" y="149.034782948023349" width="37.037037037036498" height="37.037037037036498"/>
        <rect class="cls-2" x="407.710471122525632" y="149.034782948023349" width="37.037037037038317" height="37.037037037036498"/>
        <rect class="cls-2" x="333.636397048452636" y="186.071819985059847" width="37.037037037036498" height="37.037037037036498"/>
        <rect class="cls-2" x="370.673434085489134" y="186.071819985059847" width="37.037037037036498" height="37.037037037036498"/>
        <rect class="cls-2" x="407.710471122525632" y="186.071819985059847" width="37.037037037038317" height="37.037037037036498"/>
      </g>
      <g>
        <rect class="cls-2" x="333.636397048452636" y=".749849777251256" width="37.037037037036498" height="37.037037037036498"/>
        <rect class="cls-2" x="370.673434085489134" y=".749849777251256" width="37.037037037036498" height="37.037037037036498"/>
        <rect class="cls-2" x="407.710471122525632" y=".749849777251256" width="37.037037037038317" height="37.037037037036498"/>
        <rect class="cls-2" x="333.636397048452636" y="37.786886814287755" width="37.037037037036498" height="37.037037037036498"/>
        <rect class="cls-2" x="370.673434085489134" y="37.786886814287755" width="37.037037037036498" height="37.037037037036498"/>
        <rect class="cls-2" x="407.710471122525632" y="37.786886814287755" width="37.037037037038317" height="37.037037037036498"/>
        <rect class="cls-2" x="333.636397048452636" y="74.823923851324253" width="37.037037037036498" height="37.037037037036498"/>
        <rect class="cls-2" x="370.673434085489134" y="74.823923851324253" width="37.037037037036498" height="37.037037037036498"/>
        <rect class="cls-2" x="407.710471122525632" y="74.823923851324253" width="37.037037037038317" height="37.037037037036498"/>
      </g>
      <g>
        <rect class="cls-2" x="444.613617035876814" y="111.862407837831597" width="37.037037037036498" height="37.037037037036498"/>
        <rect class="cls-2" x="481.650654072913312" y="111.862407837831597" width="37.037037037036498" height="37.037037037036498"/>
        <rect class="cls-2" x="518.68769110994981" y="111.862407837831597" width="37.037037037038317" height="37.037037037036498"/>
        <rect class="cls-2" x="444.613617035876814" y="148.899444874868095" width="37.037037037036498" height="37.037037037036498"/>
        <rect class="cls-2" x="481.650654072913312" y="148.899444874868095" width="37.037037037036498" height="37.037037037036498"/>
        <rect class="cls-2" x="518.68769110994981" y="148.899444874868095" width="37.037037037038317" height="37.037037037036498"/>
        <rect class="cls-2" x="444.613617035876814" y="185.936481911904593" width="37.037037037036498" height="37.037037037036498"/>
        <rect class="cls-2" x="481.650654072913312" y="185.936481911904593" width="37.037037037036498" height="37.037037037036498"/>
        <rect class="cls-2" x="518.68769110994981" y="185.936481911904593" width="37.037037037038317" height="37.037037037036498"/>
      </g>
      <g>
        <rect class="cls-2" x="444.613617035876814" y=".614511704096003" width="37.037037037036498" height="37.037037037036498"/>
        <rect class="cls-2" x="481.650654072913312" y=".614511704096003" width="37.037037037036498" height="37.037037037036498"/>
        <rect class="cls-2" x="518.68769110994981" y=".614511704096003" width="37.037037037038317" height="37.037037037036498"/>
        <rect class="cls-2" x="444.613617035876814" y="37.651548741132501" width="37.037037037036498" height="37.037037037036498"/>
        <rect class="cls-2" x="481.650654072913312" y="37.651548741132501" width="37.037037037036498" height="37.037037037036498"/>
        <rect class="cls-2" x="518.68769110994981" y="37.651548741132501" width="37.037037037038317" height="37.037037037036498"/>
        <rect class="cls-2" x="444.613617035876814" y="74.688585778168999" width="37.037037037036498" height="37.037037037036498"/>
        <rect class="cls-2" x="481.650654072913312" y="74.688585778168999" width="37.037037037036498" height="37.037037037036498"/>
        <rect class="cls-2" x="518.68769110994981" y="74.688585778168999" width="37.037037037038317" height="37.037037037036498"/>
      </g>
      <g>
        <rect class="cls-2" x="556.132189315923824" y=".614511704096003" width="37.037037037036498" height="37.037037037036498"/>
        <rect class="cls-2" x="593.169226352960322" y=".614511704096003" width="37.037037037036498" height="37.037037037036498"/>
        <rect class="cls-2" x="630.20626338999682" y=".614511704096003" width="37.037037037038317" height="37.037037037036498"/>
        <rect class="cls-2" x="556.132189315923824" y="37.651548741132501" width="37.037037037036498" height="37.037037037036498"/>
        <rect class="cls-2" x="593.169226352960322" y="37.651548741132501" width="37.037037037036498" height="37.037037037036498"/>
        <rect class="cls-2" x="630.20626338999682" y="37.651548741132501" width="37.037037037038317" height="37.037037037036498"/>
        <rect class="cls-2" x="556.132189315923824" y="74.688585778168999" width="37.037037037036498" height="37.037037037036498"/>
        <rect class="cls-2" x="593.169226352960322" y="74.688585778168999" width="37.037037037036498" height="37.037037037036498"/>
        <rect class="cls-2" x="630.20626338999682" y="74.688585778168999" width="37.037037037038317" height="37.037037037036498"/>
      </g>
      <g>
        <rect class="cls-2" x="556.132189315923824" y="221.858067506006591" width="37.037037037036498" height="37.037037037036498"/>
        <rect class="cls-2" x="593.169226352960322" y="221.858067506006591" width="37.037037037036498" height="37.037037037036498"/>
        <rect class="cls-2" x="630.20626338999682" y="221.858067506006591" width="37.037037037038317" height="37.037037037036498"/>
        <rect class="cls-2" x="556.132189315923824" y="258.89510454304309" width="37.037037037036498" height="37.037037037036498"/>
        <rect class="cls-2" x="593.169226352960322" y="258.89510454304309" width="37.037037037036498" height="37.037037037036498"/>
        <rect class="cls-2" x="630.20626338999682" y="258.89510454304309" width="37.037037037038317" height="37.037037037036498"/>
        <rect class="cls-2" x="556.132189315923824" y="295.932141580079588" width="37.037037037036498" height="37.037037037036498"/>
        <rect class="cls-2" x="593.169226352960322" y="295.932141580079588" width="37.037037037036498" height="37.037037037036498"/>
        <rect class="cls-2" x="630.20626338999682" y="295.932141580079588" width="37.037037037038317" height="37.037037037036498"/>
      </g>
      <g>
        <rect class="cls-2" x="444.613617035876814" y="222.659177061048467" width="37.037037037036498" height="37.037037037036498"/>
        <rect class="cls-2" x="481.650654072913312" y="222.659177061048467" width="37.037037037036498" height="37.037037037036498"/>
        <rect class="cls-2" x="518.68769110994981" y="222.659177061048467" width="37.037037037038317" height="37.037037037036498"/>
        <rect class="cls-2" x="444.613617035876814" y="259.696214098084965" width="37.037037037036498" height="37.037037037036498"/>
        <rect class="cls-2" x="481.650654072913312" y="259.696214098084965" width="37.037037037036498" height="37.037037037036498"/>
        <rect class="cls-2" x="518.68769110994981" y="259.696214098084965" width="37.037037037038317" height="37.037037037036498"/>
        <rect class="cls-2" x="444.613617035876814" y="296.733251135121463" width="37.037037037036498" height="37.037037037036498"/>
        <rect class="cls-2" x="481.650654072913312" y="296.733251135121463" width="37.037037037036498" height="37.037037037036498"/>
        <rect class="cls-2" x="518.68769110994981" y="296.733251135121463" width="37.037037037038317" height="37.037037037036498"/>
      </g>
      <g>
        <rect class="cls-2" x="222.659177061028458" y=".749849777251256" width="37.037037037036498" height="37.037037037036498"/>
        <rect class="cls-2" x="259.696214098064956" y=".749849777251256" width="37.037037037036498" height="37.037037037036498"/>
        <rect class="cls-2" x="296.733251135101455" y=".749849777251256" width="37.037037037038317" height="37.037037037036498"/>
        <rect class="cls-2" x="222.659177061028458" y="37.786886814287755" width="37.037037037036498" height="37.037037037036498"/>
        <rect class="cls-2" x="259.696214098064956" y="37.786886814287755" width="37.037037037036498" height="37.037037037036498"/>
        <rect class="cls-2" x="296.733251135101455" y="37.786886814287755" width="37.037037037038317" height="37.037037037036498"/>
        <rect class="cls-2" x="222.659177061028458" y="74.823923851324253" width="37.037037037036498" height="37.037037037036498"/>
        <rect class="cls-2" x="259.696214098064956" y="74.823923851324253" width="37.037037037036498" height="37.037037037036498"/>
        <rect class="cls-2" x="296.733251135101455" y="74.823923851324253" width="37.037037037038317" height="37.037037037036498"/>
      </g>
    </g>
  </g>
  <circle class="cls-1" cx="387.817768262581467" cy="164.248979620293312" r="114.005548712842099"/>
  <ellipse class="cls-4" cx="487.445915276127835" cy="166.747003685031132" rx="22.832679953053713" ry="55.496659892344475" transform="translate(169.279347409537195 571.935994958624292) rotate(-70.744882140725508)"/>
  <circle class="cls-1" cx="334.489216229512294" cy="567.480958282753818" r="74.307672794640894"/>
  <ellipse class="cls-3" cx="387.817713674330662" cy="164.248869592989649" rx="114.005548712852416" ry="105.825689678555761" transform="translate(141.029322065825426 505.534321919113722) rotate(-77.082438476139544)"/>
  <circle class="cls-1" cx="557.744640690844335" cy="703.705322494565735" r="256.869939233745015"/>
  <circle class="cls-1" cx="259.443104686868537" cy="407.835923273763683" r="110.657049355584974"/>
  <circle class="cls-1" cx="259.443104686868537" cy="407.835923273763683" r="110.657049355584974"/>
  <circle class="cls-1" cx="396.109973547806021" cy="576.055548241058204" r="49.047532281603161"/>
  <circle class="cls-1" cx="331.768517755434004" cy="620.221658983296493" r="15.309542222209252"/>
  <circle class="cls-1" cx="412.430009356050505" cy="620.221658983296493" r="15.309542222209252"/>
  <circle class="cls-1" cx="400.652900050318294" cy="627.030978390904238" r="15.081290395186212"/>
  <ellipse class="cls-3" cx="348.497170572210507" cy="631.165472863994637" rx="125.5424676292036" ry="11.913196913426537" transform="translate(-14.679307652853197 8.330841764770867) rotate(-1.341345918914448)"/>
  <ellipse class="cls-4" cx="331.697930433048896" cy="620.539864195236078" rx="5.634762453461876" ry="15.079077693217203" transform="translate(-351.274158726984751 789.780419433597444) rotate(-75.79165688477012)"/>
  <ellipse class="cls-4" cx="412.359422033664487" cy="620.539864195236987" rx="5.634762453462177" ry="15.079077693217698" transform="translate(-324.004744437634713 734.020392623728753) rotate(-65.156165277405492)"/>
  <ellipse class="cls-3" cx="335.607893620718187" cy="568.599582895407821" rx="73.189070908143876" ry="16.55744266701609" transform="translate(-323.652673698560761 604.843869441421134) rotate(-62.596162162207705)"/>
  <ellipse class="cls-4" cx="290.990870918384644" cy="618.504826665175187" rx="24.524819696706519" ry="6.900788527424112" transform="translate(-263.115993549218388 218.268033858916795) rotate(-28.963253626594163)"/>
  <ellipse class="cls-4" cx="321.866764260230866" cy="636.453542628227751" rx="6.895921375086332" ry="18.454040439155573" transform="translate(-145.787286812201501 97.963975064551391) rotate(-14.146251852926818)"/>
  <circle class="cls-1" cx="346.872567948792948" cy="629.097823627196249" r="123.510721318529122"/>
  <ellipse class="cls-3" cx="397.102993931323908" cy="576.37922270681247" rx="15.134960995766562" ry="48.30924789207149" transform="translate(-1.883427490503664 1.302156846649495) rotate(-.187436294468464)"/>
  <ellipse class="cls-3" cx="428.733031054703133" cy="383.465059776126736" rx="181.141111408842164" ry="203.412945150218491" transform="translate(-142.199995334824962 313.515482478219667) rotate(-34.82495841772743)"/>
  <ellipse class="cls-3" cx="259.442998467100097" cy="407.835869143619675" rx="42.610925562472126" ry="110.657049355562322" transform="translate(-15.439664315151219 10.242751351736274) rotate(-2.196392935260028)"/>
  <ellipse class="cls-3" cx="557.744394121228197" cy="703.705196841418001" rx="84.381755704752806" ry="256.86993923365668" transform="translate(-180.605605789957622 192.707064881596921) rotate(-16.913894681616728)"/>
  <ellipse class="cls-3" cx="640.007538672467035" cy="562.647562800820651" rx="57.469509208692017" ry="174.94527359534905" transform="translate(-207.727803276389068 649.404231098702667) rotate(-47.162827171962036)"/>
  <ellipse class="cls-4" cx="377.512942620859121" cy="624.432368454468815" rx="17.97421497067932" ry="6.784357922198515" transform="translate(-341.53201917691149 500.310865349002597) rotate(-49.050232550515055)"/>
  <ellipse class="cls-4" cx="400.357983755953683" cy="627.15793238415381" rx="5.550753094711228" ry="14.854261889888217" transform="translate(-111.880319734356135 87.504795872497311) rotate(-10.954185376057406)"/>
</svg>