<?xml version="1.0" encoding="UTF-8"?>
<svg id="_图层_1" data-name="图层 1" xmlns="http://www.w3.org/2000/svg" viewBox="0 0 1000 1000">
  <defs>
    <style>
      .cls-1 {
        fill: #ff7900;
      }

      .cls-1, .cls-2, .cls-3 {
        stroke-miterlimit: 10;
      }

      .cls-1, .cls-3 {
        stroke: #000;
      }

      .cls-2 {
        fill: none;
        stroke: #fff;
        stroke-width: .600000023841858px;
      }

      .cls-4 {
        fill: #001738;
      }

      .cls-3 {
        fill: #a4e1ff;
      }
    </style>
  </defs>
  <rect class="cls-4" x="-1.406542039874694" y="-1.432526851403964" width="1002.671580393371187" height="1002.671580393376644"/>
  <g>
    <circle class="cls-2" cx="716.527962921723883" cy="801.969468120684724" r="12.124272078033663"/>
    <circle class="cls-2" cx="536.881442431389587" cy="832.644236203328092" r="18.638292490960087"/>
    <circle class="cls-2" cx="654.950916459119071" cy="789.573107868623993" r="24.719203346537387"/>
    <circle class="cls-2" cx="685.456359455658458" cy="796.763648111493239" r="27.788714841340884"/>
    <circle class="cls-2" cx="685.456359455658458" cy="796.763648111493694" r="31.295263774821681"/>
    <circle class="cls-2" cx="519.389496875250188" cy="814.395994302427425" r="36.811836578339282"/>
    <circle class="cls-2" cx="519.389496875249279" cy="814.395994302426971" r="27.836473097997569"/>
    <circle class="cls-2" cx="562.242349337988344" cy="808.606209755460441" r="30.711599401761827"/>
    <circle class="cls-2" cx="633.457544224380399" cy="662.056101664832568" r="152.170067433190297"/>
    <circle class="cls-2" cx="129.484840123019239" cy="475.080867116232639" r="92.455820639262839"/>
    <circle class="cls-2" cx="445.225900560008085" cy="515.007173968494499" r="98.713626782501933"/>
    <circle class="cls-2" cx="253.677175954013364" cy="438.395873752966963" r="80.140509510334653"/>
    <circle class="cls-2" cx="896.659985977146789" cy="608.862971714193009" r="90.86755700140472"/>
    <circle class="cls-2" cx="667.246034644420433" cy="592.541145935037093" r="221.5467060197889"/>
    <circle class="cls-2" cx="878.376517287606475" cy="666.036623944503845" r="85.511940891068889"/>
    <circle class="cls-2" cx="593.273173133449745" cy="715.82891331835026" r="36.804416926532966"/>
    <circle class="cls-2" cx="586.236069852911896" cy="758.866897105307544" r="55.587515113229436"/>
    <circle class="cls-2" cx="525.152142757921865" cy="796.102956451371483" r="18.638292490960197"/>
    <circle class="cls-2" cx="593.176504473855857" cy="802.181905138500042" r="12.246187726288028"/>
    <circle class="cls-2" cx="685.456359455658458" cy="796.763648111493694" r="31.295263774821681"/>
    <circle class="cls-2" cx="697.609115065971309" cy="758.342032482767991" r="43.181622469754046"/>
    <circle class="cls-2" cx="661.083359564602688" cy="809.290348193054797" r="18.541620769141002"/>
    <circle class="cls-2" cx="660.764469377435489" cy="776.241957450441987" r="18.541552044881428"/>
    <circle class="cls-2" cx="703.000156854266606" cy="717.172650742167207" r="38.147938824678583"/>
    <circle class="cls-2" cx="667.634563679212988" cy="481.045584802586745" r="110.42516343787247"/>
    <circle class="cls-2" cx="360.21103427289745" cy="468.766448774540549" r="73.863085074768506"/>
    <circle class="cls-2" cx="172.657685459589629" cy="431.637345633350833" r="24.295285562673236"/>
    <circle class="cls-2" cx="875.70030352125832" cy="557.230442080326156" r="63.421760473156475"/>
  </g>
  <ellipse class="cls-1" cx="562.242349337991072" cy="808.817770689387089" rx="30.476193432800116" ry="30.711599401766232" transform="translate(-391.594493898099358 1054.781024159216486) rotate(-69.654949622151918)"/>
  <ellipse class="cls-1" cx="525.152142757925503" cy="796.31451738530177" rx="18.6382924909705" ry="8.132536230093118" transform="translate(-25.606688752360583 17.490857526890181) rotate(-1.862726694524119)"/>
  <ellipse class="cls-1" cx="519.389496875252917" cy="814.60755523636135" rx="27.599148708738987" ry="12.263914954222757" transform="translate(-200.035729378258338 169.79885310636223) rotate(-15.609292506105934)"/>
  <ellipse class="cls-1" cx="685.456359455661186" cy="796.975209045422162" rx="25.168801754009813" ry="27.676835211134474" transform="translate(-228.256403825024904 1316.733701779476178) rotate(-78.935136522701001)"/>
  <ellipse class="cls-1" cx="593.176504473856767" cy="802.393466072421234" rx="12.246187726289989" ry="7.452756452447085" transform="translate(-39.482594336741386 30.748402233029424) rotate(-2.873769235977412)"/>
  <ellipse class="cls-3" cx="586.236069852916444" cy="759.078458039230554" rx="55.587515113229713" ry="17.156418265661113" transform="translate(-299.276892059876218 1127.507052668152255) rotate(-74.911456873656419)"/>
  <ellipse class="cls-1" cx="716.527962921723883" cy="802.18102905460546" rx="7.378561310700143" ry="12.124272078037594" transform="translate(-238.423945766624229 1297.129084022338475) rotate(-75.625523171977036)"/>
  <ellipse class="cls-3" cx="697.609115065975857" cy="758.553593416689637" rx="43.181622469750714" ry="12.30823262266377" transform="translate(-141.940876429145078 1356.230632702162893) rotate(-82.843716993283451)"/>
  <ellipse class="cls-3" cx="253.67717595402064" cy="438.607434686891793" rx="80.140509510331796" ry="60.785514556147042" transform="translate(-33.343300638756318 21.057632412865644) rotate(-4.460548422932164)"/>
  <ellipse class="cls-3" cx="129.484840123022877" cy="475.29242805015565" rx="92.45582063925697" ry="17.566632100988581" transform="translate(-185.882102157958627 96.857615037608866) rotate(-24.566614048621474)"/>
  <ellipse class="cls-1" cx="172.657685459585991" cy="431.848906567277481" rx="24.295285562673055" ry="21.623219921078231" transform="translate(-139.153858976212518 86.772516172083215) rotate(-20.308970394178687)"/>
  <ellipse class="cls-1" cx="536.881442431391406" cy="832.855797137260197" rx="18.638292490969881" ry="8.891725088425698" transform="translate(-295.493892228830191 295.229752100715586) rotate(-24.334908152490954)"/>
  <ellipse class="cls-1" cx="660.764469377438218" cy="776.45351838436909" rx="8.008668796715018" ry="18.326574488654529" transform="translate(-241.366777903670709 1251.478741801130127) rotate(-77.371555119766512)"/>
  <ellipse class="cls-1" cx="661.083359564600869" cy="809.501909126985083" rx="18.541620769142632" ry="7.903046349230822" transform="translate(-76.838764431939239 69.36983436607602) rotate(-5.67738461734132)"/>
  <ellipse class="cls-1" cx="654.950916459117252" cy="789.784668802554734" rx="8.090557952318489" ry="24.719203346538137" transform="translate(-148.00480138627313 1428.5198574571275) rotate(-88.833380915612196)"/>
</svg>