<?xml version="1.0" encoding="UTF-8"?>
<svg id="_图层_1" data-name="图层 1" xmlns="http://www.w3.org/2000/svg" viewBox="0 0 1000 1000">
  <defs>
    <style>
      .cls-1 {
        fill: #ff7900;
      }

      .cls-1, .cls-2 {
        stroke: #000;
        stroke-miterlimit: 10;
      }

      .cls-2 {
        fill: #a4e1ff;
      }
    </style>
  </defs>
  <ellipse class="cls-1" cx="562.242349337991072" cy="855.023921905063162" rx="30.476193432800116" ry="30.711599401766232" transform="translate(-434.91811397132858 1084.922544849529913) rotate(-69.654949622151918)"/>
  <ellipse class="cls-1" cx="525.152142757925503" cy="842.520668600977842" rx="18.6382924909705" ry="8.132536230093118" transform="translate(-27.108619104920649 17.515274091494689) rotate(-1.862726694524119)"/>
  <ellipse class="cls-1" cx="519.389496875252917" cy="860.813706452037422" rx="27.599148708738987" ry="12.263914954222757" transform="translate(-212.468696990309809 171.502984968714486) rotate(-15.609292506105934)"/>
  <ellipse class="cls-1" cx="685.456359455661186" cy="843.181360261098234" rx="25.168801754009813" ry="27.676835211134474" transform="translate(-273.603607787793294 1354.071961310822644) rotate(-78.935136522701001)"/>
  <ellipse class="cls-1" cx="593.176504473856767" cy="848.599617288097306" rx="12.246187726289989" ry="7.452756452447085" transform="translate(-41.799172436737763 30.806510412488478) rotate(-2.873769235977412)"/>
  <ellipse class="cls-2" cx="586.236069852916444" cy="805.284609254906627" rx="55.587515113229713" ry="17.156418265661113" transform="translate(-343.890072447682996 1161.685213783611061) rotate(-74.911456873656419)"/>
  <ellipse class="cls-1" cx="716.527962921723883" cy="848.387180270281533" rx="7.378561310700143" ry="12.124272078037594" transform="translate(-283.183560154936458 1331.864170336467168) rotate(-75.625523171977036)"/>
  <ellipse class="cls-2" cx="697.609115065975857" cy="804.75974463236571" rx="43.181622469750714" ry="12.30823262266377" transform="translate(-187.787083688527332 1396.680596803465278) rotate(-82.843716993283451)"/>
  <ellipse class="cls-2" cx="593.273173133451564" cy="762.246625467949343" rx="36.804416926534266" ry="31.361016254121346" transform="translate(-246.011153406177186 1240.362506005327532) rotate(-81.774506991697379)"/>
  <ellipse class="cls-2" cx="703.000156854267516" cy="763.590362891765835" rx="32.505830262985" ry="38.147938824678931"/>
  <ellipse class="cls-2" cx="667.634563679215717" cy="527.46329695218401" rx="61.285229500577721" ry="110.425163437865393" transform="translate(118.274658170619659 1177.199500707516563) rotate(-88.095497834821728)"/>
  <ellipse class="cls-2" cx="667.246034644423162" cy="638.958858084637313" rx="134.699223680580417" ry="221.546706019784494" transform="translate(-79.975787129592845 1182.231572417182178) rotate(-79.778677531624652)"/>
  <ellipse class="cls-2" cx="445.225900560007176" cy="561.424886118093127" rx="39.858650832369129" ry="98.713626782494984" transform="translate(-234.124531694405846 789.255953968651056) rotate(-70.124287075679902)"/>
  <ellipse class="cls-2" cx="360.211034272896541" cy="515.184160924140997" rx="33.980913951641305" ry="73.863085074766914" transform="translate(-268.222506801437476 499.757128421599589) rotate(-53.632945504251495)"/>
  <ellipse class="cls-2" cx="253.67717595402064" cy="484.813585902567866" rx="80.140509510331796" ry="60.785514556147042" transform="translate(-36.936874996951701 21.197585245149526) rotate(-4.460548422932164)"/>
  <ellipse class="cls-2" cx="129.484840123022877" cy="521.49857926583195" rx="92.455820639257055" ry="17.566632100988784" transform="translate(-205.092351780915408 101.040264262261928) rotate(-24.566614048621979)"/>
  <ellipse class="cls-1" cx="172.657685459585991" cy="478.055057782953554" rx="24.295285562673051" ry="21.623219921079084" transform="translate(-155.191204806153621 89.644939774105296) rotate(-20.308970394187426)"/>
  <ellipse class="cls-2" cx="875.700303521260139" cy="603.648154229927968" rx="63.421760473152972" ry="38.560094409285831" transform="translate(-6.676482405510797 9.801942361933129) rotate(-.638884509292207)"/>
  <ellipse class="cls-2" cx="896.659985977148608" cy="655.280683863795275" rx="55.246993312310835" ry="90.86755700139723" transform="translate(188.515970877542259 1510.806229348061834) rotate(-86.543827989998704)"/>
  <ellipse class="cls-2" cx="878.376517287610113" cy="712.454336094104747" rx="51.990807087050584" ry="85.511940891066885" transform="translate(-55.502879431902329 1350.424366365435162) rotate(-73.384163501546254)"/>
  <ellipse class="cls-1" cx="536.881442431391406" cy="879.06194835293627" rx="18.638292490969881" ry="8.891725088425698" transform="translate(-314.534040895532598 299.335058325871614) rotate(-24.334908152490954)"/>
  <ellipse class="cls-1" cx="660.764469377438218" cy="822.659669600045163" rx="8.008668796715018" ry="18.326574488654529" transform="translate(-286.45512575680641 1287.582947756582143) rotate(-77.371555119766512)"/>
  <ellipse class="cls-1" cx="661.083359564600869" cy="855.708060342661156" rx="18.541620769142632" ry="7.903046349230822" transform="translate(-81.409799464162461 69.596489619963677) rotate(-5.67738461734132)"/>
  <ellipse class="cls-1" cx="654.950916459117252" cy="835.990820018230806" rx="8.090557952318489" ry="24.719203346538137" transform="translate(-194.201374759617124 1473.785254333367675) rotate(-88.833380915612196)"/>
</svg>