<?xml version="1.0" encoding="UTF-8"?>
<svg id="_图层_1" data-name="图层 1" xmlns="http://www.w3.org/2000/svg" viewBox="0 0 1000 1000">
  <defs>
    <style>
      .cls-1 {
        fill: none;
        stroke: #fff;
        stroke-miterlimit: 10;
        stroke-width: .600000023841858px;
      }

      .cls-2 {
        fill: #001738;
      }
    </style>
  </defs>
  <rect class="cls-2" x="-1.406542039874694" y="-1.432526851403964" width="1002.671580393371187" height="1002.671580393376644"/>
  <g>
    <circle class="cls-1" cx="716.527962921723883" cy="801.969468120684724" r="12.124272078033663"/>
    <circle class="cls-1" cx="536.881442431389587" cy="832.644236203328092" r="18.638292490960087"/>
    <circle class="cls-1" cx="654.950916459119071" cy="789.573107868623993" r="24.719203346537387"/>
    <circle class="cls-1" cx="685.456359455658458" cy="796.763648111493239" r="27.788714841340884"/>
    <circle class="cls-1" cx="685.456359455658458" cy="796.763648111493694" r="31.295263774821681"/>
    <circle class="cls-1" cx="519.389496875250188" cy="814.395994302427425" r="36.811836578339282"/>
    <circle class="cls-1" cx="519.389496875249279" cy="814.395994302426971" r="27.836473097997569"/>
    <circle class="cls-1" cx="562.242349337988344" cy="808.606209755460441" r="30.711599401761827"/>
    <circle class="cls-1" cx="633.457544224380399" cy="662.056101664832568" r="152.170067433190297"/>
    <circle class="cls-1" cx="129.484840123019239" cy="475.080867116232639" r="92.455820639262839"/>
    <circle class="cls-1" cx="445.225900560008085" cy="515.007173968494499" r="98.713626782501933"/>
    <circle class="cls-1" cx="253.677175954013364" cy="438.395873752966963" r="80.140509510334653"/>
    <circle class="cls-1" cx="896.659985977146789" cy="608.862971714193009" r="90.86755700140472"/>
    <circle class="cls-1" cx="667.246034644420433" cy="592.541145935037093" r="221.5467060197889"/>
    <circle class="cls-1" cx="878.376517287606475" cy="666.036623944503845" r="85.511940891068889"/>
    <circle class="cls-1" cx="593.273173133449745" cy="715.82891331835026" r="36.804416926532966"/>
    <circle class="cls-1" cx="586.236069852911896" cy="758.866897105307544" r="55.587515113229436"/>
    <circle class="cls-1" cx="525.152142757921865" cy="796.102956451371483" r="18.638292490960197"/>
    <circle class="cls-1" cx="593.176504473855857" cy="802.181905138500042" r="12.246187726288028"/>
    <circle class="cls-1" cx="685.456359455658458" cy="796.763648111493694" r="31.295263774821681"/>
    <circle class="cls-1" cx="697.609115065971309" cy="758.342032482767991" r="43.181622469754046"/>
    <circle class="cls-1" cx="661.083359564602688" cy="809.290348193054797" r="18.541620769141002"/>
    <circle class="cls-1" cx="660.764469377435489" cy="776.241957450441987" r="18.541552044881428"/>
    <circle class="cls-1" cx="703.000156854266606" cy="717.172650742167207" r="38.147938824678583"/>
    <circle class="cls-1" cx="667.634563679212988" cy="481.045584802586745" r="110.42516343787247"/>
    <circle class="cls-1" cx="360.21103427289745" cy="468.766448774540549" r="73.863085074768506"/>
    <circle class="cls-1" cx="172.657685459589629" cy="431.637345633350833" r="24.295285562673236"/>
    <circle class="cls-1" cx="875.70030352125832" cy="557.230442080326156" r="63.421760473156475"/>
  </g>
</svg>