<?xml version="1.0" encoding="UTF-8"?>
<svg id="_图层_1" data-name="图层 1" xmlns="http://www.w3.org/2000/svg" viewBox="0 0 1000 1000">
  <defs>
    <style>
      .cls-1 {
        fill: none;
        stroke: #fff;
        stroke-width: .600000023841858px;
      }

      .cls-1, .cls-2, .cls-3 {
        stroke-miterlimit: 10;
      }

      .cls-4 {
        fill: #001738;
      }

      .cls-2 {
        fill: #a4e1ff;
      }

      .cls-2, .cls-3 {
        stroke: #000;
      }

      .cls-3 {
        fill: #e54600;
      }
    </style>
  </defs>
  <rect class="cls-4" x="-4.290742218763626" y="-4.429327234623997" width="1008.777962887443209" height="1008.777962887445028"/>
  <g>
    <circle class="cls-1" cx="154.749695032156978" cy="352.170153219911754" r="55.516309110137406"/>
    <circle class="cls-1" cx="796.191994681741107" cy="278.196458041474216" r="55.488663800247878"/>
    <circle class="cls-1" cx="894.896379455988608" cy="784.90225774181954" r="55.158577282428183"/>
    <circle class="cls-1" cx="284.078768530915113" cy="838.520407060440448" r="37.42140217900625"/>
    <circle class="cls-1" cx="129.567132225665318" cy="758.099043980219903" r="129.405383901939643"/>
    <circle class="cls-1" cx="608.834295845273573" cy="926.535267302497687" r="37.421402179007217"/>
    <circle class="cls-1" cx="592.552188747110449" cy="853.743159566592567" r="74.462888724460811"/>
    <circle class="cls-1" cx="716.06880580256302" cy="407.769852728485148" r="24.596108802944116"/>
    <circle class="cls-1" cx="796.386518959038767" cy="388.96591294002701" r="92.418051792205006"/>
    <circle class="cls-1" cx="832.725861031392014" cy="462.029969191756663" r="93.499182485828669"/>
    <circle class="cls-1" cx="814.618581081851517" cy="573.354454443174291" r="86.502573806814041"/>
    <circle class="cls-1" cx="629.653897432475333" cy="629.430250353702377" r="221.164869343505387"/>
    <circle class="cls-1" cx="409.729418691366391" cy="518.170217666823191" r="297.224106070637276"/>
    <circle class="cls-1" cx="166.520277346946386" cy="611.795649050826796" r="92.593414537311801"/>
    <circle class="cls-1" cx="289.452360463095829" cy="685.4646735384149" r="92.593414537311801"/>
    <circle class="cls-1" cx="258.79980768106816" cy="776.524096166612708" r="74.305022117863317"/>
    <circle class="cls-1" cx="555.278892485827782" cy="741.695577886962838" r="73.641565411890497"/>
    <circle class="cls-1" cx="172.199294722453487" cy="863.512837903136642" r="37.42140217900625"/>
    <circle class="cls-1" cx="904.412647616657978" cy="837.888829385713052" r="37.421402179007217"/>
    <circle class="cls-1" cx="834.221939431865849" cy="722.714413126920135" r="54.664570374652264"/>
    <ellipse class="cls-1" cx="796.386518959038767" cy="388.96591294002701" rx="92.418051792204963" ry="86.80175202815829" transform="translate(-21.510020260923739 730.391190476668271) rotate(-48.689267574991327)"/>
    <circle class="cls-1" cx="796.386518959038767" cy="388.965912940027465" r="86.578273382693396"/>
    <circle class="cls-1" cx="796.862064641734378" cy="204.972047671693417" r="56.171866958738519"/>
    <circle class="cls-1" cx="789.788671724541473" cy="172.768152859950987" r="24.53544216224121"/>
    <circle class="cls-1" cx="882.673023428031229" cy="314.873183479655836" r="55.353218114023917"/>
    <circle class="cls-1" cx="932.416175793101502" cy="247.097883267871111" r="49.426924765233096"/>
    <circle class="cls-1" cx="950.495082609892961" cy="234.446649270631042" r="24.916553470697792"/>
  </g>
  <ellipse class="cls-2" cx="796.19224069290658" cy="204.776075241310082" rx="56.171866958737667" ry="15.301962748832901" transform="translate(317.998810861258562 873.496023199101046) rotate(-68.855441652237488)"/>
  <ellipse class="cls-2" cx="789.103676616752182" cy="172.522491616380648" rx="9.891041991982739" ry="24.535442162241413" transform="translate(-15.115723544255729 247.886799934500004) rotate(-17.686195224310303)"/>
  <ellipse class="cls-2" cx="795.522170732914219" cy="277.999485120415102" rx="19.879258841726557" ry="55.48866380024694" transform="translate(-46.038781475515293 234.245610173557225) rotate(-16.286037168738545)"/>
  <ellipse class="cls-2" cx="949.833576600947708" cy="234.203945454465611" rx="24.916553470698133" ry="8.351415978824754" transform="translate(-22.137949581720136 345.139348257727534) rotate(-20.362573006972823)"/>
  <ellipse class="cls-2" cx="931.788829190898014" cy="246.878258730022935" rx="49.426924765231597" ry="12.770253754429067" transform="translate(301.381885705168997 976.101394980850728) rotate(-63.99647251118617)"/>
  <ellipse class="cls-2" cx="882.031432752767614" cy="314.670936451034777" rx="55.353218114022923" ry="18.779846124286607" transform="translate(82.881968708653289 802.889515295466026) rotate(-51.055924084061303)"/>
  <ellipse class="cls-2" cx="795.716695010212334" cy="388.687681772391898" rx="86.011380495165852" ry="76.455272216644843" transform="translate(-83.861655048710645 285.803772499881006) rotate(-19.362803897310343)"/>
  <ellipse class="cls-3" cx="715.398981853736586" cy="407.49162156085049" rx="24.430552338844283" ry="22.764096629481614" transform="translate(-107.644910404601887 386.423249628049632) rotate(-28.199517207898491)"/>
</svg>