<?xml version="1.0" encoding="UTF-8"?>
<svg id="_图层_1" data-name="图层 1" xmlns="http://www.w3.org/2000/svg" viewBox="0 0 1000 1000">
  <defs>
    <style>
      .cls-1 {
        fill: #a4e1ff;
      }

      .cls-1, .cls-2 {
        stroke: #000;
        stroke-miterlimit: 10;
      }

      .cls-2 {
        fill: #e54600;
      }
    </style>
  </defs>
  <ellipse class="cls-1" cx="258.129983732240362" cy="776.110655446306737" rx="28.792552626898019" ry="74.305022117860361" transform="translate(-53.627302052880054 19.945175700770392) rotate(-4.008891587005685)"/>
  <ellipse class="cls-1" cx="288.782536514265303" cy="685.051232818108929" rx="92.593414537312256" ry="45.989320219256889" transform="translate(-451.172663876925185 613.240047092923533) rotate(-61.599118749287463)"/>
  <ellipse class="cls-1" cx="409.059594742544505" cy="517.756776946515174" rx="176.890744781419357" ry="297.224106070642279" transform="translate(-233.27267011015681 668.790195944356356) rotate(-64.920866368667262)"/>
  <ellipse class="cls-1" cx="128.897308276836611" cy="757.685603259915297" rx="40.311368623437346" ry="129.405383901939047" transform="translate(-180.474686255438371 54.12966485311199) rotate(-14.081635807199806)"/>
  <ellipse class="cls-1" cx="171.529470773624325" cy="863.099397182825669" rx="37.421402179008012" ry="28.248762670222792" transform="translate(-124.439857233972361 34.386488124466496) rotate(-8.413536315261551)"/>
  <path class="cls-1" d="M283.408909579004103,859.288935400188166c20.667269739598851.000000000001819,37.421402179006691-9.483515665866435,37.421402179004872-21.182025096604775-.000000000010914-11.698509430723789-16.754132439416935-21.182025096590223-37.421402179019424-21.182025096590223-20.667269739597032.000000000007276-37.421402178995777,9.483515665871892-37.421402178995777,21.182025096597499.000000000001819,11.698509430734703,16.754132439415116,21.182025096601137,37.421402179010329,21.182025096597499Z"/>
  <ellipse class="cls-1" cx="165.850453398115405" cy="611.382208330520371" rx="92.593414537311943" ry="48.509687142746863" transform="translate(-314.603282973588705 198.515662383850952) rotate(-34.149219609316994)"/>
  <ellipse class="cls-1" cx="833.552115483037596" cy="722.300972406615074" rx="33.160274608883874" ry="54.664570374649351" transform="translate(-258.005793379848001 880.507026540688116) rotate(-49.156827925829752)"/>
  <ellipse class="cls-1" cx="628.98407348364799" cy="629.016809633394587" rx="140.954627043631604" ry="221.164869343505444" transform="translate(-208.5763132722725 928.64275983585992) rotate(-64.685476688362698)"/>
  <ellipse class="cls-1" cx="554.609068536997256" cy="741.282137166656412" rx="35.49730801317407" ry="73.641565411885594" transform="translate(-124.645515740022574 112.232349372006411) rotate(-10.39465399474177)"/>
  <ellipse class="cls-1" cx="591.882364798279468" cy="853.329718846290234" rx="27.377659845552277" ry="74.46288872445885" transform="translate(-316.158761456236107 349.387603265618338) rotate(-26.224963951004082)"/>
  <ellipse class="cls-1" cx="894.226555507158992" cy="784.488817021514024" rx="24.739788803650463" ry="55.158577282429214" transform="translate(-293.015571481209236 710.192326457370427) rotate(-37.67904613583945)"/>
  <ellipse class="cls-1" cx="813.948757133022809" cy="572.941013722865137" rx="86.502573806814041" ry="48.519098540781499" transform="translate(-2.209838115619277 1142.729686693765871) rotate(-70.062062980258133)"/>
  <ellipse class="cls-1" cx="832.056037082563307" cy="461.616528471447964" rx="42.456287218124089" ry="93.499182485828896"/>
  <ellipse class="cls-1" cx="796.19224069290658" cy="204.640865688636495" rx="56.171866958737638" ry="15.301962748832899" transform="translate(318.124917199161132 873.409586740176451) rotate(-68.855441652237175)"/>
  <ellipse class="cls-1" cx="789.103676616752182" cy="172.387282063706607" rx="9.891041991982878" ry="24.53544216224098" transform="translate(-15.074646406350666 247.880409215373732) rotate(-17.686195224310492)"/>
  <ellipse class="cls-1" cx="795.522170732914219" cy="277.86427556774197" rx="19.879258841726429" ry="55.488663800247387" transform="translate(-46.000864282267912 234.240184709242698) rotate(-16.286037168738748)"/>
  <ellipse class="cls-1" cx="949.833576600947708" cy="234.068735901792706" rx="24.916553470697888" ry="8.351415978824967" transform="translate(-22.090902103946519 345.130898943177272) rotate(-20.362573006972784)"/>
  <ellipse class="cls-1" cx="931.788829190898014" cy="246.743049177349349" rx="49.426924765231597" ry="12.770253754429467" transform="translate(301.503407596729176 976.02546487660436) rotate(-63.99647251118617)"/>
  <ellipse class="cls-1" cx="882.031432752767614" cy="314.535726898360963" rx="55.35321811402239" ry="18.779846124286752" transform="translate(82.987129269414254 802.839293268895631) rotate(-51.055924084060948)"/>
  <ellipse class="cls-1" cx="795.716695010212334" cy="388.552472219718084" rx="86.011380495165625" ry="76.455272216645056" transform="translate(-83.816826493637677 285.796124790147019) rotate(-19.362803897307639)"/>
  <ellipse class="cls-2" cx="715.398981853736586" cy="407.55604365472982" rx="24.430552338844283" ry="22.764096629481614" transform="translate(-107.675352635930608 386.430896051686148) rotate(-28.199517207898491)"/>
  <ellipse class="cls-1" cx="154.079871083329181" cy="351.756712499605101" rx="40.892839522780335" ry="55.516309110139815" transform="translate(-174.371697104430837 152.776917503765361) rotate(-35.137185254684979)"/>
  <ellipse class="cls-1" cx="903.742823667828361" cy="837.475388665403443" rx="37.421402179004886" ry="20.484262860539676" transform="translate(-315.370736022521214 1016.020191251456254) rotate(-51.152481291223395)"/>
  <ellipse class="cls-1" cx="608.164471896442592" cy="926.121826582186259" rx="37.421402179026451" ry="24.158581088089544" transform="translate(-424.96220813060927 1326.390393378638009) rotate(-77.886016409797648)"/>
</svg>