<?xml version="1.0" encoding="UTF-8"?>
<svg id="_图层_1" data-name="图层 1" xmlns="http://www.w3.org/2000/svg" viewBox="0 0 1000 1000">
  <defs>
    <style>
      .cls-1 {
        fill: #f50;
        stroke-width: .600000023841858px;
      }

      .cls-1, .cls-2 {
        stroke: #000;
        stroke-miterlimit: 10;
      }

      .cls-2 {
        fill: #a4e1ff;
      }
    </style>
  </defs>
  <ellipse class="cls-2" cx="582.279347631085329" cy="597.033336562043587" rx="64.229981634822764" ry="47.859959347529831" transform="translate(-151.974406421903723 992.469131986764069) rotate(-74.021663755185386)"/>
  <ellipse class="cls-2" cx="526.803416777989696" cy="445.960674743112577" rx="153.515113880857712" ry="250.514451430944689" transform="translate(-105.314050468239316 723.143414011828895) rotate(-63.926674115214027)"/>
  <ellipse class="cls-2" cx="277.109233769588172" cy="233.349123779287311" rx="72.805992975536583" ry="166.187289866142692" transform="translate(-51.060960459719581 386.795090257483935) rotate(-65.160050556994733)"/>
  <ellipse class="cls-2" cx="426.194798302778509" cy="544.527525888665423" rx="80.295258791308555" ry="59.830747631228981" transform="translate(-265.26283748025287 550.738038598419053) rotate(-52.464766899065737)"/>
  <ellipse class="cls-2" cx="388.424502002942972" cy="630.217924464418047" rx="69.297830604590644" ry="21.178977304881641" transform="translate(-273.770206875883218 961.195859688746623) rotate(-84.909859831511184)"/>
  <ellipse class="cls-2" cx="565.786598705200959" cy="697.729211724813013" rx="61.994667418823063" ry="16.643221981751974" transform="translate(-197.376292222813049 1171.567718052575856) rotate(-82.797144202162272)"/>
  <ellipse class="cls-2" cx="412.855752975190626" cy="778.915229528729469" rx="20.190197584249788" ry="116.980530717260692" transform="translate(-201.477140365199375 146.65428362385228) rotate(-16.250698418773435)"/>
  <ellipse class="cls-2" cx="574.331422925506558" cy="803.435469622203073" rx="16.152264677168375" ry="93.58504226301784" transform="translate(-127.620699744136687 108.720884568550218) rotate(-9.738032668903145)"/>
  <ellipse class="cls-2" cx="240.022226562796277" cy="384.244511104138155" rx="89.401999276623044" ry="204.06940914038222" transform="translate(-191.397932422320991 522.559947621818878) rotate(-75.784729375979452)"/>
  <ellipse class="cls-2" cx="740.874600792649289" cy="439.875441305392087" rx="74.054953197895927" ry="44.814619214773572" transform="translate(176.037349037977719 1090.524699349624825) rotate(-79.736963002364362)"/>
  <ellipse class="cls-2" cx="757.504266531608664" cy="284.979334763891984" rx="34.971077424123692" ry="130.69669579887281" transform="translate(-12.173518650382334 34.735369694990027) rotate(-2.605906737687568)"/>
  <circle class="cls-2" cx="752.248951658735677" cy="132.453012683096858" r="47.975068831131395"/>
  <ellipse class="cls-2" cx="882.804765927958215" cy="100.654518212620815" rx="104.731594720685592" ry="9.853033143786773" transform="translate(-2.349476244115067 177.969163309876706) rotate(-11.496474256868982)"/>
  <ellipse class="cls-2" cx="431.662018033712229" cy="908.58189281184832" rx="49.7259913749796" ry="25.864869683204777" transform="translate(-556.281418184812765 1097.846048401941971) rotate(-75.432853340440374)"/>
  <ellipse class="cls-2" cx="580.127484741548869" cy="896.538214706087729" rx="36.955445294997908" ry="25.000104133217228" transform="translate(-453.174761827601287 1166.01017283175679) rotate(-71.710556149885988)"/>
  <circle class="cls-2" cx="752.239238998919973" cy="132.702334892185263" r="47.975068831131203"/>
  <path class="cls-1" d="M758.822670254170589,99.181270016718372c-.042804161314052,9.412630110164173,10.869138578118509,17.55760949395335,24.372506262754541,18.19232063270465,13.503367684643308.634711138747662,24.484709681602908-6.481198163377485,24.527513842920598-15.893828273543477.042804161308595-9.412630110171449-10.86913857811669-17.557609493960626-24.372506262758179-18.19232063270465-13.503367684637851-.6347111387513-24.484709681606546,6.481198163373847-24.52751384291696,15.893828273543477Z"/>
</svg>