<?xml version="1.0" encoding="UTF-8"?>
<svg id="_图层_1" data-name="图层 1" xmlns="http://www.w3.org/2000/svg" viewBox="0 0 1000 1000">
  <defs>
    <style>
      .cls-1 {
        fill: #f98b78;
      }

      .cls-2 {
        fill: #a4e1ff;
        stroke: #000;
        stroke-miterlimit: 10;
      }
    </style>
  </defs>
  <ellipse class="cls-2" cx="369.980798295280692" cy="847.732262075565359" rx="35.960954921210792" ry="61.516508066232504" transform="translate(-524.914564902422285 1081.608443415648253) rotate(-81.068176390474534)"/>
  <ellipse class="cls-2" cx="776.790320739761682" cy="846.923519284118811" rx="37.065027664814465" ry="29.165953149596426" transform="translate(-85.583355525956108 87.322115654866593) rotate(-6.098796478501393)"/>
  <ellipse class="cls-2" cx="390.409815850263385" cy="606.776360575057197" rx="217.42982471003441" ry="314.502200744557854" transform="translate(-329.021378087354265 551.857026507332307) rotate(-52.876778704974996)"/>
  <ellipse class="cls-2" cx="629.037432697126405" cy="736.610789610560005" rx="152.249365190098473" ry="185.502579226104189" transform="translate(-180.858108721185772 1267.979549602736824) rotate(-82.772637868836924)"/>
  <ellipse class="cls-2" cx="895.491511962073673" cy="558.558838306597181" rx="38.184858061234152" ry="103.468236173701399" transform="translate(-69.718283821417003 131.636042042297902) rotate(-8.093340504356224)"/>
  <ellipse class="cls-2" cx="765.363244204257171" cy="551.971681039181021" rx="50.330076457893348" ry="122.758087859790777" transform="translate(-178.216586119458157 562.494801030581357) rotate(-36.437689716847132)"/>
  <ellipse class="cls-2" cx="856.615920872742208" cy="717.67843623171575" rx="129.114172016107631" ry="112.644371498085945" transform="translate(-52.458879406847132 67.727529453917782) rotate(-4.39329504221962)"/>
  <ellipse class="cls-2" cx="182.438523754836297" cy="381.360028061418916" rx="68.475404165287486" ry="76.53118253015964" transform="translate(-150.805853044987487 121.230307952110309) rotate(-26.458541895957364)"/>
  <ellipse class="cls-2" cx="209.075572207910227" cy="737.486827299565448" rx="86.512846529947225" ry="65.144277245862042" transform="translate(-480.500917550045756 402.697818956191327) rotate(-48.275558777289461)"/>
  <ellipse class="cls-2" cx="209.239207488543798" cy="810.958688496163631" rx="37.206923262961389" ry="61.462812166213716" transform="translate(-609.940021564058156 985.258519496185386) rotate(-87.544290790634875)"/>
  <ellipse class="cls-2" cx="664.572876447095496" cy="884.278089628106954" rx="38.159341967728189" ry="73.922252166873633" transform="translate(-433.811871530147073 753.297963973601327) rotate(-46.273277149861613)"/>
  <ellipse class="cls-2" cx="727.392667480474756" cy="921.428390709246287" rx="36.916335588317466" ry="23.916692344392271" transform="translate(-227.802777610657358 238.982763874004604) rotate(-16.167624770642174)"/>
  <ellipse class="cls-1" cx="759.741703837893056" cy="546.185978411785754" rx="17.91014845855252" ry="68.609032123636737" transform="translate(-175.879171091528065 558.024811143482225) rotate(-36.437689716847849)"/>
</svg>