<?xml version="1.0" encoding="UTF-8"?>
<svg id="_图层_1" data-name="图层 1" xmlns="http://www.w3.org/2000/svg" viewBox="0 0 1000 1000">
  <defs>
    <style>
      .cls-1 {
        fill: none;
        stroke: #fff;
        stroke-miterlimit: 10;
        stroke-width: .600000023841858px;
      }

      .cls-2 {
        fill: #001738;
      }
    </style>
  </defs>
  <rect class="cls-2" x="-6.30262502849655" y="-5.15549834938065" width="1011.992947010676289" height="1011.992947010676289"/>
  <g>
    <g>
      <rect class="cls-1" x="667.302917730485206" y="334.055468930842835" width="37.037037037036498" height="37.037037037036498"/>
      <rect class="cls-1" x="704.339954767521704" y="334.055468930842835" width="37.037037037036498" height="37.037037037036498"/>
      <rect class="cls-1" x="741.376991804558202" y="334.055468930842835" width="37.037037037038317" height="37.037037037036498"/>
      <rect class="cls-1" x="667.302917730485206" y="371.092505967879333" width="37.037037037036498" height="37.037037037036498"/>
      <rect class="cls-1" x="704.339954767521704" y="371.092505967879333" width="37.037037037036498" height="37.037037037036498"/>
      <rect class="cls-1" x="741.376991804558202" y="371.092505967879333" width="37.037037037038317" height="37.037037037036498"/>
      <rect class="cls-1" x="667.302917730485206" y="408.129543004915831" width="37.037037037036498" height="37.037037037036498"/>
      <rect class="cls-1" x="704.339954767521704" y="408.129543004915831" width="37.037037037036498" height="37.037037037036498"/>
      <rect class="cls-1" x="741.376991804558202" y="408.129543004915831" width="37.037037037038317" height="37.037037037036498"/>
    </g>
    <rect class="cls-1" x="222.359339785532939" y="777.824669958981758" width="111.111111111111313" height="111.111111111109494"/>
    <g>
      <rect class="cls-1" x="222.359339785532939" y="777.417208790046061" width="37.037037037036498" height="37.037037037036498"/>
      <rect class="cls-1" x="259.396376822569437" y="777.417208790046061" width="37.037037037036498" height="37.037037037036498"/>
      <rect class="cls-1" x="296.433413859605935" y="777.417208790046061" width="37.037037037038317" height="37.037037037036498"/>
      <rect class="cls-1" x="222.359339785532939" y="814.454245827082559" width="37.037037037036498" height="37.037037037038317"/>
      <rect class="cls-1" x="259.396376822569437" y="814.454245827082559" width="37.037037037036498" height="37.037037037038317"/>
      <rect class="cls-1" x="296.433413859605935" y="814.454245827082559" width="37.037037037038317" height="37.037037037038317"/>
      <rect class="cls-1" x="222.359339785532939" y="851.491282864120876" width="37.037037037036498" height="37.037037037036498"/>
      <rect class="cls-1" x="259.396376822569437" y="851.491282864120876" width="37.037037037036498" height="37.037037037036498"/>
      <rect class="cls-1" x="296.433413859605935" y="851.491282864120876" width="37.037037037038317" height="37.037037037036498"/>
    </g>
    <g>
      <rect class="cls-1" x="666.53600198258755" y="777.197433132685546" width="37.037037037036498" height="37.037037037036498"/>
      <rect class="cls-1" x="703.573039019624048" y="777.197433132685546" width="37.037037037038317" height="37.037037037036498"/>
      <rect class="cls-1" x="740.610076056662365" y="777.197433132685546" width="37.037037037036498" height="37.037037037036498"/>
      <rect class="cls-1" x="666.53600198258755" y="814.234470169722044" width="37.037037037036498" height="37.037037037038317"/>
      <rect class="cls-1" x="703.573039019624048" y="814.234470169722044" width="37.037037037038317" height="37.037037037038317"/>
      <rect class="cls-1" x="740.610076056662365" y="814.234470169722044" width="37.037037037036498" height="37.037037037038317"/>
      <rect class="cls-1" x="666.53600198258755" y="851.271507206760361" width="37.037037037036498" height="37.037037037036498"/>
      <rect class="cls-1" x="703.573039019624048" y="851.271507206760361" width="37.037037037038317" height="37.037037037036498"/>
      <rect class="cls-1" x="740.610076056662365" y="851.271507206760361" width="37.037037037036498" height="37.037037037036498"/>
    </g>
    <g>
      <rect class="cls-1" x="556.100134287782566" y="777.197433132685546" width="37.037037037036498" height="37.037037037036498"/>
      <rect class="cls-1" x="593.137171324819064" y="777.197433132685546" width="37.037037037038317" height="37.037037037036498"/>
      <rect class="cls-1" x="630.174208361857382" y="777.197433132685546" width="37.037037037036498" height="37.037037037036498"/>
      <rect class="cls-1" x="556.100134287782566" y="814.234470169722044" width="37.037037037036498" height="37.037037037038317"/>
      <rect class="cls-1" x="593.137171324819064" y="814.234470169722044" width="37.037037037038317" height="37.037037037038317"/>
      <rect class="cls-1" x="630.174208361857382" y="814.234470169722044" width="37.037037037036498" height="37.037037037038317"/>
      <rect class="cls-1" x="556.100134287782566" y="851.271507206760361" width="37.037037037036498" height="37.037037037036498"/>
      <rect class="cls-1" x="593.137171324819064" y="851.271507206760361" width="37.037037037038317" height="37.037037037036498"/>
      <rect class="cls-1" x="630.174208361857382" y="851.271507206760361" width="37.037037037036498" height="37.037037037036498"/>
    </g>
    <g>
      <rect class="cls-1" x="556.100134287782566" y="888.986681559043063" width="37.037037037036498" height="37.037037037036498"/>
      <rect class="cls-1" x="593.137171324819064" y="888.986681559043063" width="37.037037037038317" height="37.037037037036498"/>
      <rect class="cls-1" x="630.174208361857382" y="888.986681559043063" width="37.037037037036498" height="37.037037037036498"/>
      <rect class="cls-1" x="556.100134287782566" y="926.023718596079561" width="37.037037037036498" height="37.037037037038317"/>
      <rect class="cls-1" x="593.137171324819064" y="926.023718596079561" width="37.037037037038317" height="37.037037037038317"/>
      <rect class="cls-1" x="630.174208361857382" y="926.023718596079561" width="37.037037037036498" height="37.037037037038317"/>
      <rect class="cls-1" x="556.100134287782566" y="963.060755633117878" width="37.037037037036498" height="37.037037037036498"/>
      <rect class="cls-1" x="593.137171324819064" y="963.060755633117878" width="37.037037037038317" height="37.037037037036498"/>
      <rect class="cls-1" x="630.174208361857382" y="963.060755633117878" width="37.037037037036498" height="37.037037037036498"/>
    </g>
    <g>
      <rect class="cls-1" x="666.536001982585731" y="888.445329266420231" width="37.037037037036498" height="37.037037037036498"/>
      <rect class="cls-1" x="703.573039019622229" y="888.445329266420231" width="37.037037037038317" height="37.037037037036498"/>
      <rect class="cls-1" x="740.610076056660546" y="888.445329266420231" width="37.037037037036498" height="37.037037037036498"/>
      <rect class="cls-1" x="666.536001982585731" y="925.482366303456729" width="37.037037037036498" height="37.037037037038317"/>
      <rect class="cls-1" x="703.573039019622229" y="925.482366303456729" width="37.037037037038317" height="37.037037037038317"/>
      <rect class="cls-1" x="740.610076056660546" y="925.482366303456729" width="37.037037037036498" height="37.037037037038317"/>
      <rect class="cls-1" x="666.536001982585731" y="962.519403340495046" width="37.037037037036498" height="37.037037037036498"/>
      <rect class="cls-1" x="703.573039019622229" y="962.519403340495046" width="37.037037037038317" height="37.037037037036498"/>
      <rect class="cls-1" x="740.610076056660546" y="962.519403340495046" width="37.037037037036498" height="37.037037037036498"/>
    </g>
    <rect class="cls-1" x="222.359339785532939" y="666.713558847870445" width="111.111111111111313" height="111.111111111111313"/>
    <rect class="cls-1" x="111.248228674421625" y="666.713558847870445" width="111.111111111111313" height="111.111111111111313"/>
    <g>
      <rect class="cls-1" x="111.248228674421625" y="777.824669958981758" width="37.037037037036498" height="37.037037037036498"/>
      <rect class="cls-1" x="148.285265711458123" y="777.824669958981758" width="37.037037037038317" height="37.037037037036498"/>
      <rect class="cls-1" x="185.32230274849644" y="777.824669958981758" width="37.037037037036498" height="37.037037037036498"/>
      <rect class="cls-1" x="111.248228674421625" y="814.861706996018256" width="37.037037037036498" height="37.037037037036498"/>
      <rect class="cls-1" x="148.285265711458123" y="814.861706996018256" width="37.037037037038317" height="37.037037037036498"/>
      <rect class="cls-1" x="185.32230274849644" y="814.861706996018256" width="37.037037037036498" height="37.037037037036498"/>
      <rect class="cls-1" x="111.248228674421625" y="851.898744033054754" width="37.037037037036498" height="37.037037037036498"/>
      <rect class="cls-1" x="148.285265711458123" y="851.898744033054754" width="37.037037037038317" height="37.037037037036498"/>
      <rect class="cls-1" x="185.32230274849644" y="851.898744033054754" width="37.037037037036498" height="37.037037037036498"/>
    </g>
    <g>
      <rect class="cls-1" x="111.248228674421625" y="666.306097678936567" width="37.037037037036498" height="37.037037037036498"/>
      <rect class="cls-1" x="148.285265711458123" y="666.306097678936567" width="37.037037037038317" height="37.037037037036498"/>
      <rect class="cls-1" x="185.32230274849644" y="666.306097678936567" width="37.037037037036498" height="37.037037037036498"/>
      <rect class="cls-1" x="111.248228674421625" y="703.343134715973065" width="37.037037037036498" height="37.037037037036498"/>
      <rect class="cls-1" x="148.285265711458123" y="703.343134715973065" width="37.037037037038317" height="37.037037037036498"/>
      <rect class="cls-1" x="185.32230274849644" y="703.343134715973065" width="37.037037037036498" height="37.037037037036498"/>
      <rect class="cls-1" x="111.248228674421625" y="740.380171753009563" width="37.037037037036498" height="37.037037037036498"/>
      <rect class="cls-1" x="148.285265711458123" y="740.380171753009563" width="37.037037037038317" height="37.037037037036498"/>
      <rect class="cls-1" x="185.32230274849644" y="740.380171753009563" width="37.037037037036498" height="37.037037037036498"/>
    </g>
    <g>
      <rect class="cls-1" x="555.784345450438195" y="444.491336625645999" width="37.037037037036498" height="37.037037037036498"/>
      <rect class="cls-1" x="592.821382487474693" y="444.491336625645999" width="37.037037037036498" height="37.037037037036498"/>
      <rect class="cls-1" x="629.858419524511191" y="444.491336625645999" width="37.037037037038317" height="37.037037037036498"/>
      <rect class="cls-1" x="555.784345450438195" y="481.528373662682498" width="37.037037037036498" height="37.037037037036498"/>
      <rect class="cls-1" x="592.821382487474693" y="481.528373662682498" width="37.037037037036498" height="37.037037037036498"/>
      <rect class="cls-1" x="629.858419524511191" y="481.528373662682498" width="37.037037037038317" height="37.037037037036498"/>
      <rect class="cls-1" x="555.784345450438195" y="518.565410699718996" width="37.037037037036498" height="37.037037037036498"/>
      <rect class="cls-1" x="592.821382487474693" y="518.565410699718996" width="37.037037037036498" height="37.037037037036498"/>
      <rect class="cls-1" x="629.858419524511191" y="518.565410699718996" width="37.037037037038317" height="37.037037037036498"/>
    </g>
    <g>
      <rect class="cls-1" x=".154127269202945" y="333.581544516562644" width="37.037037037036498" height="37.037037037036498"/>
      <rect class="cls-1" x="37.191164306239443" y="333.581544516562644" width="37.037037037036498" height="37.037037037036498"/>
      <rect class="cls-1" x="74.228201343275941" y="333.581544516562644" width="37.037037037038317" height="37.037037037036498"/>
      <rect class="cls-1" x=".154127269202945" y="370.618581553599142" width="37.037037037036498" height="37.037037037036498"/>
      <rect class="cls-1" x="37.191164306239443" y="370.618581553599142" width="37.037037037036498" height="37.037037037036498"/>
      <rect class="cls-1" x="74.228201343275941" y="370.618581553599142" width="37.037037037038317" height="37.037037037036498"/>
      <rect class="cls-1" x=".154127269202945" y="407.65561859063564" width="37.037037037036498" height="37.037037037036498"/>
      <rect class="cls-1" x="37.191164306239443" y="407.65561859063564" width="37.037037037036498" height="37.037037037036498"/>
      <rect class="cls-1" x="74.228201343275941" y="407.65561859063564" width="37.037037037038317" height="37.037037037036498"/>
    </g>
    <rect class="cls-1" x="222.219660863971512" y="222.269114403425192" width="111.111111111111313" height="111.111111111111313"/>
    <g>
      <g>
        <rect class="cls-1" x="962.790561803276432" y="665.678378536122182" width="12.345679012345499" height="12.345679012345499"/>
        <rect class="cls-1" x="975.136240815621932" y="665.678378536122182" width="12.345679012347318" height="12.345679012345499"/>
        <rect class="cls-1" x="987.48191982796925" y="665.678378536122182" width="12.345679012345499" height="12.345679012345499"/>
        <rect class="cls-1" x="962.790561803276432" y="678.024057548467681" width="12.345679012345499" height="12.345679012345499"/>
        <rect class="cls-1" x="975.136240815621932" y="678.024057548467681" width="12.345679012347318" height="12.345679012345499"/>
        <rect class="cls-1" x="987.48191982796925" y="678.024057548467681" width="12.345679012345499" height="12.345679012345499"/>
        <rect class="cls-1" x="962.790561803276432" y="690.36973656081318" width="12.345679012345499" height="12.345679012345499"/>
        <rect class="cls-1" x="975.136240815621932" y="690.36973656081318" width="12.345679012347318" height="12.345679012345499"/>
        <rect class="cls-1" x="987.48191982796925" y="690.36973656081318" width="12.345679012345499" height="12.345679012345499"/>
      </g>
      <g>
        <rect class="cls-1" x="703.48281363753631" y="665.678378536122182" width="12.345679012345499" height="12.345679012345499"/>
        <rect class="cls-1" x="715.828492649881809" y="665.678378536122182" width="12.345679012347318" height="12.345679012345499"/>
        <rect class="cls-1" x="728.174171662229128" y="665.678378536122182" width="12.345679012345499" height="12.345679012345499"/>
        <rect class="cls-1" x="703.48281363753631" y="678.024057548467681" width="12.345679012345499" height="12.345679012345499"/>
        <rect class="cls-1" x="715.828492649881809" y="678.024057548467681" width="12.345679012347318" height="12.345679012345499"/>
        <rect class="cls-1" x="728.174171662229128" y="678.024057548467681" width="12.345679012345499" height="12.345679012345499"/>
        <rect class="cls-1" x="703.48281363753631" y="690.36973656081318" width="12.345679012345499" height="12.345679012345499"/>
        <rect class="cls-1" x="715.828492649881809" y="690.36973656081318" width="12.345679012347318" height="12.345679012345499"/>
        <rect class="cls-1" x="728.174171662229128" y="690.36973656081318" width="12.345679012345499" height="12.345679012345499"/>
      </g>
      <g>
        <rect class="cls-1" x="852.076418794242272" y="482.693704462111782" width="12.345679012345499" height="12.345679012345499"/>
        <rect class="cls-1" x="864.422097806587772" y="482.693704462111782" width="12.345679012347318" height="12.345679012345499"/>
        <rect class="cls-1" x="876.76777681893509" y="482.693704462111782" width="12.345679012345499" height="12.345679012345499"/>
        <rect class="cls-1" x="852.076418794242272" y="495.039383474457281" width="12.345679012345499" height="12.345679012345499"/>
        <rect class="cls-1" x="864.422097806587772" y="495.039383474457281" width="12.345679012347318" height="12.345679012345499"/>
        <rect class="cls-1" x="876.76777681893509" y="495.039383474457281" width="12.345679012345499" height="12.345679012345499"/>
        <rect class="cls-1" x="852.076418794242272" y="507.385062486802781" width="12.345679012345499" height="12.345679012345499"/>
        <rect class="cls-1" x="864.422097806587772" y="507.385062486802781" width="12.345679012347318" height="12.345679012345499"/>
        <rect class="cls-1" x="876.76777681893509" y="507.385062486802781" width="12.345679012345499" height="12.345679012345499"/>
      </g>
      <g>
        <rect class="cls-1" x="741.05408611576604" y="371.220244873118645" width="12.345679012345499" height="12.345679012345499"/>
        <rect class="cls-1" x="753.39976512811154" y="371.220244873118645" width="12.345679012347318" height="12.345679012345499"/>
        <rect class="cls-1" x="765.745444140458858" y="371.220244873118645" width="12.345679012345499" height="12.345679012345499"/>
        <rect class="cls-1" x="741.05408611576604" y="383.565923885464144" width="12.345679012345499" height="12.345679012345499"/>
        <rect class="cls-1" x="753.39976512811154" y="383.565923885464144" width="12.345679012347318" height="12.345679012345499"/>
        <rect class="cls-1" x="765.745444140458858" y="383.565923885464144" width="12.345679012345499" height="12.345679012345499"/>
        <rect class="cls-1" x="741.05408611576604" y="395.911602897809644" width="12.345679012345499" height="12.345679012345499"/>
        <rect class="cls-1" x="753.39976512811154" y="395.911602897809644" width="12.345679012347318" height="12.345679012345499"/>
        <rect class="cls-1" x="765.745444140458858" y="395.911602897809644" width="12.345679012345499" height="12.345679012345499"/>
      </g>
      <g>
        <rect class="cls-1" x="667.239427393120422" y="482.3956791077253" width="12.345679012345499" height="12.345679012345499"/>
        <rect class="cls-1" x="679.585106405465922" y="482.3956791077253" width="12.345679012347318" height="12.345679012345499"/>
        <rect class="cls-1" x="691.93078541781324" y="482.3956791077253" width="12.345679012345499" height="12.345679012345499"/>
        <rect class="cls-1" x="667.239427393120422" y="494.741358120070799" width="12.345679012345499" height="12.345679012345499"/>
        <rect class="cls-1" x="679.585106405465922" y="494.741358120070799" width="12.345679012347318" height="12.345679012345499"/>
        <rect class="cls-1" x="691.93078541781324" y="494.741358120070799" width="12.345679012345499" height="12.345679012345499"/>
        <rect class="cls-1" x="667.239427393120422" y="507.087037132416299" width="12.345679012345499" height="12.345679012345499"/>
        <rect class="cls-1" x="679.585106405465922" y="507.087037132416299" width="12.345679012347318" height="12.345679012345499"/>
        <rect class="cls-1" x="691.93078541781324" y="507.087037132416299" width="12.345679012345499" height="12.345679012345499"/>
      </g>
      <g>
        <rect class="cls-1" x="740.953564571755123" y="407.614035679687731" width="12.345679012345499" height="12.345679012345499"/>
        <rect class="cls-1" x="753.299243584100623" y="407.614035679687731" width="12.345679012347318" height="12.345679012345499"/>
        <rect class="cls-1" x="765.644922596447941" y="407.614035679687731" width="12.345679012345499" height="12.345679012345499"/>
        <rect class="cls-1" x="740.953564571755123" y="419.959714692033231" width="12.345679012345499" height="12.345679012347318"/>
        <rect class="cls-1" x="753.299243584100623" y="419.959714692033231" width="12.345679012347318" height="12.345679012347318"/>
        <rect class="cls-1" x="765.644922596447941" y="419.959714692033231" width="12.345679012345499" height="12.345679012347318"/>
        <rect class="cls-1" x="740.953564571755123" y="432.305393704380549" width="12.345679012345499" height="12.345679012345499"/>
        <rect class="cls-1" x="753.299243584100623" y="432.305393704380549" width="12.345679012347318" height="12.345679012345499"/>
        <rect class="cls-1" x="765.644922596447941" y="432.305393704380549" width="12.345679012345499" height="12.345679012345499"/>
      </g>
      <g>
        <rect class="cls-1" x="110.920017504242423" y="703.159425632244165" width="12.345679012345499" height="12.345679012345499"/>
        <rect class="cls-1" x="123.265696516587923" y="703.159425632244165" width="12.345679012347318" height="12.345679012345499"/>
        <rect class="cls-1" x="135.611375528935241" y="703.159425632244165" width="12.345679012345499" height="12.345679012345499"/>
        <rect class="cls-1" x="110.920017504242423" y="715.505104644589665" width="12.345679012345499" height="12.345679012347318"/>
        <rect class="cls-1" x="123.265696516587923" y="715.505104644589665" width="12.345679012347318" height="12.345679012347318"/>
        <rect class="cls-1" x="135.611375528935241" y="715.505104644589665" width="12.345679012345499" height="12.345679012347318"/>
        <rect class="cls-1" x="110.920017504242423" y="727.850783656936983" width="12.345679012345499" height="12.345679012345499"/>
        <rect class="cls-1" x="123.265696516587923" y="727.850783656936983" width="12.345679012347318" height="12.345679012345499"/>
        <rect class="cls-1" x="135.611375528935241" y="727.850783656936983" width="12.345679012345499" height="12.345679012345499"/>
      </g>
      <g>
        <rect class="cls-1" x="333.957162064336444" y="851.850855338972906" width="12.345679012345499" height="12.345679012345499"/>
        <rect class="cls-1" x="346.302841076681943" y="851.850855338972906" width="12.345679012347318" height="12.345679012345499"/>
        <rect class="cls-1" x="358.648520089029262" y="851.850855338972906" width="12.345679012345499" height="12.345679012345499"/>
        <rect class="cls-1" x="333.957162064336444" y="864.196534351318405" width="12.345679012345499" height="12.345679012347318"/>
        <rect class="cls-1" x="346.302841076681943" y="864.196534351318405" width="12.345679012347318" height="12.345679012347318"/>
        <rect class="cls-1" x="358.648520089029262" y="864.196534351318405" width="12.345679012345499" height="12.345679012347318"/>
        <rect class="cls-1" x="333.957162064336444" y="876.542213363665724" width="12.345679012345499" height="12.345679012345499"/>
        <rect class="cls-1" x="346.302841076681943" y="876.542213363665724" width="12.345679012347318" height="12.345679012345499"/>
        <rect class="cls-1" x="358.648520089029262" y="876.542213363665724" width="12.345679012345499" height="12.345679012345499"/>
      </g>
      <g>
        <rect class="cls-1" x="296.91228470112037" y="777.926353040918912" width="12.345679012345499" height="12.345679012345499"/>
        <rect class="cls-1" x="309.25796371346587" y="777.926353040918912" width="12.345679012347318" height="12.345679012345499"/>
        <rect class="cls-1" x="321.603642725813188" y="777.926353040918912" width="12.345679012345499" height="12.345679012345499"/>
        <rect class="cls-1" x="296.91228470112037" y="790.272032053264411" width="12.345679012345499" height="12.345679012347318"/>
        <rect class="cls-1" x="309.25796371346587" y="790.272032053264411" width="12.345679012347318" height="12.345679012347318"/>
        <rect class="cls-1" x="321.603642725813188" y="790.272032053264411" width="12.345679012345499" height="12.345679012347318"/>
        <rect class="cls-1" x="296.91228470112037" y="802.617711065611729" width="12.345679012345499" height="12.345679012345499"/>
        <rect class="cls-1" x="309.25796371346587" y="802.617711065611729" width="12.345679012347318" height="12.345679012345499"/>
        <rect class="cls-1" x="321.603642725813188" y="802.617711065611729" width="12.345679012345499" height="12.345679012345499"/>
      </g>
      <g>
        <rect class="cls-1" x="407.889504688546367" y="815.279661231808859" width="12.345679012345499" height="12.345679012345499"/>
        <rect class="cls-1" x="420.235183700891866" y="815.279661231808859" width="12.345679012347318" height="12.345679012345499"/>
        <rect class="cls-1" x="432.580862713239185" y="815.279661231808859" width="12.345679012345499" height="12.345679012345499"/>
        <rect class="cls-1" x="407.889504688546367" y="827.625340244154359" width="12.345679012345499" height="12.345679012347318"/>
        <rect class="cls-1" x="420.235183700891866" y="827.625340244154359" width="12.345679012347318" height="12.345679012347318"/>
        <rect class="cls-1" x="432.580862713239185" y="827.625340244154359" width="12.345679012345499" height="12.345679012347318"/>
        <rect class="cls-1" x="407.889504688546367" y="839.971019256501677" width="12.345679012345499" height="12.345679012345499"/>
        <rect class="cls-1" x="420.235183700891866" y="839.971019256501677" width="12.345679012347318" height="12.345679012345499"/>
        <rect class="cls-1" x="432.580862713239185" y="839.971019256501677" width="12.345679012345499" height="12.345679012345499"/>
      </g>
      <g>
        <rect class="cls-1" x="667.02416009976514" y="888.798149310398003" width="12.345679012345499" height="12.345679012345499"/>
        <rect class="cls-1" x="679.36983911211064" y="888.798149310398003" width="12.345679012347318" height="12.345679012345499"/>
        <rect class="cls-1" x="691.715518124457958" y="888.798149310398003" width="12.345679012345499" height="12.345679012345499"/>
        <rect class="cls-1" x="667.02416009976514" y="901.143828322743502" width="12.345679012345499" height="12.345679012347318"/>
        <rect class="cls-1" x="679.36983911211064" y="901.143828322743502" width="12.345679012347318" height="12.345679012347318"/>
        <rect class="cls-1" x="691.715518124457958" y="901.143828322743502" width="12.345679012345499" height="12.345679012347318"/>
        <rect class="cls-1" x="667.02416009976514" y="913.489507335090821" width="12.345679012345499" height="12.345679012345499"/>
        <rect class="cls-1" x="679.36983911211064" y="913.489507335090821" width="12.345679012347318" height="12.345679012345499"/>
        <rect class="cls-1" x="691.715518124457958" y="913.489507335090821" width="12.345679012345499" height="12.345679012345499"/>
      </g>
      <g>
        <rect class="cls-1" x="740.234699667153109" y="851.602735538192064" width="12.345679012345499" height="12.345679012345499"/>
        <rect class="cls-1" x="752.580378679498608" y="851.602735538192064" width="12.345679012347318" height="12.345679012345499"/>
        <rect class="cls-1" x="764.926057691845926" y="851.602735538192064" width="12.345679012345499" height="12.345679012345499"/>
        <rect class="cls-1" x="740.234699667153109" y="863.948414550537564" width="12.345679012345499" height="12.345679012347318"/>
        <rect class="cls-1" x="752.580378679498608" y="863.948414550537564" width="12.345679012347318" height="12.345679012347318"/>
        <rect class="cls-1" x="764.926057691845926" y="863.948414550537564" width="12.345679012345499" height="12.345679012347318"/>
        <rect class="cls-1" x="740.234699667153109" y="876.294093562884882" width="12.345679012345499" height="12.345679012345499"/>
        <rect class="cls-1" x="752.580378679498608" y="876.294093562884882" width="12.345679012347318" height="12.345679012345499"/>
        <rect class="cls-1" x="764.926057691845926" y="876.294093562884882" width="12.345679012345499" height="12.345679012345499"/>
      </g>
      <g>
        <rect class="cls-1" x="851.7532719471983" y="776.535217627999373" width="12.345679012345499" height="12.345679012345499"/>
        <rect class="cls-1" x="864.098950959543799" y="776.535217627999373" width="12.345679012347318" height="12.345679012345499"/>
        <rect class="cls-1" x="876.444629971891118" y="776.535217627999373" width="12.345679012345499" height="12.345679012345499"/>
        <rect class="cls-1" x="851.7532719471983" y="788.880896640344872" width="12.345679012345499" height="12.345679012347318"/>
        <rect class="cls-1" x="864.098950959543799" y="788.880896640344872" width="12.345679012347318" height="12.345679012347318"/>
        <rect class="cls-1" x="876.444629971891118" y="788.880896640344872" width="12.345679012345499" height="12.345679012347318"/>
        <rect class="cls-1" x="851.7532719471983" y="801.22657565269219" width="12.345679012345499" height="12.345679012345499"/>
        <rect class="cls-1" x="864.098950959543799" y="801.22657565269219" width="12.345679012347318" height="12.345679012345499"/>
        <rect class="cls-1" x="876.444629971891118" y="801.22657565269219" width="12.345679012345499" height="12.345679012345499"/>
      </g>
      <g>
        <rect class="cls-1" x="814.941316048931185" y="776.535217627999373" width="12.345679012345499" height="12.345679012345499"/>
        <rect class="cls-1" x="827.286995061276684" y="776.535217627999373" width="12.345679012347318" height="12.345679012345499"/>
        <rect class="cls-1" x="839.632674073624003" y="776.535217627999373" width="12.345679012345499" height="12.345679012345499"/>
        <rect class="cls-1" x="814.941316048931185" y="788.880896640344872" width="12.345679012345499" height="12.345679012347318"/>
        <rect class="cls-1" x="827.286995061276684" y="788.880896640344872" width="12.345679012347318" height="12.345679012347318"/>
        <rect class="cls-1" x="839.632674073624003" y="788.880896640344872" width="12.345679012345499" height="12.345679012347318"/>
        <rect class="cls-1" x="814.941316048931185" y="801.22657565269219" width="12.345679012345499" height="12.345679012345499"/>
        <rect class="cls-1" x="827.286995061276684" y="801.22657565269219" width="12.345679012347318" height="12.345679012345499"/>
        <rect class="cls-1" x="839.632674073624003" y="801.22657565269219" width="12.345679012345499" height="12.345679012345499"/>
      </g>
      <g>
        <rect class="cls-1" x="814.941316048931185" y="813.88852581888932" width="12.345679012345499" height="12.345679012345499"/>
        <rect class="cls-1" x="827.286995061276684" y="813.88852581888932" width="12.345679012347318" height="12.345679012345499"/>
        <rect class="cls-1" x="839.632674073624003" y="813.88852581888932" width="12.345679012345499" height="12.345679012345499"/>
        <rect class="cls-1" x="814.941316048931185" y="826.23420483123482" width="12.345679012345499" height="12.345679012347318"/>
        <rect class="cls-1" x="827.286995061276684" y="826.23420483123482" width="12.345679012347318" height="12.345679012347318"/>
        <rect class="cls-1" x="839.632674073624003" y="826.23420483123482" width="12.345679012345499" height="12.345679012347318"/>
        <rect class="cls-1" x="814.941316048931185" y="838.579883843582138" width="12.345679012345499" height="12.345679012345499"/>
        <rect class="cls-1" x="827.286995061276684" y="838.579883843582138" width="12.345679012347318" height="12.345679012345499"/>
        <rect class="cls-1" x="839.632674073624003" y="838.579883843582138" width="12.345679012345499" height="12.345679012345499"/>
      </g>
      <g>
        <rect class="cls-1" x="852.294624239819314" y="813.88852581888932" width="12.345679012345499" height="12.345679012345499"/>
        <rect class="cls-1" x="864.640303252164813" y="813.88852581888932" width="12.345679012347318" height="12.345679012345499"/>
        <rect class="cls-1" x="876.985982264512131" y="813.88852581888932" width="12.345679012345499" height="12.345679012345499"/>
        <rect class="cls-1" x="852.294624239819314" y="826.23420483123482" width="12.345679012345499" height="12.345679012347318"/>
        <rect class="cls-1" x="864.640303252164813" y="826.23420483123482" width="12.345679012347318" height="12.345679012347318"/>
        <rect class="cls-1" x="876.985982264512131" y="826.23420483123482" width="12.345679012345499" height="12.345679012347318"/>
        <rect class="cls-1" x="852.294624239819314" y="838.579883843582138" width="12.345679012345499" height="12.345679012345499"/>
        <rect class="cls-1" x="864.640303252164813" y="838.579883843582138" width="12.345679012347318" height="12.345679012345499"/>
        <rect class="cls-1" x="876.985982264512131" y="838.579883843582138" width="12.345679012345499" height="12.345679012345499"/>
      </g>
      <g>
        <rect class="cls-1" x="888.835903991775922" y="813.88852581888932" width="12.345679012345499" height="12.345679012345499"/>
        <rect class="cls-1" x="901.181583004121421" y="813.88852581888932" width="12.345679012347318" height="12.345679012345499"/>
        <rect class="cls-1" x="913.52726201646874" y="813.88852581888932" width="12.345679012345499" height="12.345679012345499"/>
        <rect class="cls-1" x="888.835903991775922" y="826.23420483123482" width="12.345679012345499" height="12.345679012347318"/>
        <rect class="cls-1" x="901.181583004121421" y="826.23420483123482" width="12.345679012347318" height="12.345679012347318"/>
        <rect class="cls-1" x="913.52726201646874" y="826.23420483123482" width="12.345679012345499" height="12.345679012347318"/>
        <rect class="cls-1" x="888.835903991775922" y="838.579883843582138" width="12.345679012345499" height="12.345679012345499"/>
        <rect class="cls-1" x="901.181583004121421" y="838.579883843582138" width="12.345679012347318" height="12.345679012345499"/>
        <rect class="cls-1" x="913.52726201646874" y="838.579883843582138" width="12.345679012345499" height="12.345679012345499"/>
      </g>
      <g>
        <rect class="cls-1" x="888.835903991775922" y="776.535217627999373" width="12.345679012345499" height="12.345679012345499"/>
        <rect class="cls-1" x="901.181583004121421" y="776.535217627999373" width="12.345679012347318" height="12.345679012345499"/>
        <rect class="cls-1" x="913.52726201646874" y="776.535217627999373" width="12.345679012345499" height="12.345679012345499"/>
        <rect class="cls-1" x="888.835903991775922" y="788.880896640344872" width="12.345679012345499" height="12.345679012347318"/>
        <rect class="cls-1" x="901.181583004121421" y="788.880896640344872" width="12.345679012347318" height="12.345679012347318"/>
        <rect class="cls-1" x="913.52726201646874" y="788.880896640344872" width="12.345679012345499" height="12.345679012347318"/>
        <rect class="cls-1" x="888.835903991775922" y="801.22657565269219" width="12.345679012345499" height="12.345679012345499"/>
        <rect class="cls-1" x="901.181583004121421" y="801.22657565269219" width="12.345679012347318" height="12.345679012345499"/>
        <rect class="cls-1" x="913.52726201646874" y="801.22657565269219" width="12.345679012345499" height="12.345679012345499"/>
      </g>
      <g>
        <rect class="cls-1" x="740.234699667153109" y="888.25679701777517" width="12.345679012345499" height="12.345679012345499"/>
        <rect class="cls-1" x="752.580378679498608" y="888.25679701777517" width="12.345679012347318" height="12.345679012345499"/>
        <rect class="cls-1" x="764.926057691845926" y="888.25679701777517" width="12.345679012345499" height="12.345679012345499"/>
        <rect class="cls-1" x="740.234699667153109" y="900.60247603012067" width="12.345679012345499" height="12.345679012347318"/>
        <rect class="cls-1" x="752.580378679498608" y="900.60247603012067" width="12.345679012347318" height="12.345679012347318"/>
        <rect class="cls-1" x="764.926057691845926" y="900.60247603012067" width="12.345679012345499" height="12.345679012347318"/>
        <rect class="cls-1" x="740.234699667153109" y="912.948155042467988" width="12.345679012345499" height="12.345679012345499"/>
        <rect class="cls-1" x="752.580378679498608" y="912.948155042467988" width="12.345679012347318" height="12.345679012345499"/>
        <rect class="cls-1" x="764.926057691845926" y="912.948155042467988" width="12.345679012345499" height="12.345679012345499"/>
      </g>
      <g>
        <rect class="cls-1" x="777.588007858033961" y="777.791014967775482" width="12.345679012345499" height="12.345679012345499"/>
        <rect class="cls-1" x="789.933686870379461" y="777.791014967775482" width="12.345679012347318" height="12.345679012345499"/>
        <rect class="cls-1" x="802.279365882726779" y="777.791014967775482" width="12.345679012345499" height="12.345679012345499"/>
        <rect class="cls-1" x="777.588007858033961" y="790.136693980120981" width="12.345679012345499" height="12.345679012347318"/>
        <rect class="cls-1" x="789.933686870379461" y="790.136693980120981" width="12.345679012347318" height="12.345679012347318"/>
        <rect class="cls-1" x="802.279365882726779" y="790.136693980120981" width="12.345679012345499" height="12.345679012347318"/>
        <rect class="cls-1" x="777.588007858033961" y="802.482372992468299" width="12.345679012345499" height="12.345679012345499"/>
        <rect class="cls-1" x="789.933686870379461" y="802.482372992468299" width="12.345679012347318" height="12.345679012345499"/>
        <rect class="cls-1" x="802.279365882726779" y="802.482372992468299" width="12.345679012345499" height="12.345679012345499"/>
      </g>
      <g>
        <rect class="cls-1" x="777.588007858033961" y="814.061618573421583" width="12.345679012345499" height="12.345679012345499"/>
        <rect class="cls-1" x="789.933686870379461" y="814.061618573421583" width="12.345679012347318" height="12.345679012345499"/>
        <rect class="cls-1" x="802.279365882726779" y="814.061618573421583" width="12.345679012345499" height="12.345679012345499"/>
        <rect class="cls-1" x="777.588007858033961" y="826.407297585767083" width="12.345679012345499" height="12.345679012347318"/>
        <rect class="cls-1" x="789.933686870379461" y="826.407297585767083" width="12.345679012347318" height="12.345679012347318"/>
        <rect class="cls-1" x="802.279365882726779" y="826.407297585767083" width="12.345679012345499" height="12.345679012347318"/>
        <rect class="cls-1" x="777.588007858033961" y="838.752976598114401" width="12.345679012345499" height="12.345679012345499"/>
        <rect class="cls-1" x="789.933686870379461" y="838.752976598114401" width="12.345679012347318" height="12.345679012345499"/>
        <rect class="cls-1" x="802.279365882726779" y="838.752976598114401" width="12.345679012345499" height="12.345679012345499"/>
      </g>
      <g>
        <rect class="cls-1" x="148.656783569067557" y="777.324689721412142" width="12.345679012345499" height="12.345679012345499"/>
        <rect class="cls-1" x="161.002462581413056" y="777.324689721412142" width="12.345679012347318" height="12.345679012345499"/>
        <rect class="cls-1" x="173.348141593760374" y="777.324689721412142" width="12.345679012345499" height="12.345679012345499"/>
        <rect class="cls-1" x="148.656783569067557" y="789.670368733757641" width="12.345679012345499" height="12.345679012347318"/>
        <rect class="cls-1" x="161.002462581413056" y="789.670368733757641" width="12.345679012347318" height="12.345679012347318"/>
        <rect class="cls-1" x="173.348141593760374" y="789.670368733757641" width="12.345679012345499" height="12.345679012347318"/>
        <rect class="cls-1" x="148.656783569067557" y="802.01604774610496" width="12.345679012345499" height="12.345679012345499"/>
        <rect class="cls-1" x="161.002462581413056" y="802.01604774610496" width="12.345679012347318" height="12.345679012345499"/>
        <rect class="cls-1" x="173.348141593760374" y="802.01604774610496" width="12.345679012345499" height="12.345679012345499"/>
      </g>
      <g>
        <rect class="cls-1" x="185.190705311337297" y="814.903561367551447" width="12.345679012345499" height="12.345679012345499"/>
        <rect class="cls-1" x="197.536384323682796" y="814.903561367551447" width="12.345679012347318" height="12.345679012345499"/>
        <rect class="cls-1" x="209.882063336030114" y="814.903561367551447" width="12.345679012345499" height="12.345679012345499"/>
        <rect class="cls-1" x="185.190705311337297" y="827.249240379896946" width="12.345679012345499" height="12.345679012347318"/>
        <rect class="cls-1" x="197.536384323682796" y="827.249240379896946" width="12.345679012347318" height="12.345679012347318"/>
        <rect class="cls-1" x="209.882063336030114" y="827.249240379896946" width="12.345679012345499" height="12.345679012347318"/>
        <rect class="cls-1" x="185.190705311337297" y="839.594919392244265" width="12.345679012345499" height="12.345679012345499"/>
        <rect class="cls-1" x="197.536384323682796" y="839.594919392244265" width="12.345679012347318" height="12.345679012345499"/>
        <rect class="cls-1" x="209.882063336030114" y="839.594919392244265" width="12.345679012345499" height="12.345679012345499"/>
      </g>
      <g>
        <rect class="cls-1" x="148.739650941484797" y="259.385883755701798" width="12.345679012345499" height="12.345679012345499"/>
        <rect class="cls-1" x="161.085329953830296" y="259.385883755701798" width="12.345679012347318" height="12.345679012345499"/>
        <rect class="cls-1" x="173.431008966177615" y="259.385883755701798" width="12.345679012345499" height="12.345679012345499"/>
        <rect class="cls-1" x="148.739650941484797" y="271.731562768047297" width="12.345679012345499" height="12.345679012349137"/>
        <rect class="cls-1" x="161.085329953830296" y="271.731562768047297" width="12.345679012347318" height="12.345679012349137"/>
        <rect class="cls-1" x="173.431008966177615" y="271.731562768047297" width="12.345679012345499" height="12.345679012349137"/>
        <rect class="cls-1" x="148.739650941484797" y="284.077241780396434" width="12.345679012345499" height="12.345679012345499"/>
        <rect class="cls-1" x="161.085329953830296" y="284.077241780396434" width="12.345679012347318" height="12.345679012345499"/>
        <rect class="cls-1" x="173.431008966177615" y="284.077241780396434" width="12.345679012345499" height="12.345679012345499"/>
      </g>
    </g>
    <rect class="cls-1" x=".137117563310312" y=".046892181202566" width="333.33333333333394" height="333.33333333333394"/>
    <rect class="cls-1" x="666.803784229978191" y=".046892181202566" width="333.333333333332121" height="333.33333333333394"/>
    <rect class="cls-1" x=".137117563310312" y="333.380225514536505" width="333.33333333333394" height="333.33333333333394"/>
    <rect class="cls-1" x="333.470450896644252" y="333.380225514536505" width="333.33333333333394" height="333.33333333333394"/>
    <rect class="cls-1" x="333.470450896644252" y="666.713558847870445" width="333.33333333333394" height="333.333333333332121"/>
    <rect class="cls-1" x="666.803784229978191" y="666.713558847870445" width="333.333333333332121" height="333.333333333332121"/>
    <g>
      <rect class="cls-1" x="667.345136522599205" y="332.613309766657039" width="111.111111111111313" height="111.111111111109494"/>
      <rect class="cls-1" x="778.456247633710518" y="332.613309766657039" width="111.111111111111313" height="111.111111111109494"/>
      <rect class="cls-1" x="889.567358744821831" y="332.613309766657039" width="111.111111111109494" height="111.111111111109494"/>
      <rect class="cls-1" x="667.345136522599205" y="443.724420877766534" width="111.111111111111313" height="111.111111111113132"/>
      <rect class="cls-1" x="778.456247633710518" y="443.724420877766534" width="111.111111111111313" height="111.111111111113132"/>
      <rect class="cls-1" x="889.567358744821831" y="443.724420877766534" width="111.111111111109494" height="111.111111111113132"/>
      <rect class="cls-1" x="778.456247633710518" y="554.835531988879666" width="111.111111111111313" height="111.111111111109494"/>
      <rect class="cls-1" x="889.567358744821831" y="554.835531988879666" width="111.111111111109494" height="111.111111111109494"/>
      <g>
        <rect class="cls-1" x="667.345136522599205" y="554.835531988879666" width="37.037037037036498" height="37.037037037036498"/>
        <rect class="cls-1" x="704.382173559635703" y="554.835531988879666" width="37.037037037036498" height="37.037037037036498"/>
        <rect class="cls-1" x="741.419210596672201" y="554.835531988879666" width="37.037037037038317" height="37.037037037036498"/>
        <rect class="cls-1" x="667.345136522599205" y="591.872569025916164" width="37.037037037036498" height="37.037037037036498"/>
        <rect class="cls-1" x="704.382173559635703" y="591.872569025916164" width="37.037037037036498" height="37.037037037036498"/>
        <rect class="cls-1" x="741.419210596672201" y="591.872569025916164" width="37.037037037038317" height="37.037037037036498"/>
        <rect class="cls-1" x="667.345136522599205" y="628.909606062952662" width="37.037037037036498" height="37.037037037036498"/>
        <rect class="cls-1" x="704.382173559635703" y="628.909606062952662" width="37.037037037036498" height="37.037037037036498"/>
        <rect class="cls-1" x="741.419210596672201" y="628.909606062952662" width="37.037037037038317" height="37.037037037036498"/>
      </g>
      <g>
        <rect class="cls-1" x="778.322356510023383" y="554.835531988879666" width="37.037037037036498" height="37.037037037036498"/>
        <rect class="cls-1" x="815.359393547059881" y="554.835531988879666" width="37.037037037036498" height="37.037037037036498"/>
        <rect class="cls-1" x="852.396430584096379" y="554.835531988879666" width="37.037037037038317" height="37.037037037036498"/>
        <rect class="cls-1" x="778.322356510023383" y="591.872569025916164" width="37.037037037036498" height="37.037037037036498"/>
        <rect class="cls-1" x="815.359393547059881" y="591.872569025916164" width="37.037037037036498" height="37.037037037036498"/>
        <rect class="cls-1" x="852.396430584096379" y="591.872569025916164" width="37.037037037038317" height="37.037037037036498"/>
        <rect class="cls-1" x="778.322356510023383" y="628.909606062952662" width="37.037037037036498" height="37.037037037036498"/>
        <rect class="cls-1" x="815.359393547059881" y="628.909606062952662" width="37.037037037036498" height="37.037037037036498"/>
        <rect class="cls-1" x="852.396430584096379" y="628.909606062952662" width="37.037037037038317" height="37.037037037036498"/>
      </g>
      <g>
        <rect class="cls-1" x="778.322356510023383" y="444.399664294076501" width="37.037037037036498" height="37.037037037036498"/>
        <rect class="cls-1" x="815.359393547059881" y="444.399664294076501" width="37.037037037036498" height="37.037037037036498"/>
        <rect class="cls-1" x="852.396430584096379" y="444.399664294076501" width="37.037037037038317" height="37.037037037036498"/>
        <rect class="cls-1" x="778.322356510023383" y="481.436701331112999" width="37.037037037036498" height="37.037037037036498"/>
        <rect class="cls-1" x="815.359393547059881" y="481.436701331112999" width="37.037037037036498" height="37.037037037036498"/>
        <rect class="cls-1" x="852.396430584096379" y="481.436701331112999" width="37.037037037038317" height="37.037037037036498"/>
        <rect class="cls-1" x="778.322356510023383" y="518.473738368149498" width="37.037037037036498" height="37.037037037036498"/>
        <rect class="cls-1" x="815.359393547059881" y="518.473738368149498" width="37.037037037036498" height="37.037037037036498"/>
        <rect class="cls-1" x="852.396430584096379" y="518.473738368149498" width="37.037037037038317" height="37.037037037036498"/>
      </g>
      <g>
        <rect class="cls-1" x="889.310854670209665" y="444.399664294076501" width="37.037037037036498" height="37.037037037036498"/>
        <rect class="cls-1" x="926.347891707246163" y="444.399664294076501" width="37.037037037036498" height="37.037037037036498"/>
        <rect class="cls-1" x="963.384928744282661" y="444.399664294076501" width="37.037037037038317" height="37.037037037036498"/>
        <rect class="cls-1" x="889.310854670209665" y="481.436701331112999" width="37.037037037036498" height="37.037037037036498"/>
        <rect class="cls-1" x="926.347891707246163" y="481.436701331112999" width="37.037037037036498" height="37.037037037036498"/>
        <rect class="cls-1" x="963.384928744282661" y="481.436701331112999" width="37.037037037038317" height="37.037037037036498"/>
        <rect class="cls-1" x="889.310854670209665" y="518.473738368149498" width="37.037037037036498" height="37.037037037036498"/>
        <rect class="cls-1" x="926.347891707246163" y="518.473738368149498" width="37.037037037036498" height="37.037037037036498"/>
        <rect class="cls-1" x="963.384928744282661" y="518.473738368149498" width="37.037037037038317" height="37.037037037036498"/>
      </g>
      <g>
        <rect class="cls-1" x="667.322580177071359" y="444.399664294076501" width="37.037037037036498" height="37.037037037036498"/>
        <rect class="cls-1" x="704.359617214107857" y="444.399664294076501" width="37.037037037036498" height="37.037037037036498"/>
        <rect class="cls-1" x="741.396654251144355" y="444.399664294076501" width="37.037037037038317" height="37.037037037036498"/>
        <rect class="cls-1" x="667.322580177071359" y="481.436701331112999" width="37.037037037036498" height="37.037037037036498"/>
        <rect class="cls-1" x="704.359617214107857" y="481.436701331112999" width="37.037037037036498" height="37.037037037036498"/>
        <rect class="cls-1" x="741.396654251144355" y="481.436701331112999" width="37.037037037038317" height="37.037037037036498"/>
        <rect class="cls-1" x="667.322580177071359" y="518.473738368149498" width="37.037037037036498" height="37.037037037036498"/>
        <rect class="cls-1" x="704.359617214107857" y="518.473738368149498" width="37.037037037036498" height="37.037037037036498"/>
        <rect class="cls-1" x="741.396654251144355" y="518.473738368149498" width="37.037037037038317" height="37.037037037036498"/>
      </g>
      <g>
        <rect class="cls-1" x="889.299576497447561" y="554.835531988879666" width="37.037037037036498" height="37.037037037036498"/>
        <rect class="cls-1" x="926.336613534484059" y="554.835531988879666" width="37.037037037036498" height="37.037037037036498"/>
        <rect class="cls-1" x="963.373650571520557" y="554.835531988879666" width="37.037037037038317" height="37.037037037036498"/>
        <rect class="cls-1" x="889.299576497447561" y="591.872569025916164" width="37.037037037036498" height="37.037037037036498"/>
        <rect class="cls-1" x="926.336613534484059" y="591.872569025916164" width="37.037037037036498" height="37.037037037036498"/>
        <rect class="cls-1" x="963.373650571520557" y="591.872569025916164" width="37.037037037038317" height="37.037037037036498"/>
        <rect class="cls-1" x="889.299576497447561" y="628.909606062952662" width="37.037037037036498" height="37.037037037036498"/>
        <rect class="cls-1" x="926.336613534484059" y="628.909606062952662" width="37.037037037036498" height="37.037037037036498"/>
        <rect class="cls-1" x="963.373650571520557" y="628.909606062952662" width="37.037037037038317" height="37.037037037036498"/>
      </g>
      <g>
        <rect class="cls-1" x="889.299576497447561" y="665.27139968368283" width="37.037037037036498" height="37.037037037036498"/>
        <rect class="cls-1" x="926.336613534484059" y="665.27139968368283" width="37.037037037036498" height="37.037037037036498"/>
        <rect class="cls-1" x="963.373650571520557" y="665.27139968368283" width="37.037037037038317" height="37.037037037036498"/>
        <rect class="cls-1" x="889.299576497447561" y="702.308436720719328" width="37.037037037036498" height="37.037037037036498"/>
        <rect class="cls-1" x="926.336613534484059" y="702.308436720719328" width="37.037037037036498" height="37.037037037036498"/>
        <rect class="cls-1" x="963.373650571520557" y="702.308436720719328" width="37.037037037038317" height="37.037037037036498"/>
        <rect class="cls-1" x="889.299576497447561" y="739.345473757755826" width="37.037037037036498" height="37.037037037036498"/>
        <rect class="cls-1" x="926.336613534484059" y="739.345473757755826" width="37.037037037036498" height="37.037037037036498"/>
        <rect class="cls-1" x="963.373650571520557" y="739.345473757755826" width="37.037037037038317" height="37.037037037036498"/>
      </g>
      <g>
        <rect class="cls-1" x="778.322356510023383" y="665.27139968368283" width="37.037037037036498" height="37.037037037036498"/>
        <rect class="cls-1" x="815.359393547059881" y="665.27139968368283" width="37.037037037036498" height="37.037037037036498"/>
        <rect class="cls-1" x="852.396430584096379" y="665.27139968368283" width="37.037037037038317" height="37.037037037036498"/>
        <rect class="cls-1" x="778.322356510023383" y="702.308436720719328" width="37.037037037036498" height="37.037037037036498"/>
        <rect class="cls-1" x="815.359393547059881" y="702.308436720719328" width="37.037037037036498" height="37.037037037036498"/>
        <rect class="cls-1" x="852.396430584096379" y="702.308436720719328" width="37.037037037038317" height="37.037037037036498"/>
        <rect class="cls-1" x="778.322356510023383" y="739.345473757755826" width="37.037037037036498" height="37.037037037036498"/>
        <rect class="cls-1" x="815.359393547059881" y="739.345473757755826" width="37.037037037036498" height="37.037037037036498"/>
        <rect class="cls-1" x="852.396430584096379" y="739.345473757755826" width="37.037037037038317" height="37.037037037036498"/>
      </g>
      <g>
        <rect class="cls-1" x="667.345136522599205" y="665.27139968368283" width="37.037037037036498" height="37.037037037036498"/>
        <rect class="cls-1" x="704.382173559635703" y="665.27139968368283" width="37.037037037036498" height="37.037037037036498"/>
        <rect class="cls-1" x="741.419210596672201" y="665.27139968368283" width="37.037037037038317" height="37.037037037036498"/>
        <rect class="cls-1" x="667.345136522599205" y="702.308436720719328" width="37.037037037036498" height="37.037037037036498"/>
        <rect class="cls-1" x="704.382173559635703" y="702.308436720719328" width="37.037037037036498" height="37.037037037036498"/>
        <rect class="cls-1" x="741.419210596672201" y="702.308436720719328" width="37.037037037038317" height="37.037037037036498"/>
        <rect class="cls-1" x="667.345136522599205" y="739.345473757755826" width="37.037037037036498" height="37.037037037036498"/>
        <rect class="cls-1" x="704.382173559635703" y="739.345473757755826" width="37.037037037036498" height="37.037037037036498"/>
        <rect class="cls-1" x="741.419210596672201" y="739.345473757755826" width="37.037037037038317" height="37.037037037036498"/>
      </g>
      <g>
        <rect class="cls-1" x="778.322356510023383" y="776.248619671107008" width="37.037037037036498" height="37.037037037036498"/>
        <rect class="cls-1" x="815.359393547059881" y="776.248619671107008" width="37.037037037036498" height="37.037037037036498"/>
        <rect class="cls-1" x="852.396430584096379" y="776.248619671107008" width="37.037037037038317" height="37.037037037036498"/>
        <rect class="cls-1" x="778.322356510023383" y="813.285656708143506" width="37.037037037036498" height="37.037037037036498"/>
        <rect class="cls-1" x="815.359393547059881" y="813.285656708143506" width="37.037037037036498" height="37.037037037036498"/>
        <rect class="cls-1" x="852.396430584096379" y="813.285656708143506" width="37.037037037038317" height="37.037037037036498"/>
        <rect class="cls-1" x="778.322356510023383" y="850.322693745180004" width="37.037037037036498" height="37.037037037036498"/>
        <rect class="cls-1" x="815.359393547059881" y="850.322693745180004" width="37.037037037036498" height="37.037037037036498"/>
        <rect class="cls-1" x="852.396430584096379" y="850.322693745180004" width="37.037037037038317" height="37.037037037036498"/>
      </g>
      <g>
        <rect class="cls-1" x="889.29957649744938" y="776.248619671107008" width="37.037037037036498" height="37.037037037036498"/>
        <rect class="cls-1" x="926.336613534485878" y="776.248619671107008" width="37.037037037036498" height="37.037037037036498"/>
        <rect class="cls-1" x="963.373650571522376" y="776.248619671107008" width="37.037037037038317" height="37.037037037036498"/>
        <rect class="cls-1" x="889.29957649744938" y="813.285656708143506" width="37.037037037036498" height="37.037037037036498"/>
        <rect class="cls-1" x="926.336613534485878" y="813.285656708143506" width="37.037037037036498" height="37.037037037036498"/>
        <rect class="cls-1" x="963.373650571522376" y="813.285656708143506" width="37.037037037038317" height="37.037037037036498"/>
        <rect class="cls-1" x="889.29957649744938" y="850.322693745180004" width="37.037037037036498" height="37.037037037036498"/>
        <rect class="cls-1" x="926.336613534485878" y="850.322693745180004" width="37.037037037036498" height="37.037037037036498"/>
        <rect class="cls-1" x="963.373650571522376" y="850.322693745180004" width="37.037037037038317" height="37.037037037036498"/>
      </g>
    </g>
    <g>
      <rect class="cls-1" x="333.872124267703839" y="333.380225514536505" width="111.111111111111313" height="111.111111111111313"/>
      <rect class="cls-1" x="444.983235378815152" y="333.380225514536505" width="111.111111111111313" height="111.111111111111313"/>
      <rect class="cls-1" x="556.094346489926465" y="333.380225514536505" width="111.111111111109494" height="111.111111111111313"/>
      <rect class="cls-1" x="333.872124267703839" y="444.491336625647818" width="111.111111111111313" height="111.111111111111313"/>
      <rect class="cls-1" x="444.983235378815152" y="444.491336625647818" width="111.111111111111313" height="111.111111111111313"/>
      <rect class="cls-1" x="556.094346489926465" y="444.491336625647818" width="111.111111111109494" height="111.111111111111313"/>
      <rect class="cls-1" x="333.872124267703839" y="555.602447736759132" width="111.111111111111313" height="111.111111111111313"/>
      <rect class="cls-1" x="444.983235378815152" y="555.602447736759132" width="111.111111111111313" height="111.111111111111313"/>
      <rect class="cls-1" x="556.094346489926465" y="555.602447736759132" width="111.111111111109494" height="111.111111111111313"/>
    </g>
    <g>
      <rect class="cls-1" x="333.872124267703839" y="666.853237769431871" width="111.111111111111313" height="111.111111111111313"/>
      <rect class="cls-1" x="444.983235378815152" y="666.853237769431871" width="111.111111111111313" height="111.111111111111313"/>
      <rect class="cls-1" x="556.094346489926465" y="666.853237769431871" width="111.111111111109494" height="111.111111111111313"/>
      <rect class="cls-1" x="444.983235378815152" y="777.964348880543184" width="111.111111111111313" height="111.111111111111313"/>
      <rect class="cls-1" x="556.094346489926465" y="777.964348880543184" width="111.111111111109494" height="111.111111111111313"/>
      <rect class="cls-1" x="556.094346489926465" y="889.075459991654498" width="111.111111111109494" height="111.111111111111313"/>
      <g>
        <rect class="cls-1" x="333.872124267703839" y="889.075459991654498" width="37.037037037036498" height="37.037037037036498"/>
        <rect class="cls-1" x="370.909161304740337" y="889.075459991654498" width="37.037037037038317" height="37.037037037036498"/>
        <rect class="cls-1" x="407.946198341778654" y="889.075459991654498" width="37.037037037036498" height="37.037037037036498"/>
        <rect class="cls-1" x="333.872124267703839" y="926.112497028690996" width="37.037037037036498" height="37.037037037038317"/>
        <rect class="cls-1" x="370.909161304740337" y="926.112497028690996" width="37.037037037038317" height="37.037037037038317"/>
        <rect class="cls-1" x="407.946198341778654" y="926.112497028690996" width="37.037037037036498" height="37.037037037038317"/>
        <rect class="cls-1" x="333.872124267703839" y="963.149534065729313" width="37.037037037036498" height="37.037037037036498"/>
        <rect class="cls-1" x="370.909161304740337" y="963.149534065729313" width="37.037037037038317" height="37.037037037036498"/>
        <rect class="cls-1" x="407.946198341778654" y="963.149534065729313" width="37.037037037036498" height="37.037037037036498"/>
      </g>
      <g>
        <rect class="cls-1" x="333.872124267703839" y="777.964348880543184" width="37.037037037036498" height="37.037037037036498"/>
        <rect class="cls-1" x="370.909161304740337" y="777.964348880543184" width="37.037037037038317" height="37.037037037036498"/>
        <rect class="cls-1" x="407.946198341778654" y="777.964348880543184" width="37.037037037036498" height="37.037037037036498"/>
        <rect class="cls-1" x="333.872124267703839" y="815.001385917579682" width="37.037037037036498" height="37.037037037038317"/>
        <rect class="cls-1" x="370.909161304740337" y="815.001385917579682" width="37.037037037038317" height="37.037037037038317"/>
        <rect class="cls-1" x="407.946198341778654" y="815.001385917579682" width="37.037037037036498" height="37.037037037038317"/>
        <rect class="cls-1" x="333.872124267703839" y="852.038422954617999" width="37.037037037036498" height="37.037037037036498"/>
        <rect class="cls-1" x="370.909161304740337" y="852.038422954617999" width="37.037037037038317" height="37.037037037036498"/>
        <rect class="cls-1" x="407.946198341778654" y="852.038422954617999" width="37.037037037036498" height="37.037037037036498"/>
      </g>
      <rect class="cls-1" x="444.983235378815152" y="889.075459991654498" width="37.037037037036498" height="37.037037037036498"/>
      <rect class="cls-1" x="482.02027241585165" y="889.075459991654498" width="37.037037037036498" height="37.037037037036498"/>
      <rect class="cls-1" x="519.057309452888148" y="889.075459991654498" width="37.037037037038317" height="37.037037037036498"/>
      <rect class="cls-1" x="444.983235378815152" y="926.112497028690996" width="37.037037037036498" height="37.037037037038317"/>
      <rect class="cls-1" x="482.02027241585165" y="926.112497028690996" width="37.037037037036498" height="37.037037037038317"/>
      <rect class="cls-1" x="519.057309452888148" y="926.112497028690996" width="37.037037037038317" height="37.037037037038317"/>
      <rect class="cls-1" x="444.983235378815152" y="963.149534065729313" width="37.037037037036498" height="37.037037037036498"/>
      <rect class="cls-1" x="482.02027241585165" y="963.149534065729313" width="37.037037037036498" height="37.037037037036498"/>
      <rect class="cls-1" x="519.057309452888148" y="963.149534065729313" width="37.037037037038317" height="37.037037037036498"/>
      <rect class="cls-1" x="444.983235378815152" y="778.278690768436718" width="37.037037037036498" height="37.037037037036498"/>
      <rect class="cls-1" x="482.02027241585165" y="778.278690768436718" width="37.037037037036498" height="37.037037037036498"/>
      <rect class="cls-1" x="519.057309452888148" y="778.278690768436718" width="37.037037037038317" height="37.037037037036498"/>
      <rect class="cls-1" x="444.983235378815152" y="815.315727805473216" width="37.037037037036498" height="37.037037037038317"/>
      <rect class="cls-1" x="482.02027241585165" y="815.315727805473216" width="37.037037037036498" height="37.037037037038317"/>
      <rect class="cls-1" x="519.057309452888148" y="815.315727805473216" width="37.037037037038317" height="37.037037037038317"/>
      <rect class="cls-1" x="444.983235378815152" y="852.352764842511533" width="37.037037037036498" height="37.037037037036498"/>
      <rect class="cls-1" x="482.02027241585165" y="852.352764842511533" width="37.037037037036498" height="37.037037037036498"/>
      <rect class="cls-1" x="519.057309452888148" y="852.352764842511533" width="37.037037037038317" height="37.037037037036498"/>
    </g>
    <g>
      <rect class="cls-1" x="666.803784229978191" y="665.905871257344188" width="111.111111111111313" height="111.111111111111313"/>
      <rect class="cls-1" x="777.914895341089505" y="665.905871257344188" width="111.111111111111313" height="111.111111111111313"/>
      <rect class="cls-1" x="889.026006452200818" y="665.905871257344188" width="111.111111111109494" height="111.111111111111313"/>
      <rect class="cls-1" x="666.803784229978191" y="777.016982368455501" width="111.111111111111313" height="111.111111111111313"/>
      <rect class="cls-1" x="777.914895341089505" y="777.016982368455501" width="111.111111111111313" height="111.111111111111313"/>
      <rect class="cls-1" x="889.026006452200818" y="777.016982368455501" width="111.111111111109494" height="111.111111111111313"/>
      <rect class="cls-1" x="666.803784229978191" y="888.128093479566814" width="111.111111111111313" height="111.111111111111313"/>
      <rect class="cls-1" x="777.914895341089505" y="888.128093479566814" width="111.111111111111313" height="111.111111111111313"/>
      <rect class="cls-1" x="889.026006452200818" y="888.128093479566814" width="111.111111111109494" height="111.111111111111313"/>
    </g>
    <g>
      <rect class="cls-1" x="-.683592572435373" y="333.380225514536505" width="111.111111111111313" height="111.111111111111313"/>
      <rect class="cls-1" x="110.42751853867594" y="333.380225514536505" width="111.111111111111313" height="111.111111111111313"/>
      <rect class="cls-1" x="221.538629649787254" y="333.380225514536505" width="111.111111111109494" height="111.111111111111313"/>
      <rect class="cls-1" x="-.683592572435373" y="444.491336625647818" width="111.111111111111313" height="111.111111111111313"/>
      <rect class="cls-1" x="110.42751853867594" y="444.491336625647818" width="111.111111111111313" height="111.111111111111313"/>
      <rect class="cls-1" x="221.538629649787254" y="444.491336625647818" width="111.111111111109494" height="111.111111111111313"/>
      <rect class="cls-1" x="-.683592572435373" y="555.602447736759132" width="111.111111111111313" height="111.111111111111313"/>
      <rect class="cls-1" x="110.42751853867594" y="555.602447736759132" width="111.111111111111313" height="111.111111111111313"/>
      <rect class="cls-1" x="221.538629649787254" y="555.602447736759132" width="111.111111111109494" height="111.111111111111313"/>
    </g>
    <g>
      <rect class="cls-1" x="555.784345450438195" y="334.055468930842835" width="37.037037037036498" height="37.037037037036498"/>
      <rect class="cls-1" x="592.821382487474693" y="334.055468930842835" width="37.037037037036498" height="37.037037037036498"/>
      <rect class="cls-1" x="629.858419524511191" y="334.055468930842835" width="37.037037037038317" height="37.037037037036498"/>
      <rect class="cls-1" x="555.784345450438195" y="371.092505967879333" width="37.037037037036498" height="37.037037037036498"/>
      <rect class="cls-1" x="592.821382487474693" y="371.092505967879333" width="37.037037037036498" height="37.037037037036498"/>
      <rect class="cls-1" x="629.858419524511191" y="371.092505967879333" width="37.037037037038317" height="37.037037037036498"/>
      <rect class="cls-1" x="555.784345450438195" y="408.129543004915831" width="37.037037037036498" height="37.037037037036498"/>
      <rect class="cls-1" x="592.821382487474693" y="408.129543004915831" width="37.037037037036498" height="37.037037037036498"/>
      <rect class="cls-1" x="629.858419524511191" y="408.129543004915831" width="37.037037037038317" height="37.037037037036498"/>
    </g>
    <g>
      <rect class="cls-1" x="333.627139524098311" y="222.062972236515634" width="37.037037037036498" height="37.037037037036498"/>
      <rect class="cls-1" x="370.664176561134809" y="222.062972236515634" width="37.037037037036498" height="37.037037037036498"/>
      <rect class="cls-1" x="407.701213598171307" y="222.062972236515634" width="37.037037037038317" height="37.037037037036498"/>
      <rect class="cls-1" x="333.627139524098311" y="259.100009273552132" width="37.037037037036498" height="37.037037037036498"/>
      <rect class="cls-1" x="370.664176561134809" y="259.100009273552132" width="37.037037037036498" height="37.037037037036498"/>
      <rect class="cls-1" x="407.701213598171307" y="259.100009273552132" width="37.037037037038317" height="37.037037037036498"/>
      <rect class="cls-1" x="333.627139524098311" y="296.13704631058863" width="37.037037037036498" height="37.037037037036498"/>
      <rect class="cls-1" x="370.664176561134809" y="296.13704631058863" width="37.037037037036498" height="37.037037037036498"/>
      <rect class="cls-1" x="407.701213598171307" y="296.13704631058863" width="37.037037037038317" height="37.037037037036498"/>
    </g>
    <g>
      <rect class="cls-1" x=".154127269202945" y="222.062972236515634" width="37.037037037036498" height="37.037037037036498"/>
      <rect class="cls-1" x="37.191164306239443" y="222.062972236515634" width="37.037037037036498" height="37.037037037036498"/>
      <rect class="cls-1" x="74.228201343275941" y="222.062972236515634" width="37.037037037038317" height="37.037037037036498"/>
      <rect class="cls-1" x=".154127269202945" y="259.100009273552132" width="37.037037037036498" height="37.037037037036498"/>
      <rect class="cls-1" x="37.191164306239443" y="259.100009273552132" width="37.037037037036498" height="37.037037037036498"/>
      <rect class="cls-1" x="74.228201343275941" y="259.100009273552132" width="37.037037037038317" height="37.037037037036498"/>
      <rect class="cls-1" x=".154127269202945" y="296.13704631058863" width="37.037037037036498" height="37.037037037036498"/>
      <rect class="cls-1" x="37.191164306239443" y="296.13704631058863" width="37.037037037036498" height="37.037037037036498"/>
      <rect class="cls-1" x="74.228201343275941" y="296.13704631058863" width="37.037037037038317" height="37.037037037036498"/>
    </g>
    <g>
      <rect class="cls-1" x="111.40202340293763" y="222.062972236515634" width="37.037037037036498" height="37.037037037036498"/>
      <rect class="cls-1" x="148.439060439974128" y="222.062972236515634" width="37.037037037036498" height="37.037037037036498"/>
      <rect class="cls-1" x="185.476097477010626" y="222.062972236515634" width="37.037037037038317" height="37.037037037036498"/>
      <rect class="cls-1" x="111.40202340293763" y="259.100009273552132" width="37.037037037036498" height="37.037037037036498"/>
      <rect class="cls-1" x="148.439060439974128" y="259.100009273552132" width="37.037037037036498" height="37.037037037036498"/>
      <rect class="cls-1" x="185.476097477010626" y="259.100009273552132" width="37.037037037038317" height="37.037037037036498"/>
      <rect class="cls-1" x="111.40202340293763" y="296.13704631058863" width="37.037037037036498" height="37.037037037036498"/>
      <rect class="cls-1" x="148.439060439974128" y="296.13704631058863" width="37.037037037036498" height="37.037037037036498"/>
      <rect class="cls-1" x="185.476097477010626" y="296.13704631058863" width="37.037037037038317" height="37.037037037036498"/>
    </g>
    <g>
      <rect class="cls-1" x="222.649919536674133" y="222.062972236515634" width="37.037037037036498" height="37.037037037036498"/>
      <rect class="cls-1" x="259.686956573710631" y="222.062972236515634" width="37.037037037036498" height="37.037037037036498"/>
      <rect class="cls-1" x="296.723993610747129" y="222.062972236515634" width="37.037037037038317" height="37.037037037036498"/>
      <rect class="cls-1" x="222.649919536674133" y="259.100009273552132" width="37.037037037036498" height="37.037037037036498"/>
      <rect class="cls-1" x="259.686956573710631" y="259.100009273552132" width="37.037037037036498" height="37.037037037036498"/>
      <rect class="cls-1" x="296.723993610747129" y="259.100009273552132" width="37.037037037038317" height="37.037037037036498"/>
      <rect class="cls-1" x="222.649919536674133" y="296.13704631058863" width="37.037037037036498" height="37.037037037036498"/>
      <rect class="cls-1" x="259.686956573710631" y="296.13704631058863" width="37.037037037036498" height="37.037037037036498"/>
      <rect class="cls-1" x="296.723993610747129" y="296.13704631058863" width="37.037037037038317" height="37.037037037036498"/>
    </g>
    <g>
      <rect class="cls-1" x="111.40202340293763" y="333.310868370252138" width="37.037037037036498" height="37.037037037036498"/>
      <rect class="cls-1" x="148.439060439974128" y="333.310868370252138" width="37.037037037036498" height="37.037037037036498"/>
      <rect class="cls-1" x="185.476097477010626" y="333.310868370252138" width="37.037037037038317" height="37.037037037036498"/>
      <rect class="cls-1" x="111.40202340293763" y="370.347905407288636" width="37.037037037036498" height="37.037037037036498"/>
      <rect class="cls-1" x="148.439060439974128" y="370.347905407288636" width="37.037037037036498" height="37.037037037036498"/>
      <rect class="cls-1" x="185.476097477010626" y="370.347905407288636" width="37.037037037038317" height="37.037037037036498"/>
      <rect class="cls-1" x="111.40202340293763" y="407.384942444325134" width="37.037037037036498" height="37.037037037036498"/>
      <rect class="cls-1" x="148.439060439974128" y="407.384942444325134" width="37.037037037036498" height="37.037037037036498"/>
      <rect class="cls-1" x="185.476097477010626" y="407.384942444325134" width="37.037037037038317" height="37.037037037036498"/>
    </g>
    <g>
      <rect class="cls-1" x="1.236831854444972" y="554.453279906170792" width="37.037037037036498" height="37.037037037036498"/>
      <rect class="cls-1" x="38.27386889148147" y="554.453279906170792" width="37.037037037036498" height="37.037037037036498"/>
      <rect class="cls-1" x="75.310905928517968" y="554.453279906170792" width="37.037037037038317" height="37.037037037036498"/>
      <rect class="cls-1" x="1.236831854444972" y="591.49031694320729" width="37.037037037036498" height="37.037037037036498"/>
      <rect class="cls-1" x="38.27386889148147" y="591.49031694320729" width="37.037037037036498" height="37.037037037036498"/>
      <rect class="cls-1" x="75.310905928517968" y="591.49031694320729" width="37.037037037038317" height="37.037037037036498"/>
      <rect class="cls-1" x="1.236831854444972" y="628.527353980243788" width="37.037037037036498" height="37.037037037036498"/>
      <rect class="cls-1" x="38.27386889148147" y="628.527353980243788" width="37.037037037036498" height="37.037037037036498"/>
      <rect class="cls-1" x="75.310905928517968" y="628.527353980243788" width="37.037037037038317" height="37.037037037036498"/>
    </g>
    <rect class="cls-1" x="333.470450896644252" y=".046892181202566" width="111.111111111111313" height="111.111111111113132"/>
    <rect class="cls-1" x="444.581562007755565" y=".046892181202566" width="111.111111111111313" height="111.111111111113132"/>
    <rect class="cls-1" x="555.692673118866878" y=".046892181202566" width="111.111111111111313" height="111.111111111113132"/>
    <rect class="cls-1" x="333.470450896644252" y="111.158003292315698" width="111.111111111111313" height="111.111111111109494"/>
    <rect class="cls-1" x="444.581562007755565" y="111.158003292315698" width="111.111111111111313" height="111.111111111109494"/>
    <rect class="cls-1" x="555.692673118866878" y="111.158003292315698" width="111.111111111111313" height="111.111111111109494"/>
    <rect class="cls-1" x="333.470450896644252" y="222.269114403425192" width="111.111111111111313" height="111.111111111111313"/>
    <rect class="cls-1" x="444.581562007755565" y="222.269114403425192" width="111.111111111111313" height="111.111111111111313"/>
    <rect class="cls-1" x="555.692673118866878" y="222.269114403425192" width="111.111111111111313" height="111.111111111111313"/>
    <rect class="cls-1" x="-.002561358251114" y=".046892181202566" width="111.111111111111313" height="111.111111111113132"/>
    <rect class="cls-1" x="111.108549752860199" y=".046892181202566" width="111.111111111111313" height="111.111111111113132"/>
    <rect class="cls-1" x="222.219660863971512" y=".046892181202566" width="111.111111111111313" height="111.111111111113132"/>
    <rect class="cls-1" x="-.002561358251114" y="111.158003292315698" width="111.111111111111313" height="111.111111111109494"/>
    <rect class="cls-1" x="111.108549752860199" y="111.158003292315698" width="111.111111111111313" height="111.111111111109494"/>
    <rect class="cls-1" x="222.219660863971512" y="111.158003292315698" width="111.111111111111313" height="111.111111111109494"/>
    <rect class="cls-1" x="-.002561358251114" y="222.269114403425192" width="111.111111111111313" height="111.111111111111313"/>
    <rect class="cls-1" x="111.108549752860199" y="222.269114403425192" width="111.111111111111313" height="111.111111111111313"/>
    <rect class="cls-1" x=".137117563310312" y="666.713558847870445" width="111.111111111111313" height="111.111111111111313"/>
    <rect class="cls-1" x=".137117563310312" y="777.824669958981758" width="111.111111111111313" height="111.111111111109494"/>
    <rect class="cls-1" x=".137117563310312" y="888.935781070091252" width="111.111111111111313" height="111.111111111111313"/>
    <g>
      <rect class="cls-1" x="111.248228674421625" y="888.935781070091252" width="37.037037037036498" height="37.037037037036498"/>
      <rect class="cls-1" x="148.285265711458123" y="888.935781070091252" width="37.037037037038317" height="37.037037037036498"/>
      <rect class="cls-1" x="185.32230274849644" y="888.935781070091252" width="37.037037037036498" height="37.037037037036498"/>
      <rect class="cls-1" x="111.248228674421625" y="925.97281810712775" width="37.037037037036498" height="37.037037037038317"/>
      <rect class="cls-1" x="148.285265711458123" y="925.97281810712775" width="37.037037037038317" height="37.037037037038317"/>
      <rect class="cls-1" x="185.32230274849644" y="925.97281810712775" width="37.037037037036498" height="37.037037037038317"/>
      <rect class="cls-1" x="111.248228674421625" y="963.009855144166067" width="37.037037037036498" height="37.037037037036498"/>
      <rect class="cls-1" x="148.285265711458123" y="963.009855144166067" width="37.037037037038317" height="37.037037037036498"/>
      <rect class="cls-1" x="185.32230274849644" y="963.009855144166067" width="37.037037037036498" height="37.037037037036498"/>
    </g>
    <g>
      <rect class="cls-1" x="222.359339785532939" y="888.935781070091252" width="37.037037037036498" height="37.037037037036498"/>
      <rect class="cls-1" x="259.396376822569437" y="888.935781070091252" width="37.037037037036498" height="37.037037037036498"/>
      <rect class="cls-1" x="296.433413859605935" y="888.935781070091252" width="37.037037037038317" height="37.037037037036498"/>
      <rect class="cls-1" x="222.359339785532939" y="925.97281810712775" width="37.037037037036498" height="37.037037037038317"/>
      <rect class="cls-1" x="259.396376822569437" y="925.97281810712775" width="37.037037037036498" height="37.037037037038317"/>
      <rect class="cls-1" x="296.433413859605935" y="925.97281810712775" width="37.037037037038317" height="37.037037037038317"/>
      <rect class="cls-1" x="222.359339785532939" y="963.009855144166067" width="37.037037037036498" height="37.037037037036498"/>
      <rect class="cls-1" x="259.396376822569437" y="963.009855144166067" width="37.037037037036498" height="37.037037037036498"/>
      <rect class="cls-1" x="296.433413859605935" y="963.009855144166067" width="37.037037037038317" height="37.037037037036498"/>
    </g>
  </g>
</svg>