<?xml version="1.0" encoding="UTF-8"?>
<svg id="_图层_1" data-name="图层 1" xmlns="http://www.w3.org/2000/svg" viewBox="0 0 1000 1000">
  <defs>
    <style>
      .cls-1 {
        stroke: #ffa6a6;
        stroke-width: .600000023841858px;
      }

      .cls-1, .cls-2 {
        fill: none;
      }

      .cls-1, .cls-2, .cls-3 {
        stroke-miterlimit: 10;
      }

      .cls-2 {
        stroke: #a4e1ff;
        stroke-width: .75px;
      }

      .cls-4 {
        fill: #f98b78;
      }

      .cls-5 {
        fill: #001738;
      }

      .cls-3 {
        fill: #a4e1ff;
        stroke: #000;
      }
    </style>
  </defs>
  <rect class="cls-5" x="-14.334952574212366" y="-16.2812921748382" width="1028.959855923134455" height="1028.959855923135365"/>
  <g>
    <g>
      <rect class="cls-2" x="666.400663909447758" y="333.668764114203441" width="37.037037037036498" height="37.037037037036498"/>
      <rect class="cls-2" x="703.437700946484256" y="333.668764114203441" width="37.037037037036498" height="37.037037037036498"/>
      <rect class="cls-2" x="740.474737983520754" y="333.668764114203441" width="37.037037037038317" height="37.037037037036498"/>
      <rect class="cls-2" x="666.400663909447758" y="370.705801151239939" width="37.037037037036498" height="37.037037037036498"/>
      <rect class="cls-2" x="703.437700946484256" y="370.705801151239939" width="37.037037037036498" height="37.037037037036498"/>
      <rect class="cls-2" x="740.474737983520754" y="370.705801151239939" width="37.037037037038317" height="37.037037037036498"/>
      <rect class="cls-2" x="666.400663909447758" y="407.742838188276437" width="37.037037037036498" height="37.037037037036498"/>
      <rect class="cls-2" x="703.437700946484256" y="407.742838188276437" width="37.037037037036498" height="37.037037037036498"/>
      <rect class="cls-2" x="740.474737983520754" y="407.742838188276437" width="37.037037037038317" height="37.037037037036498"/>
    </g>
    <rect class="cls-2" x="221.457085964495491" y="777.437965142342364" width="111.111111111111313" height="111.111111111109494"/>
    <g>
      <rect class="cls-2" x="221.457085964495491" y="777.030503973406667" width="37.037037037036498" height="37.037037037036498"/>
      <rect class="cls-2" x="258.494123001531989" y="777.030503973406667" width="37.037037037036498" height="37.037037037036498"/>
      <rect class="cls-2" x="295.531160038568487" y="777.030503973406667" width="37.037037037038317" height="37.037037037036498"/>
      <rect class="cls-2" x="221.457085964495491" y="814.067541010443165" width="37.037037037036498" height="37.037037037038317"/>
      <rect class="cls-2" x="258.494123001531989" y="814.067541010443165" width="37.037037037036498" height="37.037037037038317"/>
      <rect class="cls-2" x="295.531160038568487" y="814.067541010443165" width="37.037037037038317" height="37.037037037038317"/>
      <rect class="cls-2" x="221.457085964495491" y="851.104578047481482" width="37.037037037036498" height="37.037037037036498"/>
      <rect class="cls-2" x="258.494123001531989" y="851.104578047481482" width="37.037037037036498" height="37.037037037036498"/>
      <rect class="cls-2" x="295.531160038568487" y="851.104578047481482" width="37.037037037038317" height="37.037037037036498"/>
    </g>
    <g>
      <rect class="cls-2" x="665.633748161550102" y="776.810728316046152" width="37.037037037036498" height="37.037037037036498"/>
      <rect class="cls-2" x="702.6707851985866" y="776.810728316046152" width="37.037037037038317" height="37.037037037036498"/>
      <rect class="cls-2" x="739.707822235624917" y="776.810728316046152" width="37.037037037036498" height="37.037037037036498"/>
      <rect class="cls-2" x="665.633748161550102" y="813.84776535308265" width="37.037037037036498" height="37.037037037038317"/>
      <rect class="cls-2" x="702.6707851985866" y="813.84776535308265" width="37.037037037038317" height="37.037037037038317"/>
      <rect class="cls-2" x="739.707822235624917" y="813.84776535308265" width="37.037037037036498" height="37.037037037038317"/>
      <rect class="cls-2" x="665.633748161550102" y="850.884802390120967" width="37.037037037036498" height="37.037037037036498"/>
      <rect class="cls-2" x="702.6707851985866" y="850.884802390120967" width="37.037037037038317" height="37.037037037036498"/>
      <rect class="cls-2" x="739.707822235624917" y="850.884802390120967" width="37.037037037036498" height="37.037037037036498"/>
    </g>
    <g>
      <rect class="cls-2" x="555.197880466745119" y="776.810728316046152" width="37.037037037036498" height="37.037037037036498"/>
      <rect class="cls-2" x="592.234917503781617" y="776.810728316046152" width="37.037037037038317" height="37.037037037036498"/>
      <rect class="cls-2" x="629.271954540819934" y="776.810728316046152" width="37.037037037036498" height="37.037037037036498"/>
      <rect class="cls-2" x="555.197880466745119" y="813.84776535308265" width="37.037037037036498" height="37.037037037038317"/>
      <rect class="cls-2" x="592.234917503781617" y="813.84776535308265" width="37.037037037038317" height="37.037037037038317"/>
      <rect class="cls-2" x="629.271954540819934" y="813.84776535308265" width="37.037037037036498" height="37.037037037038317"/>
      <rect class="cls-2" x="555.197880466745119" y="850.884802390120967" width="37.037037037036498" height="37.037037037036498"/>
      <rect class="cls-2" x="592.234917503781617" y="850.884802390120967" width="37.037037037038317" height="37.037037037036498"/>
      <rect class="cls-2" x="629.271954540819934" y="850.884802390120967" width="37.037037037036498" height="37.037037037036498"/>
    </g>
    <g>
      <rect class="cls-2" x="555.197880466745119" y="888.599976742403669" width="37.037037037036498" height="37.037037037036498"/>
      <rect class="cls-2" x="592.234917503781617" y="888.599976742403669" width="37.037037037038317" height="37.037037037036498"/>
      <rect class="cls-2" x="629.271954540819934" y="888.599976742403669" width="37.037037037036498" height="37.037037037036498"/>
      <rect class="cls-2" x="555.197880466745119" y="925.637013779440167" width="37.037037037036498" height="37.037037037038317"/>
      <rect class="cls-2" x="592.234917503781617" y="925.637013779440167" width="37.037037037038317" height="37.037037037038317"/>
      <rect class="cls-2" x="629.271954540819934" y="925.637013779440167" width="37.037037037036498" height="37.037037037038317"/>
      <rect class="cls-2" x="555.197880466745119" y="962.674050816478484" width="37.037037037036498" height="37.037037037036498"/>
      <rect class="cls-2" x="592.234917503781617" y="962.674050816478484" width="37.037037037038317" height="37.037037037036498"/>
      <rect class="cls-2" x="629.271954540819934" y="962.674050816478484" width="37.037037037036498" height="37.037037037036498"/>
    </g>
    <g>
      <rect class="cls-2" x="665.633748161548283" y="888.058624449780837" width="37.037037037036498" height="37.037037037036498"/>
      <rect class="cls-2" x="702.670785198584781" y="888.058624449780837" width="37.037037037038317" height="37.037037037036498"/>
      <rect class="cls-2" x="739.707822235623098" y="888.058624449780837" width="37.037037037036498" height="37.037037037036498"/>
      <rect class="cls-2" x="665.633748161548283" y="925.095661486817335" width="37.037037037036498" height="37.037037037038317"/>
      <rect class="cls-2" x="702.670785198584781" y="925.095661486817335" width="37.037037037038317" height="37.037037037038317"/>
      <rect class="cls-2" x="739.707822235623098" y="925.095661486817335" width="37.037037037036498" height="37.037037037038317"/>
      <rect class="cls-2" x="665.633748161548283" y="962.132698523855652" width="37.037037037036498" height="37.037037037036498"/>
      <rect class="cls-2" x="702.670785198584781" y="962.132698523855652" width="37.037037037038317" height="37.037037037036498"/>
      <rect class="cls-2" x="739.707822235623098" y="962.132698523855652" width="37.037037037036498" height="37.037037037036498"/>
    </g>
    <rect class="cls-2" x="221.457085964495491" y="666.326854031231051" width="111.111111111111313" height="111.111111111111313"/>
    <rect class="cls-2" x="110.345974853384178" y="666.326854031231051" width="111.111111111111313" height="111.111111111111313"/>
    <g>
      <rect class="cls-2" x="110.345974853384178" y="777.437965142342364" width="37.037037037036498" height="37.037037037036498"/>
      <rect class="cls-2" x="147.383011890420676" y="777.437965142342364" width="37.037037037038317" height="37.037037037036498"/>
      <rect class="cls-2" x="184.420048927458993" y="777.437965142342364" width="37.037037037036498" height="37.037037037036498"/>
      <rect class="cls-2" x="110.345974853384178" y="814.475002179378862" width="37.037037037036498" height="37.037037037036498"/>
      <rect class="cls-2" x="147.383011890420676" y="814.475002179378862" width="37.037037037038317" height="37.037037037036498"/>
      <rect class="cls-2" x="184.420048927458993" y="814.475002179378862" width="37.037037037036498" height="37.037037037036498"/>
      <rect class="cls-2" x="110.345974853384178" y="851.51203921641536" width="37.037037037036498" height="37.037037037036498"/>
      <rect class="cls-2" x="147.383011890420676" y="851.51203921641536" width="37.037037037038317" height="37.037037037036498"/>
      <rect class="cls-2" x="184.420048927458993" y="851.51203921641536" width="37.037037037036498" height="37.037037037036498"/>
    </g>
    <g>
      <rect class="cls-2" x="110.345974853384178" y="665.919392862297173" width="37.037037037036498" height="37.037037037036498"/>
      <rect class="cls-2" x="147.383011890420676" y="665.919392862297173" width="37.037037037038317" height="37.037037037036498"/>
      <rect class="cls-2" x="184.420048927458993" y="665.919392862297173" width="37.037037037036498" height="37.037037037036498"/>
      <rect class="cls-2" x="110.345974853384178" y="702.956429899333671" width="37.037037037036498" height="37.037037037036498"/>
      <rect class="cls-2" x="147.383011890420676" y="702.956429899333671" width="37.037037037038317" height="37.037037037036498"/>
      <rect class="cls-2" x="184.420048927458993" y="702.956429899333671" width="37.037037037036498" height="37.037037037036498"/>
      <rect class="cls-2" x="110.345974853384178" y="739.993466936370169" width="37.037037037036498" height="37.037037037036498"/>
      <rect class="cls-2" x="147.383011890420676" y="739.993466936370169" width="37.037037037038317" height="37.037037037036498"/>
      <rect class="cls-2" x="184.420048927458993" y="739.993466936370169" width="37.037037037036498" height="37.037037037036498"/>
    </g>
    <g>
      <rect class="cls-2" x="554.882091629400747" y="444.104631809006605" width="37.037037037036498" height="37.037037037036498"/>
      <rect class="cls-2" x="591.919128666437246" y="444.104631809006605" width="37.037037037036498" height="37.037037037036498"/>
      <rect class="cls-2" x="628.956165703473744" y="444.104631809006605" width="37.037037037038317" height="37.037037037036498"/>
      <rect class="cls-2" x="554.882091629400747" y="481.141668846043103" width="37.037037037036498" height="37.037037037036498"/>
      <rect class="cls-2" x="591.919128666437246" y="481.141668846043103" width="37.037037037036498" height="37.037037037036498"/>
      <rect class="cls-2" x="628.956165703473744" y="481.141668846043103" width="37.037037037038317" height="37.037037037036498"/>
      <rect class="cls-2" x="554.882091629400747" y="518.178705883079601" width="37.037037037036498" height="37.037037037036498"/>
      <rect class="cls-2" x="591.919128666437246" y="518.178705883079601" width="37.037037037036498" height="37.037037037036498"/>
      <rect class="cls-2" x="628.956165703473744" y="518.178705883079601" width="37.037037037038317" height="37.037037037036498"/>
    </g>
    <g>
      <rect class="cls-2" x="-.748126551834503" y="333.19483969992325" width="37.037037037036498" height="37.037037037036498"/>
      <rect class="cls-2" x="36.288910485201995" y="333.19483969992325" width="37.037037037036498" height="37.037037037036498"/>
      <rect class="cls-2" x="73.325947522238494" y="333.19483969992325" width="37.037037037038317" height="37.037037037036498"/>
      <rect class="cls-2" x="-.748126551834503" y="370.231876736959748" width="37.037037037036498" height="37.037037037036498"/>
      <rect class="cls-2" x="36.288910485201995" y="370.231876736959748" width="37.037037037036498" height="37.037037037036498"/>
      <rect class="cls-2" x="73.325947522238494" y="370.231876736959748" width="37.037037037038317" height="37.037037037036498"/>
      <rect class="cls-2" x="-.748126551834503" y="407.268913773996246" width="37.037037037036498" height="37.037037037036498"/>
      <rect class="cls-2" x="36.288910485201995" y="407.268913773996246" width="37.037037037036498" height="37.037037037036498"/>
      <rect class="cls-2" x="73.325947522238494" y="407.268913773996246" width="37.037037037038317" height="37.037037037036498"/>
    </g>
    <rect class="cls-2" x="221.317407042934065" y="221.882409586785798" width="111.111111111111313" height="111.111111111111313"/>
    <g>
      <rect class="cls-2" x="961.888307982238985" y="665.291673719482787" width="12.345679012345499" height="12.345679012345499"/>
      <rect class="cls-2" x="974.233986994584484" y="665.291673719482787" width="12.345679012347318" height="12.345679012345499"/>
      <rect class="cls-2" x="986.579666006931802" y="665.291673719482787" width="12.345679012345499" height="12.345679012345499"/>
      <rect class="cls-2" x="961.888307982238985" y="677.637352731828287" width="12.345679012345499" height="12.345679012345499"/>
      <rect class="cls-2" x="974.233986994584484" y="677.637352731828287" width="12.345679012347318" height="12.345679012345499"/>
      <rect class="cls-2" x="986.579666006931802" y="677.637352731828287" width="12.345679012345499" height="12.345679012345499"/>
      <rect class="cls-2" x="961.888307982238985" y="689.983031744173786" width="12.345679012345499" height="12.345679012345499"/>
      <rect class="cls-2" x="974.233986994584484" y="689.983031744173786" width="12.345679012347318" height="12.345679012345499"/>
      <rect class="cls-2" x="986.579666006931802" y="689.983031744173786" width="12.345679012345499" height="12.345679012345499"/>
    </g>
    <g>
      <rect class="cls-2" x="702.580559816498862" y="665.291673719482787" width="12.345679012345499" height="12.345679012345499"/>
      <rect class="cls-2" x="714.926238828844362" y="665.291673719482787" width="12.345679012347318" height="12.345679012345499"/>
      <rect class="cls-2" x="727.27191784119168" y="665.291673719482787" width="12.345679012345499" height="12.345679012345499"/>
      <rect class="cls-2" x="702.580559816498862" y="677.637352731828287" width="12.345679012345499" height="12.345679012345499"/>
      <rect class="cls-2" x="714.926238828844362" y="677.637352731828287" width="12.345679012347318" height="12.345679012345499"/>
      <rect class="cls-2" x="727.27191784119168" y="677.637352731828287" width="12.345679012345499" height="12.345679012345499"/>
      <rect class="cls-2" x="702.580559816498862" y="689.983031744173786" width="12.345679012345499" height="12.345679012345499"/>
      <rect class="cls-2" x="714.926238828844362" y="689.983031744173786" width="12.345679012347318" height="12.345679012345499"/>
      <rect class="cls-2" x="727.27191784119168" y="689.983031744173786" width="12.345679012345499" height="12.345679012345499"/>
    </g>
    <g>
      <rect class="cls-2" x="851.174164973204824" y="482.306999645472388" width="12.345679012345499" height="12.345679012345499"/>
      <rect class="cls-2" x="863.519843985550324" y="482.306999645472388" width="12.345679012347318" height="12.345679012345499"/>
      <rect class="cls-2" x="875.865522997897642" y="482.306999645472388" width="12.345679012345499" height="12.345679012345499"/>
      <rect class="cls-2" x="851.174164973204824" y="494.652678657817887" width="12.345679012345499" height="12.345679012345499"/>
      <rect class="cls-2" x="863.519843985550324" y="494.652678657817887" width="12.345679012347318" height="12.345679012345499"/>
      <rect class="cls-2" x="875.865522997897642" y="494.652678657817887" width="12.345679012345499" height="12.345679012345499"/>
      <rect class="cls-2" x="851.174164973204824" y="506.998357670163387" width="12.345679012345499" height="12.345679012345499"/>
      <rect class="cls-2" x="863.519843985550324" y="506.998357670163387" width="12.345679012347318" height="12.345679012345499"/>
      <rect class="cls-2" x="875.865522997897642" y="506.998357670163387" width="12.345679012345499" height="12.345679012345499"/>
    </g>
    <g>
      <rect class="cls-2" x="740.151832294728592" y="370.833540056478341" width="12.345679012345499" height="12.345679012345499"/>
      <rect class="cls-2" x="752.497511307074092" y="370.833540056478341" width="12.345679012347318" height="12.345679012345499"/>
      <rect class="cls-2" x="764.84319031942141" y="370.833540056478341" width="12.345679012345499" height="12.345679012345499"/>
      <rect class="cls-2" x="740.151832294728592" y="383.179219068823841" width="12.345679012345499" height="12.345679012346409"/>
      <rect class="cls-2" x="752.497511307074092" y="383.179219068823841" width="12.345679012347318" height="12.345679012346409"/>
      <rect class="cls-2" x="764.84319031942141" y="383.179219068823841" width="12.345679012345499" height="12.345679012346409"/>
      <rect class="cls-2" x="740.151832294728592" y="395.524898081170249" width="12.345679012345499" height="12.345679012345499"/>
      <rect class="cls-2" x="752.497511307074092" y="395.524898081170249" width="12.345679012347318" height="12.345679012345499"/>
      <rect class="cls-2" x="764.84319031942141" y="395.524898081170249" width="12.345679012345499" height="12.345679012345499"/>
    </g>
    <g>
      <rect class="cls-2" x="666.337173572082975" y="482.008974291084996" width="12.345679012345499" height="12.345679012345499"/>
      <rect class="cls-2" x="678.682852584428474" y="482.008974291084996" width="12.345679012347318" height="12.345679012345499"/>
      <rect class="cls-2" x="691.028531596775792" y="482.008974291084996" width="12.345679012345499" height="12.345679012345499"/>
      <rect class="cls-2" x="666.337173572082975" y="494.354653303430496" width="12.345679012345499" height="12.345679012346409"/>
      <rect class="cls-2" x="678.682852584428474" y="494.354653303430496" width="12.345679012347318" height="12.345679012346409"/>
      <rect class="cls-2" x="691.028531596775792" y="494.354653303430496" width="12.345679012345499" height="12.345679012346409"/>
      <rect class="cls-2" x="666.337173572082975" y="506.700332315776905" width="12.345679012345499" height="12.345679012345499"/>
      <rect class="cls-2" x="678.682852584428474" y="506.700332315776905" width="12.345679012347318" height="12.345679012345499"/>
      <rect class="cls-2" x="691.028531596775792" y="506.700332315776905" width="12.345679012345499" height="12.345679012345499"/>
    </g>
    <g>
      <rect class="cls-2" x="740.051310750717676" y="407.227330863048337" width="12.345679012345499" height="12.345679012345499"/>
      <rect class="cls-2" x="752.396989763063175" y="407.227330863048337" width="12.345679012347318" height="12.345679012345499"/>
      <rect class="cls-2" x="764.742668775410493" y="407.227330863048337" width="12.345679012345499" height="12.345679012345499"/>
      <rect class="cls-2" x="740.051310750717676" y="419.573009875393836" width="12.345679012345499" height="12.345679012346409"/>
      <rect class="cls-2" x="752.396989763063175" y="419.573009875393836" width="12.345679012347318" height="12.345679012346409"/>
      <rect class="cls-2" x="764.742668775410493" y="419.573009875393836" width="12.345679012345499" height="12.345679012346409"/>
      <rect class="cls-2" x="740.051310750717676" y="431.918688887740245" width="12.345679012345499" height="12.345679012345499"/>
      <rect class="cls-2" x="752.396989763063175" y="431.918688887740245" width="12.345679012347318" height="12.345679012345499"/>
      <rect class="cls-2" x="764.742668775410493" y="431.918688887740245" width="12.345679012345499" height="12.345679012345499"/>
    </g>
    <g>
      <rect class="cls-2" x="110.017763683204976" y="702.772720815604771" width="12.345679012345499" height="12.345679012345499"/>
      <rect class="cls-2" x="122.363442695550475" y="702.772720815604771" width="12.345679012347318" height="12.345679012345499"/>
      <rect class="cls-2" x="134.709121707897793" y="702.772720815604771" width="12.345679012345499" height="12.345679012345499"/>
      <rect class="cls-2" x="110.017763683204976" y="715.11839982795027" width="12.345679012345499" height="12.345679012347318"/>
      <rect class="cls-2" x="122.363442695550475" y="715.11839982795027" width="12.345679012347318" height="12.345679012347318"/>
      <rect class="cls-2" x="134.709121707897793" y="715.11839982795027" width="12.345679012345499" height="12.345679012347318"/>
      <rect class="cls-2" x="110.017763683204976" y="727.464078840297589" width="12.345679012345499" height="12.345679012345499"/>
      <rect class="cls-2" x="122.363442695550475" y="727.464078840297589" width="12.345679012347318" height="12.345679012345499"/>
      <rect class="cls-2" x="134.709121707897793" y="727.464078840297589" width="12.345679012345499" height="12.345679012345499"/>
    </g>
    <g>
      <rect class="cls-2" x="333.054908243298996" y="851.464150522333512" width="12.345679012345499" height="12.345679012345499"/>
      <rect class="cls-2" x="345.400587255644496" y="851.464150522333512" width="12.345679012347318" height="12.345679012345499"/>
      <rect class="cls-2" x="357.746266267991814" y="851.464150522333512" width="12.345679012345499" height="12.345679012345499"/>
      <rect class="cls-2" x="333.054908243298996" y="863.809829534679011" width="12.345679012345499" height="12.345679012347318"/>
      <rect class="cls-2" x="345.400587255644496" y="863.809829534679011" width="12.345679012347318" height="12.345679012347318"/>
      <rect class="cls-2" x="357.746266267991814" y="863.809829534679011" width="12.345679012345499" height="12.345679012347318"/>
      <rect class="cls-2" x="333.054908243298996" y="876.155508547026329" width="12.345679012345499" height="12.345679012345499"/>
      <rect class="cls-2" x="345.400587255644496" y="876.155508547026329" width="12.345679012347318" height="12.345679012345499"/>
      <rect class="cls-2" x="357.746266267991814" y="876.155508547026329" width="12.345679012345499" height="12.345679012345499"/>
    </g>
    <g>
      <rect class="cls-2" x="296.010030880082923" y="777.539648224279517" width="12.345679012345499" height="12.345679012345499"/>
      <rect class="cls-2" x="308.355709892428422" y="777.539648224279517" width="12.345679012347318" height="12.345679012345499"/>
      <rect class="cls-2" x="320.70138890477574" y="777.539648224279517" width="12.345679012345499" height="12.345679012345499"/>
      <rect class="cls-2" x="296.010030880082923" y="789.885327236625017" width="12.345679012345499" height="12.345679012347318"/>
      <rect class="cls-2" x="308.355709892428422" y="789.885327236625017" width="12.345679012347318" height="12.345679012347318"/>
      <rect class="cls-2" x="320.70138890477574" y="789.885327236625017" width="12.345679012345499" height="12.345679012347318"/>
      <rect class="cls-2" x="296.010030880082923" y="802.231006248972335" width="12.345679012345499" height="12.345679012345499"/>
      <rect class="cls-2" x="308.355709892428422" y="802.231006248972335" width="12.345679012347318" height="12.345679012345499"/>
      <rect class="cls-2" x="320.70138890477574" y="802.231006248972335" width="12.345679012345499" height="12.345679012345499"/>
    </g>
    <g>
      <rect class="cls-2" x="406.987250867508919" y="814.892956415169465" width="12.345679012345499" height="12.345679012345499"/>
      <rect class="cls-2" x="419.332929879854419" y="814.892956415169465" width="12.345679012347318" height="12.345679012345499"/>
      <rect class="cls-2" x="431.678608892201737" y="814.892956415169465" width="12.345679012345499" height="12.345679012345499"/>
      <rect class="cls-2" x="406.987250867508919" y="827.238635427514964" width="12.345679012345499" height="12.345679012347318"/>
      <rect class="cls-2" x="419.332929879854419" y="827.238635427514964" width="12.345679012347318" height="12.345679012347318"/>
      <rect class="cls-2" x="431.678608892201737" y="827.238635427514964" width="12.345679012345499" height="12.345679012347318"/>
      <rect class="cls-2" x="406.987250867508919" y="839.584314439862283" width="12.345679012345499" height="12.345679012345499"/>
      <rect class="cls-2" x="419.332929879854419" y="839.584314439862283" width="12.345679012347318" height="12.345679012345499"/>
      <rect class="cls-2" x="431.678608892201737" y="839.584314439862283" width="12.345679012345499" height="12.345679012345499"/>
    </g>
    <g>
      <rect class="cls-2" x="666.121906278727693" y="888.411444493758609" width="12.345679012345499" height="12.345679012345499"/>
      <rect class="cls-2" x="678.467585291073192" y="888.411444493758609" width="12.345679012347318" height="12.345679012345499"/>
      <rect class="cls-2" x="690.81326430342051" y="888.411444493758609" width="12.345679012345499" height="12.345679012345499"/>
      <rect class="cls-2" x="666.121906278727693" y="900.757123506104108" width="12.345679012345499" height="12.345679012347318"/>
      <rect class="cls-2" x="678.467585291073192" y="900.757123506104108" width="12.345679012347318" height="12.345679012347318"/>
      <rect class="cls-2" x="690.81326430342051" y="900.757123506104108" width="12.345679012345499" height="12.345679012347318"/>
      <rect class="cls-2" x="666.121906278727693" y="913.102802518451426" width="12.345679012345499" height="12.345679012345499"/>
      <rect class="cls-2" x="678.467585291073192" y="913.102802518451426" width="12.345679012347318" height="12.345679012345499"/>
      <rect class="cls-2" x="690.81326430342051" y="913.102802518451426" width="12.345679012345499" height="12.345679012345499"/>
    </g>
    <g>
      <rect class="cls-2" x="739.332445846115661" y="851.21603072155267" width="12.345679012345499" height="12.345679012345499"/>
      <rect class="cls-2" x="751.67812485846116" y="851.21603072155267" width="12.345679012347318" height="12.345679012345499"/>
      <rect class="cls-2" x="764.023803870808479" y="851.21603072155267" width="12.345679012345499" height="12.345679012345499"/>
      <rect class="cls-2" x="739.332445846115661" y="863.561709733898169" width="12.345679012345499" height="12.345679012347318"/>
      <rect class="cls-2" x="751.67812485846116" y="863.561709733898169" width="12.345679012347318" height="12.345679012347318"/>
      <rect class="cls-2" x="764.023803870808479" y="863.561709733898169" width="12.345679012345499" height="12.345679012347318"/>
      <rect class="cls-2" x="739.332445846115661" y="875.907388746245488" width="12.345679012345499" height="12.345679012345499"/>
      <rect class="cls-2" x="751.67812485846116" y="875.907388746245488" width="12.345679012347318" height="12.345679012345499"/>
      <rect class="cls-2" x="764.023803870808479" y="875.907388746245488" width="12.345679012345499" height="12.345679012345499"/>
    </g>
    <g>
      <rect class="cls-2" x="850.851018126160852" y="776.148512811359979" width="12.345679012345499" height="12.345679012345499"/>
      <rect class="cls-2" x="863.196697138506352" y="776.148512811359979" width="12.345679012347318" height="12.345679012345499"/>
      <rect class="cls-2" x="875.54237615085367" y="776.148512811359979" width="12.345679012345499" height="12.345679012345499"/>
      <rect class="cls-2" x="850.851018126160852" y="788.494191823705478" width="12.345679012345499" height="12.345679012347318"/>
      <rect class="cls-2" x="863.196697138506352" y="788.494191823705478" width="12.345679012347318" height="12.345679012347318"/>
      <rect class="cls-2" x="875.54237615085367" y="788.494191823705478" width="12.345679012345499" height="12.345679012347318"/>
      <rect class="cls-2" x="850.851018126160852" y="800.839870836052796" width="12.345679012345499" height="12.345679012345499"/>
      <rect class="cls-2" x="863.196697138506352" y="800.839870836052796" width="12.345679012347318" height="12.345679012345499"/>
      <rect class="cls-2" x="875.54237615085367" y="800.839870836052796" width="12.345679012345499" height="12.345679012345499"/>
    </g>
    <g>
      <rect class="cls-2" x="814.039062227893737" y="776.148512811359979" width="12.345679012345499" height="12.345679012345499"/>
      <rect class="cls-2" x="826.384741240239237" y="776.148512811359979" width="12.345679012347318" height="12.345679012345499"/>
      <rect class="cls-2" x="838.730420252586555" y="776.148512811359979" width="12.345679012345499" height="12.345679012345499"/>
      <rect class="cls-2" x="814.039062227893737" y="788.494191823705478" width="12.345679012345499" height="12.345679012347318"/>
      <rect class="cls-2" x="826.384741240239237" y="788.494191823705478" width="12.345679012347318" height="12.345679012347318"/>
      <rect class="cls-2" x="838.730420252586555" y="788.494191823705478" width="12.345679012345499" height="12.345679012347318"/>
      <rect class="cls-2" x="814.039062227893737" y="800.839870836052796" width="12.345679012345499" height="12.345679012345499"/>
      <rect class="cls-2" x="826.384741240239237" y="800.839870836052796" width="12.345679012347318" height="12.345679012345499"/>
      <rect class="cls-2" x="838.730420252586555" y="800.839870836052796" width="12.345679012345499" height="12.345679012345499"/>
    </g>
    <g>
      <rect class="cls-2" x="814.039062227893737" y="813.501821002249926" width="12.345679012345499" height="12.345679012345499"/>
      <rect class="cls-2" x="826.384741240239237" y="813.501821002249926" width="12.345679012347318" height="12.345679012345499"/>
      <rect class="cls-2" x="838.730420252586555" y="813.501821002249926" width="12.345679012345499" height="12.345679012345499"/>
      <rect class="cls-2" x="814.039062227893737" y="825.847500014595425" width="12.345679012345499" height="12.345679012347318"/>
      <rect class="cls-2" x="826.384741240239237" y="825.847500014595425" width="12.345679012347318" height="12.345679012347318"/>
      <rect class="cls-2" x="838.730420252586555" y="825.847500014595425" width="12.345679012345499" height="12.345679012347318"/>
      <rect class="cls-2" x="814.039062227893737" y="838.193179026942744" width="12.345679012345499" height="12.345679012345499"/>
      <rect class="cls-2" x="826.384741240239237" y="838.193179026942744" width="12.345679012347318" height="12.345679012345499"/>
      <rect class="cls-2" x="838.730420252586555" y="838.193179026942744" width="12.345679012345499" height="12.345679012345499"/>
    </g>
    <g>
      <rect class="cls-2" x="851.392370418781866" y="813.501821002249926" width="12.345679012345499" height="12.345679012345499"/>
      <rect class="cls-2" x="863.738049431127365" y="813.501821002249926" width="12.345679012347318" height="12.345679012345499"/>
      <rect class="cls-2" x="876.083728443474683" y="813.501821002249926" width="12.345679012345499" height="12.345679012345499"/>
      <rect class="cls-2" x="851.392370418781866" y="825.847500014595425" width="12.345679012345499" height="12.345679012347318"/>
      <rect class="cls-2" x="863.738049431127365" y="825.847500014595425" width="12.345679012347318" height="12.345679012347318"/>
      <rect class="cls-2" x="876.083728443474683" y="825.847500014595425" width="12.345679012345499" height="12.345679012347318"/>
      <rect class="cls-2" x="851.392370418781866" y="838.193179026942744" width="12.345679012345499" height="12.345679012345499"/>
      <rect class="cls-2" x="863.738049431127365" y="838.193179026942744" width="12.345679012347318" height="12.345679012345499"/>
      <rect class="cls-2" x="876.083728443474683" y="838.193179026942744" width="12.345679012345499" height="12.345679012345499"/>
    </g>
    <g>
      <rect class="cls-2" x="887.933650170738474" y="813.501821002249926" width="12.345679012345499" height="12.345679012345499"/>
      <rect class="cls-2" x="900.279329183083973" y="813.501821002249926" width="12.345679012347318" height="12.345679012345499"/>
      <rect class="cls-2" x="912.625008195431292" y="813.501821002249926" width="12.345679012345499" height="12.345679012345499"/>
      <rect class="cls-2" x="887.933650170738474" y="825.847500014595425" width="12.345679012345499" height="12.345679012347318"/>
      <rect class="cls-2" x="900.279329183083973" y="825.847500014595425" width="12.345679012347318" height="12.345679012347318"/>
      <rect class="cls-2" x="912.625008195431292" y="825.847500014595425" width="12.345679012345499" height="12.345679012347318"/>
      <rect class="cls-2" x="887.933650170738474" y="838.193179026942744" width="12.345679012345499" height="12.345679012345499"/>
      <rect class="cls-2" x="900.279329183083973" y="838.193179026942744" width="12.345679012347318" height="12.345679012345499"/>
      <rect class="cls-2" x="912.625008195431292" y="838.193179026942744" width="12.345679012345499" height="12.345679012345499"/>
    </g>
    <g>
      <rect class="cls-2" x="887.933650170738474" y="776.148512811359979" width="12.345679012345499" height="12.345679012345499"/>
      <rect class="cls-2" x="900.279329183083973" y="776.148512811359979" width="12.345679012347318" height="12.345679012345499"/>
      <rect class="cls-2" x="912.625008195431292" y="776.148512811359979" width="12.345679012345499" height="12.345679012345499"/>
      <rect class="cls-2" x="887.933650170738474" y="788.494191823705478" width="12.345679012345499" height="12.345679012347318"/>
      <rect class="cls-2" x="900.279329183083973" y="788.494191823705478" width="12.345679012347318" height="12.345679012347318"/>
      <rect class="cls-2" x="912.625008195431292" y="788.494191823705478" width="12.345679012345499" height="12.345679012347318"/>
      <rect class="cls-2" x="887.933650170738474" y="800.839870836052796" width="12.345679012345499" height="12.345679012345499"/>
      <rect class="cls-2" x="900.279329183083973" y="800.839870836052796" width="12.345679012347318" height="12.345679012345499"/>
      <rect class="cls-2" x="912.625008195431292" y="800.839870836052796" width="12.345679012345499" height="12.345679012345499"/>
    </g>
    <g>
      <rect class="cls-2" x="739.332445846115661" y="887.870092201135776" width="12.345679012345499" height="12.345679012345499"/>
      <rect class="cls-2" x="751.67812485846116" y="887.870092201135776" width="12.345679012347318" height="12.345679012345499"/>
      <rect class="cls-2" x="764.023803870808479" y="887.870092201135776" width="12.345679012345499" height="12.345679012345499"/>
      <rect class="cls-2" x="739.332445846115661" y="900.215771213481275" width="12.345679012345499" height="12.345679012347318"/>
      <rect class="cls-2" x="751.67812485846116" y="900.215771213481275" width="12.345679012347318" height="12.345679012347318"/>
      <rect class="cls-2" x="764.023803870808479" y="900.215771213481275" width="12.345679012345499" height="12.345679012347318"/>
      <rect class="cls-2" x="739.332445846115661" y="912.561450225828594" width="12.345679012345499" height="12.345679012345499"/>
      <rect class="cls-2" x="751.67812485846116" y="912.561450225828594" width="12.345679012347318" height="12.345679012345499"/>
      <rect class="cls-2" x="764.023803870808479" y="912.561450225828594" width="12.345679012345499" height="12.345679012345499"/>
    </g>
    <g>
      <rect class="cls-2" x="776.685754036996514" y="777.404310151136087" width="12.345679012345499" height="12.345679012345499"/>
      <rect class="cls-2" x="789.031433049342013" y="777.404310151136087" width="12.345679012347318" height="12.345679012345499"/>
      <rect class="cls-2" x="801.377112061689331" y="777.404310151136087" width="12.345679012345499" height="12.345679012345499"/>
      <rect class="cls-2" x="776.685754036996514" y="789.749989163481587" width="12.345679012345499" height="12.345679012347318"/>
      <rect class="cls-2" x="789.031433049342013" y="789.749989163481587" width="12.345679012347318" height="12.345679012347318"/>
      <rect class="cls-2" x="801.377112061689331" y="789.749989163481587" width="12.345679012345499" height="12.345679012347318"/>
      <rect class="cls-2" x="776.685754036996514" y="802.095668175828905" width="12.345679012345499" height="12.345679012345499"/>
      <rect class="cls-2" x="789.031433049342013" y="802.095668175828905" width="12.345679012347318" height="12.345679012345499"/>
      <rect class="cls-2" x="801.377112061689331" y="802.095668175828905" width="12.345679012345499" height="12.345679012345499"/>
    </g>
    <g>
      <rect class="cls-2" x="776.685754036996514" y="813.674913756782189" width="12.345679012345499" height="12.345679012345499"/>
      <rect class="cls-2" x="789.031433049342013" y="813.674913756782189" width="12.345679012347318" height="12.345679012345499"/>
      <rect class="cls-2" x="801.377112061689331" y="813.674913756782189" width="12.345679012345499" height="12.345679012345499"/>
      <rect class="cls-2" x="776.685754036996514" y="826.020592769127688" width="12.345679012345499" height="12.345679012347318"/>
      <rect class="cls-2" x="789.031433049342013" y="826.020592769127688" width="12.345679012347318" height="12.345679012347318"/>
      <rect class="cls-2" x="801.377112061689331" y="826.020592769127688" width="12.345679012345499" height="12.345679012347318"/>
      <rect class="cls-2" x="776.685754036996514" y="838.366271781475007" width="12.345679012345499" height="12.345679012345499"/>
      <rect class="cls-2" x="789.031433049342013" y="838.366271781475007" width="12.345679012347318" height="12.345679012345499"/>
      <rect class="cls-2" x="801.377112061689331" y="838.366271781475007" width="12.345679012345499" height="12.345679012345499"/>
    </g>
    <g>
      <rect class="cls-2" x="147.754529748030109" y="776.937984904772748" width="12.345679012345499" height="12.345679012345499"/>
      <rect class="cls-2" x="160.100208760375608" y="776.937984904772748" width="12.345679012347318" height="12.345679012345499"/>
      <rect class="cls-2" x="172.445887772722926" y="776.937984904772748" width="12.345679012345499" height="12.345679012345499"/>
      <rect class="cls-2" x="147.754529748030109" y="789.283663917118247" width="12.345679012345499" height="12.345679012347318"/>
      <rect class="cls-2" x="160.100208760375608" y="789.283663917118247" width="12.345679012347318" height="12.345679012347318"/>
      <rect class="cls-2" x="172.445887772722926" y="789.283663917118247" width="12.345679012345499" height="12.345679012347318"/>
      <rect class="cls-2" x="147.754529748030109" y="801.629342929465565" width="12.345679012345499" height="12.345679012345499"/>
      <rect class="cls-2" x="160.100208760375608" y="801.629342929465565" width="12.345679012347318" height="12.345679012345499"/>
      <rect class="cls-2" x="172.445887772722926" y="801.629342929465565" width="12.345679012345499" height="12.345679012345499"/>
    </g>
    <g>
      <rect class="cls-2" x="184.288451490299849" y="814.516856550912053" width="12.345679012345499" height="12.345679012345499"/>
      <rect class="cls-2" x="196.634130502645348" y="814.516856550912053" width="12.345679012347318" height="12.345679012345499"/>
      <rect class="cls-2" x="208.979809514992667" y="814.516856550912053" width="12.345679012345499" height="12.345679012345499"/>
      <rect class="cls-2" x="184.288451490299849" y="826.862535563257552" width="12.345679012345499" height="12.345679012347318"/>
      <rect class="cls-2" x="196.634130502645348" y="826.862535563257552" width="12.345679012347318" height="12.345679012347318"/>
      <rect class="cls-2" x="208.979809514992667" y="826.862535563257552" width="12.345679012345499" height="12.345679012347318"/>
      <rect class="cls-2" x="184.288451490299849" y="839.20821457560487" width="12.345679012345499" height="12.345679012345499"/>
      <rect class="cls-2" x="196.634130502645348" y="839.20821457560487" width="12.345679012347318" height="12.345679012345499"/>
      <rect class="cls-2" x="208.979809514992667" y="839.20821457560487" width="12.345679012345499" height="12.345679012345499"/>
    </g>
    <g>
      <rect class="cls-2" x="147.837397120447349" y="258.999178939063313" width="12.345679012345499" height="12.345679012345499"/>
      <rect class="cls-2" x="160.183076132792849" y="258.999178939063313" width="12.345679012347318" height="12.345679012345499"/>
      <rect class="cls-2" x="172.528755145140167" y="258.999178939063313" width="12.345679012345499" height="12.345679012345499"/>
      <rect class="cls-2" x="147.837397120447349" y="271.344857951408812" width="12.345679012345499" height="12.345679012347318"/>
      <rect class="cls-2" x="160.183076132792849" y="271.344857951408812" width="12.345679012347318" height="12.345679012347318"/>
      <rect class="cls-2" x="172.528755145140167" y="271.344857951408812" width="12.345679012345499" height="12.345679012347318"/>
      <rect class="cls-2" x="147.837397120447349" y="283.690536963756131" width="12.345679012345499" height="12.345679012345499"/>
      <rect class="cls-2" x="160.183076132792849" y="283.690536963756131" width="12.345679012347318" height="12.345679012345499"/>
      <rect class="cls-2" x="172.528755145140167" y="283.690536963756131" width="12.345679012345499" height="12.345679012345499"/>
    </g>
    <rect class="cls-2" x="-.765136257727136" y="-.339812635435919" width="333.33333333333394" height="333.33333333333303"/>
    <rect class="cls-2" x="665.901530408940744" y="-.339812635435919" width="333.333333333332121" height="333.33333333333303"/>
    <rect class="cls-2" x="-.765136257727136" y="332.993520697897111" width="333.33333333333394" height="333.33333333333394"/>
    <rect class="cls-2" x="332.568197075606804" y="332.993520697897111" width="333.33333333333394" height="333.33333333333394"/>
    <rect class="cls-2" x="332.568197075606804" y="666.326854031231051" width="333.33333333333394" height="333.333333333332121"/>
    <rect class="cls-2" x="665.901530408940744" y="666.326854031231051" width="333.333333333332121" height="333.333333333332121"/>
    <g>
      <rect class="cls-2" x="666.442882701561757" y="332.226604950016736" width="111.111111111111313" height="111.111111111111313"/>
      <rect class="cls-2" x="777.55399381267307" y="332.226604950016736" width="111.111111111111313" height="111.111111111111313"/>
      <rect class="cls-2" x="888.665104923784384" y="332.226604950016736" width="111.111111111109494" height="111.111111111111313"/>
      <rect class="cls-2" x="666.442882701561757" y="443.337716061128049" width="111.111111111111313" height="111.111111111112223"/>
      <rect class="cls-2" x="777.55399381267307" y="443.337716061128049" width="111.111111111111313" height="111.111111111112223"/>
      <rect class="cls-2" x="888.665104923784384" y="443.337716061128049" width="111.111111111109494" height="111.111111111112223"/>
      <rect class="cls-2" x="777.55399381267307" y="554.448827172240271" width="111.111111111111313" height="111.111111111109494"/>
      <rect class="cls-2" x="888.665104923784384" y="554.448827172240271" width="111.111111111109494" height="111.111111111109494"/>
      <g>
        <rect class="cls-2" x="666.442882701561757" y="554.448827172240271" width="37.037037037036498" height="37.037037037036498"/>
        <rect class="cls-2" x="703.479919738598255" y="554.448827172240271" width="37.037037037036498" height="37.037037037036498"/>
        <rect class="cls-2" x="740.516956775634753" y="554.448827172240271" width="37.037037037038317" height="37.037037037036498"/>
        <rect class="cls-2" x="666.442882701561757" y="591.48586420927677" width="37.037037037036498" height="37.037037037036498"/>
        <rect class="cls-2" x="703.479919738598255" y="591.48586420927677" width="37.037037037036498" height="37.037037037036498"/>
        <rect class="cls-2" x="740.516956775634753" y="591.48586420927677" width="37.037037037038317" height="37.037037037036498"/>
        <rect class="cls-2" x="666.442882701561757" y="628.522901246313268" width="37.037037037036498" height="37.037037037036498"/>
        <rect class="cls-2" x="703.479919738598255" y="628.522901246313268" width="37.037037037036498" height="37.037037037036498"/>
        <rect class="cls-2" x="740.516956775634753" y="628.522901246313268" width="37.037037037038317" height="37.037037037036498"/>
      </g>
      <g>
        <rect class="cls-2" x="777.420102688985935" y="554.448827172240271" width="37.037037037036498" height="37.037037037036498"/>
        <rect class="cls-2" x="814.457139726022433" y="554.448827172240271" width="37.037037037036498" height="37.037037037036498"/>
        <rect class="cls-2" x="851.494176763058931" y="554.448827172240271" width="37.037037037038317" height="37.037037037036498"/>
        <rect class="cls-2" x="777.420102688985935" y="591.48586420927677" width="37.037037037036498" height="37.037037037036498"/>
        <rect class="cls-2" x="814.457139726022433" y="591.48586420927677" width="37.037037037036498" height="37.037037037036498"/>
        <rect class="cls-2" x="851.494176763058931" y="591.48586420927677" width="37.037037037038317" height="37.037037037036498"/>
        <rect class="cls-2" x="777.420102688985935" y="628.522901246313268" width="37.037037037036498" height="37.037037037036498"/>
        <rect class="cls-2" x="814.457139726022433" y="628.522901246313268" width="37.037037037036498" height="37.037037037036498"/>
        <rect class="cls-2" x="851.494176763058931" y="628.522901246313268" width="37.037037037038317" height="37.037037037036498"/>
      </g>
      <g>
        <rect class="cls-2" x="777.420102688985935" y="444.012959477436198" width="37.037037037036498" height="37.037037037036498"/>
        <rect class="cls-2" x="814.457139726022433" y="444.012959477436198" width="37.037037037036498" height="37.037037037036498"/>
        <rect class="cls-2" x="851.494176763058931" y="444.012959477436198" width="37.037037037038317" height="37.037037037036498"/>
        <rect class="cls-2" x="777.420102688985935" y="481.049996514472696" width="37.037037037036498" height="37.037037037037408"/>
        <rect class="cls-2" x="814.457139726022433" y="481.049996514472696" width="37.037037037036498" height="37.037037037037408"/>
        <rect class="cls-2" x="851.494176763058931" y="481.049996514472696" width="37.037037037038317" height="37.037037037037408"/>
        <rect class="cls-2" x="777.420102688985935" y="518.087033551510103" width="37.037037037036498" height="37.037037037036498"/>
        <rect class="cls-2" x="814.457139726022433" y="518.087033551510103" width="37.037037037036498" height="37.037037037036498"/>
        <rect class="cls-2" x="851.494176763058931" y="518.087033551510103" width="37.037037037038317" height="37.037037037036498"/>
      </g>
      <g>
        <rect class="cls-2" x="888.408600849172217" y="444.012959477436198" width="37.037037037036498" height="37.037037037036498"/>
        <rect class="cls-2" x="925.445637886208715" y="444.012959477436198" width="37.037037037036498" height="37.037037037036498"/>
        <rect class="cls-2" x="962.482674923245213" y="444.012959477436198" width="37.037037037038317" height="37.037037037036498"/>
        <rect class="cls-2" x="888.408600849172217" y="481.049996514472696" width="37.037037037036498" height="37.037037037037408"/>
        <rect class="cls-2" x="925.445637886208715" y="481.049996514472696" width="37.037037037036498" height="37.037037037037408"/>
        <rect class="cls-2" x="962.482674923245213" y="481.049996514472696" width="37.037037037038317" height="37.037037037037408"/>
        <rect class="cls-2" x="888.408600849172217" y="518.087033551510103" width="37.037037037036498" height="37.037037037036498"/>
        <rect class="cls-2" x="925.445637886208715" y="518.087033551510103" width="37.037037037036498" height="37.037037037036498"/>
        <rect class="cls-2" x="962.482674923245213" y="518.087033551510103" width="37.037037037038317" height="37.037037037036498"/>
      </g>
      <g>
        <rect class="cls-2" x="666.420326356033911" y="444.012959477436198" width="37.037037037036498" height="37.037037037036498"/>
        <rect class="cls-2" x="703.457363393070409" y="444.012959477436198" width="37.037037037036498" height="37.037037037036498"/>
        <rect class="cls-2" x="740.494400430106907" y="444.012959477436198" width="37.037037037038317" height="37.037037037036498"/>
        <rect class="cls-2" x="666.420326356033911" y="481.049996514472696" width="37.037037037036498" height="37.037037037037408"/>
        <rect class="cls-2" x="703.457363393070409" y="481.049996514472696" width="37.037037037036498" height="37.037037037037408"/>
        <rect class="cls-2" x="740.494400430106907" y="481.049996514472696" width="37.037037037038317" height="37.037037037037408"/>
        <rect class="cls-2" x="666.420326356033911" y="518.087033551510103" width="37.037037037036498" height="37.037037037036498"/>
        <rect class="cls-2" x="703.457363393070409" y="518.087033551510103" width="37.037037037036498" height="37.037037037036498"/>
        <rect class="cls-2" x="740.494400430106907" y="518.087033551510103" width="37.037037037038317" height="37.037037037036498"/>
      </g>
      <g>
        <rect class="cls-2" x="888.397322676410113" y="554.448827172240271" width="37.037037037036498" height="37.037037037036498"/>
        <rect class="cls-2" x="925.434359713446611" y="554.448827172240271" width="37.037037037036498" height="37.037037037036498"/>
        <rect class="cls-2" x="962.471396750483109" y="554.448827172240271" width="37.037037037038317" height="37.037037037036498"/>
        <rect class="cls-2" x="888.397322676410113" y="591.48586420927677" width="37.037037037036498" height="37.037037037036498"/>
        <rect class="cls-2" x="925.434359713446611" y="591.48586420927677" width="37.037037037036498" height="37.037037037036498"/>
        <rect class="cls-2" x="962.471396750483109" y="591.48586420927677" width="37.037037037038317" height="37.037037037036498"/>
        <rect class="cls-2" x="888.397322676410113" y="628.522901246313268" width="37.037037037036498" height="37.037037037036498"/>
        <rect class="cls-2" x="925.434359713446611" y="628.522901246313268" width="37.037037037036498" height="37.037037037036498"/>
        <rect class="cls-2" x="962.471396750483109" y="628.522901246313268" width="37.037037037038317" height="37.037037037036498"/>
      </g>
      <g>
        <rect class="cls-2" x="888.397322676410113" y="664.884694867043436" width="37.037037037036498" height="37.037037037036498"/>
        <rect class="cls-2" x="925.434359713446611" y="664.884694867043436" width="37.037037037036498" height="37.037037037036498"/>
        <rect class="cls-2" x="962.471396750483109" y="664.884694867043436" width="37.037037037038317" height="37.037037037036498"/>
        <rect class="cls-2" x="888.397322676410113" y="701.921731904079934" width="37.037037037036498" height="37.037037037036498"/>
        <rect class="cls-2" x="925.434359713446611" y="701.921731904079934" width="37.037037037036498" height="37.037037037036498"/>
        <rect class="cls-2" x="962.471396750483109" y="701.921731904079934" width="37.037037037038317" height="37.037037037036498"/>
        <rect class="cls-2" x="888.397322676410113" y="738.958768941116432" width="37.037037037036498" height="37.037037037036498"/>
        <rect class="cls-2" x="925.434359713446611" y="738.958768941116432" width="37.037037037036498" height="37.037037037036498"/>
        <rect class="cls-2" x="962.471396750483109" y="738.958768941116432" width="37.037037037038317" height="37.037037037036498"/>
      </g>
      <g>
        <rect class="cls-2" x="777.420102688985935" y="664.884694867043436" width="37.037037037036498" height="37.037037037036498"/>
        <rect class="cls-2" x="814.457139726022433" y="664.884694867043436" width="37.037037037036498" height="37.037037037036498"/>
        <rect class="cls-2" x="851.494176763058931" y="664.884694867043436" width="37.037037037038317" height="37.037037037036498"/>
        <rect class="cls-2" x="777.420102688985935" y="701.921731904079934" width="37.037037037036498" height="37.037037037036498"/>
        <rect class="cls-2" x="814.457139726022433" y="701.921731904079934" width="37.037037037036498" height="37.037037037036498"/>
        <rect class="cls-2" x="851.494176763058931" y="701.921731904079934" width="37.037037037038317" height="37.037037037036498"/>
        <rect class="cls-2" x="777.420102688985935" y="738.958768941116432" width="37.037037037036498" height="37.037037037036498"/>
        <rect class="cls-2" x="814.457139726022433" y="738.958768941116432" width="37.037037037036498" height="37.037037037036498"/>
        <rect class="cls-2" x="851.494176763058931" y="738.958768941116432" width="37.037037037038317" height="37.037037037036498"/>
      </g>
      <g>
        <rect class="cls-2" x="666.442882701561757" y="664.884694867043436" width="37.037037037036498" height="37.037037037036498"/>
        <rect class="cls-2" x="703.479919738598255" y="664.884694867043436" width="37.037037037036498" height="37.037037037036498"/>
        <rect class="cls-2" x="740.516956775634753" y="664.884694867043436" width="37.037037037038317" height="37.037037037036498"/>
        <rect class="cls-2" x="666.442882701561757" y="701.921731904079934" width="37.037037037036498" height="37.037037037036498"/>
        <rect class="cls-2" x="703.479919738598255" y="701.921731904079934" width="37.037037037036498" height="37.037037037036498"/>
        <rect class="cls-2" x="740.516956775634753" y="701.921731904079934" width="37.037037037038317" height="37.037037037036498"/>
        <rect class="cls-2" x="666.442882701561757" y="738.958768941116432" width="37.037037037036498" height="37.037037037036498"/>
        <rect class="cls-2" x="703.479919738598255" y="738.958768941116432" width="37.037037037036498" height="37.037037037036498"/>
        <rect class="cls-2" x="740.516956775634753" y="738.958768941116432" width="37.037037037038317" height="37.037037037036498"/>
      </g>
      <g>
        <rect class="cls-2" x="777.420102688985935" y="775.861914854467614" width="37.037037037036498" height="37.037037037036498"/>
        <rect class="cls-2" x="814.457139726022433" y="775.861914854467614" width="37.037037037036498" height="37.037037037036498"/>
        <rect class="cls-2" x="851.494176763058931" y="775.861914854467614" width="37.037037037038317" height="37.037037037036498"/>
        <rect class="cls-2" x="777.420102688985935" y="812.898951891504112" width="37.037037037036498" height="37.037037037036498"/>
        <rect class="cls-2" x="814.457139726022433" y="812.898951891504112" width="37.037037037036498" height="37.037037037036498"/>
        <rect class="cls-2" x="851.494176763058931" y="812.898951891504112" width="37.037037037038317" height="37.037037037036498"/>
        <rect class="cls-2" x="777.420102688985935" y="849.93598892854061" width="37.037037037036498" height="37.037037037036498"/>
        <rect class="cls-2" x="814.457139726022433" y="849.93598892854061" width="37.037037037036498" height="37.037037037036498"/>
        <rect class="cls-2" x="851.494176763058931" y="849.93598892854061" width="37.037037037038317" height="37.037037037036498"/>
      </g>
      <g>
        <rect class="cls-2" x="888.397322676411932" y="775.861914854467614" width="37.037037037036498" height="37.037037037036498"/>
        <rect class="cls-2" x="925.43435971344843" y="775.861914854467614" width="37.037037037036498" height="37.037037037036498"/>
        <rect class="cls-2" x="962.471396750484928" y="775.861914854467614" width="37.037037037038317" height="37.037037037036498"/>
        <rect class="cls-2" x="888.397322676411932" y="812.898951891504112" width="37.037037037036498" height="37.037037037036498"/>
        <rect class="cls-2" x="925.43435971344843" y="812.898951891504112" width="37.037037037036498" height="37.037037037036498"/>
        <rect class="cls-2" x="962.471396750484928" y="812.898951891504112" width="37.037037037038317" height="37.037037037036498"/>
        <rect class="cls-2" x="888.397322676411932" y="849.93598892854061" width="37.037037037036498" height="37.037037037036498"/>
        <rect class="cls-2" x="925.43435971344843" y="849.93598892854061" width="37.037037037036498" height="37.037037037036498"/>
        <rect class="cls-2" x="962.471396750484928" y="849.93598892854061" width="37.037037037038317" height="37.037037037036498"/>
      </g>
    </g>
    <g>
      <rect class="cls-2" x="332.969870446666391" y="332.993520697897111" width="111.111111111111313" height="111.111111111111313"/>
      <rect class="cls-2" x="444.080981557777704" y="332.993520697897111" width="111.111111111111313" height="111.111111111111313"/>
      <rect class="cls-2" x="555.192092668889018" y="332.993520697897111" width="111.111111111109494" height="111.111111111111313"/>
      <rect class="cls-2" x="332.969870446666391" y="444.104631809008424" width="111.111111111111313" height="111.111111111111313"/>
      <rect class="cls-2" x="444.080981557777704" y="444.104631809008424" width="111.111111111111313" height="111.111111111111313"/>
      <rect class="cls-2" x="555.192092668889018" y="444.104631809008424" width="111.111111111109494" height="111.111111111111313"/>
      <rect class="cls-2" x="332.969870446666391" y="555.215742920119737" width="111.111111111111313" height="111.111111111111313"/>
      <rect class="cls-2" x="444.080981557777704" y="555.215742920119737" width="111.111111111111313" height="111.111111111111313"/>
      <rect class="cls-2" x="555.192092668889018" y="555.215742920119737" width="111.111111111109494" height="111.111111111111313"/>
    </g>
    <g>
      <rect class="cls-2" x="332.969870446666391" y="666.466532952792477" width="111.111111111111313" height="111.111111111111313"/>
      <rect class="cls-2" x="444.080981557777704" y="666.466532952792477" width="111.111111111111313" height="111.111111111111313"/>
      <rect class="cls-2" x="555.192092668889018" y="666.466532952792477" width="111.111111111109494" height="111.111111111111313"/>
      <rect class="cls-2" x="444.080981557777704" y="777.57764406390379" width="111.111111111111313" height="111.111111111111313"/>
      <rect class="cls-2" x="555.192092668889018" y="777.57764406390379" width="111.111111111109494" height="111.111111111111313"/>
      <rect class="cls-2" x="555.192092668889018" y="888.688755175015103" width="111.111111111109494" height="111.111111111111313"/>
      <g>
        <rect class="cls-2" x="332.969870446666391" y="888.688755175015103" width="37.037037037036498" height="37.037037037036498"/>
        <rect class="cls-2" x="370.006907483702889" y="888.688755175015103" width="37.037037037038317" height="37.037037037036498"/>
        <rect class="cls-2" x="407.043944520741206" y="888.688755175015103" width="37.037037037036498" height="37.037037037036498"/>
        <rect class="cls-2" x="332.969870446666391" y="925.725792212051601" width="37.037037037036498" height="37.037037037038317"/>
        <rect class="cls-2" x="370.006907483702889" y="925.725792212051601" width="37.037037037038317" height="37.037037037038317"/>
        <rect class="cls-2" x="407.043944520741206" y="925.725792212051601" width="37.037037037036498" height="37.037037037038317"/>
        <rect class="cls-2" x="332.969870446666391" y="962.762829249089918" width="37.037037037036498" height="37.037037037036498"/>
        <rect class="cls-2" x="370.006907483702889" y="962.762829249089918" width="37.037037037038317" height="37.037037037036498"/>
        <rect class="cls-2" x="407.043944520741206" y="962.762829249089918" width="37.037037037036498" height="37.037037037036498"/>
      </g>
      <g>
        <rect class="cls-2" x="332.969870446666391" y="777.57764406390379" width="37.037037037036498" height="37.037037037036498"/>
        <rect class="cls-2" x="370.006907483702889" y="777.57764406390379" width="37.037037037038317" height="37.037037037036498"/>
        <rect class="cls-2" x="407.043944520741206" y="777.57764406390379" width="37.037037037036498" height="37.037037037036498"/>
        <rect class="cls-2" x="332.969870446666391" y="814.614681100940288" width="37.037037037036498" height="37.037037037038317"/>
        <rect class="cls-2" x="370.006907483702889" y="814.614681100940288" width="37.037037037038317" height="37.037037037038317"/>
        <rect class="cls-2" x="407.043944520741206" y="814.614681100940288" width="37.037037037036498" height="37.037037037038317"/>
        <rect class="cls-2" x="332.969870446666391" y="851.651718137978605" width="37.037037037036498" height="37.037037037036498"/>
        <rect class="cls-2" x="370.006907483702889" y="851.651718137978605" width="37.037037037038317" height="37.037037037036498"/>
        <rect class="cls-2" x="407.043944520741206" y="851.651718137978605" width="37.037037037036498" height="37.037037037036498"/>
      </g>
      <rect class="cls-2" x="444.080981557777704" y="888.688755175015103" width="37.037037037036498" height="37.037037037036498"/>
      <rect class="cls-2" x="481.118018594814203" y="888.688755175015103" width="37.037037037036498" height="37.037037037036498"/>
      <rect class="cls-2" x="518.155055631850701" y="888.688755175015103" width="37.037037037038317" height="37.037037037036498"/>
      <rect class="cls-2" x="444.080981557777704" y="925.725792212051601" width="37.037037037036498" height="37.037037037038317"/>
      <rect class="cls-2" x="481.118018594814203" y="925.725792212051601" width="37.037037037036498" height="37.037037037038317"/>
      <rect class="cls-2" x="518.155055631850701" y="925.725792212051601" width="37.037037037038317" height="37.037037037038317"/>
      <rect class="cls-2" x="444.080981557777704" y="962.762829249089918" width="37.037037037036498" height="37.037037037036498"/>
      <rect class="cls-2" x="481.118018594814203" y="962.762829249089918" width="37.037037037036498" height="37.037037037036498"/>
      <rect class="cls-2" x="518.155055631850701" y="962.762829249089918" width="37.037037037038317" height="37.037037037036498"/>
      <rect class="cls-2" x="444.080981557777704" y="777.891985951797324" width="37.037037037036498" height="37.037037037036498"/>
      <rect class="cls-2" x="481.118018594814203" y="777.891985951797324" width="37.037037037036498" height="37.037037037036498"/>
      <rect class="cls-2" x="518.155055631850701" y="777.891985951797324" width="37.037037037038317" height="37.037037037036498"/>
      <rect class="cls-2" x="444.080981557777704" y="814.929022988833822" width="37.037037037036498" height="37.037037037038317"/>
      <rect class="cls-2" x="481.118018594814203" y="814.929022988833822" width="37.037037037036498" height="37.037037037038317"/>
      <rect class="cls-2" x="518.155055631850701" y="814.929022988833822" width="37.037037037038317" height="37.037037037038317"/>
      <rect class="cls-2" x="444.080981557777704" y="851.966060025872139" width="37.037037037036498" height="37.037037037036498"/>
      <rect class="cls-2" x="481.118018594814203" y="851.966060025872139" width="37.037037037036498" height="37.037037037036498"/>
      <rect class="cls-2" x="518.155055631850701" y="851.966060025872139" width="37.037037037038317" height="37.037037037036498"/>
    </g>
    <g>
      <rect class="cls-2" x="665.901530408940744" y="665.519166440704794" width="111.111111111111313" height="111.111111111111313"/>
      <rect class="cls-2" x="777.012641520052057" y="665.519166440704794" width="111.111111111111313" height="111.111111111111313"/>
      <rect class="cls-2" x="888.12375263116337" y="665.519166440704794" width="111.111111111109494" height="111.111111111111313"/>
      <rect class="cls-2" x="665.901530408940744" y="776.630277551816107" width="111.111111111111313" height="111.111111111111313"/>
      <rect class="cls-2" x="777.012641520052057" y="776.630277551816107" width="111.111111111111313" height="111.111111111111313"/>
      <rect class="cls-2" x="888.12375263116337" y="776.630277551816107" width="111.111111111109494" height="111.111111111111313"/>
      <rect class="cls-2" x="665.901530408940744" y="887.74138866292742" width="111.111111111111313" height="111.111111111111313"/>
      <rect class="cls-2" x="777.012641520052057" y="887.74138866292742" width="111.111111111111313" height="111.111111111111313"/>
      <rect class="cls-2" x="888.12375263116337" y="887.74138866292742" width="111.111111111109494" height="111.111111111111313"/>
    </g>
    <g>
      <rect class="cls-2" x="-1.585846393472821" y="332.993520697897111" width="111.111111111111313" height="111.111111111111313"/>
      <rect class="cls-2" x="109.525264717638493" y="332.993520697897111" width="111.111111111111313" height="111.111111111111313"/>
      <rect class="cls-2" x="220.636375828749806" y="332.993520697897111" width="111.111111111109494" height="111.111111111111313"/>
      <rect class="cls-2" x="-1.585846393472821" y="444.104631809008424" width="111.111111111111313" height="111.111111111111313"/>
      <rect class="cls-2" x="109.525264717638493" y="444.104631809008424" width="111.111111111111313" height="111.111111111111313"/>
      <rect class="cls-2" x="220.636375828749806" y="444.104631809008424" width="111.111111111109494" height="111.111111111111313"/>
      <rect class="cls-2" x="-1.585846393472821" y="555.215742920119737" width="111.111111111111313" height="111.111111111111313"/>
      <rect class="cls-2" x="109.525264717638493" y="555.215742920119737" width="111.111111111111313" height="111.111111111111313"/>
      <rect class="cls-2" x="220.636375828749806" y="555.215742920119737" width="111.111111111109494" height="111.111111111111313"/>
    </g>
    <g>
      <rect class="cls-2" x="554.882091629400747" y="333.668764114203441" width="37.037037037036498" height="37.037037037036498"/>
      <rect class="cls-2" x="591.919128666437246" y="333.668764114203441" width="37.037037037036498" height="37.037037037036498"/>
      <rect class="cls-2" x="628.956165703473744" y="333.668764114203441" width="37.037037037038317" height="37.037037037036498"/>
      <rect class="cls-2" x="554.882091629400747" y="370.705801151239939" width="37.037037037036498" height="37.037037037036498"/>
      <rect class="cls-2" x="591.919128666437246" y="370.705801151239939" width="37.037037037036498" height="37.037037037036498"/>
      <rect class="cls-2" x="628.956165703473744" y="370.705801151239939" width="37.037037037038317" height="37.037037037036498"/>
      <rect class="cls-2" x="554.882091629400747" y="407.742838188276437" width="37.037037037036498" height="37.037037037036498"/>
      <rect class="cls-2" x="591.919128666437246" y="407.742838188276437" width="37.037037037036498" height="37.037037037036498"/>
      <rect class="cls-2" x="628.956165703473744" y="407.742838188276437" width="37.037037037038317" height="37.037037037036498"/>
    </g>
    <g>
      <rect class="cls-2" x="332.724885703060863" y="221.676267419877149" width="37.037037037036498" height="37.037037037036498"/>
      <rect class="cls-2" x="369.761922740097361" y="221.676267419877149" width="37.037037037036498" height="37.037037037036498"/>
      <rect class="cls-2" x="406.798959777133859" y="221.676267419877149" width="37.037037037038317" height="37.037037037036498"/>
      <rect class="cls-2" x="332.724885703060863" y="258.713304456913647" width="37.037037037036498" height="37.037037037036498"/>
      <rect class="cls-2" x="369.761922740097361" y="258.713304456913647" width="37.037037037036498" height="37.037037037036498"/>
      <rect class="cls-2" x="406.798959777133859" y="258.713304456913647" width="37.037037037038317" height="37.037037037036498"/>
      <rect class="cls-2" x="332.724885703060863" y="295.750341493950145" width="37.037037037036498" height="37.037037037036498"/>
      <rect class="cls-2" x="369.761922740097361" y="295.750341493950145" width="37.037037037036498" height="37.037037037036498"/>
      <rect class="cls-2" x="406.798959777133859" y="295.750341493950145" width="37.037037037038317" height="37.037037037036498"/>
    </g>
    <g>
      <rect class="cls-2" x="-.748126551834503" y="221.676267419877149" width="37.037037037036498" height="37.037037037036498"/>
      <rect class="cls-2" x="36.288910485201995" y="221.676267419877149" width="37.037037037036498" height="37.037037037036498"/>
      <rect class="cls-2" x="73.325947522238494" y="221.676267419877149" width="37.037037037038317" height="37.037037037036498"/>
      <rect class="cls-2" x="-.748126551834503" y="258.713304456913647" width="37.037037037036498" height="37.037037037036498"/>
      <rect class="cls-2" x="36.288910485201995" y="258.713304456913647" width="37.037037037036498" height="37.037037037036498"/>
      <rect class="cls-2" x="73.325947522238494" y="258.713304456913647" width="37.037037037038317" height="37.037037037036498"/>
      <rect class="cls-2" x="-.748126551834503" y="295.750341493950145" width="37.037037037036498" height="37.037037037036498"/>
      <rect class="cls-2" x="36.288910485201995" y="295.750341493950145" width="37.037037037036498" height="37.037037037036498"/>
      <rect class="cls-2" x="73.325947522238494" y="295.750341493950145" width="37.037037037038317" height="37.037037037036498"/>
    </g>
    <g>
      <rect class="cls-2" x="110.499769581900182" y="221.676267419877149" width="37.037037037036498" height="37.037037037036498"/>
      <rect class="cls-2" x="147.53680661893668" y="221.676267419877149" width="37.037037037036498" height="37.037037037036498"/>
      <rect class="cls-2" x="184.573843655973178" y="221.676267419877149" width="37.037037037038317" height="37.037037037036498"/>
      <rect class="cls-2" x="110.499769581900182" y="258.713304456913647" width="37.037037037036498" height="37.037037037036498"/>
      <rect class="cls-2" x="147.53680661893668" y="258.713304456913647" width="37.037037037036498" height="37.037037037036498"/>
      <rect class="cls-2" x="184.573843655973178" y="258.713304456913647" width="37.037037037038317" height="37.037037037036498"/>
      <rect class="cls-2" x="110.499769581900182" y="295.750341493950145" width="37.037037037036498" height="37.037037037036498"/>
      <rect class="cls-2" x="147.53680661893668" y="295.750341493950145" width="37.037037037036498" height="37.037037037036498"/>
      <rect class="cls-2" x="184.573843655973178" y="295.750341493950145" width="37.037037037038317" height="37.037037037036498"/>
    </g>
    <g>
      <rect class="cls-2" x="221.747665715636685" y="221.676267419877149" width="37.037037037036498" height="37.037037037036498"/>
      <rect class="cls-2" x="258.784702752673184" y="221.676267419877149" width="37.037037037036498" height="37.037037037036498"/>
      <rect class="cls-2" x="295.821739789709682" y="221.676267419877149" width="37.037037037038317" height="37.037037037036498"/>
      <rect class="cls-2" x="221.747665715636685" y="258.713304456913647" width="37.037037037036498" height="37.037037037036498"/>
      <rect class="cls-2" x="258.784702752673184" y="258.713304456913647" width="37.037037037036498" height="37.037037037036498"/>
      <rect class="cls-2" x="295.821739789709682" y="258.713304456913647" width="37.037037037038317" height="37.037037037036498"/>
      <rect class="cls-2" x="221.747665715636685" y="295.750341493950145" width="37.037037037036498" height="37.037037037036498"/>
      <rect class="cls-2" x="258.784702752673184" y="295.750341493950145" width="37.037037037036498" height="37.037037037036498"/>
      <rect class="cls-2" x="295.821739789709682" y="295.750341493950145" width="37.037037037038317" height="37.037037037036498"/>
    </g>
    <g>
      <rect class="cls-2" x="110.499769581900182" y="332.924163553612743" width="37.037037037036498" height="37.037037037036498"/>
      <rect class="cls-2" x="147.53680661893668" y="332.924163553612743" width="37.037037037036498" height="37.037037037036498"/>
      <rect class="cls-2" x="184.573843655973178" y="332.924163553612743" width="37.037037037038317" height="37.037037037036498"/>
      <rect class="cls-2" x="110.499769581900182" y="369.961200590649241" width="37.037037037036498" height="37.037037037036498"/>
      <rect class="cls-2" x="147.53680661893668" y="369.961200590649241" width="37.037037037036498" height="37.037037037036498"/>
      <rect class="cls-2" x="184.573843655973178" y="369.961200590649241" width="37.037037037038317" height="37.037037037036498"/>
      <rect class="cls-2" x="110.499769581900182" y="406.998237627685739" width="37.037037037036498" height="37.037037037036498"/>
      <rect class="cls-2" x="147.53680661893668" y="406.998237627685739" width="37.037037037036498" height="37.037037037036498"/>
      <rect class="cls-2" x="184.573843655973178" y="406.998237627685739" width="37.037037037038317" height="37.037037037036498"/>
    </g>
    <g>
      <rect class="cls-2" x=".334578033407524" y="554.066575089531398" width="37.037037037036498" height="37.037037037036498"/>
      <rect class="cls-2" x="37.371615070444022" y="554.066575089531398" width="37.037037037036498" height="37.037037037036498"/>
      <rect class="cls-2" x="74.40865210748052" y="554.066575089531398" width="37.037037037038317" height="37.037037037036498"/>
      <rect class="cls-2" x=".334578033407524" y="591.103612126567896" width="37.037037037036498" height="37.037037037036498"/>
      <rect class="cls-2" x="37.371615070444022" y="591.103612126567896" width="37.037037037036498" height="37.037037037036498"/>
      <rect class="cls-2" x="74.40865210748052" y="591.103612126567896" width="37.037037037038317" height="37.037037037036498"/>
      <rect class="cls-2" x=".334578033407524" y="628.140649163604394" width="37.037037037036498" height="37.037037037036498"/>
      <rect class="cls-2" x="37.371615070444022" y="628.140649163604394" width="37.037037037036498" height="37.037037037036498"/>
      <rect class="cls-2" x="74.40865210748052" y="628.140649163604394" width="37.037037037038317" height="37.037037037036498"/>
    </g>
    <rect class="cls-2" x="332.568197075606804" y="-.339812635435919" width="111.111111111111313" height="111.111111111111313"/>
    <rect class="cls-2" x="443.679308186718117" y="-.339812635435919" width="111.111111111111313" height="111.111111111111313"/>
    <rect class="cls-2" x="554.79041929782943" y="-.339812635435919" width="111.111111111111313" height="111.111111111111313"/>
    <rect class="cls-2" x="332.568197075606804" y="110.771298475675394" width="111.111111111111313" height="111.111111111110404"/>
    <rect class="cls-2" x="443.679308186718117" y="110.771298475675394" width="111.111111111111313" height="111.111111111110404"/>
    <rect class="cls-2" x="554.79041929782943" y="110.771298475675394" width="111.111111111111313" height="111.111111111110404"/>
    <rect class="cls-2" x="332.568197075606804" y="221.882409586785798" width="111.111111111111313" height="111.111111111111313"/>
    <rect class="cls-2" x="443.679308186718117" y="221.882409586785798" width="111.111111111111313" height="111.111111111111313"/>
    <rect class="cls-2" x="554.79041929782943" y="221.882409586785798" width="111.111111111111313" height="111.111111111111313"/>
    <rect class="cls-2" x="-.904815179288562" y="-.339812635435919" width="111.111111111111313" height="111.111111111111313"/>
    <rect class="cls-2" x="110.206295931822751" y="-.339812635435919" width="111.111111111111313" height="111.111111111111313"/>
    <rect class="cls-2" x="221.317407042934065" y="-.339812635435919" width="111.111111111111313" height="111.111111111111313"/>
    <rect class="cls-2" x="-.904815179288562" y="110.771298475675394" width="111.111111111111313" height="111.111111111110404"/>
    <rect class="cls-2" x="110.206295931822751" y="110.771298475675394" width="111.111111111111313" height="111.111111111110404"/>
    <rect class="cls-2" x="221.317407042934065" y="110.771298475675394" width="111.111111111111313" height="111.111111111110404"/>
    <rect class="cls-2" x="-.904815179288562" y="221.882409586785798" width="111.111111111111313" height="111.111111111111313"/>
    <rect class="cls-2" x="110.206295931822751" y="221.882409586785798" width="111.111111111111313" height="111.111111111111313"/>
    <rect class="cls-2" x="-.765136257727136" y="666.326854031231051" width="111.111111111111313" height="111.111111111111313"/>
    <rect class="cls-2" x="-.765136257727136" y="777.437965142342364" width="111.111111111111313" height="111.111111111109494"/>
    <rect class="cls-2" x="-.765136257727136" y="888.549076253451858" width="111.111111111111313" height="111.111111111111313"/>
    <g>
      <rect class="cls-2" x="110.345974853384178" y="888.549076253451858" width="37.037037037036498" height="37.037037037036498"/>
      <rect class="cls-2" x="147.383011890420676" y="888.549076253451858" width="37.037037037038317" height="37.037037037036498"/>
      <rect class="cls-2" x="184.420048927458993" y="888.549076253451858" width="37.037037037036498" height="37.037037037036498"/>
      <rect class="cls-2" x="110.345974853384178" y="925.586113290488356" width="37.037037037036498" height="37.037037037038317"/>
      <rect class="cls-2" x="147.383011890420676" y="925.586113290488356" width="37.037037037038317" height="37.037037037038317"/>
      <rect class="cls-2" x="184.420048927458993" y="925.586113290488356" width="37.037037037036498" height="37.037037037038317"/>
      <rect class="cls-2" x="110.345974853384178" y="962.623150327526673" width="37.037037037036498" height="37.037037037036498"/>
      <rect class="cls-2" x="147.383011890420676" y="962.623150327526673" width="37.037037037038317" height="37.037037037036498"/>
      <rect class="cls-2" x="184.420048927458993" y="962.623150327526673" width="37.037037037036498" height="37.037037037036498"/>
    </g>
    <g>
      <rect class="cls-2" x="221.457085964495491" y="888.549076253451858" width="37.037037037036498" height="37.037037037036498"/>
      <rect class="cls-2" x="258.494123001531989" y="888.549076253451858" width="37.037037037036498" height="37.037037037036498"/>
      <rect class="cls-2" x="295.531160038568487" y="888.549076253451858" width="37.037037037038317" height="37.037037037036498"/>
      <rect class="cls-2" x="221.457085964495491" y="925.586113290488356" width="37.037037037036498" height="37.037037037038317"/>
      <rect class="cls-2" x="258.494123001531989" y="925.586113290488356" width="37.037037037036498" height="37.037037037038317"/>
      <rect class="cls-2" x="295.531160038568487" y="925.586113290488356" width="37.037037037038317" height="37.037037037038317"/>
      <rect class="cls-2" x="221.457085964495491" y="962.623150327526673" width="37.037037037036498" height="37.037037037036498"/>
      <rect class="cls-2" x="258.494123001531989" y="962.623150327526673" width="37.037037037036498" height="37.037037037036498"/>
      <rect class="cls-2" x="295.531160038568487" y="962.623150327526673" width="37.037037037038317" height="37.037037037036498"/>
    </g>
  </g>
  <circle class="cls-1" cx="759.741703837891691" cy="512.589925222309375" r="68.672411163033416"/>
  <circle class="cls-1" cx="765.363244204255352" cy="518.375627849702369" r="122.871488230647557"/>
  <circle class="cls-1" cx="182.438505429806355" cy="347.76403668347416" r="76.53118253015262"/>
  <circle class="cls-1" cx="209.07552311186555" cy="703.890827970849841" r="86.512846529927799"/>
  <circle class="cls-1" cx="664.57287644711414" cy="850.682036438637624" r="73.922252166885073"/>
  <circle class="cls-1" cx="856.615952028762877" cy="684.0825186101697" r="129.114172016105613"/>
  <circle class="cls-1" cx="727.392667480485215" cy="887.832337519766952" r="36.916335588319711"/>
  <circle class="cls-1" cx="629.037388279411971" cy="703.014886244961417" r="185.50257922610956"/>
  <circle class="cls-1" cx="390.409740544199394" cy="573.180561397892916" r="314.50220074457809"/>
  <circle class="cls-1" cx="369.980798295293425" cy="814.136208886086024" r="61.51650806623806"/>
  <ellipse class="cls-3" cx="369.980798295280692" cy="814.136208886089207" rx="35.960954921210792" ry="61.516508066232504" transform="translate(-491.725904741174304 1053.22848326706935) rotate(-81.068176390474534)"/>
  <circle class="cls-1" cx="776.790320739768504" cy="813.327466094639476" r="37.065027664813343"/>
  <ellipse class="cls-3" cx="776.790320739761682" cy="813.327466094642659" rx="37.065027664814465" ry="29.165953149596426" transform="translate(-82.014003837258883 87.131967907879357) rotate(-6.098796478501393)"/>
  <ellipse class="cls-3" cx="390.409815850263385" cy="573.180307385581045" rx="217.42982471003441" ry="314.502200744557854" transform="translate(-302.23392151959456 538.537239259604235) rotate(-52.876778704974996)"/>
  <ellipse class="cls-3" cx="629.037432697126405" cy="703.014736421083853" rx="152.249365190098473" ry="185.502579226104189" transform="translate(-147.528985106287223 1238.610115508106901) rotate(-82.772637868836924)"/>
  <circle class="cls-1" cx="895.491511962074128" cy="524.962785117119665" r="103.563817137517944"/>
  <ellipse class="cls-3" cx="895.491511962073673" cy="524.96278511712103" rx="38.184858061234152" ry="103.468236173701399" transform="translate(-64.988424487869793 131.301426293121324) rotate(-8.093340504356224)"/>
  <ellipse class="cls-3" cx="765.363244204257171" cy="518.37562784970487" rx="50.330076457893348" ry="122.758087859790777" transform="translate(-158.262269957708554 555.926882375827518) rotate(-36.437689716847132)"/>
  <ellipse class="cls-3" cx="856.615920872742208" cy="684.082383042239599" rx="129.114172016107631" ry="112.644371498085945" transform="translate(-49.885342818434424 67.628814954824406) rotate(-4.39329504221962)"/>
  <ellipse class="cls-3" cx="182.438523754836297" cy="347.763974871942764" rx="68.475404165287486" ry="76.53118253015964" transform="translate(-135.837126863797891 117.711356126008212) rotate(-26.458541895957364)"/>
  <circle class="cls-1" cx="209.239207488544253" cy="777.362635306688844" r="61.462812166215436"/>
  <ellipse class="cls-3" cx="209.075572207910227" cy="703.890774110089296" rx="86.512846529947225" ry="65.144277245862042" transform="translate(-455.42635742763764 391.461578480104606) rotate(-48.275558777289461)"/>
  <ellipse class="cls-3" cx="209.239207488543798" cy="777.36263530668748" rx="37.206923262961389" ry="61.462812166213716" transform="translate(-576.374821587293468 953.101959422325308) rotate(-87.544290790634875)"/>
  <ellipse class="cls-3" cx="664.572876447095496" cy="850.682036438630803" rx="38.159341967728189" ry="73.922252166873633" transform="translate(-409.533857097376767 742.924158847400577) rotate(-46.273277149861613)"/>
  <ellipse class="cls-3" cx="727.392667480474756" cy="887.832337519770135" rx="36.916335588317466" ry="23.916692344392271" transform="translate(-218.448008895453881 237.654079529774549) rotate(-16.167624770642174)"/>
  <ellipse class="cls-4" cx="759.741703837893056" cy="512.589925222309603" rx="17.91014845855252" ry="68.609032123636737" transform="translate(-155.924854929778007 551.456892488728045) rotate(-36.437689716847849)"/>
</svg>