<?xml version="1.0" encoding="UTF-8"?>
<svg id="_图层_1" data-name="图层 1" xmlns="http://www.w3.org/2000/svg" viewBox="0 0 1000 1000">
  <defs>
    <style>
      .cls-1 {
        fill: none;
        stroke: #fff;
        stroke-width: .600000023841858px;
      }

      .cls-1, .cls-2, .cls-3 {
        stroke-miterlimit: 10;
      }

      .cls-4 {
        fill: #001738;
      }

      .cls-2 {
        fill: #a4e1ff;
      }

      .cls-2, .cls-3 {
        stroke: #000;
      }

      .cls-3 {
        fill: #ffb92e;
      }
    </style>
  </defs>
  <g>
    <rect class="cls-4" x="-1.342119945997183" y="-1.432526851403964" width="1002.671580393371187" height="1002.671580393376644"/>
    <circle class="cls-1" cx="377.569037133559505" cy="623.745032112077297" r="18.248927991691719"/>
    <circle class="cls-1" cx="428.733226310919235" cy="383.162272086452049" r="203.412945150189188"/>
    <circle class="cls-1" cx="640.007718650775132" cy="562.344731571129159" r="174.945273595410356"/>
    <circle class="cls-1" cx="291.152961629473339" cy="617.697214435191199" r="24.899650381649174"/>
    <circle class="cls-1" cx="322.180418455883228" cy="635.904209654894657" r="18.73608698234175"/>
    <circle class="cls-1" cx="487.445858023615529" cy="166.444099259362247" r="55.496659892323279"/>
    <circle class="cls-1" cx="387.817768262581467" cy="163.946092427043823" r="114.005548712842284"/>
    <circle class="cls-1" cx="334.489216229512294" cy="567.178071089504556" r="74.307672794640894"/>
    <circle class="cls-1" cx="557.744640690844335" cy="703.402435301316473" r="256.869939233745015"/>
    <circle class="cls-1" cx="259.443104686868537" cy="407.533036080514194" r="110.657049355585272"/>
    <circle class="cls-1" cx="259.443104686868537" cy="407.533036080514194" r="110.657049355585272"/>
    <circle class="cls-1" cx="396.109973547806021" cy="575.752661047808942" r="49.047532281603161"/>
    <circle class="cls-1" cx="331.768517755434004" cy="619.918771790047231" r="15.309542222209252"/>
    <circle class="cls-1" cx="412.430009356050505" cy="619.918771790047231" r="15.309542222209252"/>
    <circle class="cls-1" cx="400.652900050318294" cy="626.728091197654976" r="15.081290395186212"/>
    <circle class="cls-1" cx="347.580107020950436" cy="628.794936433946987" r="124.218260390686737"/>
  </g>
  <ellipse class="cls-2" cx="347.41446598696848" cy="630.140782613916144" rx="125.5424676292036" ry="11.913196913426537" transform="translate(-14.655617605925329 8.305216199993424) rotate(-1.341345918914448)"/>
  <ellipse class="cls-3" cx="331.697930433048896" cy="619.379835871999603" rx="5.634762453461876" ry="15.079077693217203" transform="translate(-350.14961611186709 788.905118378979978) rotate(-75.79165688477012)"/>
  <ellipse class="cls-3" cx="412.359422033664487" cy="619.379835872000513" rx="5.634762453462177" ry="15.079077693217698" transform="translate(-322.952069419663189 733.347746098725906) rotate(-65.156165277405492)"/>
  <ellipse class="cls-2" cx="335.607893620718187" cy="567.439554572171346" rx="73.189070908143876" ry="16.55744266701609" transform="translate(-322.622818466782633 604.217754886774742) rotate(-62.596162162207705)"/>
  <ellipse class="cls-3" cx="290.990870918384644" cy="617.344798341938713" rx="24.524819696706519" ry="6.900788527424112" transform="translate(-262.554251472320061 218.122949647320354) rotate(-28.963253626594163)"/>
  <ellipse class="cls-3" cx="321.866764260230866" cy="635.293514304991277" rx="6.895921375086332" ry="18.454040439155573" transform="translate(-145.50377837395348 97.928797254117853) rotate(-14.146251852926818)"/>
  <ellipse class="cls-2" cx="397.102993931323908" cy="575.219194383575996" rx="15.134960995766562" ry="48.30924789207149" transform="translate(-1.879632603263929 1.302150639383967) rotate(-.187436294468464)"/>
  <ellipse class="cls-3" cx="377.512942620859121" cy="623.27234013123234" rx="17.97421497067932" ry="6.784357922198515" transform="translate(-340.65586779682792 499.911116230985272) rotate(-49.050232550515055)"/>
  <ellipse class="cls-3" cx="400.357983755953683" cy="625.997904060917335" rx="5.550753094711228" ry="14.854261889888217" transform="translate(-111.659886501095912 87.483659510943426) rotate(-10.954185376057406)"/>
  <ellipse class="cls-3" cx="487.445915276127835" cy="166.353891109676169" rx="22.832679953054352" ry="55.496659892344844" transform="translate(169.650469097414373 571.672521072307518) rotate(-70.744882140726403)"/>
  <ellipse class="cls-2" cx="387.817713674330662" cy="164.216658546051804" rx="114.005548712853283" ry="105.825689678555563" transform="translate(141.060717938783341 505.509311615500053) rotate(-77.082438476135835)"/>
</svg>