<?xml version="1.0" encoding="UTF-8"?>
<svg id="_图层_1" data-name="图层 1" xmlns="http://www.w3.org/2000/svg" viewBox="0 0 1000 1000">
  <defs>
    <style>
      .cls-1 {
        fill: #a4e1ff;
      }

      .cls-1, .cls-2 {
        stroke: #000;
        stroke-miterlimit: 10;
      }

      .cls-2 {
        fill: #ffb92e;
      }
    </style>
  </defs>
  <ellipse class="cls-2" cx="487.445915276127835" cy="187.350601851591136" rx="22.832679953053713" ry="55.496659892344475" transform="translate(149.828323435350683 585.745042090369907) rotate(-70.744882140725508)"/>
  <ellipse class="cls-1" cx="387.817713674330662" cy="184.852467759549654" rx="114.005548712852416" ry="105.825689678555761" transform="translate(120.947144910333975 521.532008872402912) rotate(-77.082438476139544)"/>
  <ellipse class="cls-1" cx="348.497170572210507" cy="651.769071030554642" rx="125.5424676292036" ry="11.913196913426537" transform="translate(-15.161612425685348 8.336487617686203) rotate(-1.341345918914448)"/>
  <ellipse class="cls-2" cx="331.697930433048896" cy="641.143462361796082" rx="5.634762453461876" ry="15.079077693217203" transform="translate(-371.247484980272134 805.326894328097296) rotate(-75.79165688477012)"/>
  <ellipse class="cls-2" cx="412.359422033664487" cy="641.143462361796992" rx="5.634762453462177" ry="15.079077693217698" transform="translate(-342.701609536367869 745.967461873404659) rotate(-65.156165277405492)"/>
  <ellipse class="cls-1" cx="335.607893620718187" cy="589.203181061967825" rx="73.189070908143876" ry="16.55744266701609" transform="translate(-341.944229982363709 615.964470923096087) rotate(-62.596162162207705)"/>
  <ellipse class="cls-2" cx="290.990870918384644" cy="639.108424831735192" rx="24.524819696706519" ry="6.900788527424112" transform="translate(-273.093256857213873 220.844916454081101) rotate(-28.963253626594163)"/>
  <ellipse class="cls-2" cx="321.866764260230866" cy="657.057140794787756" rx="6.895921375086332" ry="18.454040439155573" transform="translate(-150.822762085938336 98.588778318087748) rotate(-14.146251852926818)"/>
  <ellipse class="cls-1" cx="397.102993931323908" cy="596.982820873372475" rx="15.134960995766562" ry="48.30924789207149" transform="translate(-1.950829579063054 1.302267095686034) rotate(-.187436294468464)"/>
  <ellipse class="cls-1" cx="428.733031054703133" cy="404.068657942686741" rx="181.141111408842164" ry="203.412945150218491" transform="translate(-153.9661171013189 317.205576100034591) rotate(-34.82495841772743)"/>
  <ellipse class="cls-1" cx="259.442998467100097" cy="428.43946731017968" rx="42.610925562472126" ry="110.657049355562322" transform="translate(-16.229295159854132 10.257888173694369) rotate(-2.196392935260028)"/>
  <ellipse class="cls-1" cx="557.744394121228197" cy="724.308795007978006" rx="84.381755704752806" ry="256.86993923365668" transform="translate(-186.599897550538117 193.598313525634012) rotate(-16.913894681616728)"/>
  <ellipse class="cls-1" cx="640.007538672467035" cy="583.251160967380656" rx="57.469509208692017" ry="174.94527359534905" transform="translate(-222.836193041559227 655.999088561231702) rotate(-47.162827171962036)"/>
  <ellipse class="cls-2" cx="377.512942620859121" cy="645.03596662102882" rx="17.97421497067932" ry="6.784357922198515" transform="translate(-357.093596947661354 507.410924916588669) rotate(-49.050232550515055)"/>
  <ellipse class="cls-2" cx="400.357983755953683" cy="647.761530550713815" rx="5.550753094711228" ry="14.854261889888217" transform="translate(-115.795498070673261 87.88020489608391) rotate(-10.954185376057406)"/>
</svg>