<?xml version="1.0" encoding="UTF-8"?>
<svg id="_图层_1" data-name="图层 1" xmlns="http://www.w3.org/2000/svg" viewBox="0 0 1000 1000">
  <defs>
    <style>
      .cls-1 {
        fill: none;
        stroke: #fff;
        stroke-miterlimit: 10;
        stroke-width: .600000023841858px;
      }

      .cls-2 {
        fill: #001738;
      }
    </style>
  </defs>
  <rect class="cls-2" x="-2.93685913108493" y="-3.85850848163318" width="1009.398967275188625" height="1009.398967275186806"/>
  <g>
    <g>
      <rect class="cls-1" x="963.178890091265202" y="666.340647893453934" width="12.345679012345499" height="12.345679012345499"/>
      <rect class="cls-1" x="975.524569103610702" y="666.340647893453934" width="12.345679012347318" height="12.345679012345499"/>
      <rect class="cls-1" x="987.87024811595802" y="666.340647893453934" width="12.345679012345499" height="12.345679012345499"/>
      <rect class="cls-1" x="963.178890091265202" y="678.686326905799433" width="12.345679012345499" height="12.345679012347318"/>
      <rect class="cls-1" x="975.524569103610702" y="678.686326905799433" width="12.345679012347318" height="12.345679012347318"/>
      <rect class="cls-1" x="987.87024811595802" y="678.686326905799433" width="12.345679012345499" height="12.345679012347318"/>
      <rect class="cls-1" x="963.178890091265202" y="691.032005918146751" width="12.345679012345499" height="12.345679012345499"/>
      <rect class="cls-1" x="975.524569103610702" y="691.032005918146751" width="12.345679012347318" height="12.345679012345499"/>
      <rect class="cls-1" x="987.87024811595802" y="691.032005918146751" width="12.345679012345499" height="12.345679012345499"/>
    </g>
    <g>
      <rect class="cls-1" x="889.227911284604488" y="740.178844972486331" width="12.345679012345499" height="12.345679012345499"/>
      <rect class="cls-1" x="901.573590296949988" y="740.178844972486331" width="12.345679012347318" height="12.345679012345499"/>
      <rect class="cls-1" x="913.919269309297306" y="740.178844972486331" width="12.345679012345499" height="12.345679012345499"/>
      <rect class="cls-1" x="889.227911284604488" y="752.524523984831831" width="12.345679012345499" height="12.345679012347318"/>
      <rect class="cls-1" x="901.573590296949988" y="752.524523984831831" width="12.345679012347318" height="12.345679012347318"/>
      <rect class="cls-1" x="913.919269309297306" y="752.524523984831831" width="12.345679012345499" height="12.345679012347318"/>
      <rect class="cls-1" x="889.227911284604488" y="764.870202997179149" width="12.345679012345499" height="12.345679012345499"/>
      <rect class="cls-1" x="901.573590296949988" y="764.870202997179149" width="12.345679012347318" height="12.345679012345499"/>
      <rect class="cls-1" x="913.919269309297306" y="764.870202997179149" width="12.345679012345499" height="12.345679012345499"/>
    </g>
    <g>
      <rect class="cls-1" x="852.021219339632808" y="518.280795861450315" width="12.345679012345499" height="12.345679012345499"/>
      <rect class="cls-1" x="864.366898351978307" y="518.280795861450315" width="12.345679012347318" height="12.345679012345499"/>
      <rect class="cls-1" x="876.712577364325625" y="518.280795861450315" width="12.345679012345499" height="12.345679012345499"/>
      <rect class="cls-1" x="852.021219339632808" y="530.626474873795814" width="12.345679012345499" height="12.345679012347318"/>
      <rect class="cls-1" x="864.366898351978307" y="530.626474873795814" width="12.345679012347318" height="12.345679012347318"/>
      <rect class="cls-1" x="876.712577364325625" y="530.626474873795814" width="12.345679012345499" height="12.345679012347318"/>
      <rect class="cls-1" x="852.021219339632808" y="542.972153886143133" width="12.345679012345499" height="12.345679012345499"/>
      <rect class="cls-1" x="864.366898351978307" y="542.972153886143133" width="12.345679012347318" height="12.345679012345499"/>
      <rect class="cls-1" x="876.712577364325625" y="542.972153886143133" width="12.345679012345499" height="12.345679012345499"/>
    </g>
    <g>
      <rect class="cls-1" x="852.021219339632808" y="481.468839963181381" width="12.345679012345499" height="12.345679012345499"/>
      <rect class="cls-1" x="864.366898351978307" y="481.468839963181381" width="12.345679012347318" height="12.345679012345499"/>
      <rect class="cls-1" x="876.712577364325625" y="481.468839963181381" width="12.345679012345499" height="12.345679012345499"/>
      <rect class="cls-1" x="852.021219339632808" y="493.81451897552688" width="12.345679012345499" height="12.345679012347318"/>
      <rect class="cls-1" x="864.366898351978307" y="493.81451897552688" width="12.345679012347318" height="12.345679012347318"/>
      <rect class="cls-1" x="876.712577364325625" y="493.81451897552688" width="12.345679012345499" height="12.345679012347318"/>
      <rect class="cls-1" x="852.021219339632808" y="506.160197987874199" width="12.345679012345499" height="12.345679012345499"/>
      <rect class="cls-1" x="864.366898351978307" y="506.160197987874199" width="12.345679012347318" height="12.345679012345499"/>
      <rect class="cls-1" x="876.712577364325625" y="506.160197987874199" width="12.345679012345499" height="12.345679012345499"/>
    </g>
    <g>
      <rect class="cls-1" x="926.366934192998087" y="481.468839963181381" width="12.345679012345499" height="12.345679012345499"/>
      <rect class="cls-1" x="938.712613205344496" y="481.468839963181381" width="12.345679012347318" height="12.345679012345499"/>
      <rect class="cls-1" x="951.058292217690905" y="481.468839963181381" width="12.345679012345499" height="12.345679012345499"/>
      <rect class="cls-1" x="926.366934192998087" y="493.81451897552688" width="12.345679012345499" height="12.345679012347318"/>
      <rect class="cls-1" x="938.712613205344496" y="493.81451897552688" width="12.345679012347318" height="12.345679012347318"/>
      <rect class="cls-1" x="951.058292217690905" y="493.81451897552688" width="12.345679012345499" height="12.345679012347318"/>
      <rect class="cls-1" x="926.366934192998087" y="506.160197987874199" width="12.345679012345499" height="12.345679012345499"/>
      <rect class="cls-1" x="938.712613205344496" y="506.160197987874199" width="12.345679012347318" height="12.345679012345499"/>
      <rect class="cls-1" x="951.058292217690905" y="506.160197987874199" width="12.345679012345499" height="12.345679012345499"/>
    </g>
    <g>
      <rect class="cls-1" x="222.503771225214223" y="333.484014977442712" width="12.345679012345499" height="12.345679012345499"/>
      <rect class="cls-1" x="234.849450237560632" y="333.484014977442712" width="12.345679012347318" height="12.345679012345499"/>
      <rect class="cls-1" x="247.195129249907041" y="333.484014977442712" width="12.345679012345499" height="12.345679012345499"/>
      <rect class="cls-1" x="222.503771225214223" y="345.829693989788211" width="12.345679012345499" height="12.345679012345499"/>
      <rect class="cls-1" x="234.849450237560632" y="345.829693989788211" width="12.345679012347318" height="12.345679012345499"/>
      <rect class="cls-1" x="247.195129249907041" y="345.829693989788211" width="12.345679012345499" height="12.345679012345499"/>
      <rect class="cls-1" x="222.503771225214223" y="358.175373002133711" width="12.345679012345499" height="12.345679012345499"/>
      <rect class="cls-1" x="234.849450237560632" y="358.175373002133711" width="12.345679012347318" height="12.345679012345499"/>
      <rect class="cls-1" x="247.195129249907041" y="358.175373002133711" width="12.345679012345499" height="12.345679012345499"/>
    </g>
    <g>
      <rect class="cls-1" x="222.503771225214223" y="518.085146761402939" width="12.345679012345499" height="12.345679012345499"/>
      <rect class="cls-1" x="234.849450237560632" y="518.085146761402939" width="12.345679012347318" height="12.345679012345499"/>
      <rect class="cls-1" x="247.195129249907041" y="518.085146761402939" width="12.345679012345499" height="12.345679012345499"/>
      <rect class="cls-1" x="222.503771225214223" y="530.430825773748438" width="12.345679012345499" height="12.345679012345499"/>
      <rect class="cls-1" x="234.849450237560632" y="530.430825773748438" width="12.345679012347318" height="12.345679012345499"/>
      <rect class="cls-1" x="247.195129249907041" y="530.430825773748438" width="12.345679012345499" height="12.345679012345499"/>
      <rect class="cls-1" x="222.503771225214223" y="542.776504786093938" width="12.345679012345499" height="12.345679012345499"/>
      <rect class="cls-1" x="234.849450237560632" y="542.776504786093938" width="12.345679012347318" height="12.345679012345499"/>
      <rect class="cls-1" x="247.195129249907041" y="542.776504786093938" width="12.345679012345499" height="12.345679012345499"/>
    </g>
    <g>
      <rect class="cls-1" x="110.985198945167213" y="369.754618583086994" width="12.345679012345499" height="12.345679012345499"/>
      <rect class="cls-1" x="123.330877957512712" y="369.754618583086994" width="12.345679012347318" height="12.345679012345499"/>
      <rect class="cls-1" x="135.67655696986003" y="369.754618583086994" width="12.345679012345499" height="12.345679012345499"/>
      <rect class="cls-1" x="110.985198945167213" y="382.100297595432494" width="12.345679012345499" height="12.345679012345499"/>
      <rect class="cls-1" x="123.330877957512712" y="382.100297595432494" width="12.345679012347318" height="12.345679012345499"/>
      <rect class="cls-1" x="135.67655696986003" y="382.100297595432494" width="12.345679012345499" height="12.345679012345499"/>
      <rect class="cls-1" x="110.985198945167213" y="394.445976607777993" width="12.345679012345499" height="12.345679012345499"/>
      <rect class="cls-1" x="123.330877957512712" y="394.445976607777993" width="12.345679012347318" height="12.345679012345499"/>
      <rect class="cls-1" x="135.67655696986003" y="394.445976607777993" width="12.345679012345499" height="12.345679012345499"/>
    </g>
    <g>
      <rect class="cls-1" x="704.104304548700384" y="703.137405455878252" width="12.345679012345499" height="12.345679012345499"/>
      <rect class="cls-1" x="716.449983561046793" y="703.137405455878252" width="12.345679012347318" height="12.345679012345499"/>
      <rect class="cls-1" x="728.795662573393201" y="703.137405455878252" width="12.345679012345499" height="12.345679012345499"/>
      <rect class="cls-1" x="704.104304548700384" y="715.483084468223751" width="12.345679012345499" height="12.345679012345499"/>
      <rect class="cls-1" x="716.449983561046793" y="715.483084468223751" width="12.345679012347318" height="12.345679012345499"/>
      <rect class="cls-1" x="728.795662573393201" y="715.483084468223751" width="12.345679012345499" height="12.345679012345499"/>
      <rect class="cls-1" x="704.104304548700384" y="727.828763480569251" width="12.345679012345499" height="12.345679012345499"/>
      <rect class="cls-1" x="716.449983561046793" y="727.828763480569251" width="12.345679012347318" height="12.345679012345499"/>
      <rect class="cls-1" x="728.795662573393201" y="727.828763480569251" width="12.345679012345499" height="12.345679012345499"/>
    </g>
    <g>
      <rect class="cls-1" x="592.946633797067989" y="777.934247219758618" width="12.345679012345499" height="12.345679012345499"/>
      <rect class="cls-1" x="605.292312809412579" y="777.934247219758618" width="12.345679012347318" height="12.345679012345499"/>
      <rect class="cls-1" x="617.637991821760806" y="777.934247219758618" width="12.345679012345499" height="12.345679012345499"/>
      <rect class="cls-1" x="592.946633797067989" y="790.279926232104117" width="12.345679012345499" height="12.345679012345499"/>
      <rect class="cls-1" x="605.292312809412579" y="790.279926232104117" width="12.345679012347318" height="12.345679012345499"/>
      <rect class="cls-1" x="617.637991821760806" y="790.279926232104117" width="12.345679012345499" height="12.345679012345499"/>
      <rect class="cls-1" x="592.946633797067989" y="802.625605244449616" width="12.345679012345499" height="12.345679012345499"/>
      <rect class="cls-1" x="605.292312809412579" y="802.625605244449616" width="12.345679012347318" height="12.345679012345499"/>
      <rect class="cls-1" x="617.637991821760806" y="802.625605244449616" width="12.345679012345499" height="12.345679012345499"/>
    </g>
    <g>
      <rect class="cls-1" x="518.26257376081594" y="814.475526971713407" width="12.345679012345499" height="12.345679012345499"/>
      <rect class="cls-1" x="530.608252773162349" y="814.475526971713407" width="12.345679012347318" height="12.345679012345499"/>
      <rect class="cls-1" x="542.953931785508757" y="814.475526971713407" width="12.345679012345499" height="12.345679012345499"/>
      <rect class="cls-1" x="518.26257376081594" y="826.821205984058906" width="12.345679012345499" height="12.345679012345499"/>
      <rect class="cls-1" x="530.608252773162349" y="826.821205984058906" width="12.345679012347318" height="12.345679012345499"/>
      <rect class="cls-1" x="542.953931785508757" y="826.821205984058906" width="12.345679012345499" height="12.345679012345499"/>
      <rect class="cls-1" x="518.26257376081594" y="839.166884996404406" width="12.345679012345499" height="12.345679012345499"/>
      <rect class="cls-1" x="530.608252773162349" y="839.166884996404406" width="12.345679012347318" height="12.345679012345499"/>
      <rect class="cls-1" x="542.953931785508757" y="839.166884996404406" width="12.345679012345499" height="12.345679012345499"/>
    </g>
    <g>
      <rect class="cls-1" x="518.42046817949813" y="777.392894927135785" width="12.345679012345499" height="12.345679012345499"/>
      <rect class="cls-1" x="530.766147191843629" y="777.392894927135785" width="12.345679012347318" height="12.345679012345499"/>
      <rect class="cls-1" x="543.111826204190947" y="777.392894927135785" width="12.345679012345499" height="12.345679012345499"/>
      <rect class="cls-1" x="518.42046817949813" y="789.738573939481284" width="12.345679012345499" height="12.345679012345499"/>
      <rect class="cls-1" x="530.766147191843629" y="789.738573939481284" width="12.345679012347318" height="12.345679012345499"/>
      <rect class="cls-1" x="543.111826204190947" y="789.738573939481284" width="12.345679012345499" height="12.345679012345499"/>
      <rect class="cls-1" x="518.42046817949813" y="802.084252951826784" width="12.345679012345499" height="12.345679012345499"/>
      <rect class="cls-1" x="530.766147191843629" y="802.084252951826784" width="12.345679012347318" height="12.345679012345499"/>
      <rect class="cls-1" x="543.111826204190947" y="802.084252951826784" width="12.345679012345499" height="12.345679012345499"/>
    </g>
    <g>
      <rect class="cls-1" x="481.608512281231015" y="777.392894927135785" width="12.345679012345499" height="12.345679012345499"/>
      <rect class="cls-1" x="493.954191293575605" y="777.392894927135785" width="12.345679012347318" height="12.345679012345499"/>
      <rect class="cls-1" x="506.299870305923832" y="777.392894927135785" width="12.345679012345499" height="12.345679012345499"/>
      <rect class="cls-1" x="481.608512281231015" y="789.738573939481284" width="12.345679012345499" height="12.345679012345499"/>
      <rect class="cls-1" x="493.954191293575605" y="789.738573939481284" width="12.345679012347318" height="12.345679012345499"/>
      <rect class="cls-1" x="506.299870305923832" y="789.738573939481284" width="12.345679012345499" height="12.345679012345499"/>
      <rect class="cls-1" x="481.608512281231015" y="802.084252951826784" width="12.345679012345499" height="12.345679012345499"/>
      <rect class="cls-1" x="493.954191293575605" y="802.084252951826784" width="12.345679012347318" height="12.345679012345499"/>
      <rect class="cls-1" x="506.299870305923832" y="802.084252951826784" width="12.345679012345499" height="12.345679012345499"/>
    </g>
    <g>
      <rect class="cls-1" x="481.608512281231015" y="814.475526971715226" width="12.345679012345499" height="12.345679012345499"/>
      <rect class="cls-1" x="493.954191293575605" y="814.475526971715226" width="12.345679012347318" height="12.345679012345499"/>
      <rect class="cls-1" x="506.299870305923832" y="814.475526971715226" width="12.345679012345499" height="12.345679012345499"/>
      <rect class="cls-1" x="481.608512281231015" y="826.821205984060725" width="12.345679012345499" height="12.345679012345499"/>
      <rect class="cls-1" x="493.954191293575605" y="826.821205984060725" width="12.345679012347318" height="12.345679012345499"/>
      <rect class="cls-1" x="506.299870305923832" y="826.821205984060725" width="12.345679012345499" height="12.345679012345499"/>
      <rect class="cls-1" x="481.608512281231015" y="839.166884996406225" width="12.345679012345499" height="12.345679012345499"/>
      <rect class="cls-1" x="493.954191293575605" y="839.166884996406225" width="12.345679012347318" height="12.345679012345499"/>
      <rect class="cls-1" x="506.299870305923832" y="839.166884996406225" width="12.345679012345499" height="12.345679012345499"/>
    </g>
    <g>
      <rect class="cls-1" x="555.954227134594476" y="814.746203118023914" width="12.345679012345499" height="12.345679012345499"/>
      <rect class="cls-1" x="568.299906146939065" y="814.746203118023914" width="12.345679012347318" height="12.345679012345499"/>
      <rect class="cls-1" x="580.645585159287293" y="814.746203118023914" width="12.345679012345499" height="12.345679012345499"/>
      <rect class="cls-1" x="555.954227134594476" y="827.091882130369413" width="12.345679012345499" height="12.345679012345499"/>
      <rect class="cls-1" x="568.299906146939065" y="827.091882130369413" width="12.345679012347318" height="12.345679012345499"/>
      <rect class="cls-1" x="580.645585159287293" y="827.091882130369413" width="12.345679012345499" height="12.345679012345499"/>
      <rect class="cls-1" x="555.954227134594476" y="839.437561142714912" width="12.345679012345499" height="12.345679012345499"/>
      <rect class="cls-1" x="568.299906146939065" y="839.437561142714912" width="12.345679012347318" height="12.345679012345499"/>
      <rect class="cls-1" x="580.645585159287293" y="839.437561142714912" width="12.345679012345499" height="12.345679012345499"/>
    </g>
    <g>
      <rect class="cls-1" x="666.750996357812255" y="777.520874990630546" width="12.345679012345499" height="12.345679012345499"/>
      <rect class="cls-1" x="679.096675370157755" y="777.520874990630546" width="12.345679012347318" height="12.345679012345499"/>
      <rect class="cls-1" x="691.442354382505073" y="777.520874990630546" width="12.345679012345499" height="12.345679012345499"/>
      <rect class="cls-1" x="666.750996357812255" y="789.866554002976045" width="12.345679012345499" height="12.345679012345499"/>
      <rect class="cls-1" x="679.096675370157755" y="789.866554002976045" width="12.345679012347318" height="12.345679012345499"/>
      <rect class="cls-1" x="691.442354382505073" y="789.866554002976045" width="12.345679012345499" height="12.345679012345499"/>
      <rect class="cls-1" x="666.750996357812255" y="802.212233015321544" width="12.345679012345499" height="12.345679012345499"/>
      <rect class="cls-1" x="679.096675370157755" y="802.212233015321544" width="12.345679012347318" height="12.345679012345499"/>
      <rect class="cls-1" x="691.442354382505073" y="802.212233015321544" width="12.345679012345499" height="12.345679012345499"/>
    </g>
    <g>
      <rect class="cls-1" x="703.562952256081189" y="777.588544027204989" width="12.345679012345499" height="12.345679012345499"/>
      <rect class="cls-1" x="715.908631268426689" y="777.588544027204989" width="12.345679012347318" height="12.345679012345499"/>
      <rect class="cls-1" x="728.254310280774007" y="777.588544027204989" width="12.345679012345499" height="12.345679012345499"/>
      <rect class="cls-1" x="703.562952256081189" y="789.934223039550488" width="12.345679012345499" height="12.345679012345499"/>
      <rect class="cls-1" x="715.908631268426689" y="789.934223039550488" width="12.345679012347318" height="12.345679012345499"/>
      <rect class="cls-1" x="728.254310280774007" y="789.934223039550488" width="12.345679012345499" height="12.345679012345499"/>
      <rect class="cls-1" x="703.562952256081189" y="802.279902051895988" width="12.345679012345499" height="12.345679012345499"/>
      <rect class="cls-1" x="715.908631268426689" y="802.279902051895988" width="12.345679012347318" height="12.345679012345499"/>
      <rect class="cls-1" x="728.254310280774007" y="802.279902051895988" width="12.345679012345499" height="12.345679012345499"/>
    </g>
    <g>
      <rect class="cls-1" x="666.750996357814074" y="815.48320451071595" width="12.345679012345499" height="12.345679012345499"/>
      <rect class="cls-1" x="679.096675370158664" y="815.48320451071595" width="12.345679012347318" height="12.345679012345499"/>
      <rect class="cls-1" x="691.442354382506892" y="815.48320451071595" width="12.345679012345499" height="12.345679012345499"/>
      <rect class="cls-1" x="666.750996357814074" y="827.82888352306145" width="12.345679012345499" height="12.345679012345499"/>
      <rect class="cls-1" x="679.096675370158664" y="827.82888352306145" width="12.345679012347318" height="12.345679012345499"/>
      <rect class="cls-1" x="691.442354382506892" y="827.82888352306145" width="12.345679012345499" height="12.345679012345499"/>
      <rect class="cls-1" x="666.750996357814074" y="840.174562535406949" width="12.345679012345499" height="12.345679012345499"/>
      <rect class="cls-1" x="679.096675370158664" y="840.174562535406949" width="12.345679012347318" height="12.345679012345499"/>
      <rect class="cls-1" x="691.442354382506892" y="840.174562535406949" width="12.345679012345499" height="12.345679012345499"/>
    </g>
    <g>
      <rect class="cls-1" x="629.93904045954514" y="815.48320451071595" width="12.345679012345499" height="12.345679012345499"/>
      <rect class="cls-1" x="642.284719471891549" y="815.48320451071595" width="12.345679012347318" height="12.345679012345499"/>
      <rect class="cls-1" x="654.630398484237958" y="815.48320451071595" width="12.345679012345499" height="12.345679012345499"/>
      <rect class="cls-1" x="629.93904045954514" y="827.82888352306145" width="12.345679012345499" height="12.345679012345499"/>
      <rect class="cls-1" x="642.284719471891549" y="827.82888352306145" width="12.345679012347318" height="12.345679012345499"/>
      <rect class="cls-1" x="654.630398484237958" y="827.82888352306145" width="12.345679012345499" height="12.345679012345499"/>
      <rect class="cls-1" x="629.93904045954514" y="840.174562535406949" width="12.345679012345499" height="12.345679012345499"/>
      <rect class="cls-1" x="642.284719471891549" y="840.174562535406949" width="12.345679012347318" height="12.345679012345499"/>
      <rect class="cls-1" x="654.630398484237958" y="840.174562535406949" width="12.345679012345499" height="12.345679012345499"/>
    </g>
    <g>
      <rect class="cls-1" x="592.93253951096267" y="814.684200363439231" width="12.345679012345499" height="12.345679012345499"/>
      <rect class="cls-1" x="605.278218523308169" y="814.684200363439231" width="12.345679012347318" height="12.345679012345499"/>
      <rect class="cls-1" x="617.623897535655487" y="814.684200363439231" width="12.345679012345499" height="12.345679012345499"/>
      <rect class="cls-1" x="592.93253951096267" y="827.029879375784731" width="12.345679012345499" height="12.345679012345499"/>
      <rect class="cls-1" x="605.278218523308169" y="827.029879375784731" width="12.345679012347318" height="12.345679012345499"/>
      <rect class="cls-1" x="617.623897535655487" y="827.029879375784731" width="12.345679012345499" height="12.345679012345499"/>
      <rect class="cls-1" x="592.93253951096267" y="839.37555838813023" width="12.345679012345499" height="12.345679012345499"/>
      <rect class="cls-1" x="605.278218523308169" y="839.37555838813023" width="12.345679012347318" height="12.345679012345499"/>
      <rect class="cls-1" x="617.623897535655487" y="839.37555838813023" width="12.345679012345499" height="12.345679012345499"/>
    </g>
    <g>
      <rect class="cls-1" x="629.84881507744285" y="777.588544027204989" width="12.345679012345499" height="12.345679012345499"/>
      <rect class="cls-1" x="642.19449408978835" y="777.588544027204989" width="12.345679012347318" height="12.345679012345499"/>
      <rect class="cls-1" x="654.540173102135668" y="777.588544027204989" width="12.345679012345499" height="12.345679012345499"/>
      <rect class="cls-1" x="629.84881507744285" y="789.934223039550488" width="12.345679012345499" height="12.345679012345499"/>
      <rect class="cls-1" x="642.19449408978835" y="789.934223039550488" width="12.345679012347318" height="12.345679012345499"/>
      <rect class="cls-1" x="654.540173102135668" y="789.934223039550488" width="12.345679012345499" height="12.345679012345499"/>
      <rect class="cls-1" x="629.84881507744285" y="802.279902051895988" width="12.345679012345499" height="12.345679012345499"/>
      <rect class="cls-1" x="642.19449408978835" y="802.279902051895988" width="12.345679012347318" height="12.345679012345499"/>
      <rect class="cls-1" x="654.540173102135668" y="802.279902051895988" width="12.345679012345499" height="12.345679012345499"/>
    </g>
    <g>
      <rect class="cls-1" x="666.890580331302772" y="740.418340288231775" width="12.345679012345499" height="12.345679012345499"/>
      <rect class="cls-1" x="679.236259343648271" y="740.418340288231775" width="12.345679012347318" height="12.345679012345499"/>
      <rect class="cls-1" x="691.58193835599559" y="740.418340288231775" width="12.345679012345499" height="12.345679012345499"/>
      <rect class="cls-1" x="666.890580331302772" y="752.764019300577274" width="12.345679012345499" height="12.345679012345499"/>
      <rect class="cls-1" x="679.236259343648271" y="752.764019300577274" width="12.345679012347318" height="12.345679012345499"/>
      <rect class="cls-1" x="691.58193835599559" y="752.764019300577274" width="12.345679012345499" height="12.345679012345499"/>
      <rect class="cls-1" x="666.890580331302772" y="765.109698312922774" width="12.345679012345499" height="12.345679012345499"/>
      <rect class="cls-1" x="679.236259343648271" y="765.109698312922774" width="12.345679012347318" height="12.345679012345499"/>
      <rect class="cls-1" x="691.58193835599559" y="765.109698312922774" width="12.345679012345499" height="12.345679012345499"/>
    </g>
    <g>
      <rect class="cls-1" x="629.93904045954514" y="740.41568660052144" width="12.345679012345499" height="12.345679012345499"/>
      <rect class="cls-1" x="642.284719471891549" y="740.41568660052144" width="12.345679012347318" height="12.345679012345499"/>
      <rect class="cls-1" x="654.630398484237958" y="740.41568660052144" width="12.345679012345499" height="12.345679012345499"/>
      <rect class="cls-1" x="629.93904045954514" y="752.761365612866939" width="12.345679012345499" height="12.345679012345499"/>
      <rect class="cls-1" x="642.284719471891549" y="752.761365612866939" width="12.345679012347318" height="12.345679012345499"/>
      <rect class="cls-1" x="654.630398484237958" y="752.761365612866939" width="12.345679012345499" height="12.345679012345499"/>
      <rect class="cls-1" x="629.93904045954514" y="765.107044625212438" width="12.345679012345499" height="12.345679012345499"/>
      <rect class="cls-1" x="642.284719471891549" y="765.107044625212438" width="12.345679012347318" height="12.345679012345499"/>
      <rect class="cls-1" x="654.630398484237958" y="765.107044625212438" width="12.345679012345499" height="12.345679012345499"/>
    </g>
    <g>
      <rect class="cls-1" x="555.322649459867534" y="740.58093902886867" width="12.345679012345499" height="12.345679012345499"/>
      <rect class="cls-1" x="567.668328472213034" y="740.58093902886867" width="12.345679012347318" height="12.345679012345499"/>
      <rect class="cls-1" x="580.014007484560352" y="740.58093902886867" width="12.345679012345499" height="12.345679012345499"/>
      <rect class="cls-1" x="555.322649459867534" y="752.926618041214169" width="12.345679012345499" height="12.345679012345499"/>
      <rect class="cls-1" x="567.668328472213034" y="752.926618041214169" width="12.345679012347318" height="12.345679012345499"/>
      <rect class="cls-1" x="580.014007484560352" y="752.926618041214169" width="12.345679012345499" height="12.345679012345499"/>
      <rect class="cls-1" x="555.322649459867534" y="765.272297053559669" width="12.345679012345499" height="12.345679012345499"/>
      <rect class="cls-1" x="567.668328472213034" y="765.272297053559669" width="12.345679012347318" height="12.345679012345499"/>
      <rect class="cls-1" x="580.014007484560352" y="765.272297053559669" width="12.345679012345499" height="12.345679012345499"/>
    </g>
    <g>
      <rect class="cls-1" x="110.624297416752597" y="555.9798072449139" width="12.345679012345499" height="12.345679012345499"/>
      <rect class="cls-1" x="122.969976429098097" y="555.9798072449139" width="12.345679012347318" height="12.345679012345499"/>
      <rect class="cls-1" x="135.315655441445415" y="555.9798072449139" width="12.345679012345499" height="12.345679012345499"/>
      <rect class="cls-1" x="110.624297416752597" y="568.325486257259399" width="12.345679012345499" height="12.345679012345499"/>
      <rect class="cls-1" x="122.969976429098097" y="568.325486257259399" width="12.345679012347318" height="12.345679012345499"/>
      <rect class="cls-1" x="135.315655441445415" y="568.325486257259399" width="12.345679012345499" height="12.345679012345499"/>
      <rect class="cls-1" x="110.624297416752597" y="580.671165269604899" width="12.345679012345499" height="12.345679012345499"/>
      <rect class="cls-1" x="122.969976429098097" y="580.671165269604899" width="12.345679012347318" height="12.345679012345499"/>
      <rect class="cls-1" x="135.315655441445415" y="580.671165269604899" width="12.345679012345499" height="12.345679012345499"/>
    </g>
    <g>
      <rect class="cls-1" x="148.361063481592282" y="407.107926773976942" width="12.345679012345499" height="12.345679012345499"/>
      <rect class="cls-1" x="160.706742493937782" y="407.107926773976942" width="12.345679012347318" height="12.345679012345499"/>
      <rect class="cls-1" x="173.0524215062851" y="407.107926773976942" width="12.345679012345499" height="12.345679012345499"/>
      <rect class="cls-1" x="148.361063481592282" y="419.453605786322441" width="12.345679012345499" height="12.345679012345499"/>
      <rect class="cls-1" x="160.706742493937782" y="419.453605786322441" width="12.345679012347318" height="12.345679012345499"/>
      <rect class="cls-1" x="173.0524215062851" y="419.453605786322441" width="12.345679012345499" height="12.345679012345499"/>
      <rect class="cls-1" x="148.361063481592282" y="431.799284798667941" width="12.345679012345499" height="12.345679012345499"/>
      <rect class="cls-1" x="160.706742493937782" y="431.799284798667941" width="12.345679012347318" height="12.345679012345499"/>
      <rect class="cls-1" x="173.0524215062851" y="431.799284798667941" width="12.345679012345499" height="12.345679012345499"/>
    </g>
    <g>
      <rect class="cls-1" x="444.548436582170325" y="444.386207918603759" width="12.345679012345499" height="12.345679012345499"/>
      <rect class="cls-1" x="456.894115594514915" y="444.386207918603759" width="12.345679012347318" height="12.345679012345499"/>
      <rect class="cls-1" x="469.239794606863143" y="444.386207918603759" width="12.345679012345499" height="12.345679012345499"/>
      <rect class="cls-1" x="444.548436582170325" y="456.731886930949258" width="12.345679012345499" height="12.345679012347318"/>
      <rect class="cls-1" x="456.894115594514915" y="456.731886930949258" width="12.345679012347318" height="12.345679012347318"/>
      <rect class="cls-1" x="469.239794606863143" y="456.731886930949258" width="12.345679012345499" height="12.345679012347318"/>
      <rect class="cls-1" x="444.548436582170325" y="469.077565943296577" width="12.345679012345499" height="12.345679012345499"/>
      <rect class="cls-1" x="456.894115594514915" y="469.077565943296577" width="12.345679012347318" height="12.345679012345499"/>
      <rect class="cls-1" x="469.239794606863143" y="469.077565943296577" width="12.345679012345499" height="12.345679012345499"/>
    </g>
    <g>
      <rect class="cls-1" x="519.25505296395022" y="407.574252020336644" width="12.345679012345499" height="12.345679012345499"/>
      <rect class="cls-1" x="531.60073197629481" y="407.574252020336644" width="12.345679012347318" height="12.345679012345499"/>
      <rect class="cls-1" x="543.946410988643038" y="407.574252020336644" width="12.345679012345499" height="12.345679012345499"/>
      <rect class="cls-1" x="519.25505296395022" y="419.919931032682143" width="12.345679012345499" height="12.345679012347318"/>
      <rect class="cls-1" x="531.60073197629481" y="419.919931032682143" width="12.345679012347318" height="12.345679012347318"/>
      <rect class="cls-1" x="543.946410988643038" y="419.919931032682143" width="12.345679012345499" height="12.345679012347318"/>
      <rect class="cls-1" x="519.25505296395022" y="432.265610045029462" width="12.345679012345499" height="12.345679012345499"/>
      <rect class="cls-1" x="531.60073197629481" y="432.265610045029462" width="12.345679012347318" height="12.345679012345499"/>
      <rect class="cls-1" x="543.946410988643038" y="432.265610045029462" width="12.345679012345499" height="12.345679012345499"/>
    </g>
    <g>
      <rect class="cls-1" x="333.503547558177161" y="518.08514676140112" width="12.345679012345499" height="12.345679012345499"/>
      <rect class="cls-1" x="345.849226570521751" y="518.08514676140112" width="12.345679012347318" height="12.345679012345499"/>
      <rect class="cls-1" x="358.194905582869978" y="518.08514676140112" width="12.345679012345499" height="12.345679012345499"/>
      <rect class="cls-1" x="333.503547558177161" y="530.430825773746619" width="12.345679012345499" height="12.345679012345499"/>
      <rect class="cls-1" x="345.849226570521751" y="530.430825773746619" width="12.345679012347318" height="12.345679012345499"/>
      <rect class="cls-1" x="358.194905582869978" y="530.430825773746619" width="12.345679012345499" height="12.345679012345499"/>
      <rect class="cls-1" x="333.503547558177161" y="542.776504786092119" width="12.345679012345499" height="12.345679012345499"/>
      <rect class="cls-1" x="345.849226570521751" y="542.776504786092119" width="12.345679012347318" height="12.345679012345499"/>
      <rect class="cls-1" x="358.194905582869978" y="542.776504786092119" width="12.345679012345499" height="12.345679012345499"/>
    </g>
    <g>
      <rect class="cls-1" x="333.503547558177161" y="370.295970875708008" width="12.345679012345499" height="12.345679012345499"/>
      <rect class="cls-1" x="345.849226570521751" y="370.295970875708008" width="12.345679012347318" height="12.345679012345499"/>
      <rect class="cls-1" x="358.194905582869978" y="370.295970875708008" width="12.345679012345499" height="12.345679012345499"/>
      <rect class="cls-1" x="333.503547558177161" y="382.641649888053507" width="12.345679012345499" height="12.345679012345499"/>
      <rect class="cls-1" x="345.849226570521751" y="382.641649888053507" width="12.345679012347318" height="12.345679012345499"/>
      <rect class="cls-1" x="358.194905582869978" y="382.641649888053507" width="12.345679012345499" height="12.345679012345499"/>
      <rect class="cls-1" x="333.503547558177161" y="394.987328900399007" width="12.345679012345499" height="12.345679012345499"/>
      <rect class="cls-1" x="345.849226570521751" y="394.987328900399007" width="12.345679012347318" height="12.345679012345499"/>
      <rect class="cls-1" x="358.194905582869978" y="394.987328900399007" width="12.345679012345499" height="12.345679012345499"/>
    </g>
    <g>
      <rect class="cls-1" x="926.366934192998087" y="518.28815387112445" width="12.345679012345499" height="12.345679012345499"/>
      <rect class="cls-1" x="938.712613205344496" y="518.28815387112445" width="12.345679012347318" height="12.345679012345499"/>
      <rect class="cls-1" x="951.058292217690905" y="518.28815387112445" width="12.345679012345499" height="12.345679012345499"/>
      <rect class="cls-1" x="926.366934192998087" y="530.63383288346995" width="12.345679012345499" height="12.345679012345499"/>
      <rect class="cls-1" x="938.712613205344496" y="530.63383288346995" width="12.345679012347318" height="12.345679012345499"/>
      <rect class="cls-1" x="951.058292217690905" y="530.63383288346995" width="12.345679012345499" height="12.345679012345499"/>
      <rect class="cls-1" x="926.366934192998087" y="542.979511895815449" width="12.345679012345499" height="12.345679012345499"/>
      <rect class="cls-1" x="938.712613205344496" y="542.979511895815449" width="12.345679012347318" height="12.345679012345499"/>
      <rect class="cls-1" x="951.058292217690905" y="542.979511895815449" width="12.345679012345499" height="12.345679012345499"/>
    </g>
    <g>
      <rect class="cls-1" x=".030142788868034" y="-.045021308611467" width="333.333333333332121" height="333.333333333332121"/>
      <rect class="cls-1" x="333.363476122199245" y="-.045021308611467" width="333.33333333333394" height="333.333333333332121"/>
      <rect class="cls-1" x="666.696809455534094" y="-.045021308611467" width="333.33333333333394" height="333.333333333332121"/>
      <rect class="cls-1" x="333.363476122199245" y="333.288312024720653" width="333.33333333333394" height="333.33333333333394"/>
      <rect class="cls-1" x="666.696809455534094" y="333.288312024720653" width="333.33333333333394" height="333.33333333333394"/>
      <rect class="cls-1" x=".030142788868034" y="666.621645358054593" width="333.333333333332121" height="333.333333333332121"/>
      <rect class="cls-1" x="333.363476122199245" y="666.621645358054593" width="333.33333333333394" height="333.333333333332121"/>
      <rect class="cls-1" x="666.696809455534094" y="666.621645358054593" width="333.33333333333394" height="333.333333333332121"/>
      <g>
        <rect class="cls-1" x=".030142788868034" y="333.288312024720653" width="111.111111111109494" height="111.111111111111313"/>
        <rect class="cls-1" x="111.141253899978437" y="333.288312024720653" width="111.111111111111313" height="111.111111111111313"/>
        <rect class="cls-1" x="222.252365011088841" y="333.288312024720653" width="111.111111111111313" height="111.111111111111313"/>
        <rect class="cls-1" x=".030142788868034" y="444.399423135831967" width="111.111111111109494" height="111.111111111111313"/>
        <rect class="cls-1" x="111.141253899978437" y="444.399423135831967" width="111.111111111111313" height="111.111111111111313"/>
        <rect class="cls-1" x="222.252365011088841" y="444.399423135831967" width="111.111111111111313" height="111.111111111111313"/>
        <rect class="cls-1" x=".030142788868034" y="555.51053424694328" width="111.111111111109494" height="111.111111111111313"/>
        <rect class="cls-1" x="111.141253899978437" y="555.51053424694328" width="111.111111111111313" height="111.111111111111313"/>
        <rect class="cls-1" x="222.252365011088841" y="555.51053424694328" width="111.111111111111313" height="111.111111111111313"/>
      </g>
      <rect class="cls-1" x="333.5031550437634" y="333.288312024720653" width="111.111111111109494" height="111.111111111111313"/>
      <rect class="cls-1" x="444.614266154872894" y="333.288312024720653" width="111.111111111111313" height="111.111111111111313"/>
      <rect class="cls-1" x="333.5031550437634" y="444.399423135831967" width="111.111111111109494" height="111.111111111111313"/>
      <rect class="cls-1" x="444.614266154872894" y="444.399423135831967" width="111.111111111111313" height="111.111111111111313"/>
      <rect class="cls-1" x="555.725377265983298" y="444.399423135831967" width="111.111111111111313" height="111.111111111111313"/>
      <rect class="cls-1" x="333.5031550437634" y="555.51053424694328" width="111.111111111109494" height="111.111111111111313"/>
      <rect class="cls-1" x="444.614266154872894" y="555.51053424694328" width="111.111111111111313" height="111.111111111111313"/>
      <rect class="cls-1" x="555.725377265983298" y="555.51053424694328" width="111.111111111111313" height="111.111111111111313"/>
      <rect class="cls-1" x="555.725377265984207" y="333.288312024720653" width="37.037037037036498" height="37.037037037036498"/>
      <rect class="cls-1" x="592.762414303019796" y="333.288312024720653" width="37.037037037038317" height="37.037037037036498"/>
      <rect class="cls-1" x="629.799451340059022" y="333.288312024720653" width="37.037037037038317" height="37.037037037036498"/>
      <rect class="cls-1" x="555.725377265984207" y="370.325349061757152" width="37.037037037036498" height="37.037037037036498"/>
      <rect class="cls-1" x="592.762414303019796" y="370.325349061757152" width="37.037037037038317" height="37.037037037036498"/>
      <rect class="cls-1" x="629.799451340059022" y="370.325349061757152" width="37.037037037038317" height="37.037037037036498"/>
      <rect class="cls-1" x="555.725377265984207" y="407.36238609879365" width="37.037037037036498" height="37.037037037038317"/>
      <rect class="cls-1" x="592.762414303019796" y="407.36238609879365" width="37.037037037038317" height="37.037037037038317"/>
      <rect class="cls-1" x="629.799451340059022" y="407.36238609879365" width="37.037037037038317" height="37.037037037038317"/>
      <rect class="cls-1" x="444.74815727855821" y="333.288312024720653" width="37.037037037036498" height="37.037037037036498"/>
      <rect class="cls-1" x="481.785194315594708" y="333.288312024720653" width="37.037037037038317" height="37.037037037036498"/>
      <rect class="cls-1" x="518.822231352633935" y="333.288312024720653" width="37.037037037038317" height="37.037037037036498"/>
      <rect class="cls-1" x="444.74815727855821" y="370.325349061757152" width="37.037037037036498" height="37.037037037036498"/>
      <rect class="cls-1" x="481.785194315594708" y="370.325349061757152" width="37.037037037038317" height="37.037037037036498"/>
      <rect class="cls-1" x="518.822231352633935" y="370.325349061757152" width="37.037037037038317" height="37.037037037036498"/>
      <rect class="cls-1" x="444.74815727855821" y="407.36238609879365" width="37.037037037036498" height="37.037037037038317"/>
      <rect class="cls-1" x="481.785194315594708" y="407.36238609879365" width="37.037037037038317" height="37.037037037038317"/>
      <rect class="cls-1" x="518.822231352633935" y="407.36238609879365" width="37.037037037038317" height="37.037037037038317"/>
      <rect class="cls-1" x="333.229584998513019" y="333.288312024720653" width="37.037037037036498" height="37.037037037036498"/>
      <rect class="cls-1" x="370.266622035549517" y="333.288312024720653" width="37.037037037038317" height="37.037037037036498"/>
      <rect class="cls-1" x="407.303659072588744" y="333.288312024720653" width="37.037037037038317" height="37.037037037036498"/>
      <rect class="cls-1" x="333.229584998513019" y="370.325349061757152" width="37.037037037036498" height="37.037037037036498"/>
      <rect class="cls-1" x="370.266622035549517" y="370.325349061757152" width="37.037037037038317" height="37.037037037036498"/>
      <rect class="cls-1" x="407.303659072588744" y="370.325349061757152" width="37.037037037038317" height="37.037037037036498"/>
      <rect class="cls-1" x="333.229584998513019" y="407.36238609879365" width="37.037037037036498" height="37.037037037038317"/>
      <rect class="cls-1" x="370.266622035549517" y="407.36238609879365" width="37.037037037038317" height="37.037037037038317"/>
      <rect class="cls-1" x="407.303659072588744" y="407.36238609879365" width="37.037037037038317" height="37.037037037038317"/>
      <rect class="cls-1" x="222.271332076781619" y="333.288312024720653" width="37.037037037036498" height="37.037037037036498"/>
      <rect class="cls-1" x="259.308369113817207" y="333.288312024720653" width="37.037037037038317" height="37.037037037036498"/>
      <rect class="cls-1" x="296.345406150856434" y="333.288312024720653" width="37.037037037038317" height="37.037037037036498"/>
      <rect class="cls-1" x="222.271332076781619" y="370.325349061757152" width="37.037037037036498" height="37.037037037036498"/>
      <rect class="cls-1" x="259.308369113817207" y="370.325349061757152" width="37.037037037038317" height="37.037037037036498"/>
      <rect class="cls-1" x="296.345406150856434" y="370.325349061757152" width="37.037037037038317" height="37.037037037036498"/>
      <rect class="cls-1" x="222.271332076781619" y="407.36238609879365" width="37.037037037036498" height="37.037037037038317"/>
      <rect class="cls-1" x="259.308369113817207" y="407.36238609879365" width="37.037037037038317" height="37.037037037038317"/>
      <rect class="cls-1" x="296.345406150856434" y="407.36238609879365" width="37.037037037038317" height="37.037037037038317"/>
      <rect class="cls-1" x="111.294112089355622" y="333.288312024720653" width="37.037037037036498" height="37.037037037036498"/>
      <rect class="cls-1" x="148.33114912639212" y="333.288312024720653" width="37.037037037038317" height="37.037037037036498"/>
      <rect class="cls-1" x="185.368186163431346" y="333.288312024720653" width="37.037037037038317" height="37.037037037036498"/>
      <rect class="cls-1" x="111.294112089355622" y="370.325349061757152" width="37.037037037036498" height="37.037037037036498"/>
      <rect class="cls-1" x="148.33114912639212" y="370.325349061757152" width="37.037037037038317" height="37.037037037036498"/>
      <rect class="cls-1" x="185.368186163431346" y="370.325349061757152" width="37.037037037038317" height="37.037037037036498"/>
      <rect class="cls-1" x="111.294112089355622" y="407.36238609879365" width="37.037037037036498" height="37.037037037038317"/>
      <rect class="cls-1" x="148.33114912639212" y="407.36238609879365" width="37.037037037038317" height="37.037037037038317"/>
      <rect class="cls-1" x="185.368186163431346" y="407.36238609879365" width="37.037037037038317" height="37.037037037038317"/>
      <g>
        <rect class="cls-1" x="111.294112089355622" y="444.265532012144831" width="37.037037037036498" height="37.037037037036498"/>
        <rect class="cls-1" x="148.33114912639212" y="444.265532012144831" width="37.037037037038317" height="37.037037037036498"/>
        <rect class="cls-1" x="185.368186163431346" y="444.265532012144831" width="37.037037037038317" height="37.037037037036498"/>
        <rect class="cls-1" x="111.294112089355622" y="481.302569049181329" width="37.037037037036498" height="37.037037037038317"/>
        <rect class="cls-1" x="148.33114912639212" y="481.302569049181329" width="37.037037037038317" height="37.037037037038317"/>
        <rect class="cls-1" x="185.368186163431346" y="481.302569049181329" width="37.037037037038317" height="37.037037037038317"/>
        <rect class="cls-1" x="111.294112089355622" y="518.339606086219646" width="37.037037037036498" height="37.037037037036498"/>
        <rect class="cls-1" x="148.33114912639212" y="518.339606086219646" width="37.037037037038317" height="37.037037037036498"/>
        <rect class="cls-1" x="185.368186163431346" y="518.339606086219646" width="37.037037037038317" height="37.037037037036498"/>
      </g>
      <g>
        <rect class="cls-1" x="-.021453080966239" y="444.265532012144831" width="37.037037037036498" height="37.037037037036498"/>
        <rect class="cls-1" x="37.015583956070259" y="444.265532012144831" width="37.037037037038317" height="37.037037037036498"/>
        <rect class="cls-1" x="74.052620993108576" y="444.265532012144831" width="37.037037037038317" height="37.037037037036498"/>
        <rect class="cls-1" x="-.021453080966239" y="481.302569049181329" width="37.037037037036498" height="37.037037037038317"/>
        <rect class="cls-1" x="37.015583956070259" y="481.302569049181329" width="37.037037037038317" height="37.037037037038317"/>
        <rect class="cls-1" x="74.052620993108576" y="481.302569049181329" width="37.037037037038317" height="37.037037037038317"/>
        <rect class="cls-1" x="-.021453080966239" y="518.339606086219646" width="37.037037037036498" height="37.037037037036498"/>
        <rect class="cls-1" x="37.015583956070259" y="518.339606086219646" width="37.037037037038317" height="37.037037037036498"/>
        <rect class="cls-1" x="74.052620993108576" y="518.339606086219646" width="37.037037037038317" height="37.037037037036498"/>
      </g>
      <g>
        <rect class="cls-1" x="-.021453080966239" y="333.107861260512436" width="37.037037037036498" height="37.037037037036498"/>
        <rect class="cls-1" x="37.015583956070259" y="333.107861260512436" width="37.037037037038317" height="37.037037037036498"/>
        <rect class="cls-1" x="74.052620993108576" y="333.107861260512436" width="37.037037037038317" height="37.037037037036498"/>
        <rect class="cls-1" x="-.021453080966239" y="370.144898297548934" width="37.037037037036498" height="37.037037037038317"/>
        <rect class="cls-1" x="37.015583956070259" y="370.144898297548934" width="37.037037037038317" height="37.037037037038317"/>
        <rect class="cls-1" x="74.052620993108576" y="370.144898297548934" width="37.037037037038317" height="37.037037037038317"/>
        <rect class="cls-1" x="-.021453080966239" y="407.181935334587251" width="37.037037037036498" height="37.037037037036498"/>
        <rect class="cls-1" x="37.015583956070259" y="407.181935334587251" width="37.037037037038317" height="37.037037037036498"/>
        <rect class="cls-1" x="74.052620993108576" y="407.181935334587251" width="37.037037037038317" height="37.037037037036498"/>
      </g>
      <g>
        <rect class="cls-1" x="-.021453080966239" y="555.513428145879516" width="37.037037037036498" height="37.037037037036498"/>
        <rect class="cls-1" x="37.015583956070259" y="555.513428145879516" width="37.037037037038317" height="37.037037037036498"/>
        <rect class="cls-1" x="74.052620993108576" y="555.513428145879516" width="37.037037037038317" height="37.037037037036498"/>
        <rect class="cls-1" x="-.021453080966239" y="592.550465182916014" width="37.037037037036498" height="37.037037037038317"/>
        <rect class="cls-1" x="37.015583956070259" y="592.550465182916014" width="37.037037037038317" height="37.037037037038317"/>
        <rect class="cls-1" x="74.052620993108576" y="592.550465182916014" width="37.037037037038317" height="37.037037037038317"/>
        <rect class="cls-1" x="-.021453080966239" y="629.587502219954331" width="37.037037037036498" height="37.037037037036498"/>
        <rect class="cls-1" x="37.015583956070259" y="629.587502219954331" width="37.037037037038317" height="37.037037037036498"/>
        <rect class="cls-1" x="74.052620993108576" y="629.587502219954331" width="37.037037037038317" height="37.037037037036498"/>
      </g>
      <rect class="cls-1" x="111.294112089355622" y="555.513428145879516" width="37.037037037036498" height="37.037037037036498"/>
      <rect class="cls-1" x="148.33114912639212" y="555.513428145879516" width="37.037037037038317" height="37.037037037036498"/>
      <rect class="cls-1" x="185.368186163431346" y="555.513428145879516" width="37.037037037038317" height="37.037037037036498"/>
      <rect class="cls-1" x="111.294112089355622" y="592.550465182916014" width="37.037037037036498" height="37.037037037038317"/>
      <rect class="cls-1" x="148.33114912639212" y="592.550465182916014" width="37.037037037038317" height="37.037037037038317"/>
      <rect class="cls-1" x="185.368186163431346" y="592.550465182916014" width="37.037037037038317" height="37.037037037038317"/>
      <rect class="cls-1" x="111.294112089355622" y="629.587502219954331" width="37.037037037036498" height="37.037037037036498"/>
      <rect class="cls-1" x="148.33114912639212" y="629.587502219954331" width="37.037037037038317" height="37.037037037036498"/>
      <rect class="cls-1" x="185.368186163431346" y="629.587502219954331" width="37.037037037038317" height="37.037037037036498"/>
      <rect class="cls-1" x="222.542008223090306" y="555.513428145879516" width="37.037037037036498" height="37.037037037036498"/>
      <rect class="cls-1" x="259.579045260127714" y="555.513428145879516" width="37.037037037038317" height="37.037037037036498"/>
      <rect class="cls-1" x="296.616082297165121" y="555.513428145879516" width="37.037037037038317" height="37.037037037036498"/>
      <rect class="cls-1" x="222.542008223090306" y="592.550465182916014" width="37.037037037036498" height="37.037037037038317"/>
      <rect class="cls-1" x="259.579045260127714" y="592.550465182916014" width="37.037037037038317" height="37.037037037038317"/>
      <rect class="cls-1" x="296.616082297165121" y="592.550465182916014" width="37.037037037038317" height="37.037037037038317"/>
      <rect class="cls-1" x="222.542008223090306" y="629.587502219954331" width="37.037037037036498" height="37.037037037036498"/>
      <rect class="cls-1" x="259.579045260127714" y="629.587502219954331" width="37.037037037038317" height="37.037037037036498"/>
      <rect class="cls-1" x="296.616082297165121" y="629.587502219954331" width="37.037037037038317" height="37.037037037036498"/>
      <rect class="cls-1" x="333.519228210514484" y="555.513428145879516" width="37.037037037036498" height="37.037037037036498"/>
      <rect class="cls-1" x="370.556265247550073" y="555.513428145879516" width="37.037037037038317" height="37.037037037036498"/>
      <rect class="cls-1" x="407.593302284589299" y="555.513428145879516" width="37.037037037038317" height="37.037037037036498"/>
      <rect class="cls-1" x="333.519228210514484" y="592.550465182916014" width="37.037037037036498" height="37.037037037038317"/>
      <rect class="cls-1" x="370.556265247550073" y="592.550465182916014" width="37.037037037038317" height="37.037037037038317"/>
      <rect class="cls-1" x="407.593302284589299" y="592.550465182916014" width="37.037037037038317" height="37.037037037038317"/>
      <rect class="cls-1" x="333.519228210514484" y="629.587502219954331" width="37.037037037036498" height="37.037037037036498"/>
      <rect class="cls-1" x="370.556265247550073" y="629.587502219954331" width="37.037037037038317" height="37.037037037036498"/>
      <rect class="cls-1" x="407.593302284589299" y="629.587502219954331" width="37.037037037038317" height="37.037037037036498"/>
      <rect class="cls-1" x="222.2713320767798" y="444.265532012144831" width="37.037037037036498" height="37.037037037036498"/>
      <rect class="cls-1" x="259.308369113816298" y="444.265532012144831" width="37.037037037038317" height="37.037037037036498"/>
      <rect class="cls-1" x="296.345406150853705" y="444.265532012144831" width="37.037037037038317" height="37.037037037036498"/>
      <rect class="cls-1" x="222.2713320767798" y="481.302569049181329" width="37.037037037036498" height="37.037037037038317"/>
      <rect class="cls-1" x="259.308369113816298" y="481.302569049181329" width="37.037037037038317" height="37.037037037038317"/>
      <rect class="cls-1" x="296.345406150853705" y="481.302569049181329" width="37.037037037038317" height="37.037037037038317"/>
      <rect class="cls-1" x="222.2713320767798" y="518.339606086219646" width="37.037037037036498" height="37.037037037036498"/>
      <rect class="cls-1" x="259.308369113816298" y="518.339606086219646" width="37.037037037038317" height="37.037037037036498"/>
      <rect class="cls-1" x="296.345406150853705" y="518.339606086219646" width="37.037037037038317" height="37.037037037036498"/>
      <rect class="cls-1" x="333.248552064203977" y="444.265532012144831" width="37.037037037036498" height="37.037037037036498"/>
      <rect class="cls-1" x="370.285589101240475" y="444.265532012144831" width="37.037037037038317" height="37.037037037036498"/>
      <rect class="cls-1" x="407.322626138279702" y="444.265532012144831" width="37.037037037038317" height="37.037037037036498"/>
      <rect class="cls-1" x="333.248552064203977" y="481.302569049181329" width="37.037037037036498" height="37.037037037038317"/>
      <rect class="cls-1" x="370.285589101240475" y="481.302569049181329" width="37.037037037038317" height="37.037037037038317"/>
      <rect class="cls-1" x="407.322626138279702" y="481.302569049181329" width="37.037037037038317" height="37.037037037038317"/>
      <rect class="cls-1" x="333.248552064203977" y="518.339606086219646" width="37.037037037036498" height="37.037037037036498"/>
      <rect class="cls-1" x="370.285589101240475" y="518.339606086219646" width="37.037037037038317" height="37.037037037036498"/>
      <rect class="cls-1" x="407.322626138279702" y="518.339606086219646" width="37.037037037038317" height="37.037037037036498"/>
      <rect class="cls-1" x="444.767124344250988" y="444.265532012144831" width="37.037037037036498" height="37.037037037036498"/>
      <rect class="cls-1" x="481.804161381288395" y="444.265532012144831" width="37.037037037038317" height="37.037037037036498"/>
      <rect class="cls-1" x="518.841198418325803" y="444.265532012144831" width="37.037037037038317" height="37.037037037036498"/>
      <rect class="cls-1" x="444.767124344250988" y="481.302569049181329" width="37.037037037036498" height="37.037037037038317"/>
      <rect class="cls-1" x="481.804161381288395" y="481.302569049181329" width="37.037037037038317" height="37.037037037038317"/>
      <rect class="cls-1" x="518.841198418325803" y="481.302569049181329" width="37.037037037038317" height="37.037037037038317"/>
      <rect class="cls-1" x="444.767124344250988" y="518.339606086219646" width="37.037037037036498" height="37.037037037036498"/>
      <rect class="cls-1" x="481.804161381288395" y="518.339606086219646" width="37.037037037038317" height="37.037037037036498"/>
      <rect class="cls-1" x="518.841198418325803" y="518.339606086219646" width="37.037037037038317" height="37.037037037036498"/>
      <g>
        <rect class="cls-1" x="555.725377265984207" y="777.649337370581634" width="37.037037037036498" height="37.037037037038317"/>
        <rect class="cls-1" x="592.762414303019796" y="777.649337370581634" width="37.037037037038317" height="37.037037037038317"/>
        <rect class="cls-1" x="629.799451340059022" y="777.649337370581634" width="37.037037037038317" height="37.037037037038317"/>
        <rect class="cls-1" x="555.725377265984207" y="814.686374407619951" width="37.037037037036498" height="37.037037037036498"/>
        <rect class="cls-1" x="592.762414303019796" y="814.686374407619951" width="37.037037037038317" height="37.037037037036498"/>
        <rect class="cls-1" x="629.799451340059022" y="814.686374407619951" width="37.037037037038317" height="37.037037037036498"/>
        <rect class="cls-1" x="555.725377265984207" y="851.723411444656449" width="37.037037037036498" height="37.037037037038317"/>
        <rect class="cls-1" x="592.762414303019796" y="851.723411444656449" width="37.037037037038317" height="37.037037037038317"/>
        <rect class="cls-1" x="629.799451340059022" y="851.723411444656449" width="37.037037037038317" height="37.037037037038317"/>
      </g>
      <g>
        <rect class="cls-1" x="444.477481132249522" y="777.649337370581634" width="37.037037037036498" height="37.037037037038317"/>
        <rect class="cls-1" x="481.514518169286021" y="777.649337370581634" width="37.037037037038317" height="37.037037037038317"/>
        <rect class="cls-1" x="518.551555206323428" y="777.649337370581634" width="37.037037037038317" height="37.037037037038317"/>
        <rect class="cls-1" x="444.477481132249522" y="814.686374407619951" width="37.037037037036498" height="37.037037037036498"/>
        <rect class="cls-1" x="481.514518169286021" y="814.686374407619951" width="37.037037037038317" height="37.037037037036498"/>
        <rect class="cls-1" x="518.551555206323428" y="814.686374407619951" width="37.037037037038317" height="37.037037037036498"/>
        <rect class="cls-1" x="444.477481132249522" y="851.723411444656449" width="37.037037037036498" height="37.037037037038317"/>
        <rect class="cls-1" x="481.514518169286021" y="851.723411444656449" width="37.037037037038317" height="37.037037037038317"/>
        <rect class="cls-1" x="518.551555206323428" y="851.723411444656449" width="37.037037037038317" height="37.037037037038317"/>
      </g>
      <g>
        <rect class="cls-1" x="444.477481132249522" y="666.491666618949239" width="37.037037037036498" height="37.037037037038317"/>
        <rect class="cls-1" x="481.514518169286021" y="666.491666618949239" width="37.037037037038317" height="37.037037037038317"/>
        <rect class="cls-1" x="518.551555206323428" y="666.491666618949239" width="37.037037037038317" height="37.037037037038317"/>
        <rect class="cls-1" x="444.477481132249522" y="703.528703655987556" width="37.037037037036498" height="37.037037037036498"/>
        <rect class="cls-1" x="481.514518169286021" y="703.528703655987556" width="37.037037037038317" height="37.037037037036498"/>
        <rect class="cls-1" x="518.551555206323428" y="703.528703655987556" width="37.037037037038317" height="37.037037037036498"/>
        <rect class="cls-1" x="444.477481132249522" y="740.565740693024054" width="37.037037037036498" height="37.037037037038317"/>
        <rect class="cls-1" x="481.514518169286021" y="740.565740693024054" width="37.037037037038317" height="37.037037037038317"/>
        <rect class="cls-1" x="518.551555206323428" y="740.565740693024054" width="37.037037037038317" height="37.037037037038317"/>
      </g>
      <g>
        <rect class="cls-1" x="555.635151883880098" y="666.491666618949239" width="37.037037037036498" height="37.037037037038317"/>
        <rect class="cls-1" x="592.672188920915687" y="666.491666618949239" width="37.037037037038317" height="37.037037037038317"/>
        <rect class="cls-1" x="629.709225957954914" y="666.491666618949239" width="37.037037037038317" height="37.037037037038317"/>
        <rect class="cls-1" x="555.635151883880098" y="703.528703655987556" width="37.037037037036498" height="37.037037037036498"/>
        <rect class="cls-1" x="592.672188920915687" y="703.528703655987556" width="37.037037037038317" height="37.037037037036498"/>
        <rect class="cls-1" x="629.709225957954914" y="703.528703655987556" width="37.037037037038317" height="37.037037037036498"/>
        <rect class="cls-1" x="555.635151883880098" y="740.565740693024054" width="37.037037037036498" height="37.037037037038317"/>
        <rect class="cls-1" x="592.672188920915687" y="740.565740693024054" width="37.037037037038317" height="37.037037037038317"/>
        <rect class="cls-1" x="629.709225957954914" y="740.565740693024054" width="37.037037037038317" height="37.037037037038317"/>
      </g>
      <g>
        <rect class="cls-1" x="666.792822635510674" y="666.491666618949239" width="37.037037037036498" height="37.037037037038317"/>
        <rect class="cls-1" x="703.829859672547173" y="666.491666618949239" width="37.037037037038317" height="37.037037037038317"/>
        <rect class="cls-1" x="740.866896709586399" y="666.491666618949239" width="37.037037037038317" height="37.037037037038317"/>
        <rect class="cls-1" x="666.792822635510674" y="703.528703655987556" width="37.037037037036498" height="37.037037037036498"/>
        <rect class="cls-1" x="703.829859672547173" y="703.528703655987556" width="37.037037037038317" height="37.037037037036498"/>
        <rect class="cls-1" x="740.866896709586399" y="703.528703655987556" width="37.037037037038317" height="37.037037037036498"/>
        <rect class="cls-1" x="666.792822635510674" y="740.565740693024054" width="37.037037037036498" height="37.037037037038317"/>
        <rect class="cls-1" x="703.829859672547173" y="740.565740693024054" width="37.037037037038317" height="37.037037037038317"/>
        <rect class="cls-1" x="740.866896709586399" y="740.565740693024054" width="37.037037037038317" height="37.037037037038317"/>
      </g>
      <g>
        <rect class="cls-1" x="666.702597253408385" y="777.649337370581634" width="37.037037037036498" height="37.037037037038317"/>
        <rect class="cls-1" x="703.739634290445792" y="777.649337370581634" width="37.037037037038317" height="37.037037037038317"/>
        <rect class="cls-1" x="740.7766713274832" y="777.649337370581634" width="37.037037037038317" height="37.037037037038317"/>
        <rect class="cls-1" x="666.702597253408385" y="814.686374407619951" width="37.037037037036498" height="37.037037037036498"/>
        <rect class="cls-1" x="703.739634290445792" y="814.686374407619951" width="37.037037037038317" height="37.037037037036498"/>
        <rect class="cls-1" x="740.7766713274832" y="814.686374407619951" width="37.037037037038317" height="37.037037037036498"/>
        <rect class="cls-1" x="666.702597253408385" y="851.723411444656449" width="37.037037037036498" height="37.037037037038317"/>
        <rect class="cls-1" x="703.739634290445792" y="851.723411444656449" width="37.037037037038317" height="37.037037037038317"/>
        <rect class="cls-1" x="740.7766713274832" y="851.723411444656449" width="37.037037037038317" height="37.037037037038317"/>
      </g>
      <rect class="cls-1" x="666.702597253408385" y="333.288312024720653" width="37.037037037036498" height="37.037037037036498"/>
      <rect class="cls-1" x="703.739634290445792" y="333.288312024720653" width="37.037037037038317" height="37.037037037036498"/>
      <rect class="cls-1" x="740.7766713274832" y="333.288312024720653" width="37.037037037038317" height="37.037037037036498"/>
      <rect class="cls-1" x="666.702597253408385" y="370.325349061757152" width="37.037037037036498" height="37.037037037036498"/>
      <rect class="cls-1" x="703.739634290445792" y="370.325349061757152" width="37.037037037038317" height="37.037037037036498"/>
      <rect class="cls-1" x="740.7766713274832" y="370.325349061757152" width="37.037037037038317" height="37.037037037036498"/>
      <rect class="cls-1" x="666.702597253408385" y="407.36238609879365" width="37.037037037036498" height="37.037037037038317"/>
      <rect class="cls-1" x="703.739634290445792" y="407.36238609879365" width="37.037037037038317" height="37.037037037038317"/>
      <rect class="cls-1" x="740.7766713274832" y="407.36238609879365" width="37.037037037038317" height="37.037037037038317"/>
      <g>
        <rect class="cls-1" x="889.198389520877754" y="554.972075853258502" width="37.037037037036498" height="37.037037037038317"/>
        <rect class="cls-1" x="926.235426557913343" y="554.972075853258502" width="37.037037037038317" height="37.037037037038317"/>
        <rect class="cls-1" x="963.272463594952569" y="554.972075853258502" width="37.037037037038317" height="37.037037037038317"/>
        <rect class="cls-1" x="889.198389520877754" y="592.009112890296819" width="37.037037037036498" height="37.037037037036498"/>
        <rect class="cls-1" x="926.235426557913343" y="592.009112890296819" width="37.037037037038317" height="37.037037037036498"/>
        <rect class="cls-1" x="963.272463594952569" y="592.009112890296819" width="37.037037037038317" height="37.037037037036498"/>
        <rect class="cls-1" x="889.198389520877754" y="629.046149927333317" width="37.037037037036498" height="37.037037037038317"/>
        <rect class="cls-1" x="926.235426557913343" y="629.046149927333317" width="37.037037037038317" height="37.037037037038317"/>
        <rect class="cls-1" x="963.272463594952569" y="629.046149927333317" width="37.037037037038317" height="37.037037037038317"/>
      </g>
      <g>
        <rect class="cls-1" x="889.198389520877754" y="666.129746604889078" width="37.037037037036498" height="37.037037037038317"/>
        <rect class="cls-1" x="926.235426557913343" y="666.129746604889078" width="37.037037037038317" height="37.037037037038317"/>
        <rect class="cls-1" x="963.272463594952569" y="666.129746604889078" width="37.037037037038317" height="37.037037037038317"/>
        <rect class="cls-1" x="889.198389520877754" y="703.166783641927395" width="37.037037037036498" height="37.037037037036498"/>
        <rect class="cls-1" x="926.235426557913343" y="703.166783641927395" width="37.037037037038317" height="37.037037037036498"/>
        <rect class="cls-1" x="963.272463594952569" y="703.166783641927395" width="37.037037037038317" height="37.037037037036498"/>
        <rect class="cls-1" x="889.198389520877754" y="740.203820678963893" width="37.037037037036498" height="37.037037037038317"/>
        <rect class="cls-1" x="926.235426557913343" y="740.203820678963893" width="37.037037037038317" height="37.037037037038317"/>
        <rect class="cls-1" x="963.272463594952569" y="740.203820678963893" width="37.037037037038317" height="37.037037037038317"/>
      </g>
      <g>
        <rect class="cls-1" x="778.221169533451757" y="666.129746604889078" width="37.037037037036498" height="37.037037037038317"/>
        <rect class="cls-1" x="815.258206570488255" y="666.129746604889078" width="37.037037037038317" height="37.037037037038317"/>
        <rect class="cls-1" x="852.295243607527482" y="666.129746604889078" width="37.037037037038317" height="37.037037037038317"/>
        <rect class="cls-1" x="778.221169533451757" y="703.166783641927395" width="37.037037037036498" height="37.037037037036498"/>
        <rect class="cls-1" x="815.258206570488255" y="703.166783641927395" width="37.037037037038317" height="37.037037037036498"/>
        <rect class="cls-1" x="852.295243607527482" y="703.166783641927395" width="37.037037037038317" height="37.037037037036498"/>
        <rect class="cls-1" x="778.221169533451757" y="740.203820678963893" width="37.037037037036498" height="37.037037037038317"/>
        <rect class="cls-1" x="815.258206570488255" y="740.203820678963893" width="37.037037037038317" height="37.037037037038317"/>
        <rect class="cls-1" x="852.295243607527482" y="740.203820678963893" width="37.037037037038317" height="37.037037037038317"/>
      </g>
      <g>
        <rect class="cls-1" x="666.976167298658766" y="333.288312024720653" width="111.111111111109494" height="111.111111111111313"/>
        <rect class="cls-1" x="778.08727840976735" y="333.288312024720653" width="111.111111111111313" height="111.111111111111313"/>
        <rect class="cls-1" x="889.198389520879573" y="333.288312024720653" width="111.111111111111313" height="111.111111111111313"/>
        <rect class="cls-1" x="666.976167298658766" y="444.399423135831967" width="111.111111111109494" height="111.111111111111313"/>
        <rect class="cls-1" x="889.198389520879573" y="444.399423135831967" width="111.111111111111313" height="111.111111111111313"/>
        <rect class="cls-1" x="666.976167298658766" y="555.51053424694328" width="111.111111111109494" height="111.111111111111313"/>
        <rect class="cls-1" x="778.08727840976735" y="555.51053424694328" width="111.111111111111313" height="111.111111111111313"/>
        <rect class="cls-1" x="889.198389520879573" y="555.51053424694328" width="111.111111111111313" height="111.111111111111313"/>
        <g>
          <rect class="cls-1" x="778.08727840976826" y="444.399423135831967" width="37.037037037036498" height="37.037037037038317"/>
          <rect class="cls-1" x="815.124315446803848" y="444.399423135831967" width="37.037037037038317" height="37.037037037038317"/>
          <rect class="cls-1" x="852.161352483843075" y="444.399423135831967" width="37.037037037038317" height="37.037037037038317"/>
          <rect class="cls-1" x="778.08727840976826" y="481.436460172870284" width="37.037037037036498" height="37.037037037036498"/>
          <rect class="cls-1" x="815.124315446803848" y="481.436460172870284" width="37.037037037038317" height="37.037037037036498"/>
          <rect class="cls-1" x="852.161352483843075" y="481.436460172870284" width="37.037037037038317" height="37.037037037036498"/>
          <rect class="cls-1" x="778.08727840976826" y="518.473497209906782" width="37.037037037036498" height="37.037037037036498"/>
          <rect class="cls-1" x="815.124315446803848" y="518.473497209906782" width="37.037037037038317" height="37.037037037036498"/>
          <rect class="cls-1" x="852.161352483843075" y="518.473497209906782" width="37.037037037038317" height="37.037037037036498"/>
        </g>
        <g>
          <rect class="cls-1" x="889.244949161400655" y="444.399423135831967" width="37.037037037036498" height="37.037037037038317"/>
          <rect class="cls-1" x="926.281986198438062" y="444.399423135831967" width="37.037037037038317" height="37.037037037038317"/>
          <rect class="cls-1" x="963.31902323547547" y="444.399423135831967" width="37.037037037038317" height="37.037037037038317"/>
          <rect class="cls-1" x="889.244949161400655" y="481.436460172870284" width="37.037037037036498" height="37.037037037036498"/>
          <rect class="cls-1" x="926.281986198438062" y="481.436460172870284" width="37.037037037038317" height="37.037037037036498"/>
          <rect class="cls-1" x="963.31902323547547" y="481.436460172870284" width="37.037037037038317" height="37.037037037036498"/>
          <rect class="cls-1" x="889.244949161400655" y="518.473497209906782" width="37.037037037036498" height="37.037037037036498"/>
          <rect class="cls-1" x="926.281986198438062" y="518.473497209906782" width="37.037037037038317" height="37.037037037036498"/>
          <rect class="cls-1" x="963.31902323547547" y="518.473497209906782" width="37.037037037038317" height="37.037037037036498"/>
        </g>
      </g>
      <g>
        <rect class="cls-1" x="666.976167298658766" y="666.761324279617838" width="111.111111111109494" height="111.111111111111313"/>
        <rect class="cls-1" x="778.08727840976735" y="666.761324279617838" width="111.111111111111313" height="111.111111111111313"/>
        <rect class="cls-1" x="889.198389520879573" y="666.761324279617838" width="111.111111111111313" height="111.111111111111313"/>
        <rect class="cls-1" x="666.976167298658766" y="777.872435390729152" width="111.111111111109494" height="111.111111111111313"/>
        <rect class="cls-1" x="778.08727840976735" y="777.872435390729152" width="111.111111111111313" height="111.111111111111313"/>
        <rect class="cls-1" x="889.198389520879573" y="777.872435390729152" width="111.111111111111313" height="111.111111111111313"/>
        <rect class="cls-1" x="666.976167298658766" y="888.983546501840465" width="111.111111111109494" height="111.111111111111313"/>
        <rect class="cls-1" x="778.08727840976735" y="888.983546501840465" width="111.111111111111313" height="111.111111111111313"/>
        <rect class="cls-1" x="889.198389520879573" y="888.983546501840465" width="111.111111111111313" height="111.111111111111313"/>
      </g>
      <g>
        <rect class="cls-1" x="333.5031550437634" y="666.761324279617838" width="111.111111111109494" height="111.111111111111313"/>
        <rect class="cls-1" x="444.614266154872894" y="666.761324279617838" width="111.111111111111313" height="111.111111111111313"/>
        <rect class="cls-1" x="555.725377265983298" y="666.761324279617838" width="111.111111111111313" height="111.111111111111313"/>
        <rect class="cls-1" x="333.5031550437634" y="777.872435390729152" width="111.111111111109494" height="111.111111111111313"/>
        <rect class="cls-1" x="444.614266154872894" y="777.872435390729152" width="111.111111111111313" height="111.111111111111313"/>
        <rect class="cls-1" x="555.725377265983298" y="777.872435390729152" width="111.111111111111313" height="111.111111111111313"/>
        <rect class="cls-1" x="333.5031550437634" y="888.983546501840465" width="111.111111111109494" height="111.111111111111313"/>
        <rect class="cls-1" x="444.614266154872894" y="888.983546501840465" width="111.111111111111313" height="111.111111111111313"/>
        <rect class="cls-1" x="555.725377265983298" y="888.983546501840465" width="111.111111111111313" height="111.111111111111313"/>
      </g>
    </g>
  </g>
</svg>