<?xml version="1.0" encoding="UTF-8"?>
<svg id="_图层_1" data-name="图层 1" xmlns="http://www.w3.org/2000/svg" viewBox="0 0 1000 1000">
  <defs>
    <style>
      .cls-1 {
        stroke: #ffa6a6;
        stroke-width: .600000023841858px;
      }

      .cls-1, .cls-2, .cls-3, .cls-4 {
        stroke-miterlimit: 10;
      }

      .cls-1, .cls-3 {
        fill: none;
      }

      .cls-2 {
        fill: #ff7900;
      }

      .cls-2, .cls-4 {
        stroke: #000;
      }

      .cls-3 {
        stroke: #a4e1ff;
        stroke-width: .75px;
      }

      .cls-5 {
        fill: #001738;
      }

      .cls-4 {
        fill: #a4e1ff;
      }
    </style>
  </defs>
  <rect class="cls-5" x="-13.890233422413075" y="-16.2812921748382" width="1028.959855923134455" height="1028.959855923135365"/>
  <g>
    <circle class="cls-1" cx="716.527962921723883" cy="801.798672057891054" r="12.124272078033663"/>
    <circle class="cls-1" cx="536.881442431389587" cy="832.473440140534422" r="18.638292490960087"/>
    <circle class="cls-1" cx="654.950916459119071" cy="789.402311805830323" r="24.719203346537387"/>
    <circle class="cls-1" cx="685.456359455658458" cy="796.592852048699569" r="27.788714841340884"/>
    <circle class="cls-1" cx="685.456359455658458" cy="796.592852048700024" r="31.295263774821681"/>
    <circle class="cls-1" cx="519.389496875250188" cy="814.225198239633755" r="36.811836578339282"/>
    <circle class="cls-1" cx="519.389496875249279" cy="814.225198239633301" r="27.836473097997569"/>
    <circle class="cls-1" cx="562.242349337988344" cy="808.435413692666771" r="30.711599401761827"/>
    <circle class="cls-1" cx="633.457544224380399" cy="661.885305602038898" r="152.170067433190297"/>
    <circle class="cls-1" cx="129.484840123019239" cy="474.910071053438742" r="92.45582063926318"/>
    <circle class="cls-1" cx="445.225900560008085" cy="514.836377905700601" r="98.713626782502075"/>
    <circle class="cls-1" cx="253.677175954013364" cy="438.225077690173293" r="80.140509510334638"/>
    <circle class="cls-1" cx="896.659985977146789" cy="608.692175651399339" r="90.86755700140472"/>
    <circle class="cls-1" cx="667.246034644420433" cy="592.370349872243196" r="221.546706019788985"/>
    <circle class="cls-1" cx="878.376517287606475" cy="665.865827881710175" r="85.511940891068889"/>
    <circle class="cls-1" cx="593.273173133449745" cy="715.65811725555659" r="36.804416926532966"/>
    <circle class="cls-1" cx="586.236069852911896" cy="758.696101042513874" r="55.587515113229436"/>
    <circle class="cls-1" cx="525.152142757921865" cy="795.932160388577813" r="18.638292490960197"/>
    <circle class="cls-1" cx="593.176504473855857" cy="802.011109075706372" r="12.246187726288028"/>
    <circle class="cls-1" cx="685.456359455658458" cy="796.592852048700024" r="31.295263774821681"/>
    <circle class="cls-1" cx="697.609115065971309" cy="758.171236419974321" r="43.181622469754046"/>
    <circle class="cls-1" cx="661.083359564602688" cy="809.119552130261127" r="18.541620769141002"/>
    <circle class="cls-1" cx="660.764469377435489" cy="776.071161387648317" r="18.541552044881428"/>
    <circle class="cls-1" cx="703.000156854266606" cy="717.001854679373537" r="38.147938824678583"/>
    <circle class="cls-1" cx="667.634563679212988" cy="480.874788739793075" r="110.425163437872101"/>
    <circle class="cls-1" cx="360.21103427289745" cy="468.595652711746652" r="73.863085074768648"/>
    <circle class="cls-1" cx="172.657685459589629" cy="431.466549570556936" r="24.295285562673172"/>
    <circle class="cls-1" cx="875.70030352125832" cy="557.059646017532714" r="63.42176047315639"/>
  </g>
  <g>
    <g>
      <g>
        <rect class="cls-3" x="963.325506337185288" y="666.156414017390489" width="12.345679012345499" height="12.345679012345499"/>
        <rect class="cls-3" x="975.671185349529878" y="666.156414017390489" width="12.345679012347318" height="12.345679012345499"/>
        <rect class="cls-3" x="988.016864361878106" y="666.156414017390489" width="12.345679012345499" height="12.345679012345499"/>
        <rect class="cls-3" x="963.325506337185288" y="678.502093029735988" width="12.345679012345499" height="12.345679012347318"/>
        <rect class="cls-3" x="975.671185349529878" y="678.502093029735988" width="12.345679012347318" height="12.345679012347318"/>
        <rect class="cls-3" x="988.016864361878106" y="678.502093029735988" width="12.345679012345499" height="12.345679012347318"/>
        <rect class="cls-3" x="963.325506337185288" y="690.847772042083307" width="12.345679012345499" height="12.345679012345499"/>
        <rect class="cls-3" x="975.671185349529878" y="690.847772042083307" width="12.345679012347318" height="12.345679012345499"/>
        <rect class="cls-3" x="988.016864361878106" y="690.847772042083307" width="12.345679012345499" height="12.345679012345499"/>
      </g>
      <g>
        <rect class="cls-3" x="889.374527530524574" y="739.994611096422886" width="12.345679012345499" height="12.345679012345499"/>
        <rect class="cls-3" x="901.720206542870983" y="739.994611096422886" width="12.345679012347318" height="12.345679012345499"/>
        <rect class="cls-3" x="914.065885555217392" y="739.994611096422886" width="12.345679012345499" height="12.345679012345499"/>
        <rect class="cls-3" x="889.374527530524574" y="752.340290108768386" width="12.345679012345499" height="12.345679012347318"/>
        <rect class="cls-3" x="901.720206542870983" y="752.340290108768386" width="12.345679012347318" height="12.345679012347318"/>
        <rect class="cls-3" x="914.065885555217392" y="752.340290108768386" width="12.345679012345499" height="12.345679012347318"/>
        <rect class="cls-3" x="889.374527530524574" y="764.685969121115704" width="12.345679012345499" height="12.345679012345499"/>
        <rect class="cls-3" x="901.720206542870983" y="764.685969121115704" width="12.345679012347318" height="12.345679012345499"/>
        <rect class="cls-3" x="914.065885555217392" y="764.685969121115704" width="12.345679012345499" height="12.345679012345499"/>
      </g>
      <g>
        <rect class="cls-3" x="852.167835585552893" y="518.09656198538687" width="12.345679012345499" height="12.345679012345499"/>
        <rect class="cls-3" x="864.513514597899302" y="518.09656198538687" width="12.345679012347318" height="12.345679012345499"/>
        <rect class="cls-3" x="876.859193610245711" y="518.09656198538687" width="12.345679012345499" height="12.345679012345499"/>
        <rect class="cls-3" x="852.167835585552893" y="530.44224099773237" width="12.345679012345499" height="12.345679012347318"/>
        <rect class="cls-3" x="864.513514597899302" y="530.44224099773237" width="12.345679012347318" height="12.345679012347318"/>
        <rect class="cls-3" x="876.859193610245711" y="530.44224099773237" width="12.345679012345499" height="12.345679012347318"/>
        <rect class="cls-3" x="852.167835585552893" y="542.787920010079688" width="12.345679012345499" height="12.345679012345499"/>
        <rect class="cls-3" x="864.513514597899302" y="542.787920010079688" width="12.345679012347318" height="12.345679012345499"/>
        <rect class="cls-3" x="876.859193610245711" y="542.787920010079688" width="12.345679012345499" height="12.345679012345499"/>
      </g>
      <g>
        <rect class="cls-3" x="852.167835585552893" y="481.284606087118846" width="12.345679012345499" height="12.345679012345499"/>
        <rect class="cls-3" x="864.513514597899302" y="481.284606087118846" width="12.345679012347318" height="12.345679012345499"/>
        <rect class="cls-3" x="876.859193610245711" y="481.284606087118846" width="12.345679012345499" height="12.345679012345499"/>
        <rect class="cls-3" x="852.167835585552893" y="493.630285099464345" width="12.345679012345499" height="12.345679012346409"/>
        <rect class="cls-3" x="864.513514597899302" y="493.630285099464345" width="12.345679012347318" height="12.345679012346409"/>
        <rect class="cls-3" x="876.859193610245711" y="493.630285099464345" width="12.345679012345499" height="12.345679012346409"/>
        <rect class="cls-3" x="852.167835585552893" y="505.975964111810754" width="12.345679012345499" height="12.345679012345499"/>
        <rect class="cls-3" x="864.513514597899302" y="505.975964111810754" width="12.345679012347318" height="12.345679012345499"/>
        <rect class="cls-3" x="876.859193610245711" y="505.975964111810754" width="12.345679012345499" height="12.345679012345499"/>
      </g>
      <g>
        <rect class="cls-3" x="926.513550438918173" y="481.284606087118846" width="12.345679012345499" height="12.345679012345499"/>
        <rect class="cls-3" x="938.859229451263673" y="481.284606087118846" width="12.345679012347318" height="12.345679012345499"/>
        <rect class="cls-3" x="951.204908463610991" y="481.284606087118846" width="12.345679012345499" height="12.345679012345499"/>
        <rect class="cls-3" x="926.513550438918173" y="493.630285099464345" width="12.345679012345499" height="12.345679012346409"/>
        <rect class="cls-3" x="938.859229451263673" y="493.630285099464345" width="12.345679012347318" height="12.345679012346409"/>
        <rect class="cls-3" x="951.204908463610991" y="493.630285099464345" width="12.345679012345499" height="12.345679012346409"/>
        <rect class="cls-3" x="926.513550438918173" y="505.975964111810754" width="12.345679012345499" height="12.345679012345499"/>
        <rect class="cls-3" x="938.859229451263673" y="505.975964111810754" width="12.345679012347318" height="12.345679012345499"/>
        <rect class="cls-3" x="951.204908463610991" y="505.975964111810754" width="12.345679012345499" height="12.345679012345499"/>
      </g>
      <g>
        <rect class="cls-3" x="222.650387471134309" y="333.299781101378358" width="12.345679012345499" height="12.345679012345499"/>
        <rect class="cls-3" x="234.996066483479808" y="333.299781101378358" width="12.345679012347318" height="12.345679012345499"/>
        <rect class="cls-3" x="247.341745495827126" y="333.299781101378358" width="12.345679012345499" height="12.345679012345499"/>
        <rect class="cls-3" x="222.650387471134309" y="345.645460113723857" width="12.345679012345499" height="12.345679012346409"/>
        <rect class="cls-3" x="234.996066483479808" y="345.645460113723857" width="12.345679012347318" height="12.345679012346409"/>
        <rect class="cls-3" x="247.341745495827126" y="345.645460113723857" width="12.345679012345499" height="12.345679012346409"/>
        <rect class="cls-3" x="222.650387471134309" y="357.991139126070266" width="12.345679012345499" height="12.345679012345499"/>
        <rect class="cls-3" x="234.996066483479808" y="357.991139126070266" width="12.345679012347318" height="12.345679012345499"/>
        <rect class="cls-3" x="247.341745495827126" y="357.991139126070266" width="12.345679012345499" height="12.345679012345499"/>
      </g>
      <g>
        <rect class="cls-3" x="222.650387471134309" y="517.900912885339494" width="12.345679012345499" height="12.345679012345499"/>
        <rect class="cls-3" x="234.996066483479808" y="517.900912885339494" width="12.345679012347318" height="12.345679012345499"/>
        <rect class="cls-3" x="247.341745495827126" y="517.900912885339494" width="12.345679012345499" height="12.345679012345499"/>
        <rect class="cls-3" x="222.650387471134309" y="530.246591897684993" width="12.345679012345499" height="12.345679012345499"/>
        <rect class="cls-3" x="234.996066483479808" y="530.246591897684993" width="12.345679012347318" height="12.345679012345499"/>
        <rect class="cls-3" x="247.341745495827126" y="530.246591897684993" width="12.345679012345499" height="12.345679012345499"/>
        <rect class="cls-3" x="222.650387471134309" y="542.592270910030493" width="12.345679012345499" height="12.345679012345499"/>
        <rect class="cls-3" x="234.996066483479808" y="542.592270910030493" width="12.345679012347318" height="12.345679012345499"/>
        <rect class="cls-3" x="247.341745495827126" y="542.592270910030493" width="12.345679012345499" height="12.345679012345499"/>
      </g>
      <g>
        <rect class="cls-3" x="111.131815191087298" y="369.570384707024459" width="12.345679012345499" height="12.345679012345499"/>
        <rect class="cls-3" x="123.477494203432798" y="369.570384707024459" width="12.345679012347318" height="12.345679012345499"/>
        <rect class="cls-3" x="135.823173215780116" y="369.570384707024459" width="12.345679012345499" height="12.345679012345499"/>
        <rect class="cls-3" x="111.131815191087298" y="381.916063719369959" width="12.345679012345499" height="12.345679012345499"/>
        <rect class="cls-3" x="123.477494203432798" y="381.916063719369959" width="12.345679012347318" height="12.345679012345499"/>
        <rect class="cls-3" x="135.823173215780116" y="381.916063719369959" width="12.345679012345499" height="12.345679012345499"/>
        <rect class="cls-3" x="111.131815191087298" y="394.261742731715458" width="12.345679012345499" height="12.345679012345499"/>
        <rect class="cls-3" x="123.477494203432798" y="394.261742731715458" width="12.345679012347318" height="12.345679012345499"/>
        <rect class="cls-3" x="135.823173215780116" y="394.261742731715458" width="12.345679012345499" height="12.345679012345499"/>
      </g>
      <g>
        <rect class="cls-3" x="704.25092079462047" y="702.953171579814807" width="12.345679012345499" height="12.345679012345499"/>
        <rect class="cls-3" x="716.596599806965969" y="702.953171579814807" width="12.345679012347318" height="12.345679012345499"/>
        <rect class="cls-3" x="728.942278819313287" y="702.953171579814807" width="12.345679012345499" height="12.345679012345499"/>
        <rect class="cls-3" x="704.25092079462047" y="715.298850592160306" width="12.345679012345499" height="12.345679012345499"/>
        <rect class="cls-3" x="716.596599806965969" y="715.298850592160306" width="12.345679012347318" height="12.345679012345499"/>
        <rect class="cls-3" x="728.942278819313287" y="715.298850592160306" width="12.345679012345499" height="12.345679012345499"/>
        <rect class="cls-3" x="704.25092079462047" y="727.644529604505806" width="12.345679012345499" height="12.345679012345499"/>
        <rect class="cls-3" x="716.596599806965969" y="727.644529604505806" width="12.345679012347318" height="12.345679012345499"/>
        <rect class="cls-3" x="728.942278819313287" y="727.644529604505806" width="12.345679012345499" height="12.345679012345499"/>
      </g>
      <g>
        <rect class="cls-3" x="593.093250042988075" y="777.750013343695173" width="12.345679012345499" height="12.345679012345499"/>
        <rect class="cls-3" x="605.438929055333574" y="777.750013343695173" width="12.345679012347318" height="12.345679012345499"/>
        <rect class="cls-3" x="617.784608067680892" y="777.750013343695173" width="12.345679012345499" height="12.345679012345499"/>
        <rect class="cls-3" x="593.093250042988075" y="790.095692356040672" width="12.345679012345499" height="12.345679012345499"/>
        <rect class="cls-3" x="605.438929055333574" y="790.095692356040672" width="12.345679012347318" height="12.345679012345499"/>
        <rect class="cls-3" x="617.784608067680892" y="790.095692356040672" width="12.345679012345499" height="12.345679012345499"/>
        <rect class="cls-3" x="593.093250042988075" y="802.441371368386172" width="12.345679012345499" height="12.345679012345499"/>
        <rect class="cls-3" x="605.438929055333574" y="802.441371368386172" width="12.345679012347318" height="12.345679012345499"/>
        <rect class="cls-3" x="617.784608067680892" y="802.441371368386172" width="12.345679012345499" height="12.345679012345499"/>
      </g>
      <g>
        <rect class="cls-3" x="518.409190006736026" y="814.291293095649962" width="12.345679012345499" height="12.345679012345499"/>
        <rect class="cls-3" x="530.754869019081525" y="814.291293095649962" width="12.345679012347318" height="12.345679012345499"/>
        <rect class="cls-3" x="543.100548031428843" y="814.291293095649962" width="12.345679012345499" height="12.345679012345499"/>
        <rect class="cls-3" x="518.409190006736026" y="826.636972107995462" width="12.345679012345499" height="12.345679012345499"/>
        <rect class="cls-3" x="530.754869019081525" y="826.636972107995462" width="12.345679012347318" height="12.345679012345499"/>
        <rect class="cls-3" x="543.100548031428843" y="826.636972107995462" width="12.345679012345499" height="12.345679012345499"/>
        <rect class="cls-3" x="518.409190006736026" y="838.982651120340961" width="12.345679012345499" height="12.345679012345499"/>
        <rect class="cls-3" x="530.754869019081525" y="838.982651120340961" width="12.345679012347318" height="12.345679012345499"/>
        <rect class="cls-3" x="543.100548031428843" y="838.982651120340961" width="12.345679012345499" height="12.345679012345499"/>
      </g>
      <g>
        <rect class="cls-3" x="518.567084425418216" y="777.20866105107234" width="12.345679012345499" height="12.345679012345499"/>
        <rect class="cls-3" x="530.912763437764625" y="777.20866105107234" width="12.345679012347318" height="12.345679012345499"/>
        <rect class="cls-3" x="543.258442450111033" y="777.20866105107234" width="12.345679012345499" height="12.345679012345499"/>
        <rect class="cls-3" x="518.567084425418216" y="789.55434006341784" width="12.345679012345499" height="12.345679012345499"/>
        <rect class="cls-3" x="530.912763437764625" y="789.55434006341784" width="12.345679012347318" height="12.345679012345499"/>
        <rect class="cls-3" x="543.258442450111033" y="789.55434006341784" width="12.345679012345499" height="12.345679012345499"/>
        <rect class="cls-3" x="518.567084425418216" y="801.900019075763339" width="12.345679012345499" height="12.345679012345499"/>
        <rect class="cls-3" x="530.912763437764625" y="801.900019075763339" width="12.345679012347318" height="12.345679012345499"/>
        <rect class="cls-3" x="543.258442450111033" y="801.900019075763339" width="12.345679012345499" height="12.345679012345499"/>
      </g>
      <g>
        <rect class="cls-3" x="481.755128527151101" y="777.20866105107234" width="12.345679012345499" height="12.345679012345499"/>
        <rect class="cls-3" x="494.1008075394966" y="777.20866105107234" width="12.345679012347318" height="12.345679012345499"/>
        <rect class="cls-3" x="506.446486551843918" y="777.20866105107234" width="12.345679012345499" height="12.345679012345499"/>
        <rect class="cls-3" x="481.755128527151101" y="789.55434006341784" width="12.345679012345499" height="12.345679012345499"/>
        <rect class="cls-3" x="494.1008075394966" y="789.55434006341784" width="12.345679012347318" height="12.345679012345499"/>
        <rect class="cls-3" x="506.446486551843918" y="789.55434006341784" width="12.345679012345499" height="12.345679012345499"/>
        <rect class="cls-3" x="481.755128527151101" y="801.900019075763339" width="12.345679012345499" height="12.345679012345499"/>
        <rect class="cls-3" x="494.1008075394966" y="801.900019075763339" width="12.345679012347318" height="12.345679012345499"/>
        <rect class="cls-3" x="506.446486551843918" y="801.900019075763339" width="12.345679012345499" height="12.345679012345499"/>
      </g>
      <g>
        <rect class="cls-3" x="481.755128527151101" y="814.291293095651781" width="12.345679012345499" height="12.345679012345499"/>
        <rect class="cls-3" x="494.1008075394966" y="814.291293095651781" width="12.345679012347318" height="12.345679012345499"/>
        <rect class="cls-3" x="506.446486551843918" y="814.291293095651781" width="12.345679012345499" height="12.345679012345499"/>
        <rect class="cls-3" x="481.755128527151101" y="826.636972107997281" width="12.345679012345499" height="12.345679012345499"/>
        <rect class="cls-3" x="494.1008075394966" y="826.636972107997281" width="12.345679012347318" height="12.345679012345499"/>
        <rect class="cls-3" x="506.446486551843918" y="826.636972107997281" width="12.345679012345499" height="12.345679012345499"/>
        <rect class="cls-3" x="481.755128527151101" y="838.98265112034278" width="12.345679012345499" height="12.345679012345499"/>
        <rect class="cls-3" x="494.1008075394966" y="838.98265112034278" width="12.345679012347318" height="12.345679012345499"/>
        <rect class="cls-3" x="506.446486551843918" y="838.98265112034278" width="12.345679012345499" height="12.345679012345499"/>
      </g>
      <g>
        <rect class="cls-3" x="556.100843380514561" y="814.561969241960469" width="12.345679012345499" height="12.345679012345499"/>
        <rect class="cls-3" x="568.446522392860061" y="814.561969241960469" width="12.345679012347318" height="12.345679012345499"/>
        <rect class="cls-3" x="580.792201405207379" y="814.561969241960469" width="12.345679012345499" height="12.345679012345499"/>
        <rect class="cls-3" x="556.100843380514561" y="826.907648254305968" width="12.345679012345499" height="12.345679012345499"/>
        <rect class="cls-3" x="568.446522392860061" y="826.907648254305968" width="12.345679012347318" height="12.345679012345499"/>
        <rect class="cls-3" x="580.792201405207379" y="826.907648254305968" width="12.345679012345499" height="12.345679012345499"/>
        <rect class="cls-3" x="556.100843380514561" y="839.253327266651468" width="12.345679012345499" height="12.345679012345499"/>
        <rect class="cls-3" x="568.446522392860061" y="839.253327266651468" width="12.345679012347318" height="12.345679012345499"/>
        <rect class="cls-3" x="580.792201405207379" y="839.253327266651468" width="12.345679012345499" height="12.345679012345499"/>
      </g>
      <g>
        <rect class="cls-3" x="666.897612603732341" y="777.336641114567101" width="12.345679012345499" height="12.345679012345499"/>
        <rect class="cls-3" x="679.243291616076931" y="777.336641114567101" width="12.345679012347318" height="12.345679012345499"/>
        <rect class="cls-3" x="691.588970628425159" y="777.336641114567101" width="12.345679012345499" height="12.345679012345499"/>
        <rect class="cls-3" x="666.897612603732341" y="789.6823201269126" width="12.345679012345499" height="12.345679012345499"/>
        <rect class="cls-3" x="679.243291616076931" y="789.6823201269126" width="12.345679012347318" height="12.345679012345499"/>
        <rect class="cls-3" x="691.588970628425159" y="789.6823201269126" width="12.345679012345499" height="12.345679012345499"/>
        <rect class="cls-3" x="666.897612603732341" y="802.0279991392581" width="12.345679012345499" height="12.345679012345499"/>
        <rect class="cls-3" x="679.243291616076931" y="802.0279991392581" width="12.345679012347318" height="12.345679012345499"/>
        <rect class="cls-3" x="691.588970628425159" y="802.0279991392581" width="12.345679012345499" height="12.345679012345499"/>
      </g>
      <g>
        <rect class="cls-3" x="703.709568502001275" y="777.404310151141544" width="12.345679012345499" height="12.345679012345499"/>
        <rect class="cls-3" x="716.055247514347684" y="777.404310151141544" width="12.345679012347318" height="12.345679012345499"/>
        <rect class="cls-3" x="728.400926526694093" y="777.404310151141544" width="12.345679012345499" height="12.345679012345499"/>
        <rect class="cls-3" x="703.709568502001275" y="789.749989163487044" width="12.345679012345499" height="12.345679012345499"/>
        <rect class="cls-3" x="716.055247514347684" y="789.749989163487044" width="12.345679012347318" height="12.345679012345499"/>
        <rect class="cls-3" x="728.400926526694093" y="789.749989163487044" width="12.345679012345499" height="12.345679012345499"/>
        <rect class="cls-3" x="703.709568502001275" y="802.095668175832543" width="12.345679012345499" height="12.345679012345499"/>
        <rect class="cls-3" x="716.055247514347684" y="802.095668175832543" width="12.345679012347318" height="12.345679012345499"/>
        <rect class="cls-3" x="728.400926526694093" y="802.095668175832543" width="12.345679012345499" height="12.345679012345499"/>
      </g>
      <g>
        <rect class="cls-3" x="666.89761260373416" y="815.298970634652505" width="12.345679012345499" height="12.345679012345499"/>
        <rect class="cls-3" x="679.243291616079659" y="815.298970634652505" width="12.345679012347318" height="12.345679012345499"/>
        <rect class="cls-3" x="691.588970628426978" y="815.298970634652505" width="12.345679012345499" height="12.345679012345499"/>
        <rect class="cls-3" x="666.89761260373416" y="827.644649646998005" width="12.345679012345499" height="12.345679012345499"/>
        <rect class="cls-3" x="679.243291616079659" y="827.644649646998005" width="12.345679012347318" height="12.345679012345499"/>
        <rect class="cls-3" x="691.588970628426978" y="827.644649646998005" width="12.345679012345499" height="12.345679012345499"/>
        <rect class="cls-3" x="666.89761260373416" y="839.990328659343504" width="12.345679012345499" height="12.345679012345499"/>
        <rect class="cls-3" x="679.243291616079659" y="839.990328659343504" width="12.345679012347318" height="12.345679012345499"/>
        <rect class="cls-3" x="691.588970628426978" y="839.990328659343504" width="12.345679012345499" height="12.345679012345499"/>
      </g>
      <g>
        <rect class="cls-3" x="630.085656705465226" y="815.298970634652505" width="12.345679012345499" height="12.345679012345499"/>
        <rect class="cls-3" x="642.431335717810725" y="815.298970634652505" width="12.345679012347318" height="12.345679012345499"/>
        <rect class="cls-3" x="654.777014730158044" y="815.298970634652505" width="12.345679012345499" height="12.345679012345499"/>
        <rect class="cls-3" x="630.085656705465226" y="827.644649646998005" width="12.345679012345499" height="12.345679012345499"/>
        <rect class="cls-3" x="642.431335717810725" y="827.644649646998005" width="12.345679012347318" height="12.345679012345499"/>
        <rect class="cls-3" x="654.777014730158044" y="827.644649646998005" width="12.345679012345499" height="12.345679012345499"/>
        <rect class="cls-3" x="630.085656705465226" y="839.990328659343504" width="12.345679012345499" height="12.345679012345499"/>
        <rect class="cls-3" x="642.431335717810725" y="839.990328659343504" width="12.345679012347318" height="12.345679012345499"/>
        <rect class="cls-3" x="654.777014730158044" y="839.990328659343504" width="12.345679012345499" height="12.345679012345499"/>
      </g>
      <g>
        <rect class="cls-3" x="593.079155756882756" y="814.499966487375787" width="12.345679012345499" height="12.345679012345499"/>
        <rect class="cls-3" x="605.424834769227346" y="814.499966487375787" width="12.345679012347318" height="12.345679012345499"/>
        <rect class="cls-3" x="617.770513781575573" y="814.499966487375787" width="12.345679012345499" height="12.345679012345499"/>
        <rect class="cls-3" x="593.079155756882756" y="826.845645499721286" width="12.345679012345499" height="12.345679012345499"/>
        <rect class="cls-3" x="605.424834769227346" y="826.845645499721286" width="12.345679012347318" height="12.345679012345499"/>
        <rect class="cls-3" x="617.770513781575573" y="826.845645499721286" width="12.345679012345499" height="12.345679012345499"/>
        <rect class="cls-3" x="593.079155756882756" y="839.191324512066785" width="12.345679012345499" height="12.345679012345499"/>
        <rect class="cls-3" x="605.424834769227346" y="839.191324512066785" width="12.345679012347318" height="12.345679012345499"/>
        <rect class="cls-3" x="617.770513781575573" y="839.191324512066785" width="12.345679012345499" height="12.345679012345499"/>
      </g>
      <g>
        <rect class="cls-3" x="629.995431323362936" y="777.404310151141544" width="12.345679012345499" height="12.345679012345499"/>
        <rect class="cls-3" x="642.341110335707526" y="777.404310151141544" width="12.345679012347318" height="12.345679012345499"/>
        <rect class="cls-3" x="654.686789348055754" y="777.404310151141544" width="12.345679012345499" height="12.345679012345499"/>
        <rect class="cls-3" x="629.995431323362936" y="789.749989163487044" width="12.345679012345499" height="12.345679012345499"/>
        <rect class="cls-3" x="642.341110335707526" y="789.749989163487044" width="12.345679012347318" height="12.345679012345499"/>
        <rect class="cls-3" x="654.686789348055754" y="789.749989163487044" width="12.345679012345499" height="12.345679012345499"/>
        <rect class="cls-3" x="629.995431323362936" y="802.095668175832543" width="12.345679012345499" height="12.345679012345499"/>
        <rect class="cls-3" x="642.341110335707526" y="802.095668175832543" width="12.345679012347318" height="12.345679012345499"/>
        <rect class="cls-3" x="654.686789348055754" y="802.095668175832543" width="12.345679012345499" height="12.345679012345499"/>
      </g>
      <g>
        <rect class="cls-3" x="667.037196577222858" y="740.23410641216833" width="12.345679012345499" height="12.345679012345499"/>
        <rect class="cls-3" x="679.382875589567448" y="740.23410641216833" width="12.345679012347318" height="12.345679012345499"/>
        <rect class="cls-3" x="691.728554601915675" y="740.23410641216833" width="12.345679012345499" height="12.345679012345499"/>
        <rect class="cls-3" x="667.037196577222858" y="752.57978542451383" width="12.345679012345499" height="12.345679012345499"/>
        <rect class="cls-3" x="679.382875589567448" y="752.57978542451383" width="12.345679012347318" height="12.345679012345499"/>
        <rect class="cls-3" x="691.728554601915675" y="752.57978542451383" width="12.345679012345499" height="12.345679012345499"/>
        <rect class="cls-3" x="667.037196577222858" y="764.925464436859329" width="12.345679012345499" height="12.345679012345499"/>
        <rect class="cls-3" x="679.382875589567448" y="764.925464436859329" width="12.345679012347318" height="12.345679012345499"/>
        <rect class="cls-3" x="691.728554601915675" y="764.925464436859329" width="12.345679012345499" height="12.345679012345499"/>
      </g>
      <g>
        <rect class="cls-3" x="630.085656705465226" y="740.231452724457995" width="12.345679012345499" height="12.345679012345499"/>
        <rect class="cls-3" x="642.431335717810725" y="740.231452724457995" width="12.345679012347318" height="12.345679012345499"/>
        <rect class="cls-3" x="654.777014730158044" y="740.231452724457995" width="12.345679012345499" height="12.345679012345499"/>
        <rect class="cls-3" x="630.085656705465226" y="752.577131736803494" width="12.345679012345499" height="12.345679012345499"/>
        <rect class="cls-3" x="642.431335717810725" y="752.577131736803494" width="12.345679012347318" height="12.345679012345499"/>
        <rect class="cls-3" x="654.777014730158044" y="752.577131736803494" width="12.345679012345499" height="12.345679012345499"/>
        <rect class="cls-3" x="630.085656705465226" y="764.922810749148994" width="12.345679012345499" height="12.345679012345499"/>
        <rect class="cls-3" x="642.431335717810725" y="764.922810749148994" width="12.345679012347318" height="12.345679012345499"/>
        <rect class="cls-3" x="654.777014730158044" y="764.922810749148994" width="12.345679012345499" height="12.345679012345499"/>
      </g>
      <g>
        <rect class="cls-3" x="555.46926570578762" y="740.396705152805225" width="12.345679012345499" height="12.345679012345499"/>
        <rect class="cls-3" x="567.814944718134029" y="740.396705152805225" width="12.345679012347318" height="12.345679012345499"/>
        <rect class="cls-3" x="580.160623730480438" y="740.396705152805225" width="12.345679012345499" height="12.345679012345499"/>
        <rect class="cls-3" x="555.46926570578762" y="752.742384165150725" width="12.345679012345499" height="12.345679012345499"/>
        <rect class="cls-3" x="567.814944718134029" y="752.742384165150725" width="12.345679012347318" height="12.345679012345499"/>
        <rect class="cls-3" x="580.160623730480438" y="752.742384165150725" width="12.345679012345499" height="12.345679012345499"/>
        <rect class="cls-3" x="555.46926570578762" y="765.088063177496224" width="12.345679012345499" height="12.345679012345499"/>
        <rect class="cls-3" x="567.814944718134029" y="765.088063177496224" width="12.345679012347318" height="12.345679012345499"/>
        <rect class="cls-3" x="580.160623730480438" y="765.088063177496224" width="12.345679012345499" height="12.345679012345499"/>
      </g>
      <g>
        <rect class="cls-3" x="110.770913662672683" y="555.795573368850455" width="12.345679012345499" height="12.345679012345499"/>
        <rect class="cls-3" x="123.116592675018182" y="555.795573368850455" width="12.345679012347318" height="12.345679012345499"/>
        <rect class="cls-3" x="135.462271687365501" y="555.795573368850455" width="12.345679012345499" height="12.345679012345499"/>
        <rect class="cls-3" x="110.770913662672683" y="568.141252381195955" width="12.345679012345499" height="12.345679012345499"/>
        <rect class="cls-3" x="123.116592675018182" y="568.141252381195955" width="12.345679012347318" height="12.345679012345499"/>
        <rect class="cls-3" x="135.462271687365501" y="568.141252381195955" width="12.345679012345499" height="12.345679012345499"/>
        <rect class="cls-3" x="110.770913662672683" y="580.486931393541454" width="12.345679012345499" height="12.345679012345499"/>
        <rect class="cls-3" x="123.116592675018182" y="580.486931393541454" width="12.345679012347318" height="12.345679012345499"/>
        <rect class="cls-3" x="135.462271687365501" y="580.486931393541454" width="12.345679012345499" height="12.345679012345499"/>
      </g>
      <g>
        <rect class="cls-3" x="148.507679727512368" y="406.923692897913497" width="12.345679012345499" height="12.345679012345499"/>
        <rect class="cls-3" x="160.853358739856958" y="406.923692897913497" width="12.345679012347318" height="12.345679012345499"/>
        <rect class="cls-3" x="173.199037752205186" y="406.923692897913497" width="12.345679012345499" height="12.345679012345499"/>
        <rect class="cls-3" x="148.507679727512368" y="419.269371910258997" width="12.345679012345499" height="12.345679012346409"/>
        <rect class="cls-3" x="160.853358739856958" y="419.269371910258997" width="12.345679012347318" height="12.345679012346409"/>
        <rect class="cls-3" x="173.199037752205186" y="419.269371910258997" width="12.345679012345499" height="12.345679012346409"/>
        <rect class="cls-3" x="148.507679727512368" y="431.615050922605406" width="12.345679012345499" height="12.345679012345499"/>
        <rect class="cls-3" x="160.853358739856958" y="431.615050922605406" width="12.345679012347318" height="12.345679012345499"/>
        <rect class="cls-3" x="173.199037752205186" y="431.615050922605406" width="12.345679012345499" height="12.345679012345499"/>
      </g>
      <g>
        <rect class="cls-3" x="444.695052828090411" y="444.201974042541224" width="12.345679012345499" height="12.345679012345499"/>
        <rect class="cls-3" x="457.04073184043591" y="444.201974042541224" width="12.345679012347318" height="12.345679012345499"/>
        <rect class="cls-3" x="469.386410852783229" y="444.201974042541224" width="12.345679012345499" height="12.345679012345499"/>
        <rect class="cls-3" x="444.695052828090411" y="456.547653054886723" width="12.345679012345499" height="12.345679012346409"/>
        <rect class="cls-3" x="457.04073184043591" y="456.547653054886723" width="12.345679012347318" height="12.345679012346409"/>
        <rect class="cls-3" x="469.386410852783229" y="456.547653054886723" width="12.345679012345499" height="12.345679012346409"/>
        <rect class="cls-3" x="444.695052828090411" y="468.893332067233132" width="12.345679012345499" height="12.345679012345499"/>
        <rect class="cls-3" x="457.04073184043591" y="468.893332067233132" width="12.345679012347318" height="12.345679012345499"/>
        <rect class="cls-3" x="469.386410852783229" y="468.893332067233132" width="12.345679012345499" height="12.345679012345499"/>
      </g>
      <g>
        <rect class="cls-3" x="519.401669209870306" y="407.390018144273199" width="12.345679012345499" height="12.345679012345499"/>
        <rect class="cls-3" x="531.747348222215805" y="407.390018144273199" width="12.345679012347318" height="12.345679012345499"/>
        <rect class="cls-3" x="544.093027234563124" y="407.390018144273199" width="12.345679012345499" height="12.345679012345499"/>
        <rect class="cls-3" x="519.401669209870306" y="419.735697156618699" width="12.345679012345499" height="12.345679012346409"/>
        <rect class="cls-3" x="531.747348222215805" y="419.735697156618699" width="12.345679012347318" height="12.345679012346409"/>
        <rect class="cls-3" x="544.093027234563124" y="419.735697156618699" width="12.345679012345499" height="12.345679012346409"/>
        <rect class="cls-3" x="519.401669209870306" y="432.081376168965107" width="12.345679012345499" height="12.345679012345499"/>
        <rect class="cls-3" x="531.747348222215805" y="432.081376168965107" width="12.345679012347318" height="12.345679012345499"/>
        <rect class="cls-3" x="544.093027234563124" y="432.081376168965107" width="12.345679012345499" height="12.345679012345499"/>
      </g>
      <g>
        <rect class="cls-3" x="333.650163804097247" y="517.900912885337675" width="12.345679012345499" height="12.345679012345499"/>
        <rect class="cls-3" x="345.995842816442746" y="517.900912885337675" width="12.345679012347318" height="12.345679012345499"/>
        <rect class="cls-3" x="358.341521828790064" y="517.900912885337675" width="12.345679012345499" height="12.345679012345499"/>
        <rect class="cls-3" x="333.650163804097247" y="530.246591897683174" width="12.345679012345499" height="12.345679012345499"/>
        <rect class="cls-3" x="345.995842816442746" y="530.246591897683174" width="12.345679012347318" height="12.345679012345499"/>
        <rect class="cls-3" x="358.341521828790064" y="530.246591897683174" width="12.345679012345499" height="12.345679012345499"/>
        <rect class="cls-3" x="333.650163804097247" y="542.592270910028674" width="12.345679012345499" height="12.345679012345499"/>
        <rect class="cls-3" x="345.995842816442746" y="542.592270910028674" width="12.345679012347318" height="12.345679012345499"/>
        <rect class="cls-3" x="358.341521828790064" y="542.592270910028674" width="12.345679012345499" height="12.345679012345499"/>
      </g>
      <g>
        <rect class="cls-3" x="333.650163804097247" y="370.111736999644563" width="12.345679012345499" height="12.345679012345499"/>
        <rect class="cls-3" x="345.995842816442746" y="370.111736999644563" width="12.345679012347318" height="12.345679012345499"/>
        <rect class="cls-3" x="358.341521828790064" y="370.111736999644563" width="12.345679012345499" height="12.345679012345499"/>
        <rect class="cls-3" x="333.650163804097247" y="382.457416011990063" width="12.345679012345499" height="12.345679012345499"/>
        <rect class="cls-3" x="345.995842816442746" y="382.457416011990063" width="12.345679012347318" height="12.345679012345499"/>
        <rect class="cls-3" x="358.341521828790064" y="382.457416011990063" width="12.345679012345499" height="12.345679012345499"/>
        <rect class="cls-3" x="333.650163804097247" y="394.803095024335562" width="12.345679012345499" height="12.345679012345499"/>
        <rect class="cls-3" x="345.995842816442746" y="394.803095024335562" width="12.345679012347318" height="12.345679012345499"/>
        <rect class="cls-3" x="358.341521828790064" y="394.803095024335562" width="12.345679012345499" height="12.345679012345499"/>
      </g>
      <g>
        <rect class="cls-3" x="926.513550438918173" y="518.103919995061005" width="12.345679012345499" height="12.345679012345499"/>
        <rect class="cls-3" x="938.859229451263673" y="518.103919995061005" width="12.345679012347318" height="12.345679012345499"/>
        <rect class="cls-3" x="951.204908463610991" y="518.103919995061005" width="12.345679012345499" height="12.345679012345499"/>
        <rect class="cls-3" x="926.513550438918173" y="530.449599007406505" width="12.345679012345499" height="12.345679012345499"/>
        <rect class="cls-3" x="938.859229451263673" y="530.449599007406505" width="12.345679012347318" height="12.345679012345499"/>
        <rect class="cls-3" x="951.204908463610991" y="530.449599007406505" width="12.345679012345499" height="12.345679012345499"/>
        <rect class="cls-3" x="926.513550438918173" y="542.795278019752004" width="12.345679012345499" height="12.345679012345499"/>
        <rect class="cls-3" x="938.859229451263673" y="542.795278019752004" width="12.345679012347318" height="12.345679012345499"/>
        <rect class="cls-3" x="951.204908463610991" y="542.795278019752004" width="12.345679012345499" height="12.345679012345499"/>
      </g>
      <g>
        <rect class="cls-3" x=".17675903478812" y="-.229255184675822" width="333.333333333332121" height="333.33333333333303"/>
        <rect class="cls-3" x="333.51009236812024" y="-.229255184675822" width="333.33333333333394" height="333.33333333333303"/>
        <rect class="cls-3" x="666.84342570145327" y="-.229255184675822" width="333.33333333333394" height="333.33333333333303"/>
        <rect class="cls-3" x="333.51009236812024" y="333.104078148657209" width="333.33333333333394" height="333.33333333333394"/>
        <rect class="cls-3" x="666.84342570145327" y="333.104078148657209" width="333.33333333333394" height="333.33333333333394"/>
        <rect class="cls-3" x=".17675903478812" y="666.437411481991148" width="333.333333333332121" height="333.333333333332121"/>
        <rect class="cls-3" x="333.51009236812024" y="666.437411481991148" width="333.33333333333394" height="333.333333333332121"/>
        <rect class="cls-3" x="666.84342570145327" y="666.437411481991148" width="333.33333333333394" height="333.333333333332121"/>
        <g>
          <rect class="cls-3" x=".17675903478812" y="333.104078148657209" width="111.111111111109494" height="111.111111111111313"/>
          <rect class="cls-3" x="111.287870145897614" y="333.104078148657209" width="111.111111111111313" height="111.111111111111313"/>
          <rect class="cls-3" x="222.398981257008018" y="333.104078148657209" width="111.111111111111313" height="111.111111111111313"/>
          <rect class="cls-3" x=".17675903478812" y="444.215189259768522" width="111.111111111109494" height="111.111111111111313"/>
          <rect class="cls-3" x="111.287870145897614" y="444.215189259768522" width="111.111111111111313" height="111.111111111111313"/>
          <rect class="cls-3" x="222.398981257008018" y="444.215189259768522" width="111.111111111111313" height="111.111111111111313"/>
          <rect class="cls-3" x=".17675903478812" y="555.326300370879835" width="111.111111111109494" height="111.111111111111313"/>
          <rect class="cls-3" x="111.287870145897614" y="555.326300370879835" width="111.111111111111313" height="111.111111111111313"/>
          <rect class="cls-3" x="222.398981257008018" y="555.326300370879835" width="111.111111111111313" height="111.111111111111313"/>
        </g>
        <rect class="cls-3" x="333.649771289683486" y="333.104078148657209" width="111.111111111109494" height="111.111111111111313"/>
        <rect class="cls-3" x="444.76088240079207" y="333.104078148657209" width="111.111111111111313" height="111.111111111111313"/>
        <rect class="cls-3" x="333.649771289683486" y="444.215189259768522" width="111.111111111109494" height="111.111111111111313"/>
        <rect class="cls-3" x="444.76088240079207" y="444.215189259768522" width="111.111111111111313" height="111.111111111111313"/>
        <rect class="cls-3" x="555.871993511904293" y="444.215189259768522" width="111.111111111111313" height="111.111111111111313"/>
        <rect class="cls-3" x="333.649771289683486" y="555.326300370879835" width="111.111111111109494" height="111.111111111111313"/>
        <rect class="cls-3" x="444.76088240079207" y="555.326300370879835" width="111.111111111111313" height="111.111111111111313"/>
        <rect class="cls-3" x="555.871993511904293" y="555.326300370879835" width="111.111111111111313" height="111.111111111111313"/>
        <rect class="cls-3" x="555.871993511904293" y="333.104078148657209" width="37.037037037036498" height="37.037037037037408"/>
        <rect class="cls-3" x="592.909030548940791" y="333.104078148657209" width="37.037037037038317" height="37.037037037037408"/>
        <rect class="cls-3" x="629.946067585980018" y="333.104078148657209" width="37.037037037038317" height="37.037037037037408"/>
        <rect class="cls-3" x="555.871993511904293" y="370.141115185694616" width="37.037037037036498" height="37.037037037036498"/>
        <rect class="cls-3" x="592.909030548940791" y="370.141115185694616" width="37.037037037038317" height="37.037037037036498"/>
        <rect class="cls-3" x="629.946067585980018" y="370.141115185694616" width="37.037037037038317" height="37.037037037036498"/>
        <rect class="cls-3" x="555.871993511904293" y="407.178152222731114" width="37.037037037036498" height="37.037037037037408"/>
        <rect class="cls-3" x="592.909030548940791" y="407.178152222731114" width="37.037037037038317" height="37.037037037037408"/>
        <rect class="cls-3" x="629.946067585980018" y="407.178152222731114" width="37.037037037038317" height="37.037037037037408"/>
        <rect class="cls-3" x="444.894773524478296" y="333.104078148657209" width="37.037037037036498" height="37.037037037037408"/>
        <rect class="cls-3" x="481.931810561515704" y="333.104078148657209" width="37.037037037038317" height="37.037037037037408"/>
        <rect class="cls-3" x="518.968847598553111" y="333.104078148657209" width="37.037037037038317" height="37.037037037037408"/>
        <rect class="cls-3" x="444.894773524478296" y="370.141115185694616" width="37.037037037036498" height="37.037037037036498"/>
        <rect class="cls-3" x="481.931810561515704" y="370.141115185694616" width="37.037037037038317" height="37.037037037036498"/>
        <rect class="cls-3" x="518.968847598553111" y="370.141115185694616" width="37.037037037038317" height="37.037037037036498"/>
        <rect class="cls-3" x="444.894773524478296" y="407.178152222731114" width="37.037037037036498" height="37.037037037037408"/>
        <rect class="cls-3" x="481.931810561515704" y="407.178152222731114" width="37.037037037038317" height="37.037037037037408"/>
        <rect class="cls-3" x="518.968847598553111" y="407.178152222731114" width="37.037037037038317" height="37.037037037037408"/>
        <rect class="cls-3" x="333.376201244433105" y="333.104078148657209" width="37.037037037036498" height="37.037037037037408"/>
        <rect class="cls-3" x="370.413238281470512" y="333.104078148657209" width="37.037037037038317" height="37.037037037037408"/>
        <rect class="cls-3" x="407.45027531850792" y="333.104078148657209" width="37.037037037038317" height="37.037037037037408"/>
        <rect class="cls-3" x="333.376201244433105" y="370.141115185694616" width="37.037037037036498" height="37.037037037036498"/>
        <rect class="cls-3" x="370.413238281470512" y="370.141115185694616" width="37.037037037038317" height="37.037037037036498"/>
        <rect class="cls-3" x="407.45027531850792" y="370.141115185694616" width="37.037037037038317" height="37.037037037036498"/>
        <rect class="cls-3" x="333.376201244433105" y="407.178152222731114" width="37.037037037036498" height="37.037037037037408"/>
        <rect class="cls-3" x="370.413238281470512" y="407.178152222731114" width="37.037037037038317" height="37.037037037037408"/>
        <rect class="cls-3" x="407.45027531850792" y="407.178152222731114" width="37.037037037038317" height="37.037037037037408"/>
        <rect class="cls-3" x="222.417948322701704" y="333.104078148657209" width="37.037037037036498" height="37.037037037037408"/>
        <rect class="cls-3" x="259.454985359738203" y="333.104078148657209" width="37.037037037038317" height="37.037037037037408"/>
        <rect class="cls-3" x="296.492022396777429" y="333.104078148657209" width="37.037037037038317" height="37.037037037037408"/>
        <rect class="cls-3" x="222.417948322701704" y="370.141115185694616" width="37.037037037036498" height="37.037037037036498"/>
        <rect class="cls-3" x="259.454985359738203" y="370.141115185694616" width="37.037037037038317" height="37.037037037036498"/>
        <rect class="cls-3" x="296.492022396777429" y="370.141115185694616" width="37.037037037038317" height="37.037037037036498"/>
        <rect class="cls-3" x="222.417948322701704" y="407.178152222731114" width="37.037037037036498" height="37.037037037037408"/>
        <rect class="cls-3" x="259.454985359738203" y="407.178152222731114" width="37.037037037038317" height="37.037037037037408"/>
        <rect class="cls-3" x="296.492022396777429" y="407.178152222731114" width="37.037037037038317" height="37.037037037037408"/>
        <rect class="cls-3" x="111.440728335275708" y="333.104078148657209" width="37.037037037036498" height="37.037037037037408"/>
        <rect class="cls-3" x="148.477765372313115" y="333.104078148657209" width="37.037037037038317" height="37.037037037037408"/>
        <rect class="cls-3" x="185.514802409350523" y="333.104078148657209" width="37.037037037038317" height="37.037037037037408"/>
        <rect class="cls-3" x="111.440728335275708" y="370.141115185694616" width="37.037037037036498" height="37.037037037036498"/>
        <rect class="cls-3" x="148.477765372313115" y="370.141115185694616" width="37.037037037038317" height="37.037037037036498"/>
        <rect class="cls-3" x="185.514802409350523" y="370.141115185694616" width="37.037037037038317" height="37.037037037036498"/>
        <rect class="cls-3" x="111.440728335275708" y="407.178152222731114" width="37.037037037036498" height="37.037037037037408"/>
        <rect class="cls-3" x="148.477765372313115" y="407.178152222731114" width="37.037037037038317" height="37.037037037037408"/>
        <rect class="cls-3" x="185.514802409350523" y="407.178152222731114" width="37.037037037038317" height="37.037037037037408"/>
        <g>
          <rect class="cls-3" x="111.440728335275708" y="444.081298136081386" width="37.037037037036498" height="37.037037037037408"/>
          <rect class="cls-3" x="148.477765372313115" y="444.081298136081386" width="37.037037037038317" height="37.037037037037408"/>
          <rect class="cls-3" x="185.514802409350523" y="444.081298136081386" width="37.037037037038317" height="37.037037037037408"/>
          <rect class="cls-3" x="111.440728335275708" y="481.118335173118794" width="37.037037037036498" height="37.037037037037408"/>
          <rect class="cls-3" x="148.477765372313115" y="481.118335173118794" width="37.037037037038317" height="37.037037037037408"/>
          <rect class="cls-3" x="185.514802409350523" y="481.118335173118794" width="37.037037037038317" height="37.037037037037408"/>
          <rect class="cls-3" x="111.440728335275708" y="518.155372210156202" width="37.037037037036498" height="37.037037037036498"/>
          <rect class="cls-3" x="148.477765372313115" y="518.155372210156202" width="37.037037037038317" height="37.037037037036498"/>
          <rect class="cls-3" x="185.514802409350523" y="518.155372210156202" width="37.037037037038317" height="37.037037037036498"/>
        </g>
        <g>
          <rect class="cls-3" x=".125163164953847" y="444.081298136081386" width="37.037037037036498" height="37.037037037037408"/>
          <rect class="cls-3" x="37.162200201990345" y="444.081298136081386" width="37.037037037038317" height="37.037037037037408"/>
          <rect class="cls-3" x="74.199237239028662" y="444.081298136081386" width="37.037037037038317" height="37.037037037037408"/>
          <rect class="cls-3" x=".125163164953847" y="481.118335173118794" width="37.037037037036498" height="37.037037037037408"/>
          <rect class="cls-3" x="37.162200201990345" y="481.118335173118794" width="37.037037037038317" height="37.037037037037408"/>
          <rect class="cls-3" x="74.199237239028662" y="481.118335173118794" width="37.037037037038317" height="37.037037037037408"/>
          <rect class="cls-3" x=".125163164953847" y="518.155372210156202" width="37.037037037036498" height="37.037037037036498"/>
          <rect class="cls-3" x="37.162200201990345" y="518.155372210156202" width="37.037037037038317" height="37.037037037036498"/>
          <rect class="cls-3" x="74.199237239028662" y="518.155372210156202" width="37.037037037038317" height="37.037037037036498"/>
        </g>
        <g>
          <rect class="cls-3" x=".125163164953847" y="332.923627384448992" width="37.037037037036498" height="37.037037037037408"/>
          <rect class="cls-3" x="37.162200201990345" y="332.923627384448992" width="37.037037037038317" height="37.037037037037408"/>
          <rect class="cls-3" x="74.199237239028662" y="332.923627384448992" width="37.037037037038317" height="37.037037037037408"/>
          <rect class="cls-3" x=".125163164953847" y="369.960664421486399" width="37.037037037036498" height="37.037037037037408"/>
          <rect class="cls-3" x="37.162200201990345" y="369.960664421486399" width="37.037037037038317" height="37.037037037037408"/>
          <rect class="cls-3" x="74.199237239028662" y="369.960664421486399" width="37.037037037038317" height="37.037037037037408"/>
          <rect class="cls-3" x=".125163164953847" y="406.997701458523807" width="37.037037037036498" height="37.037037037036498"/>
          <rect class="cls-3" x="37.162200201990345" y="406.997701458523807" width="37.037037037038317" height="37.037037037036498"/>
          <rect class="cls-3" x="74.199237239028662" y="406.997701458523807" width="37.037037037038317" height="37.037037037036498"/>
        </g>
        <g>
          <rect class="cls-3" x=".125163164953847" y="555.329194269816071" width="37.037037037036498" height="37.037037037036498"/>
          <rect class="cls-3" x="37.162200201990345" y="555.329194269816071" width="37.037037037038317" height="37.037037037036498"/>
          <rect class="cls-3" x="74.199237239028662" y="555.329194269816071" width="37.037037037038317" height="37.037037037036498"/>
          <rect class="cls-3" x=".125163164953847" y="592.366231306852569" width="37.037037037036498" height="37.037037037038317"/>
          <rect class="cls-3" x="37.162200201990345" y="592.366231306852569" width="37.037037037038317" height="37.037037037038317"/>
          <rect class="cls-3" x="74.199237239028662" y="592.366231306852569" width="37.037037037038317" height="37.037037037038317"/>
          <rect class="cls-3" x=".125163164953847" y="629.403268343890886" width="37.037037037036498" height="37.037037037036498"/>
          <rect class="cls-3" x="37.162200201990345" y="629.403268343890886" width="37.037037037038317" height="37.037037037036498"/>
          <rect class="cls-3" x="74.199237239028662" y="629.403268343890886" width="37.037037037038317" height="37.037037037036498"/>
        </g>
        <rect class="cls-3" x="111.440728335275708" y="555.329194269816071" width="37.037037037036498" height="37.037037037036498"/>
        <rect class="cls-3" x="148.477765372313115" y="555.329194269816071" width="37.037037037038317" height="37.037037037036498"/>
        <rect class="cls-3" x="185.514802409350523" y="555.329194269816071" width="37.037037037038317" height="37.037037037036498"/>
        <rect class="cls-3" x="111.440728335275708" y="592.366231306852569" width="37.037037037036498" height="37.037037037038317"/>
        <rect class="cls-3" x="148.477765372313115" y="592.366231306852569" width="37.037037037038317" height="37.037037037038317"/>
        <rect class="cls-3" x="185.514802409350523" y="592.366231306852569" width="37.037037037038317" height="37.037037037038317"/>
        <rect class="cls-3" x="111.440728335275708" y="629.403268343890886" width="37.037037037036498" height="37.037037037036498"/>
        <rect class="cls-3" x="148.477765372313115" y="629.403268343890886" width="37.037037037038317" height="37.037037037036498"/>
        <rect class="cls-3" x="185.514802409350523" y="629.403268343890886" width="37.037037037038317" height="37.037037037036498"/>
        <rect class="cls-3" x="222.688624469010392" y="555.329194269816071" width="37.037037037036498" height="37.037037037036498"/>
        <rect class="cls-3" x="259.72566150604689" y="555.329194269816071" width="37.037037037038317" height="37.037037037036498"/>
        <rect class="cls-3" x="296.762698543084298" y="555.329194269816071" width="37.037037037038317" height="37.037037037036498"/>
        <rect class="cls-3" x="222.688624469010392" y="592.366231306852569" width="37.037037037036498" height="37.037037037038317"/>
        <rect class="cls-3" x="259.72566150604689" y="592.366231306852569" width="37.037037037038317" height="37.037037037038317"/>
        <rect class="cls-3" x="296.762698543084298" y="592.366231306852569" width="37.037037037038317" height="37.037037037038317"/>
        <rect class="cls-3" x="222.688624469010392" y="629.403268343890886" width="37.037037037036498" height="37.037037037036498"/>
        <rect class="cls-3" x="259.72566150604689" y="629.403268343890886" width="37.037037037038317" height="37.037037037036498"/>
        <rect class="cls-3" x="296.762698543084298" y="629.403268343890886" width="37.037037037038317" height="37.037037037036498"/>
        <rect class="cls-3" x="333.66584445643457" y="555.329194269816071" width="37.037037037036498" height="37.037037037036498"/>
        <rect class="cls-3" x="370.702881493471068" y="555.329194269816071" width="37.037037037038317" height="37.037037037036498"/>
        <rect class="cls-3" x="407.739918530510295" y="555.329194269816071" width="37.037037037038317" height="37.037037037036498"/>
        <rect class="cls-3" x="333.66584445643457" y="592.366231306852569" width="37.037037037036498" height="37.037037037038317"/>
        <rect class="cls-3" x="370.702881493471068" y="592.366231306852569" width="37.037037037038317" height="37.037037037038317"/>
        <rect class="cls-3" x="407.739918530510295" y="592.366231306852569" width="37.037037037038317" height="37.037037037038317"/>
        <rect class="cls-3" x="333.66584445643457" y="629.403268343890886" width="37.037037037036498" height="37.037037037036498"/>
        <rect class="cls-3" x="370.702881493471068" y="629.403268343890886" width="37.037037037038317" height="37.037037037036498"/>
        <rect class="cls-3" x="407.739918530510295" y="629.403268343890886" width="37.037037037038317" height="37.037037037036498"/>
        <rect class="cls-3" x="222.417948322699885" y="444.081298136081386" width="37.037037037036498" height="37.037037037037408"/>
        <rect class="cls-3" x="259.454985359735474" y="444.081298136081386" width="37.037037037038317" height="37.037037037037408"/>
        <rect class="cls-3" x="296.492022396774701" y="444.081298136081386" width="37.037037037038317" height="37.037037037037408"/>
        <rect class="cls-3" x="222.417948322699885" y="481.118335173118794" width="37.037037037036498" height="37.037037037037408"/>
        <rect class="cls-3" x="259.454985359735474" y="481.118335173118794" width="37.037037037038317" height="37.037037037037408"/>
        <rect class="cls-3" x="296.492022396774701" y="481.118335173118794" width="37.037037037038317" height="37.037037037037408"/>
        <rect class="cls-3" x="222.417948322699885" y="518.155372210156202" width="37.037037037036498" height="37.037037037036498"/>
        <rect class="cls-3" x="259.454985359735474" y="518.155372210156202" width="37.037037037038317" height="37.037037037036498"/>
        <rect class="cls-3" x="296.492022396774701" y="518.155372210156202" width="37.037037037038317" height="37.037037037036498"/>
        <rect class="cls-3" x="333.395168310124063" y="444.081298136081386" width="37.037037037036498" height="37.037037037037408"/>
        <rect class="cls-3" x="370.432205347161471" y="444.081298136081386" width="37.037037037038317" height="37.037037037037408"/>
        <rect class="cls-3" x="407.469242384198878" y="444.081298136081386" width="37.037037037038317" height="37.037037037037408"/>
        <rect class="cls-3" x="333.395168310124063" y="481.118335173118794" width="37.037037037036498" height="37.037037037037408"/>
        <rect class="cls-3" x="370.432205347161471" y="481.118335173118794" width="37.037037037038317" height="37.037037037037408"/>
        <rect class="cls-3" x="407.469242384198878" y="481.118335173118794" width="37.037037037038317" height="37.037037037037408"/>
        <rect class="cls-3" x="333.395168310124063" y="518.155372210156202" width="37.037037037036498" height="37.037037037036498"/>
        <rect class="cls-3" x="370.432205347161471" y="518.155372210156202" width="37.037037037038317" height="37.037037037036498"/>
        <rect class="cls-3" x="407.469242384198878" y="518.155372210156202" width="37.037037037038317" height="37.037037037036498"/>
        <rect class="cls-3" x="444.913740590171074" y="444.081298136081386" width="37.037037037036498" height="37.037037037037408"/>
        <rect class="cls-3" x="481.950777627207572" y="444.081298136081386" width="37.037037037038317" height="37.037037037037408"/>
        <rect class="cls-3" x="518.987814664244979" y="444.081298136081386" width="37.037037037038317" height="37.037037037037408"/>
        <rect class="cls-3" x="444.913740590171074" y="481.118335173118794" width="37.037037037036498" height="37.037037037037408"/>
        <rect class="cls-3" x="481.950777627207572" y="481.118335173118794" width="37.037037037038317" height="37.037037037037408"/>
        <rect class="cls-3" x="518.987814664244979" y="481.118335173118794" width="37.037037037038317" height="37.037037037037408"/>
        <rect class="cls-3" x="444.913740590171074" y="518.155372210156202" width="37.037037037036498" height="37.037037037036498"/>
        <rect class="cls-3" x="481.950777627207572" y="518.155372210156202" width="37.037037037038317" height="37.037037037036498"/>
        <rect class="cls-3" x="518.987814664244979" y="518.155372210156202" width="37.037037037038317" height="37.037037037036498"/>
        <g>
          <rect class="cls-3" x="555.871993511904293" y="777.465103494518189" width="37.037037037036498" height="37.037037037038317"/>
          <rect class="cls-3" x="592.909030548940791" y="777.465103494518189" width="37.037037037038317" height="37.037037037038317"/>
          <rect class="cls-3" x="629.946067585980018" y="777.465103494518189" width="37.037037037038317" height="37.037037037038317"/>
          <rect class="cls-3" x="555.871993511904293" y="814.502140531556506" width="37.037037037036498" height="37.037037037036498"/>
          <rect class="cls-3" x="592.909030548940791" y="814.502140531556506" width="37.037037037038317" height="37.037037037036498"/>
          <rect class="cls-3" x="629.946067585980018" y="814.502140531556506" width="37.037037037038317" height="37.037037037036498"/>
          <rect class="cls-3" x="555.871993511904293" y="851.539177568593004" width="37.037037037036498" height="37.037037037038317"/>
          <rect class="cls-3" x="592.909030548940791" y="851.539177568593004" width="37.037037037038317" height="37.037037037038317"/>
          <rect class="cls-3" x="629.946067585980018" y="851.539177568593004" width="37.037037037038317" height="37.037037037038317"/>
        </g>
        <g>
          <rect class="cls-3" x="444.624097378169608" y="777.465103494518189" width="37.037037037036498" height="37.037037037038317"/>
          <rect class="cls-3" x="481.661134415205197" y="777.465103494518189" width="37.037037037038317" height="37.037037037038317"/>
          <rect class="cls-3" x="518.698171452244424" y="777.465103494518189" width="37.037037037038317" height="37.037037037038317"/>
          <rect class="cls-3" x="444.624097378169608" y="814.502140531556506" width="37.037037037036498" height="37.037037037036498"/>
          <rect class="cls-3" x="481.661134415205197" y="814.502140531556506" width="37.037037037038317" height="37.037037037036498"/>
          <rect class="cls-3" x="518.698171452244424" y="814.502140531556506" width="37.037037037038317" height="37.037037037036498"/>
          <rect class="cls-3" x="444.624097378169608" y="851.539177568593004" width="37.037037037036498" height="37.037037037038317"/>
          <rect class="cls-3" x="481.661134415205197" y="851.539177568593004" width="37.037037037038317" height="37.037037037038317"/>
          <rect class="cls-3" x="518.698171452244424" y="851.539177568593004" width="37.037037037038317" height="37.037037037038317"/>
        </g>
        <g>
          <rect class="cls-3" x="444.624097378169608" y="666.307432742885794" width="37.037037037036498" height="37.037037037038317"/>
          <rect class="cls-3" x="481.661134415205197" y="666.307432742885794" width="37.037037037038317" height="37.037037037038317"/>
          <rect class="cls-3" x="518.698171452244424" y="666.307432742885794" width="37.037037037038317" height="37.037037037038317"/>
          <rect class="cls-3" x="444.624097378169608" y="703.344469779924111" width="37.037037037036498" height="37.037037037036498"/>
          <rect class="cls-3" x="481.661134415205197" y="703.344469779924111" width="37.037037037038317" height="37.037037037036498"/>
          <rect class="cls-3" x="518.698171452244424" y="703.344469779924111" width="37.037037037038317" height="37.037037037036498"/>
          <rect class="cls-3" x="444.624097378169608" y="740.381506816960609" width="37.037037037036498" height="37.037037037038317"/>
          <rect class="cls-3" x="481.661134415205197" y="740.381506816960609" width="37.037037037038317" height="37.037037037038317"/>
          <rect class="cls-3" x="518.698171452244424" y="740.381506816960609" width="37.037037037038317" height="37.037037037038317"/>
        </g>
        <g>
          <rect class="cls-3" x="555.781768129800184" y="666.307432742885794" width="37.037037037036498" height="37.037037037038317"/>
          <rect class="cls-3" x="592.818805166836682" y="666.307432742885794" width="37.037037037038317" height="37.037037037038317"/>
          <rect class="cls-3" x="629.855842203875909" y="666.307432742885794" width="37.037037037038317" height="37.037037037038317"/>
          <rect class="cls-3" x="555.781768129800184" y="703.344469779924111" width="37.037037037036498" height="37.037037037036498"/>
          <rect class="cls-3" x="592.818805166836682" y="703.344469779924111" width="37.037037037038317" height="37.037037037036498"/>
          <rect class="cls-3" x="629.855842203875909" y="703.344469779924111" width="37.037037037038317" height="37.037037037036498"/>
          <rect class="cls-3" x="555.781768129800184" y="740.381506816960609" width="37.037037037036498" height="37.037037037038317"/>
          <rect class="cls-3" x="592.818805166836682" y="740.381506816960609" width="37.037037037038317" height="37.037037037038317"/>
          <rect class="cls-3" x="629.855842203875909" y="740.381506816960609" width="37.037037037038317" height="37.037037037038317"/>
        </g>
        <g>
          <rect class="cls-3" x="666.93943888143076" y="666.307432742885794" width="37.037037037036498" height="37.037037037038317"/>
          <rect class="cls-3" x="703.976475918468168" y="666.307432742885794" width="37.037037037038317" height="37.037037037038317"/>
          <rect class="cls-3" x="741.013512955505576" y="666.307432742885794" width="37.037037037038317" height="37.037037037038317"/>
          <rect class="cls-3" x="666.93943888143076" y="703.344469779924111" width="37.037037037036498" height="37.037037037036498"/>
          <rect class="cls-3" x="703.976475918468168" y="703.344469779924111" width="37.037037037038317" height="37.037037037036498"/>
          <rect class="cls-3" x="741.013512955505576" y="703.344469779924111" width="37.037037037038317" height="37.037037037036498"/>
          <rect class="cls-3" x="666.93943888143076" y="740.381506816960609" width="37.037037037036498" height="37.037037037038317"/>
          <rect class="cls-3" x="703.976475918468168" y="740.381506816960609" width="37.037037037038317" height="37.037037037038317"/>
          <rect class="cls-3" x="741.013512955505576" y="740.381506816960609" width="37.037037037038317" height="37.037037037038317"/>
        </g>
        <g>
          <rect class="cls-3" x="666.849213499328471" y="777.465103494518189" width="37.037037037036498" height="37.037037037038317"/>
          <rect class="cls-3" x="703.886250536364969" y="777.465103494518189" width="37.037037037038317" height="37.037037037038317"/>
          <rect class="cls-3" x="740.923287573402376" y="777.465103494518189" width="37.037037037038317" height="37.037037037038317"/>
          <rect class="cls-3" x="666.849213499328471" y="814.502140531556506" width="37.037037037036498" height="37.037037037036498"/>
          <rect class="cls-3" x="703.886250536364969" y="814.502140531556506" width="37.037037037038317" height="37.037037037036498"/>
          <rect class="cls-3" x="740.923287573402376" y="814.502140531556506" width="37.037037037038317" height="37.037037037036498"/>
          <rect class="cls-3" x="666.849213499328471" y="851.539177568593004" width="37.037037037036498" height="37.037037037038317"/>
          <rect class="cls-3" x="703.886250536364969" y="851.539177568593004" width="37.037037037038317" height="37.037037037038317"/>
          <rect class="cls-3" x="740.923287573402376" y="851.539177568593004" width="37.037037037038317" height="37.037037037038317"/>
        </g>
        <rect class="cls-3" x="666.849213499328471" y="333.104078148657209" width="37.037037037036498" height="37.037037037037408"/>
        <rect class="cls-3" x="703.886250536364969" y="333.104078148657209" width="37.037037037038317" height="37.037037037037408"/>
        <rect class="cls-3" x="740.923287573402376" y="333.104078148657209" width="37.037037037038317" height="37.037037037037408"/>
        <rect class="cls-3" x="666.849213499328471" y="370.141115185694616" width="37.037037037036498" height="37.037037037036498"/>
        <rect class="cls-3" x="703.886250536364969" y="370.141115185694616" width="37.037037037038317" height="37.037037037036498"/>
        <rect class="cls-3" x="740.923287573402376" y="370.141115185694616" width="37.037037037038317" height="37.037037037036498"/>
        <rect class="cls-3" x="666.849213499328471" y="407.178152222731114" width="37.037037037036498" height="37.037037037037408"/>
        <rect class="cls-3" x="703.886250536364969" y="407.178152222731114" width="37.037037037038317" height="37.037037037037408"/>
        <rect class="cls-3" x="740.923287573402376" y="407.178152222731114" width="37.037037037038317" height="37.037037037037408"/>
        <g>
          <rect class="cls-3" x="889.34500576679784" y="554.787841977195058" width="37.037037037036498" height="37.037037037038317"/>
          <rect class="cls-3" x="926.382042803834338" y="554.787841977195058" width="37.037037037038317" height="37.037037037038317"/>
          <rect class="cls-3" x="963.419079840873565" y="554.787841977195058" width="37.037037037038317" height="37.037037037038317"/>
          <rect class="cls-3" x="889.34500576679784" y="591.824879014233375" width="37.037037037036498" height="37.037037037036498"/>
          <rect class="cls-3" x="926.382042803834338" y="591.824879014233375" width="37.037037037038317" height="37.037037037036498"/>
          <rect class="cls-3" x="963.419079840873565" y="591.824879014233375" width="37.037037037038317" height="37.037037037036498"/>
          <rect class="cls-3" x="889.34500576679784" y="628.861916051269873" width="37.037037037036498" height="37.037037037038317"/>
          <rect class="cls-3" x="926.382042803834338" y="628.861916051269873" width="37.037037037038317" height="37.037037037038317"/>
          <rect class="cls-3" x="963.419079840873565" y="628.861916051269873" width="37.037037037038317" height="37.037037037038317"/>
        </g>
        <g>
          <rect class="cls-3" x="889.34500576679784" y="665.945512728825634" width="37.037037037036498" height="37.037037037038317"/>
          <rect class="cls-3" x="926.382042803834338" y="665.945512728825634" width="37.037037037038317" height="37.037037037038317"/>
          <rect class="cls-3" x="963.419079840873565" y="665.945512728825634" width="37.037037037038317" height="37.037037037038317"/>
          <rect class="cls-3" x="889.34500576679784" y="702.982549765863951" width="37.037037037036498" height="37.037037037036498"/>
          <rect class="cls-3" x="926.382042803834338" y="702.982549765863951" width="37.037037037038317" height="37.037037037036498"/>
          <rect class="cls-3" x="963.419079840873565" y="702.982549765863951" width="37.037037037038317" height="37.037037037036498"/>
          <rect class="cls-3" x="889.34500576679784" y="740.019586802900449" width="37.037037037036498" height="37.037037037038317"/>
          <rect class="cls-3" x="926.382042803834338" y="740.019586802900449" width="37.037037037038317" height="37.037037037038317"/>
          <rect class="cls-3" x="963.419079840873565" y="740.019586802900449" width="37.037037037038317" height="37.037037037038317"/>
        </g>
        <g>
          <rect class="cls-3" x="778.367785779371843" y="665.945512728825634" width="37.037037037036498" height="37.037037037038317"/>
          <rect class="cls-3" x="815.404822816409251" y="665.945512728825634" width="37.037037037038317" height="37.037037037038317"/>
          <rect class="cls-3" x="852.441859853446658" y="665.945512728825634" width="37.037037037038317" height="37.037037037038317"/>
          <rect class="cls-3" x="778.367785779371843" y="702.982549765863951" width="37.037037037036498" height="37.037037037036498"/>
          <rect class="cls-3" x="815.404822816409251" y="702.982549765863951" width="37.037037037038317" height="37.037037037036498"/>
          <rect class="cls-3" x="852.441859853446658" y="702.982549765863951" width="37.037037037038317" height="37.037037037036498"/>
          <rect class="cls-3" x="778.367785779371843" y="740.019586802900449" width="37.037037037036498" height="37.037037037038317"/>
          <rect class="cls-3" x="815.404822816409251" y="740.019586802900449" width="37.037037037038317" height="37.037037037038317"/>
          <rect class="cls-3" x="852.441859853446658" y="740.019586802900449" width="37.037037037038317" height="37.037037037038317"/>
        </g>
        <g>
          <rect class="cls-3" x="667.122783544578851" y="333.104078148657209" width="111.111111111109494" height="111.111111111111313"/>
          <rect class="cls-3" x="778.233894655688346" y="333.104078148657209" width="111.111111111111313" height="111.111111111111313"/>
          <rect class="cls-3" x="889.345005766800568" y="333.104078148657209" width="111.111111111111313" height="111.111111111111313"/>
          <rect class="cls-3" x="667.122783544578851" y="444.215189259768522" width="111.111111111109494" height="111.111111111111313"/>
          <rect class="cls-3" x="889.345005766800568" y="444.215189259768522" width="111.111111111111313" height="111.111111111111313"/>
          <rect class="cls-3" x="667.122783544578851" y="555.326300370879835" width="111.111111111109494" height="111.111111111111313"/>
          <rect class="cls-3" x="778.233894655688346" y="555.326300370879835" width="111.111111111111313" height="111.111111111111313"/>
          <rect class="cls-3" x="889.345005766800568" y="555.326300370879835" width="111.111111111111313" height="111.111111111111313"/>
          <g>
            <rect class="cls-3" x="778.233894655688346" y="444.215189259768522" width="37.037037037036498" height="37.037037037037408"/>
            <rect class="cls-3" x="815.270931692724844" y="444.215189259768522" width="37.037037037038317" height="37.037037037037408"/>
            <rect class="cls-3" x="852.30796872976407" y="444.215189259768522" width="37.037037037038317" height="37.037037037037408"/>
            <rect class="cls-3" x="778.233894655688346" y="481.252226296805929" width="37.037037037036498" height="37.037037037037408"/>
            <rect class="cls-3" x="815.270931692724844" y="481.252226296805929" width="37.037037037038317" height="37.037037037037408"/>
            <rect class="cls-3" x="852.30796872976407" y="481.252226296805929" width="37.037037037038317" height="37.037037037037408"/>
            <rect class="cls-3" x="778.233894655688346" y="518.289263333843337" width="37.037037037036498" height="37.037037037036498"/>
            <rect class="cls-3" x="815.270931692724844" y="518.289263333843337" width="37.037037037038317" height="37.037037037036498"/>
            <rect class="cls-3" x="852.30796872976407" y="518.289263333843337" width="37.037037037038317" height="37.037037037036498"/>
          </g>
          <g>
            <rect class="cls-3" x="889.391565407320741" y="444.215189259768522" width="37.037037037036498" height="37.037037037037408"/>
            <rect class="cls-3" x="926.428602444357239" y="444.215189259768522" width="37.037037037038317" height="37.037037037037408"/>
            <rect class="cls-3" x="963.465639481394646" y="444.215189259768522" width="37.037037037038317" height="37.037037037037408"/>
            <rect class="cls-3" x="889.391565407320741" y="481.252226296805929" width="37.037037037036498" height="37.037037037037408"/>
            <rect class="cls-3" x="926.428602444357239" y="481.252226296805929" width="37.037037037038317" height="37.037037037037408"/>
            <rect class="cls-3" x="963.465639481394646" y="481.252226296805929" width="37.037037037038317" height="37.037037037037408"/>
            <rect class="cls-3" x="889.391565407320741" y="518.289263333843337" width="37.037037037036498" height="37.037037037036498"/>
            <rect class="cls-3" x="926.428602444357239" y="518.289263333843337" width="37.037037037038317" height="37.037037037036498"/>
            <rect class="cls-3" x="963.465639481394646" y="518.289263333843337" width="37.037037037038317" height="37.037037037036498"/>
          </g>
        </g>
        <g>
          <rect class="cls-3" x="667.122783544578851" y="666.577090403554394" width="111.111111111109494" height="111.111111111111313"/>
          <rect class="cls-3" x="778.233894655688346" y="666.577090403554394" width="111.111111111111313" height="111.111111111111313"/>
          <rect class="cls-3" x="889.345005766800568" y="666.577090403554394" width="111.111111111111313" height="111.111111111111313"/>
          <rect class="cls-3" x="667.122783544578851" y="777.688201514665707" width="111.111111111109494" height="111.111111111111313"/>
          <rect class="cls-3" x="778.233894655688346" y="777.688201514665707" width="111.111111111111313" height="111.111111111111313"/>
          <rect class="cls-3" x="889.345005766800568" y="777.688201514665707" width="111.111111111111313" height="111.111111111111313"/>
          <rect class="cls-3" x="667.122783544578851" y="888.79931262577702" width="111.111111111109494" height="111.111111111111313"/>
          <rect class="cls-3" x="778.233894655688346" y="888.79931262577702" width="111.111111111111313" height="111.111111111111313"/>
          <rect class="cls-3" x="889.345005766800568" y="888.79931262577702" width="111.111111111111313" height="111.111111111111313"/>
        </g>
        <g>
          <rect class="cls-3" x="333.649771289683486" y="666.577090403554394" width="111.111111111109494" height="111.111111111111313"/>
          <rect class="cls-3" x="444.76088240079207" y="666.577090403554394" width="111.111111111111313" height="111.111111111111313"/>
          <rect class="cls-3" x="555.871993511904293" y="666.577090403554394" width="111.111111111111313" height="111.111111111111313"/>
          <rect class="cls-3" x="333.649771289683486" y="777.688201514665707" width="111.111111111109494" height="111.111111111111313"/>
          <rect class="cls-3" x="444.76088240079207" y="777.688201514665707" width="111.111111111111313" height="111.111111111111313"/>
          <rect class="cls-3" x="555.871993511904293" y="777.688201514665707" width="111.111111111111313" height="111.111111111111313"/>
          <rect class="cls-3" x="333.649771289683486" y="888.79931262577702" width="111.111111111109494" height="111.111111111111313"/>
          <rect class="cls-3" x="444.76088240079207" y="888.79931262577702" width="111.111111111111313" height="111.111111111111313"/>
          <rect class="cls-3" x="555.871993511904293" y="888.79931262577702" width="111.111111111111313" height="111.111111111111313"/>
        </g>
      </g>
    </g>
    <ellipse class="cls-2" cx="562.242349337991072" cy="808.435413692668135" rx="30.476193432800116" ry="30.711599401766232" transform="translate(-391.23598991492031 1054.531602360938905) rotate(-69.654949622151918)"/>
    <ellipse class="cls-2" cx="525.152142757925503" cy="795.932160388582815" rx="18.6382924909705" ry="8.132536230093118" transform="translate(-25.594260243086865 17.490655479239194) rotate(-1.862726694524119)"/>
    <ellipse class="cls-2" cx="519.389496875252917" cy="814.225198239642395" rx="27.599148708738987" ry="12.263914954222757" transform="translate(-199.932846276520195 169.784751374801431) rotate(-15.609292506105934)"/>
    <ellipse class="cls-2" cx="685.456359455661186" cy="796.592852048703207" rx="25.168801754009813" ry="27.676835211134474" transform="translate(-227.881154637186796 1316.424726796676168) rotate(-78.935136522701001)"/>
    <ellipse class="cls-2" cx="593.176504473856767" cy="802.011109075702279" rx="12.246187726289989" ry="7.452756452447085" transform="translate(-39.463424598044867 30.747921386466828) rotate(-2.873769235977412)"/>
    <ellipse class="cls-4" cx="586.236069852916444" cy="758.6961010425116" rx="55.587515113229713" ry="17.156418265661113" transform="translate(-298.907716934522341 1127.22422757466029) rotate(-74.911456873656419)"/>
    <ellipse class="cls-2" cx="716.527962921723883" cy="801.798672057886506" rx="7.378561310700143" ry="12.124272078037594" transform="translate(-238.05355889644477 1296.841650359624282) rotate(-75.625523171977036)"/>
    <ellipse class="cls-4" cx="697.609115065975857" cy="758.171236419970683" rx="43.181622469750714" ry="12.30823262266377" transform="translate(-141.561497977197632 1355.895908290277248) rotate(-82.843716993283451)"/>
    <ellipse class="cls-4" cx="593.273173133451564" cy="715.658117255554316" rx="36.804416926534266" ry="31.361016254121346" transform="translate(-199.901916456120034 1200.439383403674128) rotate(-81.774506991697379)"/>
    <ellipse class="cls-4" cx="703.000156854267516" cy="717.001854679370808" rx="32.505830262985" ry="38.147938824678931"/>
    <ellipse class="cls-4" cx="667.634563679215717" cy="480.874788739788983" rx="61.285229500577721" ry="110.425163437865393" transform="translate(164.83743124522988 1132.159301591764006) rotate(-88.095497834821728)"/>
    <ellipse class="cls-4" cx="667.246034644423162" cy="592.370349872242286" rx="134.699223680580417" ry="221.546706019784494" transform="translate(-34.126655397583704 1143.910241285101392) rotate(-79.778677531624652)"/>
    <ellipse class="cls-4" cx="445.225900560007176" cy="514.8363779056981" rx="39.858650832369129" ry="98.713626782494984" transform="translate(-190.311192559495794 758.506650638628116) rotate(-70.124287075679902)"/>
    <ellipse class="cls-4" cx="360.211034272896541" cy="468.59565271174597" rx="33.980913951641305" ry="73.863085074766914" transform="translate(-230.70781476740558 480.793554219046825) rotate(-53.632945504251495)"/>
    <ellipse class="cls-4" cx="633.457544224387675" cy="661.885305602034805" rx="57.598847531634476" ry="152.17006743318089" transform="translate(-84.559880319712192 1230.929764460697925) rotate(-84.654810389235081)"/>
    <ellipse class="cls-4" cx="253.67717595402064" cy="438.225077690172839" rx="80.140509510331796" ry="60.785514556147042" transform="translate(-33.313563725749418 21.056474299860668) rotate(-4.460548422932164)"/>
    <ellipse class="cls-4" cx="129.484840123022877" cy="474.910071053436923" rx="92.455820639257055" ry="17.566632100988784" transform="translate(-185.723136886914745 96.82300351611957) rotate(-24.566614048621979)"/>
    <ellipse class="cls-2" cx="172.657685459585991" cy="431.466549570558527" rx="24.295285562673051" ry="21.623219921079084" transform="translate(-139.021149559325579 86.74874679872795) rotate(-20.308970394187426)"/>
    <ellipse class="cls-4" cx="875.700303521260139" cy="557.059646017532941" rx="63.421760473152972" ry="38.560094409285831" transform="translate(-6.157001570139869 9.799046060492742) rotate(-.638884509292207)"/>
    <ellipse class="cls-4" cx="896.659985977148608" cy="608.692175651400248" rx="55.246993312310835" ry="90.86755700139723" transform="translate(235.019744145579466 1467.026309623036013) rotate(-86.543827989998704)"/>
    <ellipse class="cls-4" cx="878.376517287610113" cy="665.86582788170972" rx="51.990807087050584" ry="85.511940891066885" transform="translate(-10.859740821211403 1317.157992833451772) rotate(-73.384163501546254)"/>
    <ellipse class="cls-2" cx="536.881442431391406" cy="832.473440140541243" rx="18.638292490969881" ry="8.891725088425698" transform="translate(-295.336334547228375 295.195780594377879) rotate(-24.334908152490954)"/>
    <ellipse class="cls-2" cx="660.764469377438218" cy="776.071161387650136" rx="8.008668796715018" ry="18.326574488654529" transform="translate(-240.993670756276629 1251.179978640926493) rotate(-77.371555119766512)"/>
    <ellipse class="cls-2" cx="661.083359564600869" cy="809.119552130266129" rx="18.541620769142632" ry="7.903046349230822" transform="translate(-76.800939008682121 69.367958788476699) rotate(-5.67738461734132)"/>
    <ellipse class="cls-2" cx="654.950916459117252" cy="789.40231180583578" rx="8.090557952318489" ry="24.719203346538137" transform="translate(-147.622523646426544 1428.145285224869895) rotate(-88.833380915612196)"/>
  </g>
</svg>