<?xml version="1.0" encoding="UTF-8"?>
<svg id="_图层_1" data-name="图层 1" xmlns="http://www.w3.org/2000/svg" viewBox="0 0 1000 1000">
  <defs>
    <style>
      .cls-1 {
        fill: #a4e1ff;
      }

      .cls-1, .cls-2 {
        stroke: #000;
        stroke-miterlimit: 10;
      }

      .cls-2 {
        fill: #005cff;
      }
    </style>
  </defs>
  <ellipse class="cls-1" cx="833.078360513518874" cy="282.783544592939052" rx="55.670154748490162" ry="25.690549038641571" transform="translate(472.988661156974558 1085.479935680972176) rotate(-84.588468593839366)"/>
  <ellipse class="cls-1" cx="869.833021225050743" cy="294.896302140332182" rx="43.468168029582557" ry="19.519462806719709" transform="translate(566.530422797208985 1161.833928279872453) rotate(-89.445359652802637)"/>
  <ellipse class="cls-1" cx="901.005766995888735" cy="289.290214839745659" rx="14.151944074645773" ry="24.649430190098109" transform="translate(-8.869583532592969 29.238168005754176) rotate(-1.850014408952142)"/>
  <ellipse class="cls-1" cx="851.18143848903037" cy="357.499006692842613" rx="73.751429124029357" ry="64.727402638596914" transform="translate(55.151866234454133 825.101723869315492) rotate(-53.213342063751227)"/>
  <ellipse class="cls-1" cx="805.407785283699013" cy="419.958349385643942" rx="102.432696136667346" ry="81.334699940787473" transform="translate(-39.491795579304949 753.41211540400468) rotate(-49.076084799173437)"/>
  <ellipse class="cls-1" cx="633.84565485180201" cy="814.741138210828922" rx="89.734902007732515" ry="19.364845458034022" transform="translate(-203.014279120743367 1419.082835745471812) rotate(-87.953171042779161)"/>
  <ellipse class="cls-1" cx="647.399224126337231" cy="689.97919672055923" rx="54.820202876597889" ry="24.257568799748793" transform="translate(-181.632573549042263 1145.94336828413725) rotate(-75.634206956409713)"/>
  <ellipse class="cls-1" cx="655.740164416561583" cy="642.134324252398073" rx="45.855864180361081" ry="37.253364260345947" transform="translate(-45.642458080032156 1234.075259204479153) rotate(-84.562506032980295)"/>
  <ellipse class="cls-1" cx="598.389311731421685" cy="517.870081905348798" rx="138.930924040731298" ry="216.562520667809565" transform="translate(61.919174782553455 1099.642358908232382) rotate(-88.194117759946863)"/>
  <ellipse class="cls-1" cx="592.696615373168015" cy="336.904911305904079" rx="111.484987719006298" ry="147.649773168398781" transform="translate(-63.533657276153349 152.091420468667167) rotate(-13.886319920365041)"/>
  <ellipse class="cls-1" cx="503.180070141840815" cy="161.963048836811595" rx="55.670296714379951" ry="96.11833747046839" transform="translate(-20.635322675533075 90.972581701825916) rotate(-10.124242721137069)"/>
  <ellipse class="cls-1" cx="352.034900587285847" cy="523.28633583159035" rx="23.608697371130489" ry="111.271773339733102" transform="translate(-220.396615570319909 788.011324846713251) rotate(-80.888270993078578)"/>
  <ellipse class="cls-1" cx="222.655620633740682" cy="523.860157142482421" rx="74.169569204011353" ry="18.94277824824033" transform="translate(-159.045463698598667 101.593331710198413) rotate(-19.084594738935671)"/>
  <ellipse class="cls-1" cx="141.600758486443056" cy="553.441438799672596" rx="43.672011052371047" ry="42.33193899629233" transform="translate(-169.768459653426419 74.486940982234728) rotate(-18.676431517650304)"/>
  <ellipse class="cls-1" cx="589.641953789411218" cy="170.353721235309877" rx="35.138543602326294" ry="77.201185308898857" transform="translate(-6.233187251808545 23.279453273785748) rotate(-2.249892524741644)"/>
  <ellipse class="cls-1" cx="641.198054589779986" cy="189.700032072636759" rx="61.731413400752537" ry="27.38355993399901" transform="translate(411.405013264367199 817.646053269120671) rotate(-86.381188618175969)"/>
  <ellipse class="cls-1" cx="62.599143815527896" cy="572.592934731635523" rx="61.519941542033713" ry="11.852138002787624" transform="translate(-224.375338648152876 73.166295348305482) rotate(-23.642889503899923)"/>
  <ellipse class="cls-2" cx="216.725213258138638" cy="480.963091057270276" rx="105.366806993516562" ry="10.268841044368656" transform="translate(-211.445872592666319 172.799442548085608) rotate(-30.000000000004036)"/>
  <ellipse class="cls-1" cx="854.391024180741624" cy="561.258969013347723" rx="28.87921231632923" ry="70.951941692697432" transform="translate(-39.829494909373238 1056.602603005698711) rotate(-62.285136113231061)"/>
  <ellipse class="cls-1" cx="833.088256870709301" cy="615.367806303243015" rx="40.425664293359461" ry="91.784390899361156" transform="translate(-198.32673698842359 709.69007945708131) rotate(-41.676878107170992)"/>
  <ellipse class="cls-1" cx="544.044414837595014" cy="707.935681848247441" rx="74.996328269289023" ry="24.997447167062553" transform="translate(-290.066093238696908 1026.395907412813358) rotate(-73.354600171487661)"/>
  <ellipse class="cls-1" cx="550.387176405973605" cy="851.192192580680057" rx="22.416172260506624" ry="105.649455267005322" transform="translate(-187.706828606490603 156.446604306018003) rotate(-13.845861460690488)"/>
  <ellipse class="cls-1" cx="564.792979256134913" cy="642.134324252397164" rx="45.855864180361721" ry="40.577479475290112" transform="translate(-185.19112912128719 1053.049688994854478) rotate(-77.38484897862871)"/>
  <ellipse class="cls-1" cx="641.173672761177841" cy="899.775766456938072" rx="15.863413332376487" ry="24.292483701129974" transform="translate(-128.740094844305759 107.353594255303165) rotate(-8.701206840275766)"/>
  <ellipse class="cls-1" cx="598.572099324000192" cy="948.444996840589283" rx="16.052809169941835" ry="30.735672650091587" transform="translate(-447.70503851206422 1352.351695179029093) rotate(-78.852283185674096)"/>
</svg>