<?xml version="1.0" encoding="UTF-8"?>
<svg id="_图层_1" data-name="图层 1" xmlns="http://www.w3.org/2000/svg" viewBox="0 0 1000 1000">
  <defs>
    <style>
      .cls-1 {
        fill: none;
        stroke: #fff;
        stroke-miterlimit: 10;
        stroke-width: .600000023841858px;
      }

      .cls-2 {
        fill: #001738;
      }
    </style>
  </defs>
  <rect class="cls-2" x="-7.857678054803728" y="-5.660057837380009" width="1015.231897251042938" height="1015.231897251043847"/>
  <g>
    <circle class="cls-1" cx="234.52025838036343" cy="506.551976349996494" r="74.169569204011395"/>
    <circle class="cls-1" cx="216.725213258139547" cy="476.737590669812562" r="105.366806993517912"/>
    <circle class="cls-1" cx="550.387176405972468" cy="846.966692193218023" r="105.649455267002324"/>
    <circle class="cls-1" cx="592.696615373166878" cy="332.679410918439771" r="147.64977316839844"/>
    <circle class="cls-1" cx="352.034900587284938" cy="519.060835444126951" r="111.271773339730984"/>
    <circle class="cls-1" cx="544.044414837594331" cy="703.710181460784952" r="74.996328269288824"/>
    <circle class="cls-1" cx="833.08825687071203" cy="611.142305915780526" r="91.784390899359082"/>
    <circle class="cls-1" cx="901.005766995889189" cy="285.064714452281351" r="24.649430190100606"/>
    <circle class="cls-1" cx="503.180070141839906" cy="157.737548449347742" r="96.118337470468873"/>
    <circle class="cls-1" cx="589.641953789410309" cy="166.128220847846933" r="77.201185308900222"/>
    <circle class="cls-1" cx="598.572099324001101" cy="944.21949645312543" r="30.735672650095925"/>
    <circle class="cls-1" cx="641.198054589779076" cy="185.474531685172678" r="61.731413400753567"/>
    <circle class="cls-1" cx="598.389311731421003" cy="513.644581517886763" r="216.562520667808315"/>
    <circle class="cls-1" cx="805.407785283698558" cy="415.73284899817827" r="102.43269613666682"/>
    <circle class="cls-1" cx="851.18143848903037" cy="353.27350630537785" r="73.751429124028391"/>
    <circle class="cls-1" cx="833.078360513517509" cy="278.558044205475653" r="55.670154748493104"/>
    <circle class="cls-1" cx="869.833021225050288" cy="290.670801752868556" r="43.468168029583218"/>
    <circle class="cls-1" cx="854.391024180743443" cy="557.03346862588387" r="70.951941692697773"/>
    <circle class="cls-1" cx="564.792979256135823" cy="637.90882386493513" r="45.855864180365884"/>
    <circle class="cls-1" cx="655.740164416562493" cy="637.90882386493513" r="45.855864180365884"/>
    <circle class="cls-1" cx="647.399224126337231" cy="685.753696333097196" r="54.820202876598643"/>
    <circle class="cls-1" cx="633.845654851801555" cy="810.515637823366887" r="89.734902007730028"/>
    <circle class="cls-1" cx="641.173672761177386" cy="895.550266069476493" r="24.292483701132547"/>
    <circle class="cls-1" cx="62.599143815527896" cy="568.367434344175763" r="61.519941542035944"/>
    <circle class="cls-1" cx="141.600758486443056" cy="549.215938412209653" r="43.672011052370728"/>
  </g>
</svg>